  0
SECTION
  2
HEADER
  9
$ACADVER
  1
AC1032
  9
$ACADMAINTVER
 90
      327
  9
$DWGCODEPAGE
  3
ANSI_1252
  9
$REQUIREDVERSIONS
160
                 0
  9
$INSBASE
 10
0.0
 20
0.0
 30
0.0
  9
$EXTMIN
 10
1.000000000000000E+20
 20
1.000000000000000E+20
 30
1.000000000000000E+20
  9
$EXTMAX
 10
-1.000000000000000E+20
 20
-1.000000000000000E+20
 30
-1.000000000000000E+20
  9
$LIMMIN
 10
0.0
 20
0.0
  9
$LIMMAX
 10
12.0
 20
9.0
  9
$ORTHOMODE
 70
     0
  9
$REGENMODE
 70
     1
  9
$FILLMODE
 70
     1
  9
$QTEXTMODE
 70
     0
  9
$MIRRTEXT
 70
     0
  9
$LTSCALE
 40
1.0
  9
$ATTMODE
 70
     1
  9
$TEXTSIZE
 40
0.2
  9
$TRACEWID
 40
0.05
  9
$TEXTSTYLE
  7
Standard
  9
$CLAYER
  8
0
  9
$CELTYPE
  6
ByLayer
  9
$CECOLOR
 62
   256
  9
$CELTSCALE
 40
1.0
  9
$DISPSILH
 70
     0
  9
$DIMSCALE
 40
1.0
  9
$DIMASZ
 40
0.18
  9
$DIMEXO
 40
0.0625
  9
$DIMDLI
 40
0.38
  9
$DIMRND
 40
0.0
  9
$DIMDLE
 40
0.0
  9
$DIMEXE
 40
0.18
  9
$DIMTP
 40
0.0
  9
$DIMTM
 40
0.0
  9
$DIMTXT
 40
0.18
  9
$DIMCEN
 40
0.09
  9
$DIMTSZ
 40
0.0
  9
$DIMTOL
 70
     0
  9
$DIMLIM
 70
     0
  9
$DIMTIH
 70
     1
  9
$DIMTOH
 70
     1
  9
$DIMSE1
 70
     0
  9
$DIMSE2
 70
     0
  9
$DIMTAD
 70
     0
  9
$DIMZIN
 70
     0
  9
$DIMBLK
  1

  9
$DIMASO
 70
     1
  9
$DIMSHO
 70
     1
  9
$DIMPOST
  1

  9
$DIMAPOST
  1

  9
$DIMALT
 70
     0
  9
$DIMALTD
 70
     2
  9
$DIMALTF
 40
25.4
  9
$DIMLFAC
 40
1.0
  9
$DIMTOFL
 70
     0
  9
$DIMTVP
 40
0.0
  9
$DIMTIX
 70
     0
  9
$DIMSOXD
 70
     0
  9
$DIMSAH
 70
     0
  9
$DIMBLK1
  1

  9
$DIMBLK2
  1

  9
$DIMSTYLE
  2
Standard
  9
$DIMCLRD
 70
     0
  9
$DIMCLRE
 70
     0
  9
$DIMCLRT
 70
     0
  9
$DIMTFAC
 40
1.0
  9
$DIMGAP
 40
0.09
  9
$DIMJUST
 70
     0
  9
$DIMSD1
 70
     0
  9
$DIMSD2
 70
     0
  9
$DIMTOLJ
 70
     1
  9
$DIMTZIN
 70
     0
  9
$DIMALTZ
 70
     0
  9
$DIMALTTZ
 70
     0
  9
$DIMUPT
 70
     0
  9
$DIMDEC
 70
     4
  9
$DIMTDEC
 70
     4
  9
$DIMALTU
 70
     2
  9
$DIMALTTD
 70
     2
  9
$DIMTXSTY
  7
Standard
  9
$DIMAUNIT
 70
     0
  9
$DIMADEC
 70
     0
  9
$DIMALTRND
 40
0.0
  9
$DIMAZIN
 70
     0
  9
$DIMDSEP
 70
    46
  9
$DIMATFIT
 70
     3
  9
$DIMFRAC
 70
     0
  9
$DIMLDRBLK
  1

  9
$DIMLUNIT
 70
     2
  9
$DIMLWD
 70
    -2
  9
$DIMLWE
 70
    -2
  9
$DIMTMOVE
 70
     0
  9
$DIMFXL
 40
1.0
  9
$DIMFXLON
 70
     0
  9
$DIMJOGANG
 40
0.7853981633974483
  9
$DIMTFILL
 70
     0
  9
$DIMTFILLCLR
 70
     0
  9
$DIMARCSYM
 70
     0
  9
$DIMLTYPE
  6

  9
$DIMLTEX1
  6

  9
$DIMLTEX2
  6

  9
$DIMTXTDIRECTION
 70
     0
  9
$LUNITS
 70
     2
  9
$LUPREC
 70
     4
  9
$SKETCHINC
 40
0.1
  9
$FILLETRAD
 40
0.0
  9
$AUNITS
 70
     0
  9
$AUPREC
 70
     0
  9
$MENU
  1
.
  9
$ELEVATION
 40
0.0
  9
$PELEVATION
 40
0.0
  9
$THICKNESS
 40
0.0
  9
$LIMCHECK
 70
     0
  9
$CHAMFERA
 40
0.0
  9
$CHAMFERB
 40
0.0
  9
$CHAMFERC
 40
0.0
  9
$CHAMFERD
 40
0.0
  9
$SKPOLY
 70
     0
  9
$TDCREATE
 40
2460694.935104167
  9
$TDUCREATE
 40
2460695.226770833
  9
$TDUPDATE
 40
2460694.935104167
  9
$TDUUPDATE
 40
2460695.226770833
  9
$TDINDWG
 40
0.0000000000
  9
$TDUSRTIMER
 40
0.0000000000
  9
$USRTIMER
 70
     1
  9
$ANGBASE
 50
0.0
  9
$ANGDIR
 70
     0
  9
$PDMODE
 70
     0
  9
$PDSIZE
 40
0.0
  9
$PLINEWID
 40
0.0
  9
$SPLFRAME
 70
     0
  9
$SPLINETYPE
 70
     6
  9
$SPLINESEGS
 70
     8
  9
$HANDSEED
  5
A6
  9
$SURFTAB1
 70
     6
  9
$SURFTAB2
 70
     6
  9
$SURFTYPE
 70
     6
  9
$SURFU
 70
     6
  9
$SURFV
 70
     6
  9
$UCSBASE
  2

  9
$UCSNAME
  2

  9
$UCSORG
 10
0.0
 20
0.0
 30
0.0
  9
$UCSXDIR
 10
1.0
 20
0.0
 30
0.0
  9
$UCSYDIR
 10
0.0
 20
1.0
 30
0.0
  9
$UCSORTHOREF
  2

  9
$UCSORTHOVIEW
 70
     0
  9
$UCSORGTOP
 10
0.0
 20
0.0
 30
0.0
  9
$UCSORGBOTTOM
 10
0.0
 20
0.0
 30
0.0
  9
$UCSORGLEFT
 10
0.0
 20
0.0
 30
0.0
  9
$UCSORGRIGHT
 10
0.0
 20
0.0
 30
0.0
  9
$UCSORGFRONT
 10
0.0
 20
0.0
 30
0.0
  9
$UCSORGBACK
 10
0.0
 20
0.0
 30
0.0
  9
$PUCSBASE
  2

  9
$PUCSNAME
  2

  9
$PUCSORG
 10
0.0
 20
0.0
 30
0.0
  9
$PUCSXDIR
 10
1.0
 20
0.0
 30
0.0
  9
$PUCSYDIR
 10
0.0
 20
1.0
 30
0.0
  9
$PUCSORTHOREF
  2

  9
$PUCSORTHOVIEW
 70
     0
  9
$PUCSORGTOP
 10
0.0
 20
0.0
 30
0.0
  9
$PUCSORGBOTTOM
 10
0.0
 20
0.0
 30
0.0
  9
$PUCSORGLEFT
 10
0.0
 20
0.0
 30
0.0
  9
$PUCSORGRIGHT
 10
0.0
 20
0.0
 30
0.0
  9
$PUCSORGFRONT
 10
0.0
 20
0.0
 30
0.0
  9
$PUCSORGBACK
 10
0.0
 20
0.0
 30
0.0
  9
$USERI1
 70
     0
  9
$USERI2
 70
     0
  9
$USERI3
 70
     0
  9
$USERI4
 70
     0
  9
$USERI5
 70
     0
  9
$USERR1
 40
0.0
  9
$USERR2
 40
0.0
  9
$USERR3
 40
0.0
  9
$USERR4
 40
0.0
  9
$USERR5
 40
0.0
  9
$WORLDVIEW
 70
     1
  9
$SHADEDGE
 70
     3
  9
$SHADEDIF
 70
    70
  9
$TILEMODE
 70
     1
  9
$MAXACTVP
 70
    64
  9
$PINSBASE
 10
0.0
 20
0.0
 30
0.0
  9
$PLIMCHECK
 70
     0
  9
$PEXTMIN
 10
1.000000000000000E+20
 20
1.000000000000000E+20
 30
1.000000000000000E+20
  9
$PEXTMAX
 10
-1.000000000000000E+20
 20
-1.000000000000000E+20
 30
-1.000000000000000E+20
  9
$PLIMMIN
 10
0.0
 20
0.0
  9
$PLIMMAX
 10
12.0
 20
9.0
  9
$UNITMODE
 70
     0
  9
$VISRETAIN
 70
     1
  9
$PLINEGEN
 70
     0
  9
$PSLTSCALE
 70
     1
  9
$TREEDEPTH
 70
  3020
  9
$CMLSTYLE
  2
Standard
  9
$CMLJUST
 70
     0
  9
$CMLSCALE
 40
1.0
  9
$PROXYGRAPHICS
 70
     1
  9
$MEASUREMENT
 70
     0
  9
$CELWEIGHT
370
    -1
  9
$ENDCAPS
280
     0
  9
$JOINSTYLE
280
     0
  9
$LWDISPLAY
290
     1
  9
$INSUNITS
 70
     0
  9
$HYPERLINKBASE
  1

  9
$STYLESHEET
  1

  9
$XEDIT
290
     1
  9
$CEPSNTYPE
380
     0
  9
$PSTYLEMODE
290
     1
  9
$FINGERPRINTGUID
  2
{5BC18484-816C-BB44-8F9B-72D74B0F9044}
  9
$VERSIONGUID
  2
{6517DD54-8728-6C46-8EAD-928A5C5B9194}
  9
$EXTNAMES
290
     1
  9
$PSVPSCALE
 40
0.0
  9
$OLESTARTUP
290
     0
  9
$SORTENTS
280
   127
  9
$INDEXCTL
280
     0
  9
$HIDETEXT
280
     1
  9
$XCLIPFRAME
280
     2
  9
$HALOGAP
280
     0
  9
$OBSCOLOR
 70
   257
  9
$OBSLTYPE
280
     0
  9
$INTERSECTIONDISPLAY
280
     0
  9
$INTERSECTIONCOLOR
 70
   257
  9
$DIMASSOC
280
     2
  9
$PROJECTNAME
  1

  9
$CAMERADISPLAY
290
     0
  9
$LENSLENGTH
 40
50.0
  9
$CAMERAHEIGHT
 40
0.0
  9
$STEPSPERSEC
 40
2.0
  9
$STEPSIZE
 40
6.0
  9
$3DDWFPREC
 40
2.0
  9
$PSOLWIDTH
 40
0.25
  9
$PSOLHEIGHT
 40
4.0
  9
$LOFTANG1
 40
1.570796326794896
  9
$LOFTANG2
 40
1.570796326794896
  9
$LOFTMAG1
 40
0.0
  9
$LOFTMAG2
 40
0.0
  9
$LOFTPARAM
 70
     7
  9
$LOFTNORMALS
280
     1
  9
$LATITUDE
 40
37.795
  9
$LONGITUDE
 40
-122.394
  9
$NORTHDIRECTION
 40
0.0
  9
$TIMEZONE
 70
 -8000
  9
$LIGHTGLYPHDISPLAY
280
     1
  9
$TILEMODELIGHTSYNCH
280
     1
  9
$CMATERIAL
347
11
  9
$SOLIDHIST
280
     0
  9
$SHOWHIST
280
     1
  9
$DWFFRAME
280
     2
  9
$DGNFRAME
280
     0
  9
$REALWORLDSCALE
290
     1
  9
$INTERFERECOLOR
 62
     1
  9
$INTERFEREOBJVS
345
33
  9
$INTERFEREVPVS
346
30
  9
$CSHADOW
280
     0
  9
$SHADOWPLANELOCATION
 40
0.0
  0
ENDSEC
  0
SECTION
  2
CLASSES
  0
CLASS
  1
ACDBDICTIONARYWDFLT
  2
AcDbDictionaryWithDefault
  3
ObjectDBX Classes
 90
        0
 91
        1
280
     0
281
     0
  0
CLASS
  1
MATERIAL
  2
AcDbMaterial
  3
ObjectDBX Classes
 90
     1153
 91
        3
280
     0
281
     0
  0
CLASS
  1
VISUALSTYLE
  2
AcDbVisualStyle
  3
ObjectDBX Classes
 90
     4095
 91
       24
280
     0
281
     0
  0
CLASS
  1
SCALE
  2
AcDbScale
  3
ObjectDBX Classes
 90
     1153
 91
       17
280
     0
281
     0
  0
CLASS
  1
TABLESTYLE
  2
AcDbTableStyle
  3
ObjectDBX Classes
 90
     4095
 91
        1
280
     0
281
     0
  0
CLASS
  1
MLEADERSTYLE
  2
AcDbMLeaderStyle
  3
ACDB_MLEADERSTYLE_CLASS
 90
     4095
 91
        1
280
     0
281
     0
  0
CLASS
  1
ACDBSECTIONVIEWSTYLE
  2
AcDbSectionViewStyle
  3
ObjectDBX Classes
 90
     1025
 91
        1
280
     0
281
     0
  0
CLASS
  1
ACDBDETAILVIEWSTYLE
  2
AcDbDetailViewStyle
  3
ObjectDBX Classes
 90
     1025
 91
        1
280
     0
281
     0
  0
CLASS
  1
DICTIONARYVAR
  2
AcDbDictionaryVar
  3
ObjectDBX Classes
 90
        0
 91
        5
280
     0
281
     0
  0
CLASS
  1
CELLSTYLEMAP
  2
AcDbCellStyleMap
  3
ObjectDBX Classes
 90
     1152
 91
        1
280
     0
281
     0
  0
ENDSEC
  0
SECTION
  2
TABLES
  0
TABLE
  2
VPORT
  5
8
330
0
100
AcDbSymbolTable
 70
     1
  0
VPORT
  5
57
330
8
100
AcDbSymbolTableRecord
100
AcDbViewportTableRecord
  2
*Active
 70
     0
 10
0.0
 20
0.0
 11
1.0
 21
1.0
 12
0.0
 22
0.0
 13
0.0
 23
0.0
 14
1.0
 24
1.0
 15
0.0
 25
0.0
 16
0.0
 26
0.0
 36
1.0
 17
144.0
 27
-280.0
 37
0.0
 40
571.2
 41
0.5142857142857143
 42
50.0
 43
0.0
 44
0.0
 50
0.0
 51
0.0
 71
     0
 72
   100
 73
     1
 74
     1
 75
     0
 76
     0
 77
     0
 78
     0
281
     0
 65
     1
110
0.0
120
0.0
130
0.0
111
1.0
121
0.0
131
0.0
112
0.0
122
1.0
132
0.0
 79
     0
146
0.0
 60
     3
 61
     5
292
     1
282
     1
141
0.0
142
0.0
 63
   250
421
  3355443
  0
ENDTAB
  0
TABLE
  2
LTYPE
  5
5
330
0
100
AcDbSymbolTable
 70
     1
  0
LTYPE
  5
5B
330
5
100
AcDbSymbolTableRecord
100
AcDbLinetypeTableRecord
  2
ByBlock
 70
     0
  3

 72
    65
 73
     0
 40
0.0
  0
LTYPE
  5
5C
330
5
100
AcDbSymbolTableRecord
100
AcDbLinetypeTableRecord
  2
ByLayer
 70
     0
  3

 72
    65
 73
     0
 40
0.0
  0
LTYPE
  5
5D
330
5
100
AcDbSymbolTableRecord
100
AcDbLinetypeTableRecord
  2
Continuous
 70
     0
  3
Solid line
 72
    65
 73
     0
 40
0.0
  0
ENDTAB
  0
TABLE
  2
LAYER
  5
2
330
0
100
AcDbSymbolTable
 70
     2
  0
LAYER
  5
54
330
2
100
AcDbSymbolTableRecord
100
AcDbLayerTableRecord
  2
0
 70
     0
 62
     7
  6
Continuous
370
    -3
390
F
347
21
348
0
  0
LAYER
  5
78
330
2
100
AcDbSymbolTableRecord
100
AcDbLayerTableRecord
  2
Layer 1
 70
     0
 62
     7
  6
Continuous
370
     0
390
F
347
21
348
0
  0
ENDTAB
  0
TABLE
  2
STYLE
  5
3
330
0
100
AcDbSymbolTable
 70
     2
  0
STYLE
  5
55
330
3
100
AcDbSymbolTableRecord
100
AcDbTextStyleTableRecord
  2
Standard
 70
     0
 40
0.0
 41
1.0
 50
0.0
 71
     0
 42
0.2
  3
txt
  4

  0
STYLE
  5
5A
330
3
100
AcDbSymbolTableRecord
100
AcDbTextStyleTableRecord
  2
Annotative
 70
     0
 40
0.0
 41
1.0
 50
0.0
 71
     0
 42
0.2
  3
txt
  4

1001
AcadAnnotative
1000
AnnotativeData
1002
{
1070
     1
1070
     1
1002
}
  0
ENDTAB
  0
TABLE
  2
VIEW
  5
6
330
0
100
AcDbSymbolTable
 70
     0
  0
ENDTAB
  0
TABLE
  2
UCS
  5
7
330
0
100
AcDbSymbolTable
 70
     0
  0
ENDTAB
  0
TABLE
  2
APPID
  5
9
330
0
100
AcDbSymbolTable
 70
     2
  0
APPID
  5
56
330
9
100
AcDbSymbolTableRecord
100
AcDbRegAppTableRecord
  2
ACAD
 70
     0
  0
APPID
  5
5E
330
9
100
AcDbSymbolTableRecord
100
AcDbRegAppTableRecord
  2
AcadAnnotative
 70
     0
  0
ENDTAB
  0
TABLE
  2
DIMSTYLE
  5
A
330
0
100
AcDbSymbolTable
 70
     2
100
AcDbDimStyleTable
 71
     0
  0
DIMSTYLE
105
58
330
A
100
AcDbSymbolTableRecord
100
AcDbDimStyleTableRecord
  2
Standard
 70
     0
340
55
  0
DIMSTYLE
105
59
330
A
100
AcDbSymbolTableRecord
100
AcDbDimStyleTableRecord
  2
Annotative
 70
     0
340
55
1001
AcadAnnotative
1000
AnnotativeData
1002
{
1070
     1
1070
     1
1002
}
  0
ENDTAB
  0
TABLE
  2
BLOCK_RECORD
  5
1
330
0
100
AcDbSymbolTable
 70
     3
  0
BLOCK_RECORD
  5
70
330
1
100
AcDbSymbolTableRecord
100
AcDbBlockTableRecord
  2
*Model_Space
340
73
 70
     0
280
     1
281
     0
  0
BLOCK_RECORD
  5
6C
330
1
100
AcDbSymbolTableRecord
100
AcDbBlockTableRecord
  2
*Paper_Space
340
6F
 70
     0
280
     1
281
     0
  0
BLOCK_RECORD
  5
74
330
1
100
AcDbSymbolTableRecord
100
AcDbBlockTableRecord
  2
*Paper_Space0
340
77
 70
     0
280
     1
281
     0
  0
BLOCK_RECORD
  5
79
330
1
100
AcDbSymbolTableRecord
100
AcDbBlockTableRecord
  2
Block_0
340
0
102
{BLKREFS
331
7A
102
}
 70
     0
280
     1
281
     0
  0
BLOCK_RECORD
  5
84
330
1
100
AcDbSymbolTableRecord
100
AcDbBlockTableRecord
  2
Block_1
340
0
102
{BLKREFS
331
85
102
}
 70
     0
280
     1
281
     0
  0
ENDTAB
  0
ENDSEC
  0
SECTION
  2
BLOCKS
  0
BLOCK
  5
71
330
70
100
AcDbEntity
  8
0
100
AcDbBlockBegin
  2
*Model_Space
 70
     0
 10
0.0
 20
0.0
 30
0.0
  3
*Model_Space
  1

  0
ENDBLK
  5
72
330
70
100
AcDbEntity
  8
0
100
AcDbBlockEnd
  0
BLOCK
  5
6D
330
6C
100
AcDbEntity
 67
     1
  8
0
100
AcDbBlockBegin
  2
*Paper_Space
 70
     0
 10
0.0
 20
0.0
 30
0.0
  3
*Paper_Space
  1

  0
ENDBLK
  5
6E
330
6C
100
AcDbEntity
 67
     1
  8
0
100
AcDbBlockEnd
  0
BLOCK
  5
75
330
74
100
AcDbEntity
 67
     1
  8
0
100
AcDbBlockBegin
  2
*Paper_Space0
 70
     0
 10
0.0
 20
0.0
 30
0.0
  3
*Paper_Space0
  1

  0
ENDBLK
  5
76
330
74
100
AcDbEntity
 67
     1
  8
0
100
AcDbBlockEnd
  0
BLOCK
  5
7B
330
79
100
AcDbEntity
  8
0
100
AcDbBlockBegin
  2
Block_0
 70
     0
 10
0.0
 20
0.0
 30
0.0
  3
Block_0
  1

  0
SPLINE
  5
7D
330
79
100
AcDbEntity
  8
Layer 1
100
AcDbSpline
210
0.0
220
0.0
230
1.0
 70
    11
 71
     3
 72
    17
 73
    13
 74
     0
 42
0.0000000001
 43
0.0000000001
 40
0.0
 40
0.0
 40
0.0
 40
0.0
 40
1.0
 40
1.0
 40
1.0
 40
2.0
 40
2.0
 40
2.0
 40
3.0
 40
3.0
 40
3.0
 40
4.0
 40
4.0
 40
4.0
 40
4.0
 10
161.4561814961416
 20
-297.8063058875705
 30
0.0
 10
161.4561814961416
 20
-297.8063058875705
 30
0.0
 10
126.8451285001292
 20
-297.8063058875705
 30
0.0
 10
126.8451285001292
 20
-297.8063058875705
 30
0.0
 10
126.8451285001292
 20
-297.8063058875705
 30
0.0
 10
126.8451285001292
 20
-263.1952667276228
 30
0.0
 10
126.8451285001292
 20
-263.1952667276228
 30
0.0
 10
126.8451285001292
 20
-263.1952667276228
 30
0.0
 10
161.4561814961416
 20
-263.1952667276228
 30
0.0
 10
161.4561814961416
 20
-263.1952667276228
 30
0.0
 10
161.4561814961416
 20
-263.1952667276228
 30
0.0
 10
161.4561814961416
 20
-297.8063058875705
 30
0.0
 10
161.4561814961416
 20
-297.8063058875705
 30
0.0
  0
SPLINE
  5
7E
330
79
100
AcDbEntity
  8
Layer 1
100
AcDbSpline
210
0.0
220
0.0
230
1.0
 70
     9
 71
     3
 72
   245
 73
   241
 74
     0
 42
0.0000000001
 43
0.0000000001
 40
0.0
 40
0.0
 40
0.0
 40
0.0
 40
1.0
 40
1.0
 40
1.0
 40
2.0
 40
2.0
 40
2.0
 40
3.0
 40
3.0
 40
3.0
 40
4.0
 40
4.0
 40
4.0
 40
5.0
 40
5.0
 40
5.0
 40
6.0
 40
6.0
 40
6.0
 40
7.0
 40
7.0
 40
7.0
 40
8.0
 40
8.0
 40
8.0
 40
9.0
 40
9.0
 40
9.0
 40
10.0
 40
10.0
 40
10.0
 40
11.0
 40
11.0
 40
11.0
 40
12.0
 40
12.0
 40
12.0
 40
13.0
 40
13.0
 40
13.0
 40
14.0
 40
14.0
 40
14.0
 40
15.0
 40
15.0
 40
15.0
 40
16.0
 40
16.0
 40
16.0
 40
17.0
 40
17.0
 40
17.0
 40
18.0
 40
18.0
 40
18.0
 40
19.0
 40
19.0
 40
19.0
 40
20.0
 40
20.0
 40
20.0
 40
21.0
 40
21.0
 40
21.0
 40
22.0
 40
22.0
 40
22.0
 40
23.0
 40
23.0
 40
23.0
 40
24.0
 40
24.0
 40
24.0
 40
25.0
 40
25.0
 40
25.0
 40
26.0
 40
26.0
 40
26.0
 40
27.0
 40
27.0
 40
27.0
 40
28.0
 40
28.0
 40
28.0
 40
29.0
 40
29.0
 40
29.0
 40
30.0
 40
30.0
 40
30.0
 40
31.0
 40
31.0
 40
31.0
 40
32.0
 40
32.0
 40
32.0
 40
33.0
 40
33.0
 40
33.0
 40
34.0
 40
34.0
 40
34.0
 40
35.0
 40
35.0
 40
35.0
 40
36.0
 40
36.0
 40
36.0
 40
37.0
 40
37.0
 40
37.0
 40
38.0
 40
38.0
 40
38.0
 40
39.0
 40
39.0
 40
39.0
 40
40.0
 40
40.0
 40
40.0
 40
41.0
 40
41.0
 40
41.0
 40
42.0
 40
42.0
 40
42.0
 40
43.0
 40
43.0
 40
43.0
 40
44.0
 40
44.0
 40
44.0
 40
45.0
 40
45.0
 40
45.0
 40
46.0
 40
46.0
 40
46.0
 40
47.0
 40
47.0
 40
47.0
 40
48.0
 40
48.0
 40
48.0
 40
49.0
 40
49.0
 40
49.0
 40
50.0
 40
50.0
 40
50.0
 40
51.0
 40
51.0
 40
51.0
 40
52.0
 40
52.0
 40
52.0
 40
53.0
 40
53.0
 40
53.0
 40
54.0
 40
54.0
 40
54.0
 40
55.0
 40
55.0
 40
55.0
 40
56.0
 40
56.0
 40
56.0
 40
57.0
 40
57.0
 40
57.0
 40
58.0
 40
58.0
 40
58.0
 40
59.0
 40
59.0
 40
59.0
 40
60.0
 40
60.0
 40
60.0
 40
61.0
 40
61.0
 40
61.0
 40
62.0
 40
62.0
 40
62.0
 40
63.0
 40
63.0
 40
63.0
 40
64.0
 40
64.0
 40
64.0
 40
65.0
 40
65.0
 40
65.0
 40
66.0
 40
66.0
 40
66.0
 40
67.0
 40
67.0
 40
67.0
 40
68.0
 40
68.0
 40
68.0
 40
69.0
 40
69.0
 40
69.0
 40
70.0
 40
70.0
 40
70.0
 40
71.0
 40
71.0
 40
71.0
 40
72.0
 40
72.0
 40
72.0
 40
73.0
 40
73.0
 40
73.0
 40
74.0
 40
74.0
 40
74.0
 40
75.0
 40
75.0
 40
75.0
 40
76.0
 40
76.0
 40
76.0
 40
77.0
 40
77.0
 40
77.0
 40
78.0
 40
78.0
 40
78.0
 40
79.0
 40
79.0
 40
79.0
 40
80.0
 40
80.0
 40
80.0
 40
80.0
 10
171.4396074669857
 20
-271.7596106082565
 30
0.0
 10
172.0788751419386
 20
-271.7596106082565
 30
0.0
 10
172.5979904352443
 20
-271.2427644294821
 30
0.0
 10
172.5979904352443
 20
-270.6034967545274
 30
0.0
 10
172.5979904352443
 20
-270.6034967545274
 30
0.0
 10
172.5979904352443
 20
-267.0716614946559
 30
0.0
 10
172.5979904352443
 20
-267.0716614946559
 30
0.0
 10
172.5979904352443
 20
-266.4323938197021
 30
0.0
 10
172.0788751419386
 20
-265.9155476409278
 30
0.0
 10
171.4396074669857
 20
-265.9155476409278
 30
0.0
 10
171.4396074669857
 20
-265.9155476409278
 30
0.0
 10
167.3319843947811
 20
-265.9155476409278
 30
0.0
 10
167.3319843947811
 20
-265.9155476409278
 30
0.0
 10
167.3319843947811
 20
-265.9155476409278
 30
0.0
 10
167.3319843947811
 20
-263.2088675787472
 30
0.0
 10
167.3319843947811
 20
-263.2088675787472
 30
0.0
 10
167.3319843947811
 20
-259.8855833147973
 30
0.0
 10
164.6366360691936
 20
-257.1902488252745
 30
0.0
 10
161.3110965267769
 20
-257.1902488252745
 30
0.0
 10
161.3110965267769
 20
-257.1902488252745
 30
0.0
 10
158.7359005828366
 20
-257.1902488252745
 30
0.0
 10
158.7359005828366
 20
-257.1902488252745
 30
0.0
 10
158.7359005828366
 20
-257.1902488252745
 30
0.0
 10
158.7359005828366
 20
-252.6179000281954
 30
0.0
 10
158.7359005828366
 20
-252.6179000281954
 30
0.0
 10
158.7359005828366
 20
-251.9786323532417
 30
0.0
 10
158.2167714534662
 20
-251.4595170599359
 30
0.0
 10
157.5775037785133
 20
-251.4595170599359
 30
0.0
 10
157.5775037785133
 20
-251.4595170599359
 30
0.0
 10
154.0479376331732
 20
-251.4595170599359
 30
0.0
 10
154.0479376331732
 20
-251.4595170599359
 30
0.0
 10
153.4086837942832
 20
-251.4595170599359
 30
0.0
 10
152.8895546649128
 20
-251.9786323532417
 30
0.0
 10
152.8895546649128
 20
-252.6179000281954
 30
0.0
 10
152.8895546649128
 20
-252.6179000281954
 30
0.0
 10
152.8895546649128
 20
-257.1902488252745
 30
0.0
 10
152.8895546649128
 20
-257.1902488252745
 30
0.0
 10
152.8895546649128
 20
-257.1902488252745
 30
0.0
 10
147.0726933998321
 20
-257.1902488252745
 30
0.0
 10
147.0726933998321
 20
-257.1902488252745
 30
0.0
 10
147.0726933998321
 20
-257.1902488252745
 30
0.0
 10
147.0726933998321
 20
-252.6179000281954
 30
0.0
 10
147.0726933998321
 20
-252.6179000281954
 30
0.0
 10
147.0726933998321
 20
-251.9786323532417
 30
0.0
 10
146.5558333849931
 20
-251.4595170599359
 30
0.0
 10
145.9165657100384
 20
-251.4595170599359
 30
0.0
 10
145.9165657100384
 20
-251.4595170599359
 30
0.0
 10
142.3847442862316
 20
-251.4595170599359
 30
0.0
 10
142.3847442862316
 20
-251.4595170599359
 30
0.0
 10
141.7454766112778
 20
-251.4595170599359
 30
0.0
 10
141.2286165964387
 20
-251.9786323532417
 30
0.0
 10
141.2286165964387
 20
-252.6179000281954
 30
0.0
 10
141.2286165964387
 20
-252.6179000281954
 30
0.0
 10
141.2286165964387
 20
-257.1902488252745
 30
0.0
 10
141.2286165964387
 20
-257.1902488252745
 30
0.0
 10
141.2286165964387
 20
-257.1902488252745
 30
0.0
 10
135.6135128197502
 20
-257.1902488252745
 30
0.0
 10
135.6135128197502
 20
-257.1902488252745
 30
0.0
 10
135.6135128197502
 20
-257.1902488252745
 30
0.0
 10
135.6135128197502
 20
-252.6179000281954
 30
0.0
 10
135.6135128197502
 20
-252.6179000281954
 30
0.0
 10
135.6135128197502
 20
-251.9786323532417
 30
0.0
 10
135.0943836903807
 20
-251.4595170599359
 30
0.0
 10
134.455116015426
 20
-251.4595170599359
 30
0.0
 10
134.455116015426
 20
-251.4595170599359
 30
0.0
 10
130.9255498700859
 20
-251.4595170599359
 30
0.0
 10
130.9255498700859
 20
-251.4595170599359
 30
0.0
 10
130.2862960311959
 20
-251.4595170599359
 30
0.0
 10
129.7671669018264
 20
-251.9786323532417
 30
0.0
 10
129.7671669018264
 20
-252.6179000281954
 30
0.0
 10
129.7671669018264
 20
-252.6179000281954
 30
0.0
 10
129.7671669018264
 20
-257.1902488252745
 30
0.0
 10
129.7671669018264
 20
-257.1902488252745
 30
0.0
 10
129.7671669018264
 20
-257.1902488252745
 30
0.0
 10
126.9902134694948
 20
-257.1902488252745
 30
0.0
 10
126.9902134694948
 20
-257.1902488252745
 30
0.0
 10
123.6646739270782
 20
-257.1902488252745
 30
0.0
 10
120.9693256014907
 20
-259.8855833147973
 30
0.0
 10
120.9693256014907
 20
-263.2088675787472
 30
0.0
 10
120.9693256014907
 20
-263.2088675787472
 30
0.0
 10
120.9693256014907
 20
-265.9155476409278
 30
0.0
 10
120.9693256014907
 20
-265.9155476409278
 30
0.0
 10
120.9693256014907
 20
-265.9155476409278
 30
0.0
 10
117.0634600176781
 20
-265.9155476409278
 30
0.0
 10
117.0634600176781
 20
-265.9155476409278
 30
0.0
 10
116.4241923427234
 20
-265.9155476409278
 30
0.0
 10
115.9050770494177
 20
-266.4323938197021
 30
0.0
 10
115.9050770494177
 20
-267.0716614946559
 30
0.0
 10
115.9050770494177
 20
-267.0716614946559
 30
0.0
 10
115.9050770494177
 20
-270.6034967545274
 30
0.0
 10
115.9050770494177
 20
-270.6034967545274
 30
0.0
 10
115.9050770494177
 20
-271.2427644294821
 30
0.0
 10
116.4241923427234
 20
-271.7596106082565
 30
0.0
 10
117.0634600176781
 20
-271.7596106082565
 30
0.0
 10
117.0634600176781
 20
-271.7596106082565
 30
0.0
 10
120.9693256014907
 20
-271.7596106082565
 30
0.0
 10
120.9693256014907
 20
-271.7596106082565
 30
0.0
 10
120.9693256014907
 20
-271.7596106082565
 30
0.0
 10
120.9693256014907
 20
-277.3747282210088
 30
0.0
 10
120.9693256014907
 20
-277.3747282210088
 30
0.0
 10
120.9693256014907
 20
-277.3747282210088
 30
0.0
 10
117.0634600176781
 20
-277.3747282210088
 30
0.0
 10
117.0634600176781
 20
-277.3747282210088
 30
0.0
 10
116.4241923427234
 20
-277.3747282210088
 30
0.0
 10
115.9050770494177
 20
-277.8938435143146
 30
0.0
 10
115.9050770494177
 20
-278.5331111892692
 30
0.0
 10
115.9050770494177
 20
-278.5331111892692
 30
0.0
 10
115.9050770494177
 20
-282.0626773346084
 30
0.0
 10
115.9050770494177
 20
-282.0626773346084
 30
0.0
 10
115.9050770494177
 20
-282.7019450095631
 30
0.0
 10
116.4241923427234
 20
-283.2210603028689
 30
0.0
 10
117.0634600176781
 20
-283.2210603028689
 30
0.0
 10
117.0634600176781
 20
-283.2210603028689
 30
0.0
 10
120.9693256014907
 20
-283.2210603028689
 30
0.0
 10
120.9693256014907
 20
-283.2210603028689
 30
0.0
 10
120.9693256014907
 20
-283.2210603028689
 30
0.0
 10
120.9693256014907
 20
-289.0379354040142
 30
0.0
 10
120.9693256014907
 20
-289.0379354040142
 30
0.0
 10
120.9693256014907
 20
-289.0379354040142
 30
0.0
 10
117.0634600176781
 20
-289.0379354040142
 30
0.0
 10
117.0634600176781
 20
-289.0379354040142
 30
0.0
 10
116.4241923427234
 20
-289.0379354040142
 30
0.0
 10
115.9050770494177
 20
-289.5547815827886
 30
0.0
 10
115.9050770494177
 20
-290.1940492577414
 30
0.0
 10
115.9050770494177
 20
-290.1940492577414
 30
0.0
 10
115.9050770494177
 20
-293.7258845176129
 30
0.0
 10
115.9050770494177
 20
-293.7258845176129
 30
0.0
 10
115.9050770494177
 20
-294.3651521925676
 30
0.0
 10
116.4241923427234
 20
-294.881998371342
 30
0.0
 10
117.0634600176781
 20
-294.881998371342
 30
0.0
 10
117.0634600176781
 20
-294.881998371342
 30
0.0
 10
120.9693256014907
 20
-294.881998371342
 30
0.0
 10
120.9693256014907
 20
-294.881998371342
 30
0.0
 10
120.9693256014907
 20
-294.881998371342
 30
0.0
 10
120.9693256014907
 20
-297.5297367999647
 30
0.0
 10
120.9693256014907
 20
-297.5297367999647
 30
0.0
 10
120.9693256014907
 20
-300.8552901784442
 30
0.0
 10
123.6646739270782
 20
-303.5506246679688
 30
0.0
 10
126.9902134694948
 20
-303.5506246679688
 30
0.0
 10
126.9902134694948
 20
-303.5506246679688
 30
0.0
 10
129.7671669018264
 20
-303.5506246679688
 30
0.0
 10
129.7671669018264
 20
-303.5506246679688
 30
0.0
 10
129.7671669018264
 20
-303.5506246679688
 30
0.0
 10
129.7671669018264
 20
-308.1796459840735
 30
0.0
 10
129.7671669018264
 20
-308.1796459840735
 30
0.0
 10
129.7671669018264
 20
-308.8189136590281
 30
0.0
 10
130.2862960311959
 20
-309.3380289523338
 30
0.0
 10
130.9255498700859
 20
-309.3380289523338
 30
0.0
 10
130.9255498700859
 20
-309.3380289523338
 30
0.0
 10
134.455116015426
 20
-309.3380289523338
 30
0.0
 10
134.455116015426
 20
-309.3380289523338
 30
0.0
 10
135.0943836903807
 20
-309.3380289523338
 30
0.0
 10
135.6135128197502
 20
-308.8189136590281
 30
0.0
 10
135.6135128197502
 20
-308.1796459840735
 30
0.0
 10
135.6135128197502
 20
-308.1796459840735
 30
0.0
 10
135.6135128197502
 20
-303.5506246679688
 30
0.0
 10
135.6135128197502
 20
-303.5506246679688
 30
0.0
 10
135.6135128197502
 20
-303.5506246679688
 30
0.0
 10
141.4303740848309
 20
-303.5506246679688
 30
0.0
 10
141.4303740848309
 20
-303.5506246679688
 30
0.0
 10
141.4303740848309
 20
-303.5506246679688
 30
0.0
 10
141.4303740848309
 20
-308.1796459840735
 30
0.0
 10
141.4303740848309
 20
-308.1796459840735
 30
0.0
 10
141.4303740848309
 20
-308.8189136590281
 30
0.0
 10
141.9494893781366
 20
-309.3380289523338
 30
0.0
 10
142.5887570530913
 20
-309.3380289523338
 30
0.0
 10
142.5887570530913
 20
-309.3380289523338
 30
0.0
 10
146.1183231984305
 20
-309.3380289523338
 30
0.0
 10
146.1183231984305
 20
-309.3380289523338
 30
0.0
 10
146.7575908733852
 20
-309.3380289523338
 30
0.0
 10
147.2767061666909
 20
-308.8189136590281
 30
0.0
 10
147.2767061666909
 20
-308.1796459840735
 30
0.0
 10
147.2767061666909
 20
-308.1796459840735
 30
0.0
 10
147.2767061666909
 20
-303.5506246679688
 30
0.0
 10
147.2767061666909
 20
-303.5506246679688
 30
0.0
 10
147.2767061666909
 20
-303.5506246679688
 30
0.0
 10
152.8895546649128
 20
-303.5506246679688
 30
0.0
 10
152.8895546649128
 20
-303.5506246679688
 30
0.0
 10
152.8895546649128
 20
-303.5506246679688
 30
0.0
 10
152.8895546649128
 20
-308.1796459840735
 30
0.0
 10
152.8895546649128
 20
-308.1796459840735
 30
0.0
 10
152.8895546649128
 20
-308.8189136590281
 30
0.0
 10
153.4086837942832
 20
-309.3380289523338
 30
0.0
 10
154.0479376331732
 20
-309.3380289523338
 30
0.0
 10
154.0479376331732
 20
-309.3380289523338
 30
0.0
 10
157.5775037785133
 20
-309.3380289523338
 30
0.0
 10
157.5775037785133
 20
-309.3380289523338
 30
0.0
 10
158.2167714534662
 20
-309.3380289523338
 30
0.0
 10
158.7359005828366
 20
-308.8189136590281
 30
0.0
 10
158.7359005828366
 20
-308.1796459840735
 30
0.0
 10
158.7359005828366
 20
-308.1796459840735
 30
0.0
 10
158.7359005828366
 20
-303.5506246679688
 30
0.0
 10
158.7359005828366
 20
-303.5506246679688
 30
0.0
 10
158.7359005828366
 20
-303.5506246679688
 30
0.0
 10
161.3110965267769
 20
-303.5506246679688
 30
0.0
 10
161.3110965267769
 20
-303.5506246679688
 30
0.0
 10
164.6366360691936
 20
-303.5506246679688
 30
0.0
 10
167.3319843947811
 20
-300.8552901784442
 30
0.0
 10
167.3319843947811
 20
-297.5297367999647
 30
0.0
 10
167.3319843947811
 20
-297.5297367999647
 30
0.0
 10
167.3319843947811
 20
-294.881998371342
 30
0.0
 10
167.3319843947811
 20
-294.881998371342
 30
0.0
 10
167.3319843947811
 20
-294.881998371342
 30
0.0
 10
171.4396074669857
 20
-294.881998371342
 30
0.0
 10
171.4396074669857
 20
-294.881998371342
 30
0.0
 10
172.0788751419386
 20
-294.881998371342
 30
0.0
 10
172.5979904352443
 20
-294.3651521925676
 30
0.0
 10
172.5979904352443
 20
-293.7258845176129
 30
0.0
 10
172.5979904352443
 20
-293.7258845176129
 30
0.0
 10
172.5979904352443
 20
-290.1940492577414
 30
0.0
 10
172.5979904352443
 20
-290.1940492577414
 30
0.0
 10
172.5979904352443
 20
-289.5547815827886
 30
0.0
 10
172.0788751419386
 20
-289.0379354040142
 30
0.0
 10
171.4396074669857
 20
-289.0379354040142
 30
0.0
 10
171.4396074669857
 20
-289.0379354040142
 30
0.0
 10
167.3319843947811
 20
-289.0379354040142
 30
0.0
 10
167.3319843947811
 20
-289.0379354040142
 30
0.0
 10
167.3319843947811
 20
-289.0379354040142
 30
0.0
 10
167.3319843947811
 20
-283.422817791261
 30
0.0
 10
167.3319843947811
 20
-283.422817791261
 30
0.0
 10
167.3319843947811
 20
-283.422817791261
 30
0.0
 10
171.4396074669857
 20
-283.422817791261
 30
0.0
 10
171.4396074669857
 20
-283.422817791261
 30
0.0
 10
172.0788751419386
 20
-283.422817791261
 30
0.0
 10
172.5979904352443
 20
-282.9037024979552
 30
0.0
 10
172.5979904352443
 20
-282.2644348230006
 30
0.0
 10
172.5979904352443
 20
-282.2644348230006
 30
0.0
 10
172.5979904352443
 20
-278.7348686776613
 30
0.0
 10
172.5979904352443
 20
-278.7348686776613
 30
0.0
 10
172.5979904352443
 20
-278.0956010027066
 30
0.0
 10
172.0788751419386
 20
-277.5764857094009
 30
0.0
 10
171.4396074669857
 20
-277.5764857094009
 30
0.0
 10
171.4396074669857
 20
-277.5764857094009
 30
0.0
 10
167.3319843947811
 20
-277.5764857094009
 30
0.0
 10
167.3319843947811
 20
-277.5764857094009
 30
0.0
 10
167.3319843947811
 20
-277.5764857094009
 30
0.0
 10
167.3319843947811
 20
-271.7596106082565
 30
0.0
 10
167.3319843947811
 20
-271.7596106082565
 30
0.0
 10
167.3319843947811
 20
-271.7596106082565
 30
0.0
 10
171.4396074669857
 20
-271.7596106082565
 30
0.0
 10
171.4396074669857
 20
-271.7596106082565
 30
0.0
  0
HATCH
  5
7F
330
79
100
AcDbEntity
  8
Layer 1
 62
    18
420
        0
440
 33554687
100
AcDbHatch
 10
0.0
 20
0.0
 30
0.0
210
0.0
220
0.0
230
1.0
  2
SOLID
 70
     1
 71
     1
 91
        2
 92
        1
 93
        1
 72
     4
 94
        3
 73
     0
 74
     0
 95
       17
 96
       13
 40
0.0
 40
0.0
 40
0.0
 40
0.0
 40
1.0
 40
1.0
 40
1.0
 40
2.0
 40
2.0
 40
2.0
 40
3.0
 40
3.0
 40
3.0
 40
4.0
 40
4.0
 40
4.0
 40
4.0
 10
161.4561814961416
 20
-297.8063058875705
 10
161.4561814961416
 20
-297.8063058875705
 10
126.8451285001292
 20
-297.8063058875705
 10
126.8451285001292
 20
-297.8063058875705
 10
126.8451285001292
 20
-297.8063058875705
 10
126.8451285001292
 20
-263.1952667276228
 10
126.8451285001292
 20
-263.1952667276228
 10
126.8451285001292
 20
-263.1952667276228
 10
161.4561814961416
 20
-263.1952667276228
 10
161.4561814961416
 20
-263.1952667276228
 10
161.4561814961416
 20
-263.1952667276228
 10
161.4561814961416
 20
-297.8063058875705
 10
161.4561814961416
 20
-297.8063058875705
 97
        0
 97
        1
330
7D
 92
        1
 93
        1
 72
     4
 94
        3
 73
     0
 74
     0
 95
      245
 96
      241
 40
0.0
 40
0.0
 40
0.0
 40
0.0
 40
1.0
 40
1.0
 40
1.0
 40
2.0
 40
2.0
 40
2.0
 40
3.0
 40
3.0
 40
3.0
 40
4.0
 40
4.0
 40
4.0
 40
5.0
 40
5.0
 40
5.0
 40
6.0
 40
6.0
 40
6.0
 40
7.0
 40
7.0
 40
7.0
 40
8.0
 40
8.0
 40
8.0
 40
9.0
 40
9.0
 40
9.0
 40
10.0
 40
10.0
 40
10.0
 40
11.0
 40
11.0
 40
11.0
 40
12.0
 40
12.0
 40
12.0
 40
13.0
 40
13.0
 40
13.0
 40
14.0
 40
14.0
 40
14.0
 40
15.0
 40
15.0
 40
15.0
 40
16.0
 40
16.0
 40
16.0
 40
17.0
 40
17.0
 40
17.0
 40
18.0
 40
18.0
 40
18.0
 40
19.0
 40
19.0
 40
19.0
 40
20.0
 40
20.0
 40
20.0
 40
21.0
 40
21.0
 40
21.0
 40
22.0
 40
22.0
 40
22.0
 40
23.0
 40
23.0
 40
23.0
 40
24.0
 40
24.0
 40
24.0
 40
25.0
 40
25.0
 40
25.0
 40
26.0
 40
26.0
 40
26.0
 40
27.0
 40
27.0
 40
27.0
 40
28.0
 40
28.0
 40
28.0
 40
29.0
 40
29.0
 40
29.0
 40
30.0
 40
30.0
 40
30.0
 40
31.0
 40
31.0
 40
31.0
 40
32.0
 40
32.0
 40
32.0
 40
33.0
 40
33.0
 40
33.0
 40
34.0
 40
34.0
 40
34.0
 40
35.0
 40
35.0
 40
35.0
 40
36.0
 40
36.0
 40
36.0
 40
37.0
 40
37.0
 40
37.0
 40
38.0
 40
38.0
 40
38.0
 40
39.0
 40
39.0
 40
39.0
 40
40.0
 40
40.0
 40
40.0
 40
41.0
 40
41.0
 40
41.0
 40
42.0
 40
42.0
 40
42.0
 40
43.0
 40
43.0
 40
43.0
 40
44.0
 40
44.0
 40
44.0
 40
45.0
 40
45.0
 40
45.0
 40
46.0
 40
46.0
 40
46.0
 40
47.0
 40
47.0
 40
47.0
 40
48.0
 40
48.0
 40
48.0
 40
49.0
 40
49.0
 40
49.0
 40
50.0
 40
50.0
 40
50.0
 40
51.0
 40
51.0
 40
51.0
 40
52.0
 40
52.0
 40
52.0
 40
53.0
 40
53.0
 40
53.0
 40
54.0
 40
54.0
 40
54.0
 40
55.0
 40
55.0
 40
55.0
 40
56.0
 40
56.0
 40
56.0
 40
57.0
 40
57.0
 40
57.0
 40
58.0
 40
58.0
 40
58.0
 40
59.0
 40
59.0
 40
59.0
 40
60.0
 40
60.0
 40
60.0
 40
61.0
 40
61.0
 40
61.0
 40
62.0
 40
62.0
 40
62.0
 40
63.0
 40
63.0
 40
63.0
 40
64.0
 40
64.0
 40
64.0
 40
65.0
 40
65.0
 40
65.0
 40
66.0
 40
66.0
 40
66.0
 40
67.0
 40
67.0
 40
67.0
 40
68.0
 40
68.0
 40
68.0
 40
69.0
 40
69.0
 40
69.0
 40
70.0
 40
70.0
 40
70.0
 40
71.0
 40
71.0
 40
71.0
 40
72.0
 40
72.0
 40
72.0
 40
73.0
 40
73.0
 40
73.0
 40
74.0
 40
74.0
 40
74.0
 40
75.0
 40
75.0
 40
75.0
 40
76.0
 40
76.0
 40
76.0
 40
77.0
 40
77.0
 40
77.0
 40
78.0
 40
78.0
 40
78.0
 40
79.0
 40
79.0
 40
79.0
 40
80.0
 40
80.0
 40
80.0
 40
80.0
 10
171.4396074669857
 20
-271.7596106082565
 10
172.0788751419386
 20
-271.7596106082565
 10
172.5979904352443
 20
-271.2427644294821
 10
172.5979904352443
 20
-270.6034967545274
 10
172.5979904352443
 20
-270.6034967545274
 10
172.5979904352443
 20
-267.0716614946559
 10
172.5979904352443
 20
-267.0716614946559
 10
172.5979904352443
 20
-266.4323938197021
 10
172.0788751419386
 20
-265.9155476409278
 10
171.4396074669857
 20
-265.9155476409278
 10
171.4396074669857
 20
-265.9155476409278
 10
167.3319843947811
 20
-265.9155476409278
 10
167.3319843947811
 20
-265.9155476409278
 10
167.3319843947811
 20
-265.9155476409278
 10
167.3319843947811
 20
-263.2088675787472
 10
167.3319843947811
 20
-263.2088675787472
 10
167.3319843947811
 20
-259.8855833147973
 10
164.6366360691936
 20
-257.1902488252745
 10
161.3110965267769
 20
-257.1902488252745
 10
161.3110965267769
 20
-257.1902488252745
 10
158.7359005828366
 20
-257.1902488252745
 10
158.7359005828366
 20
-257.1902488252745
 10
158.7359005828366
 20
-257.1902488252745
 10
158.7359005828366
 20
-252.6179000281954
 10
158.7359005828366
 20
-252.6179000281954
 10
158.7359005828366
 20
-251.9786323532417
 10
158.2167714534662
 20
-251.4595170599359
 10
157.5775037785133
 20
-251.4595170599359
 10
157.5775037785133
 20
-251.4595170599359
 10
154.0479376331732
 20
-251.4595170599359
 10
154.0479376331732
 20
-251.4595170599359
 10
153.4086837942832
 20
-251.4595170599359
 10
152.8895546649128
 20
-251.9786323532417
 10
152.8895546649128
 20
-252.6179000281954
 10
152.8895546649128
 20
-252.6179000281954
 10
152.8895546649128
 20
-257.1902488252745
 10
152.8895546649128
 20
-257.1902488252745
 10
152.8895546649128
 20
-257.1902488252745
 10
147.0726933998321
 20
-257.1902488252745
 10
147.0726933998321
 20
-257.1902488252745
 10
147.0726933998321
 20
-257.1902488252745
 10
147.0726933998321
 20
-252.6179000281954
 10
147.0726933998321
 20
-252.6179000281954
 10
147.0726933998321
 20
-251.9786323532417
 10
146.5558333849931
 20
-251.4595170599359
 10
145.9165657100384
 20
-251.4595170599359
 10
145.9165657100384
 20
-251.4595170599359
 10
142.3847442862316
 20
-251.4595170599359
 10
142.3847442862316
 20
-251.4595170599359
 10
141.7454766112778
 20
-251.4595170599359
 10
141.2286165964387
 20
-251.9786323532417
 10
141.2286165964387
 20
-252.6179000281954
 10
141.2286165964387
 20
-252.6179000281954
 10
141.2286165964387
 20
-257.1902488252745
 10
141.2286165964387
 20
-257.1902488252745
 10
141.2286165964387
 20
-257.1902488252745
 10
135.6135128197502
 20
-257.1902488252745
 10
135.6135128197502
 20
-257.1902488252745
 10
135.6135128197502
 20
-257.1902488252745
 10
135.6135128197502
 20
-252.6179000281954
 10
135.6135128197502
 20
-252.6179000281954
 10
135.6135128197502
 20
-251.9786323532417
 10
135.0943836903807
 20
-251.4595170599359
 10
134.455116015426
 20
-251.4595170599359
 10
134.455116015426
 20
-251.4595170599359
 10
130.9255498700859
 20
-251.4595170599359
 10
130.9255498700859
 20
-251.4595170599359
 10
130.2862960311959
 20
-251.4595170599359
 10
129.7671669018264
 20
-251.9786323532417
 10
129.7671669018264
 20
-252.6179000281954
 10
129.7671669018264
 20
-252.6179000281954
 10
129.7671669018264
 20
-257.1902488252745
 10
129.7671669018264
 20
-257.1902488252745
 10
129.7671669018264
 20
-257.1902488252745
 10
126.9902134694948
 20
-257.1902488252745
 10
126.9902134694948
 20
-257.1902488252745
 10
123.6646739270782
 20
-257.1902488252745
 10
120.9693256014907
 20
-259.8855833147973
 10
120.9693256014907
 20
-263.2088675787472
 10
120.9693256014907
 20
-263.2088675787472
 10
120.9693256014907
 20
-265.9155476409278
 10
120.9693256014907
 20
-265.9155476409278
 10
120.9693256014907
 20
-265.9155476409278
 10
117.0634600176781
 20
-265.9155476409278
 10
117.0634600176781
 20
-265.9155476409278
 10
116.4241923427234
 20
-265.9155476409278
 10
115.9050770494177
 20
-266.4323938197021
 10
115.9050770494177
 20
-267.0716614946559
 10
115.9050770494177
 20
-267.0716614946559
 10
115.9050770494177
 20
-270.6034967545274
 10
115.9050770494177
 20
-270.6034967545274
 10
115.9050770494177
 20
-271.2427644294821
 10
116.4241923427234
 20
-271.7596106082565
 10
117.0634600176781
 20
-271.7596106082565
 10
117.0634600176781
 20
-271.7596106082565
 10
120.9693256014907
 20
-271.7596106082565
 10
120.9693256014907
 20
-271.7596106082565
 10
120.9693256014907
 20
-271.7596106082565
 10
120.9693256014907
 20
-277.3747282210088
 10
120.9693256014907
 20
-277.3747282210088
 10
120.9693256014907
 20
-277.3747282210088
 10
117.0634600176781
 20
-277.3747282210088
 10
117.0634600176781
 20
-277.3747282210088
 10
116.4241923427234
 20
-277.3747282210088
 10
115.9050770494177
 20
-277.8938435143146
 10
115.9050770494177
 20
-278.5331111892692
 10
115.9050770494177
 20
-278.5331111892692
 10
115.9050770494177
 20
-282.0626773346084
 10
115.9050770494177
 20
-282.0626773346084
 10
115.9050770494177
 20
-282.7019450095631
 10
116.4241923427234
 20
-283.2210603028689
 10
117.0634600176781
 20
-283.2210603028689
 10
117.0634600176781
 20
-283.2210603028689
 10
120.9693256014907
 20
-283.2210603028689
 10
120.9693256014907
 20
-283.2210603028689
 10
120.9693256014907
 20
-283.2210603028689
 10
120.9693256014907
 20
-289.0379354040142
 10
120.9693256014907
 20
-289.0379354040142
 10
120.9693256014907
 20
-289.0379354040142
 10
117.0634600176781
 20
-289.0379354040142
 10
117.0634600176781
 20
-289.0379354040142
 10
116.4241923427234
 20
-289.0379354040142
 10
115.9050770494177
 20
-289.5547815827886
 10
115.9050770494177
 20
-290.1940492577414
 10
115.9050770494177
 20
-290.1940492577414
 10
115.9050770494177
 20
-293.7258845176129
 10
115.9050770494177
 20
-293.7258845176129
 10
115.9050770494177
 20
-294.3651521925676
 10
116.4241923427234
 20
-294.881998371342
 10
117.0634600176781
 20
-294.881998371342
 10
117.0634600176781
 20
-294.881998371342
 10
120.9693256014907
 20
-294.881998371342
 10
120.9693256014907
 20
-294.881998371342
 10
120.9693256014907
 20
-294.881998371342
 10
120.9693256014907
 20
-297.5297367999647
 10
120.9693256014907
 20
-297.5297367999647
 10
120.9693256014907
 20
-300.8552901784442
 10
123.6646739270782
 20
-303.5506246679688
 10
126.9902134694948
 20
-303.5506246679688
 10
126.9902134694948
 20
-303.5506246679688
 10
129.7671669018264
 20
-303.5506246679688
 10
129.7671669018264
 20
-303.5506246679688
 10
129.7671669018264
 20
-303.5506246679688
 10
129.7671669018264
 20
-308.1796459840735
 10
129.7671669018264
 20
-308.1796459840735
 10
129.7671669018264
 20
-308.8189136590281
 10
130.2862960311959
 20
-309.3380289523338
 10
130.9255498700859
 20
-309.3380289523338
 10
130.9255498700859
 20
-309.3380289523338
 10
134.455116015426
 20
-309.3380289523338
 10
134.455116015426
 20
-309.3380289523338
 10
135.0943836903807
 20
-309.3380289523338
 10
135.6135128197502
 20
-308.8189136590281
 10
135.6135128197502
 20
-308.1796459840735
 10
135.6135128197502
 20
-308.1796459840735
 10
135.6135128197502
 20
-303.5506246679688
 10
135.6135128197502
 20
-303.5506246679688
 10
135.6135128197502
 20
-303.5506246679688
 10
141.4303740848309
 20
-303.5506246679688
 10
141.4303740848309
 20
-303.5506246679688
 10
141.4303740848309
 20
-303.5506246679688
 10
141.4303740848309
 20
-308.1796459840735
 10
141.4303740848309
 20
-308.1796459840735
 10
141.4303740848309
 20
-308.8189136590281
 10
141.9494893781366
 20
-309.3380289523338
 10
142.5887570530913
 20
-309.3380289523338
 10
142.5887570530913
 20
-309.3380289523338
 10
146.1183231984305
 20
-309.3380289523338
 10
146.1183231984305
 20
-309.3380289523338
 10
146.7575908733852
 20
-309.3380289523338
 10
147.2767061666909
 20
-308.8189136590281
 10
147.2767061666909
 20
-308.1796459840735
 10
147.2767061666909
 20
-308.1796459840735
 10
147.2767061666909
 20
-303.5506246679688
 10
147.2767061666909
 20
-303.5506246679688
 10
147.2767061666909
 20
-303.5506246679688
 10
152.8895546649128
 20
-303.5506246679688
 10
152.8895546649128
 20
-303.5506246679688
 10
152.8895546649128
 20
-303.5506246679688
 10
152.8895546649128
 20
-308.1796459840735
 10
152.8895546649128
 20
-308.1796459840735
 10
152.8895546649128
 20
-308.8189136590281
 10
153.4086837942832
 20
-309.3380289523338
 10
154.0479376331732
 20
-309.3380289523338
 10
154.0479376331732
 20
-309.3380289523338
 10
157.5775037785133
 20
-309.3380289523338
 10
157.5775037785133
 20
-309.3380289523338
 10
158.2167714534662
 20
-309.3380289523338
 10
158.7359005828366
 20
-308.8189136590281
 10
158.7359005828366
 20
-308.1796459840735
 10
158.7359005828366
 20
-308.1796459840735
 10
158.7359005828366
 20
-303.5506246679688
 10
158.7359005828366
 20
-303.5506246679688
 10
158.7359005828366
 20
-303.5506246679688
 10
161.3110965267769
 20
-303.5506246679688
 10
161.3110965267769
 20
-303.5506246679688
 10
164.6366360691936
 20
-303.5506246679688
 10
167.3319843947811
 20
-300.8552901784442
 10
167.3319843947811
 20
-297.5297367999647
 10
167.3319843947811
 20
-297.5297367999647
 10
167.3319843947811
 20
-294.881998371342
 10
167.3319843947811
 20
-294.881998371342
 10
167.3319843947811
 20
-294.881998371342
 10
171.4396074669857
 20
-294.881998371342
 10
171.4396074669857
 20
-294.881998371342
 10
172.0788751419386
 20
-294.881998371342
 10
172.5979904352443
 20
-294.3651521925676
 10
172.5979904352443
 20
-293.7258845176129
 10
172.5979904352443
 20
-293.7258845176129
 10
172.5979904352443
 20
-290.1940492577414
 10
172.5979904352443
 20
-290.1940492577414
 10
172.5979904352443
 20
-289.5547815827886
 10
172.0788751419386
 20
-289.0379354040142
 10
171.4396074669857
 20
-289.0379354040142
 10
171.4396074669857
 20
-289.0379354040142
 10
167.3319843947811
 20
-289.0379354040142
 10
167.3319843947811
 20
-289.0379354040142
 10
167.3319843947811
 20
-289.0379354040142
 10
167.3319843947811
 20
-283.422817791261
 10
167.3319843947811
 20
-283.422817791261
 10
167.3319843947811
 20
-283.422817791261
 10
171.4396074669857
 20
-283.422817791261
 10
171.4396074669857
 20
-283.422817791261
 10
172.0788751419386
 20
-283.422817791261
 10
172.5979904352443
 20
-282.9037024979552
 10
172.5979904352443
 20
-282.2644348230006
 10
172.5979904352443
 20
-282.2644348230006
 10
172.5979904352443
 20
-278.7348686776613
 10
172.5979904352443
 20
-278.7348686776613
 10
172.5979904352443
 20
-278.0956010027066
 10
172.0788751419386
 20
-277.5764857094009
 10
171.4396074669857
 20
-277.5764857094009
 10
171.4396074669857
 20
-277.5764857094009
 10
167.3319843947811
 20
-277.5764857094009
 10
167.3319843947811
 20
-277.5764857094009
 10
167.3319843947811
 20
-277.5764857094009
 10
167.3319843947811
 20
-271.7596106082565
 10
167.3319843947811
 20
-271.7596106082565
 10
167.3319843947811
 20
-271.7596106082565
 10
171.4396074669857
 20
-271.7596106082565
 10
171.4396074669857
 20
-271.7596106082565
 97
        0
 97
        1
330
7E
 75
     2
 76
     1
 98
        1
 10
0.0
 20
0.0
450
        0
451
        0
460
0.0
461
0.0
452
        0
462
0.0
453
        0
470

  0
SPLINE
  5
80
330
79
100
AcDbEntity
  8
Layer 1
100
AcDbSpline
210
0.0
220
0.0
230
1.0
 70
    11
 71
     3
 72
    23
 73
    19
 74
     0
 42
0.0000000001
 43
0.0000000001
 40
0.0
 40
0.0
 40
0.0
 40
0.0
 40
1.0
 40
1.0
 40
1.0
 40
2.0
 40
2.0
 40
2.0
 40
3.0
 40
3.0
 40
3.0
 40
4.0
 40
4.0
 40
4.0
 40
5.0
 40
5.0
 40
5.0
 40
6.0
 40
6.0
 40
6.0
 40
6.0
 10
137.1096617876419
 20
-276.2322152184042
 30
0.0
 10
137.1096617876419
 20
-276.2322152184042
 30
0.0
 10
137.1096617876419
 20
-292.5629633202916
 30
0.0
 10
137.1096617876419
 20
-292.5629633202916
 30
0.0
 10
137.1096617876419
 20
-292.8417876863641
 30
0.0
 10
136.8829717115332
 20
-293.0684777624738
 30
0.0
 10
136.6018782309283
 20
-293.0684777624738
 30
0.0
 10
136.6018782309283
 20
-293.0684777624738
 30
0.0
 10
132.5214568609726
 20
-293.0684777624738
 30
0.0
 10
132.5214568609726
 20
-293.0684777624738
 30
0.0
 10
132.2426186588345
 20
-293.0684777624738
 30
0.0
 10
132.0159285827267
 20
-292.8417876863641
 30
0.0
 10
132.0159285827267
 20
-292.5629633202916
 30
0.0
 10
132.0159285827267
 20
-292.5629633202916
 30
0.0
 10
132.0159285827267
 20
-276.2322152184042
 30
0.0
 10
132.0159285827267
 20
-276.2322152184042
 30
0.0
 10
132.0159285827267
 20
-276.2322152184042
 30
0.0
 10
137.1096617876419
 20
-276.2322152184042
 30
0.0
 10
137.1096617876419
 20
-276.2322152184042
 30
0.0
  0
HATCH
  5
81
330
79
100
AcDbEntity
  8
Layer 1
 62
    18
420
        0
440
 33554687
100
AcDbHatch
 10
0.0
 20
0.0
 30
0.0
210
0.0
220
0.0
230
1.0
  2
SOLID
 70
     1
 71
     1
 91
        1
 92
        1
 93
        1
 72
     4
 94
        3
 73
     0
 74
     0
 95
       23
 96
       19
 40
0.0
 40
0.0
 40
0.0
 40
0.0
 40
1.0
 40
1.0
 40
1.0
 40
2.0
 40
2.0
 40
2.0
 40
3.0
 40
3.0
 40
3.0
 40
4.0
 40
4.0
 40
4.0
 40
5.0
 40
5.0
 40
5.0
 40
6.0
 40
6.0
 40
6.0
 40
6.0
 10
137.1096617876419
 20
-276.2322152184042
 10
137.1096617876419
 20
-276.2322152184042
 10
137.1096617876419
 20
-292.5629633202916
 10
137.1096617876419
 20
-292.5629633202916
 10
137.1096617876419
 20
-292.8417876863641
 10
136.8829717115332
 20
-293.0684777624738
 10
136.6018782309283
 20
-293.0684777624738
 10
136.6018782309283
 20
-293.0684777624738
 10
132.5214568609726
 20
-293.0684777624738
 10
132.5214568609726
 20
-293.0684777624738
 10
132.2426186588345
 20
-293.0684777624738
 10
132.0159285827267
 20
-292.8417876863641
 10
132.0159285827267
 20
-292.5629633202916
 10
132.0159285827267
 20
-292.5629633202916
 10
132.0159285827267
 20
-276.2322152184042
 10
132.0159285827267
 20
-276.2322152184042
 10
132.0159285827267
 20
-276.2322152184042
 10
137.1096617876419
 20
-276.2322152184042
 10
137.1096617876419
 20
-276.2322152184042
 97
        0
 97
        1
330
80
 75
     2
 76
     1
 98
        1
 10
0.0
 20
0.0
450
        0
451
        0
460
0.0
461
0.0
452
        0
462
0.0
453
        0
470

  0
SPLINE
  5
82
330
79
100
AcDbEntity
  8
Layer 1
100
AcDbSpline
210
0.0
220
0.0
230
1.0
 70
     9
 71
     3
 72
    17
 73
    13
 74
     0
 42
0.0000000001
 43
0.0000000001
 40
0.0
 40
0.0
 40
0.0
 40
0.0
 40
1.0
 40
1.0
 40
1.0
 40
2.0
 40
2.0
 40
2.0
 40
3.0
 40
3.0
 40
3.0
 40
4.0
 40
4.0
 40
4.0
 40
4.0
 10
137.4859612261143
 20
-270.2271834799912
 30
0.0
 10
137.4859612261143
 20
-271.8412295510643
 30
0.0
 10
136.1756997809589
 20
-273.1492218816875
 30
0.0
 10
134.5616675459505
 20
-273.1492218816875
 30
0.0
 10
132.9476353109421
 20
-273.1492218816875
 30
0.0
 10
131.6396291442543
 20
-271.8412295510643
 30
0.0
 10
131.6396291442543
 20
-270.2271834799912
 30
0.0
 10
131.6396291442543
 20
-268.6131512449819
 30
0.0
 10
132.9476353109421
 20
-267.3028897998274
 30
0.0
 10
134.5616675459505
 20
-267.3028897998274
 30
0.0
 10
136.1756997809589
 20
-267.3028897998274
 30
0.0
 10
137.4859612261143
 20
-268.6131512449819
 30
0.0
 10
137.4859612261143
 20
-270.2271834799912
 30
0.0
  0
HATCH
  5
83
330
79
100
AcDbEntity
  8
Layer 1
 62
    18
420
        0
440
 33554687
100
AcDbHatch
 10
0.0
 20
0.0
 30
0.0
210
0.0
220
0.0
230
1.0
  2
SOLID
 70
     1
 71
     1
 91
        1
 92
        1
 93
        1
 72
     4
 94
        3
 73
     0
 74
     0
 95
       17
 96
       13
 40
0.0
 40
0.0
 40
0.0
 40
0.0
 40
1.0
 40
1.0
 40
1.0
 40
2.0
 40
2.0
 40
2.0
 40
3.0
 40
3.0
 40
3.0
 40
4.0
 40
4.0
 40
4.0
 40
4.0
 10
137.4859612261143
 20
-270.2271834799912
 10
137.4859612261143
 20
-271.8412295510643
 10
136.1756997809589
 20
-273.1492218816875
 10
134.5616675459505
 20
-273.1492218816875
 10
132.9476353109421
 20
-273.1492218816875
 10
131.6396291442543
 20
-271.8412295510643
 10
131.6396291442543
 20
-270.2271834799912
 10
131.6396291442543
 20
-268.6131512449819
 10
132.9476353109421
 20
-267.3028897998274
 10
134.5616675459505
 20
-267.3028897998274
 10
136.1756997809589
 20
-267.3028897998274
 10
137.4859612261143
 20
-268.6131512449819
 10
137.4859612261143
 20
-270.2271834799912
 97
        0
 97
        1
330
82
 75
     2
 76
     1
 98
        1
 10
0.0
 20
0.0
450
        0
451
        0
460
0.0
461
0.0
452
        0
462
0.0
453
        0
470

  0
ENDBLK
  5
7C
330
79
100
AcDbEntity
  8
0
100
AcDbBlockEnd
  0
BLOCK
  5
86
330
84
100
AcDbEntity
  8
0
100
AcDbBlockBegin
  2
Block_1
 70
     0
 10
0.0
 20
0.0
 30
0.0
  3
Block_1
  1

  0
SPLINE
  5
88
330
84
100
AcDbEntity
  8
Layer 1
100
AcDbSpline
210
0.0
220
0.0
230
1.0
 70
    11
 71
     3
 72
    29
 73
    25
 74
     0
 42
0.0000000001
 43
0.0000000001
 40
0.0
 40
0.0
 40
0.0
 40
0.0
 40
1.0
 40
1.0
 40
1.0
 40
2.0
 40
2.0
 40
2.0
 40
3.0
 40
3.0
 40
3.0
 40
4.0
 40
4.0
 40
4.0
 40
5.0
 40
5.0
 40
5.0
 40
6.0
 40
6.0
 40
6.0
 40
7.0
 40
7.0
 40
7.0
 40
8.0
 40
8.0
 40
8.0
 40
8.0
 10
103.41455078125
 20
-320.685546875
 30
0.0
 10
103.41455078125
 20
-320.685546875
 30
0.0
 10
106.31640625
 20
-320.685546875
 30
0.0
 10
106.31640625
 20
-320.685546875
 30
0.0
 10
106.31640625
 20
-320.685546875
 30
0.0
 10
106.31640625
 20
-331.6142578125
 30
0.0
 10
106.31640625
 20
-331.6142578125
 30
0.0
 10
106.31640625
 20
-331.6142578125
 30
0.0
 10
106.08154296875
 20
-331.8486328125
 30
0.0
 10
106.08154296875
 20
-331.8486328125
 30
0.0
 10
106.08154296875
 20
-331.8486328125
 30
0.0
 10
105.90478515625
 20
-331.859375
 30
0.0
 10
105.90478515625
 20
-331.859375
 30
0.0
 10
105.90478515625
 20
-331.859375
 30
0.0
 10
103.6572265625
 20
-331.859375
 30
0.0
 10
103.6572265625
 20
-331.859375
 30
0.0
 10
103.6572265625
 20
-331.859375
 30
0.0
 10
103.42529296875
 20
-331.6220703125
 30
0.0
 10
103.42529296875
 20
-331.6220703125
 30
0.0
 10
103.42529296875
 20
-331.6220703125
 30
0.0
 10
103.41455078125
 20
-331.447265625
 30
0.0
 10
103.41455078125
 20
-331.447265625
 30
0.0
 10
103.41455078125
 20
-331.447265625
 30
0.0
 10
103.41455078125
 20
-320.685546875
 30
0.0
 10
103.41455078125
 20
-320.685546875
 30
0.0
  0
SPLINE
  5
89
330
84
100
AcDbEntity
  8
Layer 1
100
AcDbSpline
210
0.0
220
0.0
230
1.0
 70
     9
 71
     3
 72
    59
 73
    55
 74
     0
 42
0.0000000001
 43
0.0000000001
 40
0.0
 40
0.0
 40
0.0
 40
0.0
 40
1.0
 40
1.0
 40
1.0
 40
2.0
 40
2.0
 40
2.0
 40
3.0
 40
3.0
 40
3.0
 40
4.0
 40
4.0
 40
4.0
 40
5.0
 40
5.0
 40
5.0
 40
6.0
 40
6.0
 40
6.0
 40
7.0
 40
7.0
 40
7.0
 40
8.0
 40
8.0
 40
8.0
 40
9.0
 40
9.0
 40
9.0
 40
10.0
 40
10.0
 40
10.0
 40
11.0
 40
11.0
 40
11.0
 40
12.0
 40
12.0
 40
12.0
 40
13.0
 40
13.0
 40
13.0
 40
14.0
 40
14.0
 40
14.0
 40
15.0
 40
15.0
 40
15.0
 40
16.0
 40
16.0
 40
16.0
 40
17.0
 40
17.0
 40
17.0
 40
18.0
 40
18.0
 40
18.0
 40
18.0
 10
106.6298828125
 20
-316.939453125
 30
0.0
 10
106.6298828125
 20
-316.939453125
 30
0.0
 10
106.6298828125
 20
-317.0048828125
 30
0.0
 10
106.6298828125
 20
-317.0048828125
 30
0.0
 10
106.6298828125
 20
-317.4267578125
 30
0.0
 10
106.47314453125
 20
-317.8212890625
 30
0.0
 10
106.1630859375
 20
-318.177734375
 30
0.0
 10
106.1630859375
 20
-318.177734375
 30
0.0
 10
106.140625
 20
-318.201171875
 30
0.0
 10
106.140625
 20
-318.201171875
 30
0.0
 10
105.77587890625
 20
-318.556640625
 30
0.0
 10
105.357421875
 20
-318.7373046875
 30
0.0
 10
104.8974609375
 20
-318.7373046875
 30
0.0
 10
104.8974609375
 20
-318.7373046875
 30
0.0
 10
104.83251953125
 20
-318.7373046875
 30
0.0
 10
104.83251953125
 20
-318.7373046875
 30
0.0
 10
104.39794921875
 20
-318.7373046875
 30
0.0
 10
104.0009765625
 20
-318.57421875
 30
0.0
 10
103.65185546875
 20
-318.2529296875
 30
0.0
 10
103.65185546875
 20
-318.2529296875
 30
0.0
 10
103.63330078125
 20
-318.234375
 30
0.0
 10
103.63330078125
 20
-318.234375
 30
0.0
 10
103.44482421875
 20
-318.0361328125
 30
0.0
 10
103.3193359375
 20
-317.857421875
 30
0.0
 10
103.2490234375
 20
-317.6875
 30
0.0
 10
103.15185546875
 20
-317.466796875
 30
0.0
 10
103.10009765625
 20
-317.2373046875
 30
0.0
 10
103.10009765625
 20
-317.015625
 30
0.0
 10
103.10009765625
 20
-317.015625
 30
0.0
 10
103.10009765625
 20
-316.9287109375
 30
0.0
 10
103.10009765625
 20
-316.9287109375
 30
0.0
 10
103.10009765625
 20
-316.494140625
 30
0.0
 10
103.27099609375
 20
-316.08984375
 30
0.0
 10
103.607421875
 20
-315.7255859375
 30
0.0
 10
103.607421875
 20
-315.7255859375
 30
0.0
 10
103.63916015625
 20
-315.6953125
 30
0.0
 10
103.63916015625
 20
-315.6953125
 30
0.0
 10
103.63916015625
 20
-315.6953125
 30
0.0
 10
103.84375
 20
-315.5224609375
 30
0.0
 10
103.84375
 20
-315.5224609375
 30
0.0
 10
104.16162109375
 20
-315.3134765625
 30
0.0
 10
104.49072265625
 20
-315.20703125
 30
0.0
 10
104.82177734375
 20
-315.20703125
 30
0.0
 10
104.82177734375
 20
-315.20703125
 30
0.0
 10
104.90869140625
 20
-315.20703125
 30
0.0
 10
104.90869140625
 20
-315.20703125
 30
0.0
 10
105.32421875
 20
-315.20703125
 30
0.0
 10
105.71484375
 20
-315.3642578125
 30
0.0
 10
106.07080078125
 20
-315.673828125
 30
0.0
 10
106.07080078125
 20
-315.673828125
 30
0.0
 10
106.09423828125
 20
-315.6962890625
 30
0.0
 10
106.09423828125
 20
-315.6962890625
 30
0.0
 10
106.44970703125
 20
-316.0615234375
 30
0.0
 10
106.63037109375
 20
-316.4794921875
 30
0.0
 10
106.6298828125
 20
-316.939453125
 30
0.0
  0
HATCH
  5
8A
330
84
100
AcDbEntity
  8
Layer 1
 62
    18
420
        0
440
 33554687
100
AcDbHatch
 10
0.0
 20
0.0
 30
0.0
210
0.0
220
0.0
230
1.0
  2
SOLID
 70
     1
 71
     1
 91
        2
 92
        1
 93
        1
 72
     4
 94
        3
 73
     0
 74
     0
 95
       29
 96
       25
 40
0.0
 40
0.0
 40
0.0
 40
0.0
 40
1.0
 40
1.0
 40
1.0
 40
2.0
 40
2.0
 40
2.0
 40
3.0
 40
3.0
 40
3.0
 40
4.0
 40
4.0
 40
4.0
 40
5.0
 40
5.0
 40
5.0
 40
6.0
 40
6.0
 40
6.0
 40
7.0
 40
7.0
 40
7.0
 40
8.0
 40
8.0
 40
8.0
 40
8.0
 10
103.41455078125
 20
-320.685546875
 10
103.41455078125
 20
-320.685546875
 10
106.31640625
 20
-320.685546875
 10
106.31640625
 20
-320.685546875
 10
106.31640625
 20
-320.685546875
 10
106.31640625
 20
-331.6142578125
 10
106.31640625
 20
-331.6142578125
 10
106.31640625
 20
-331.6142578125
 10
106.08154296875
 20
-331.8486328125
 10
106.08154296875
 20
-331.8486328125
 10
106.08154296875
 20
-331.8486328125
 10
105.90478515625
 20
-331.859375
 10
105.90478515625
 20
-331.859375
 10
105.90478515625
 20
-331.859375
 10
103.6572265625
 20
-331.859375
 10
103.6572265625
 20
-331.859375
 10
103.6572265625
 20
-331.859375
 10
103.42529296875
 20
-331.6220703125
 10
103.42529296875
 20
-331.6220703125
 10
103.42529296875
 20
-331.6220703125
 10
103.41455078125
 20
-331.447265625
 10
103.41455078125
 20
-331.447265625
 10
103.41455078125
 20
-331.447265625
 10
103.41455078125
 20
-320.685546875
 10
103.41455078125
 20
-320.685546875
 97
        0
 97
        1
330
88
 92
        1
 93
        1
 72
     4
 94
        3
 73
     0
 74
     0
 95
       59
 96
       55
 40
0.0
 40
0.0
 40
0.0
 40
0.0
 40
1.0
 40
1.0
 40
1.0
 40
2.0
 40
2.0
 40
2.0
 40
3.0
 40
3.0
 40
3.0
 40
4.0
 40
4.0
 40
4.0
 40
5.0
 40
5.0
 40
5.0
 40
6.0
 40
6.0
 40
6.0
 40
7.0
 40
7.0
 40
7.0
 40
8.0
 40
8.0
 40
8.0
 40
9.0
 40
9.0
 40
9.0
 40
10.0
 40
10.0
 40
10.0
 40
11.0
 40
11.0
 40
11.0
 40
12.0
 40
12.0
 40
12.0
 40
13.0
 40
13.0
 40
13.0
 40
14.0
 40
14.0
 40
14.0
 40
15.0
 40
15.0
 40
15.0
 40
16.0
 40
16.0
 40
16.0
 40
17.0
 40
17.0
 40
17.0
 40
18.0
 40
18.0
 40
18.0
 40
18.0
 10
106.6298828125
 20
-316.939453125
 10
106.6298828125
 20
-316.939453125
 10
106.6298828125
 20
-317.0048828125
 10
106.6298828125
 20
-317.0048828125
 10
106.6298828125
 20
-317.4267578125
 10
106.47314453125
 20
-317.8212890625
 10
106.1630859375
 20
-318.177734375
 10
106.1630859375
 20
-318.177734375
 10
106.140625
 20
-318.201171875
 10
106.140625
 20
-318.201171875
 10
105.77587890625
 20
-318.556640625
 10
105.357421875
 20
-318.7373046875
 10
104.8974609375
 20
-318.7373046875
 10
104.8974609375
 20
-318.7373046875
 10
104.83251953125
 20
-318.7373046875
 10
104.83251953125
 20
-318.7373046875
 10
104.39794921875
 20
-318.7373046875
 10
104.0009765625
 20
-318.57421875
 10
103.65185546875
 20
-318.2529296875
 10
103.65185546875
 20
-318.2529296875
 10
103.63330078125
 20
-318.234375
 10
103.63330078125
 20
-318.234375
 10
103.44482421875
 20
-318.0361328125
 10
103.3193359375
 20
-317.857421875
 10
103.2490234375
 20
-317.6875
 10
103.15185546875
 20
-317.466796875
 10
103.10009765625
 20
-317.2373046875
 10
103.10009765625
 20
-317.015625
 10
103.10009765625
 20
-317.015625
 10
103.10009765625
 20
-316.9287109375
 10
103.10009765625
 20
-316.9287109375
 10
103.10009765625
 20
-316.494140625
 10
103.27099609375
 20
-316.08984375
 10
103.607421875
 20
-315.7255859375
 10
103.607421875
 20
-315.7255859375
 10
103.63916015625
 20
-315.6953125
 10
103.63916015625
 20
-315.6953125
 10
103.63916015625
 20
-315.6953125
 10
103.84375
 20
-315.5224609375
 10
103.84375
 20
-315.5224609375
 10
104.16162109375
 20
-315.3134765625
 10
104.49072265625
 20
-315.20703125
 10
104.82177734375
 20
-315.20703125
 10
104.82177734375
 20
-315.20703125
 10
104.90869140625
 20
-315.20703125
 10
104.90869140625
 20
-315.20703125
 10
105.32421875
 20
-315.20703125
 10
105.71484375
 20
-315.3642578125
 10
106.07080078125
 20
-315.673828125
 10
106.07080078125
 20
-315.673828125
 10
106.09423828125
 20
-315.6962890625
 10
106.09423828125
 20
-315.6962890625
 10
106.44970703125
 20
-316.0615234375
 10
106.63037109375
 20
-316.4794921875
 10
106.6298828125
 20
-316.939453125
 97
        0
 97
        1
330
89
 75
     2
 76
     1
 98
        1
 10
0.0
 20
0.0
450
        0
451
        0
460
0.0
461
0.0
452
        0
462
0.0
453
        0
470

  0
SPLINE
  5
8B
330
84
100
AcDbEntity
  8
Layer 1
100
AcDbSpline
210
0.0
220
0.0
230
1.0
 70
     9
 71
     3
 72
    59
 73
    55
 74
     0
 42
0.0000000001
 43
0.0000000001
 40
0.0
 40
0.0
 40
0.0
 40
0.0
 40
1.0
 40
1.0
 40
1.0
 40
2.0
 40
2.0
 40
2.0
 40
3.0
 40
3.0
 40
3.0
 40
4.0
 40
4.0
 40
4.0
 40
5.0
 40
5.0
 40
5.0
 40
6.0
 40
6.0
 40
6.0
 40
7.0
 40
7.0
 40
7.0
 40
8.0
 40
8.0
 40
8.0
 40
9.0
 40
9.0
 40
9.0
 40
10.0
 40
10.0
 40
10.0
 40
11.0
 40
11.0
 40
11.0
 40
12.0
 40
12.0
 40
12.0
 40
13.0
 40
13.0
 40
13.0
 40
14.0
 40
14.0
 40
14.0
 40
15.0
 40
15.0
 40
15.0
 40
16.0
 40
16.0
 40
16.0
 40
17.0
 40
17.0
 40
17.0
 40
18.0
 40
18.0
 40
18.0
 40
18.0
 10
116.0205078125
 20
-324.3359375
 30
0.0
 10
115.75537109375
 20
-324.0546875
 30
0.0
 10
115.666015625
 20
-323.998046875
 30
0.0
 10
115.65625
 20
-323.9931640625
 30
0.0
 10
115.65625
 20
-323.9931640625
 30
0.0
 10
115.6015625
 20
-323.9697265625
 30
0.0
 10
115.6015625
 20
-323.9697265625
 30
0.0
 10
115.6015625
 20
-323.9697265625
 30
0.0
 10
115.57177734375
 20
-323.9404296875
 30
0.0
 10
115.57177734375
 20
-323.9404296875
 30
0.0
 10
115.470703125
 20
-323.8564453125
 30
0.0
 10
115.3759765625
 20
-323.791015625
 30
0.0
 10
115.291015625
 20
-323.7451171875
 30
0.0
 10
114.88232421875
 20
-323.525390625
 30
0.0
 10
114.4541015625
 20
-323.4140625
 30
0.0
 10
114.0185546875
 20
-323.4140625
 30
0.0
 10
113.349609375
 20
-323.4140625
 30
0.0
 10
112.75
 20
-323.66015625
 30
0.0
 10
112.18603515625
 20
-324.1669921875
 30
0.0
 10
111.92919921875
 20
-324.423828125
 30
0.0
 10
111.86376953125
 20
-324.529296875
 30
0.0
 10
111.85009765625
 20
-324.5546875
 30
0.0
 10
111.85009765625
 20
-324.5546875
 30
0.0
 10
111.82177734375
 20
-324.6005859375
 30
0.0
 10
111.82177734375
 20
-324.6005859375
 30
0.0
 10
111.44970703125
 20
-325.119140625
 30
0.0
 10
111.2685546875
 20
-325.6875
 30
0.0
 10
111.2685546875
 20
-326.3369140625
 30
0.0
 10
111.2685546875
 20
-327.037109375
 30
0.0
 10
111.49169921875
 20
-327.65625
 30
0.0
 10
111.9501953125
 20
-328.2314453125
 30
0.0
 10
112.19677734375
 20
-328.5087890625
 30
0.0
 10
112.322265625
 20
-328.609375
 30
0.0
 10
112.37353515625
 20
-328.642578125
 30
0.0
 10
112.37353515625
 20
-328.642578125
 30
0.0
 10
112.39892578125
 20
-328.66015625
 30
0.0
 10
112.39892578125
 20
-328.66015625
 30
0.0
 10
112.90185546875
 20
-329.0419921875
 30
0.0
 10
113.431640625
 20
-329.2275390625
 30
0.0
 10
114.0185546875
 20
-329.2275390625
 30
0.0
 10
114.7392578125
 20
-329.2275390625
 30
0.0
 10
115.36328125
 20
-328.9609375
 30
0.0
 10
115.92529296875
 20
-328.4111328125
 30
0.0
 10
116.14013671875
 20
-328.18359375
 30
0.0
 10
116.296875
 20
-327.9814453125
 30
0.0
 10
116.380859375
 20
-327.8203125
 30
0.0
 10
116.64697265625
 20
-327.3388671875
 30
0.0
 10
116.779296875
 20
-326.8466796875
 30
0.0
 10
116.779296875
 20
-326.3486328125
 30
0.0
 10
116.779296875
 20
-326.3486328125
 30
0.0
 10
116.779296875
 20
-326.3154296875
 30
0.0
 10
116.779296875
 20
-326.3154296875
 30
0.0
 10
116.779296875
 20
-325.578125
 30
0.0
 10
116.53125
 20
-324.9306640625
 30
0.0
 10
116.0205078125
 20
-324.3359375
 30
0.0
  0
SPLINE
  5
8C
330
84
100
AcDbEntity
  8
Layer 1
100
AcDbSpline
210
0.0
220
0.0
230
1.0
 70
     9
 71
     3
 72
    80
 73
    76
 74
     0
 42
0.0000000001
 43
0.0000000001
 40
0.0
 40
0.0
 40
0.0
 40
0.0
 40
1.0
 40
1.0
 40
1.0
 40
2.0
 40
2.0
 40
2.0
 40
3.0
 40
3.0
 40
3.0
 40
4.0
 40
4.0
 40
4.0
 40
5.0
 40
5.0
 40
5.0
 40
6.0
 40
6.0
 40
6.0
 40
7.0
 40
7.0
 40
7.0
 40
8.0
 40
8.0
 40
8.0
 40
9.0
 40
9.0
 40
9.0
 40
10.0
 40
10.0
 40
10.0
 40
11.0
 40
11.0
 40
11.0
 40
12.0
 40
12.0
 40
12.0
 40
13.0
 40
13.0
 40
13.0
 40
14.0
 40
14.0
 40
14.0
 40
15.0
 40
15.0
 40
15.0
 40
16.0
 40
16.0
 40
16.0
 40
17.0
 40
17.0
 40
17.0
 40
18.0
 40
18.0
 40
18.0
 40
19.0
 40
19.0
 40
19.0
 40
20.0
 40
20.0
 40
20.0
 40
21.0
 40
21.0
 40
21.0
 40
22.0
 40
22.0
 40
22.0
 40
23.0
 40
23.0
 40
23.0
 40
24.0
 40
24.0
 40
24.0
 40
25.0
 40
25.0
 40
25.0
 40
25.0
 10
119.6708984375
 20
-326.3369140625
 30
0.0
 10
119.6708984375
 20
-327.3076171875
 30
0.0
 10
119.43310546875
 20
-328.251953125
 30
0.0
 10
118.96435546875
 20
-329.1435546875
 30
0.0
 10
118.79833984375
 20
-329.4443359375
 30
0.0
 10
118.578125
 20
-329.765625
 30
0.0
 10
118.3056640625
 20
-330.1064453125
 30
0.0
 10
117.99169921875
 20
-330.46875
 30
0.0
 10
117.74853515625
 20
-330.7109375
 30
0.0
 10
117.55078125
 20
-330.8583984375
 30
0.0
 10
117.35693359375
 20
-331.017578125
 30
0.0
 10
117.15771484375
 20
-331.162109375
 30
0.0
 10
116.970703125
 20
-331.279296875
 30
0.0
 10
116.04736328125
 20
-331.837890625
 30
0.0
 10
115.07421875
 20
-332.119140625
 30
0.0
 10
114.0732421875
 20
-332.119140625
 30
0.0
 10
114.0732421875
 20
-332.119140625
 30
0.0
 10
113.9755859375
 20
-332.119140625
 30
0.0
 10
113.9755859375
 20
-332.119140625
 30
0.0
 10
112.92041015625
 20
-332.119140625
 30
0.0
 10
111.89697265625
 20
-331.806640625
 30
0.0
 10
110.93408203125
 20
-331.189453125
 30
0.0
 10
110.93408203125
 20
-331.189453125
 30
0.0
 10
110.90966796875
 20
-331.1728515625
 30
0.0
 10
110.90966796875
 20
-331.1728515625
 30
0.0
 10
110.7294921875
 20
-331.0380859375
 30
0.0
 10
110.568359375
 20
-330.91015625
 30
0.0
 10
110.42578125
 20
-330.7900390625
 30
0.0
 10
110.1240234375
 20
-330.53515625
 30
0.0
 10
109.90771484375
 20
-330.318359375
 30
0.0
 10
109.765625
 20
-330.1298828125
 30
0.0
 10
109.60546875
 20
-329.9453125
 30
0.0
 10
109.455078125
 20
-329.744140625
 30
0.0
 10
109.318359375
 20
-329.53125
 30
0.0
 10
109.16357421875
 20
-329.2841796875
 30
0.0
 10
109.03173828125
 20
-329.04296875
 30
0.0
 10
108.92431640625
 20
-328.8125
 30
0.0
 10
108.56103515625
 20
-328.009765625
 30
0.0
 10
108.3779296875
 20
-327.2001953125
 30
0.0
 10
108.3779296875
 20
-326.40234375
 30
0.0
 10
108.3779296875
 20
-326.40234375
 30
0.0
 10
108.3779296875
 20
-326.240234375
 30
0.0
 10
108.3779296875
 20
-326.240234375
 30
0.0
 10
108.3779296875
 20
-325.373046875
 30
0.0
 10
108.595703125
 20
-324.4931640625
 30
0.0
 10
109.02587890625
 20
-323.6259765625
 30
0.0
 10
109.150390625
 20
-323.3837890625
 30
0.0
 10
109.2978515625
 20
-323.1396484375
 30
0.0
 10
109.4658203125
 20
-322.89453125
 30
0.0
 10
109.6025390625
 20
-322.7021484375
 30
0.0
 10
109.79345703125
 20
-322.47265625
 30
0.0
 10
110.05322265625
 20
-322.1904296875
 30
0.0
 10
110.05322265625
 20
-322.1904296875
 30
0.0
 10
110.0771484375
 20
-322.1669921875
 30
0.0
 10
110.0771484375
 20
-322.1669921875
 30
0.0
 10
110.4580078125
 20
-321.81640625
 30
0.0
 10
110.7177734375
 20
-321.6025390625
 30
0.0
 10
110.8955078125
 20
-321.4921875
 30
0.0
 10
111.83154296875
 20
-320.8525390625
 30
0.0
 10
112.88720703125
 20
-320.5234375
 30
0.0
 10
114.0185546875
 20
-320.5234375
 30
0.0
 10
115.28076171875
 20
-320.5234375
 30
0.0
 10
116.44921875
 20
-320.9345703125
 30
0.0
 10
117.4912109375
 20
-321.7451171875
 30
0.0
 10
117.6396484375
 20
-321.8544921875
 30
0.0
 10
117.84716796875
 20
-322.0458984375
 30
0.0
 10
118.11669921875
 20
-322.3232421875
 30
0.0
 10
118.11669921875
 20
-322.3232421875
 30
0.0
 10
118.1279296875
 20
-322.3349609375
 30
0.0
 10
118.1279296875
 20
-322.3349609375
 30
0.0
 10
118.65869140625
 20
-322.9267578125
 30
0.0
 10
119.0419921875
 20
-323.546875
 30
0.0
 10
119.26806640625
 20
-324.177734375
 30
0.0
 10
119.53369140625
 20
-324.8603515625
 30
0.0
 10
119.669921875
 20
-325.5908203125
 30
0.0
 10
119.6708984375
 20
-326.3369140625
 30
0.0
  0
HATCH
  5
8D
330
84
100
AcDbEntity
  8
Layer 1
 62
    18
420
        0
440
 33554687
100
AcDbHatch
 10
0.0
 20
0.0
 30
0.0
210
0.0
220
0.0
230
1.0
  2
SOLID
 70
     1
 71
     1
 91
        2
 92
        1
 93
        1
 72
     4
 94
        3
 73
     0
 74
     0
 95
       59
 96
       55
 40
0.0
 40
0.0
 40
0.0
 40
0.0
 40
1.0
 40
1.0
 40
1.0
 40
2.0
 40
2.0
 40
2.0
 40
3.0
 40
3.0
 40
3.0
 40
4.0
 40
4.0
 40
4.0
 40
5.0
 40
5.0
 40
5.0
 40
6.0
 40
6.0
 40
6.0
 40
7.0
 40
7.0
 40
7.0
 40
8.0
 40
8.0
 40
8.0
 40
9.0
 40
9.0
 40
9.0
 40
10.0
 40
10.0
 40
10.0
 40
11.0
 40
11.0
 40
11.0
 40
12.0
 40
12.0
 40
12.0
 40
13.0
 40
13.0
 40
13.0
 40
14.0
 40
14.0
 40
14.0
 40
15.0
 40
15.0
 40
15.0
 40
16.0
 40
16.0
 40
16.0
 40
17.0
 40
17.0
 40
17.0
 40
18.0
 40
18.0
 40
18.0
 40
18.0
 10
116.0205078125
 20
-324.3359375
 10
115.75537109375
 20
-324.0546875
 10
115.666015625
 20
-323.998046875
 10
115.65625
 20
-323.9931640625
 10
115.65625
 20
-323.9931640625
 10
115.6015625
 20
-323.9697265625
 10
115.6015625
 20
-323.9697265625
 10
115.6015625
 20
-323.9697265625
 10
115.57177734375
 20
-323.9404296875
 10
115.57177734375
 20
-323.9404296875
 10
115.470703125
 20
-323.8564453125
 10
115.3759765625
 20
-323.791015625
 10
115.291015625
 20
-323.7451171875
 10
114.88232421875
 20
-323.525390625
 10
114.4541015625
 20
-323.4140625
 10
114.0185546875
 20
-323.4140625
 10
113.349609375
 20
-323.4140625
 10
112.75
 20
-323.66015625
 10
112.18603515625
 20
-324.1669921875
 10
111.92919921875
 20
-324.423828125
 10
111.86376953125
 20
-324.529296875
 10
111.85009765625
 20
-324.5546875
 10
111.85009765625
 20
-324.5546875
 10
111.82177734375
 20
-324.6005859375
 10
111.82177734375
 20
-324.6005859375
 10
111.44970703125
 20
-325.119140625
 10
111.2685546875
 20
-325.6875
 10
111.2685546875
 20
-326.3369140625
 10
111.2685546875
 20
-327.037109375
 10
111.49169921875
 20
-327.65625
 10
111.9501953125
 20
-328.2314453125
 10
112.19677734375
 20
-328.5087890625
 10
112.322265625
 20
-328.609375
 10
112.37353515625
 20
-328.642578125
 10
112.37353515625
 20
-328.642578125
 10
112.39892578125
 20
-328.66015625
 10
112.39892578125
 20
-328.66015625
 10
112.90185546875
 20
-329.0419921875
 10
113.431640625
 20
-329.2275390625
 10
114.0185546875
 20
-329.2275390625
 10
114.7392578125
 20
-329.2275390625
 10
115.36328125
 20
-328.9609375
 10
115.92529296875
 20
-328.4111328125
 10
116.14013671875
 20
-328.18359375
 10
116.296875
 20
-327.9814453125
 10
116.380859375
 20
-327.8203125
 10
116.64697265625
 20
-327.3388671875
 10
116.779296875
 20
-326.8466796875
 10
116.779296875
 20
-326.3486328125
 10
116.779296875
 20
-326.3486328125
 10
116.779296875
 20
-326.3154296875
 10
116.779296875
 20
-326.3154296875
 10
116.779296875
 20
-325.578125
 10
116.53125
 20
-324.9306640625
 10
116.0205078125
 20
-324.3359375
 97
        0
 97
        1
330
8B
 92
        1
 93
        1
 72
     4
 94
        3
 73
     0
 74
     0
 95
       80
 96
       76
 40
0.0
 40
0.0
 40
0.0
 40
0.0
 40
1.0
 40
1.0
 40
1.0
 40
2.0
 40
2.0
 40
2.0
 40
3.0
 40
3.0
 40
3.0
 40
4.0
 40
4.0
 40
4.0
 40
5.0
 40
5.0
 40
5.0
 40
6.0
 40
6.0
 40
6.0
 40
7.0
 40
7.0
 40
7.0
 40
8.0
 40
8.0
 40
8.0
 40
9.0
 40
9.0
 40
9.0
 40
10.0
 40
10.0
 40
10.0
 40
11.0
 40
11.0
 40
11.0
 40
12.0
 40
12.0
 40
12.0
 40
13.0
 40
13.0
 40
13.0
 40
14.0
 40
14.0
 40
14.0
 40
15.0
 40
15.0
 40
15.0
 40
16.0
 40
16.0
 40
16.0
 40
17.0
 40
17.0
 40
17.0
 40
18.0
 40
18.0
 40
18.0
 40
19.0
 40
19.0
 40
19.0
 40
20.0
 40
20.0
 40
20.0
 40
21.0
 40
21.0
 40
21.0
 40
22.0
 40
22.0
 40
22.0
 40
23.0
 40
23.0
 40
23.0
 40
24.0
 40
24.0
 40
24.0
 40
25.0
 40
25.0
 40
25.0
 40
25.0
 10
119.6708984375
 20
-326.3369140625
 10
119.6708984375
 20
-327.3076171875
 10
119.43310546875
 20
-328.251953125
 10
118.96435546875
 20
-329.1435546875
 10
118.79833984375
 20
-329.4443359375
 10
118.578125
 20
-329.765625
 10
118.3056640625
 20
-330.1064453125
 10
117.99169921875
 20
-330.46875
 10
117.74853515625
 20
-330.7109375
 10
117.55078125
 20
-330.8583984375
 10
117.35693359375
 20
-331.017578125
 10
117.15771484375
 20
-331.162109375
 10
116.970703125
 20
-331.279296875
 10
116.04736328125
 20
-331.837890625
 10
115.07421875
 20
-332.119140625
 10
114.0732421875
 20
-332.119140625
 10
114.0732421875
 20
-332.119140625
 10
113.9755859375
 20
-332.119140625
 10
113.9755859375
 20
-332.119140625
 10
112.92041015625
 20
-332.119140625
 10
111.89697265625
 20
-331.806640625
 10
110.93408203125
 20
-331.189453125
 10
110.93408203125
 20
-331.189453125
 10
110.90966796875
 20
-331.1728515625
 10
110.90966796875
 20
-331.1728515625
 10
110.7294921875
 20
-331.0380859375
 10
110.568359375
 20
-330.91015625
 10
110.42578125
 20
-330.7900390625
 10
110.1240234375
 20
-330.53515625
 10
109.90771484375
 20
-330.318359375
 10
109.765625
 20
-330.1298828125
 10
109.60546875
 20
-329.9453125
 10
109.455078125
 20
-329.744140625
 10
109.318359375
 20
-329.53125
 10
109.16357421875
 20
-329.2841796875
 10
109.03173828125
 20
-329.04296875
 10
108.92431640625
 20
-328.8125
 10
108.56103515625
 20
-328.009765625
 10
108.3779296875
 20
-327.2001953125
 10
108.3779296875
 20
-326.40234375
 10
108.3779296875
 20
-326.40234375
 10
108.3779296875
 20
-326.240234375
 10
108.3779296875
 20
-326.240234375
 10
108.3779296875
 20
-325.373046875
 10
108.595703125
 20
-324.4931640625
 10
109.02587890625
 20
-323.6259765625
 10
109.150390625
 20
-323.3837890625
 10
109.2978515625
 20
-323.1396484375
 10
109.4658203125
 20
-322.89453125
 10
109.6025390625
 20
-322.7021484375
 10
109.79345703125
 20
-322.47265625
 10
110.05322265625
 20
-322.1904296875
 10
110.05322265625
 20
-322.1904296875
 10
110.0771484375
 20
-322.1669921875
 10
110.0771484375
 20
-322.1669921875
 10
110.4580078125
 20
-321.81640625
 10
110.7177734375
 20
-321.6025390625
 10
110.8955078125
 20
-321.4921875
 10
111.83154296875
 20
-320.8525390625
 10
112.88720703125
 20
-320.5234375
 10
114.0185546875
 20
-320.5234375
 10
115.28076171875
 20
-320.5234375
 10
116.44921875
 20
-320.9345703125
 10
117.4912109375
 20
-321.7451171875
 10
117.6396484375
 20
-321.8544921875
 10
117.84716796875
 20
-322.0458984375
 10
118.11669921875
 20
-322.3232421875
 10
118.11669921875
 20
-322.3232421875
 10
118.1279296875
 20
-322.3349609375
 10
118.1279296875
 20
-322.3349609375
 10
118.65869140625
 20
-322.9267578125
 10
119.0419921875
 20
-323.546875
 10
119.26806640625
 20
-324.177734375
 10
119.53369140625
 20
-324.8603515625
 10
119.669921875
 20
-325.5908203125
 10
119.6708984375
 20
-326.3369140625
 97
        0
 97
        1
330
8C
 75
     2
 76
     1
 98
        1
 10
0.0
 20
0.0
450
        0
451
        0
460
0.0
461
0.0
452
        0
462
0.0
453
        0
470

  0
SPLINE
  5
8E
330
84
100
AcDbEntity
  8
Layer 1
100
AcDbSpline
210
0.0
220
0.0
230
1.0
 70
    11
 71
     3
 72
    89
 73
    85
 74
     0
 42
0.0000000001
 43
0.0000000001
 40
0.0
 40
0.0
 40
0.0
 40
0.0
 40
1.0
 40
1.0
 40
1.0
 40
2.0
 40
2.0
 40
2.0
 40
3.0
 40
3.0
 40
3.0
 40
4.0
 40
4.0
 40
4.0
 40
5.0
 40
5.0
 40
5.0
 40
6.0
 40
6.0
 40
6.0
 40
7.0
 40
7.0
 40
7.0
 40
8.0
 40
8.0
 40
8.0
 40
9.0
 40
9.0
 40
9.0
 40
10.0
 40
10.0
 40
10.0
 40
11.0
 40
11.0
 40
11.0
 40
12.0
 40
12.0
 40
12.0
 40
13.0
 40
13.0
 40
13.0
 40
14.0
 40
14.0
 40
14.0
 40
15.0
 40
15.0
 40
15.0
 40
16.0
 40
16.0
 40
16.0
 40
17.0
 40
17.0
 40
17.0
 40
18.0
 40
18.0
 40
18.0
 40
19.0
 40
19.0
 40
19.0
 40
20.0
 40
20.0
 40
20.0
 40
21.0
 40
21.0
 40
21.0
 40
22.0
 40
22.0
 40
22.0
 40
23.0
 40
23.0
 40
23.0
 40
24.0
 40
24.0
 40
24.0
 40
25.0
 40
25.0
 40
25.0
 40
26.0
 40
26.0
 40
26.0
 40
27.0
 40
27.0
 40
27.0
 40
28.0
 40
28.0
 40
28.0
 40
28.0
 10
127.494140625
 20
-331.220703125
 30
0.0
 10
127.494140625
 20
-331.220703125
 30
0.0
 10
127.1328125
 20
-331.373046875
 30
0.0
 10
127.1328125
 20
-331.373046875
 30
0.0
 10
126.9501953125
 20
-331.4501953125
 30
0.0
 10
126.66015625
 20
-331.546875
 30
0.0
 10
126.24609375
 20
-331.6689453125
 30
0.0
 10
125.74609375
 20
-331.7958984375
 30
0.0
 10
125.3046875
 20
-331.8583984375
 30
0.0
 10
124.919921875
 20
-331.8583984375
 30
0.0
 10
124.919921875
 20
-331.8583984375
 30
0.0
 10
124.8984375
 20
-331.8583984375
 30
0.0
 10
124.8984375
 20
-331.8583984375
 30
0.0
 10
124.13037109375
 20
-331.8583984375
 30
0.0
 10
123.4052734375
 20
-331.623046875
 30
0.0
 10
122.7421875
 20
-331.158203125
 30
0.0
 10
122.62158203125
 20
-331.072265625
 30
0.0
 10
122.47607421875
 20
-330.9482421875
 30
0.0
 10
122.294921875
 20
-330.775390625
 30
0.0
 10
122.294921875
 20
-330.775390625
 30
0.0
 10
122.25341796875
 20
-330.7294921875
 30
0.0
 10
122.25341796875
 20
-330.7294921875
 30
0.0
 10
122.25341796875
 20
-330.7294921875
 30
0.0
 10
122.0693359375
 20
-330.4892578125
 30
0.0
 10
122.0693359375
 20
-330.4892578125
 30
0.0
 10
121.93505859375
 20
-330.314453125
 30
0.0
 10
121.828125
 20
-330.1376953125
 30
0.0
 10
121.7509765625
 20
-329.9638671875
 30
0.0
 10
121.533203125
 20
-329.4716796875
 30
0.0
 10
121.4228515625
 20
-328.97265625
 30
0.0
 10
121.4228515625
 20
-328.4814453125
 30
0.0
 10
121.4228515625
 20
-328.4814453125
 30
0.0
 10
121.4228515625
 20
-315.20703125
 30
0.0
 10
121.4228515625
 20
-315.20703125
 30
0.0
 10
121.4228515625
 20
-315.20703125
 30
0.0
 10
124.06787109375
 20
-315.20703125
 30
0.0
 10
124.06787109375
 20
-315.20703125
 30
0.0
 10
124.06787109375
 20
-315.20703125
 30
0.0
 10
124.302734375
 20
-315.44140625
 30
0.0
 10
124.302734375
 20
-315.44140625
 30
0.0
 10
124.302734375
 20
-315.44140625
 30
0.0
 10
124.3134765625
 20
-315.6181640625
 30
0.0
 10
124.3134765625
 20
-315.6181640625
 30
0.0
 10
124.3134765625
 20
-315.6181640625
 30
0.0
 10
124.3134765625
 20
-320.67578125
 30
0.0
 10
124.3134765625
 20
-320.67578125
 30
0.0
 10
124.3134765625
 20
-320.67578125
 30
0.0
 10
126.76513671875
 20
-320.67578125
 30
0.0
 10
126.76513671875
 20
-320.67578125
 30
0.0
 10
126.76513671875
 20
-320.67578125
 30
0.0
 10
127.0009765625
 20
-320.9091796875
 30
0.0
 10
127.0009765625
 20
-320.9091796875
 30
0.0
 10
127.0009765625
 20
-320.9091796875
 30
0.0
 10
127.01171875
 20
-321.0869140625
 30
0.0
 10
127.01171875
 20
-321.0869140625
 30
0.0
 10
127.01171875
 20
-321.0869140625
 30
0.0
 10
127.01171875
 20
-323.3310546875
 30
0.0
 10
127.01171875
 20
-323.3310546875
 30
0.0
 10
127.01171875
 20
-323.3310546875
 30
0.0
 10
126.77685546875
 20
-323.56640625
 30
0.0
 10
126.77685546875
 20
-323.56640625
 30
0.0
 10
126.77685546875
 20
-323.56640625
 30
0.0
 10
126.6005859375
 20
-323.5771484375
 30
0.0
 10
126.6005859375
 20
-323.5771484375
 30
0.0
 10
126.6005859375
 20
-323.5771484375
 30
0.0
 10
124.3134765625
 20
-323.5771484375
 30
0.0
 10
124.3134765625
 20
-323.5771484375
 30
0.0
 10
124.3134765625
 20
-323.5771484375
 30
0.0
 10
124.3134765625
 20
-328.404296875
 30
0.0
 10
124.3134765625
 20
-328.404296875
 30
0.0
 10
124.3134765625
 20
-328.7626953125
 30
0.0
 10
124.44677734375
 20
-328.8291015625
 30
0.0
 10
124.50341796875
 20
-328.857421875
 30
0.0
 10
124.64501953125
 20
-328.93359375
 30
0.0
 10
124.77490234375
 20
-328.9677734375
 30
0.0
 10
124.9091796875
 20
-328.9677734375
 30
0.0
 10
125.0693359375
 20
-328.9677734375
 30
0.0
 10
125.38037109375
 20
-328.9248046875
 30
0.0
 10
125.95556640625
 20
-328.71875
 30
0.0
 10
125.95556640625
 20
-328.71875
 30
0.0
 10
126.41259765625
 20
-328.49609375
 30
0.0
 10
126.41259765625
 20
-328.49609375
 30
0.0
 10
126.41259765625
 20
-328.49609375
 30
0.0
 10
127.494140625
 20
-331.220703125
 30
0.0
 10
127.494140625
 20
-331.220703125
 30
0.0
  0
HATCH
  5
8F
330
84
100
AcDbEntity
  8
Layer 1
 62
    18
420
        0
440
 33554687
100
AcDbHatch
 10
0.0
 20
0.0
 30
0.0
210
0.0
220
0.0
230
1.0
  2
SOLID
 70
     1
 71
     1
 91
        1
 92
        1
 93
        1
 72
     4
 94
        3
 73
     0
 74
     0
 95
       89
 96
       85
 40
0.0
 40
0.0
 40
0.0
 40
0.0
 40
1.0
 40
1.0
 40
1.0
 40
2.0
 40
2.0
 40
2.0
 40
3.0
 40
3.0
 40
3.0
 40
4.0
 40
4.0
 40
4.0
 40
5.0
 40
5.0
 40
5.0
 40
6.0
 40
6.0
 40
6.0
 40
7.0
 40
7.0
 40
7.0
 40
8.0
 40
8.0
 40
8.0
 40
9.0
 40
9.0
 40
9.0
 40
10.0
 40
10.0
 40
10.0
 40
11.0
 40
11.0
 40
11.0
 40
12.0
 40
12.0
 40
12.0
 40
13.0
 40
13.0
 40
13.0
 40
14.0
 40
14.0
 40
14.0
 40
15.0
 40
15.0
 40
15.0
 40
16.0
 40
16.0
 40
16.0
 40
17.0
 40
17.0
 40
17.0
 40
18.0
 40
18.0
 40
18.0
 40
19.0
 40
19.0
 40
19.0
 40
20.0
 40
20.0
 40
20.0
 40
21.0
 40
21.0
 40
21.0
 40
22.0
 40
22.0
 40
22.0
 40
23.0
 40
23.0
 40
23.0
 40
24.0
 40
24.0
 40
24.0
 40
25.0
 40
25.0
 40
25.0
 40
26.0
 40
26.0
 40
26.0
 40
27.0
 40
27.0
 40
27.0
 40
28.0
 40
28.0
 40
28.0
 40
28.0
 10
127.494140625
 20
-331.220703125
 10
127.494140625
 20
-331.220703125
 10
127.1328125
 20
-331.373046875
 10
127.1328125
 20
-331.373046875
 10
126.9501953125
 20
-331.4501953125
 10
126.66015625
 20
-331.546875
 10
126.24609375
 20
-331.6689453125
 10
125.74609375
 20
-331.7958984375
 10
125.3046875
 20
-331.8583984375
 10
124.919921875
 20
-331.8583984375
 10
124.919921875
 20
-331.8583984375
 10
124.8984375
 20
-331.8583984375
 10
124.8984375
 20
-331.8583984375
 10
124.13037109375
 20
-331.8583984375
 10
123.4052734375
 20
-331.623046875
 10
122.7421875
 20
-331.158203125
 10
122.62158203125
 20
-331.072265625
 10
122.47607421875
 20
-330.9482421875
 10
122.294921875
 20
-330.775390625
 10
122.294921875
 20
-330.775390625
 10
122.25341796875
 20
-330.7294921875
 10
122.25341796875
 20
-330.7294921875
 10
122.25341796875
 20
-330.7294921875
 10
122.0693359375
 20
-330.4892578125
 10
122.0693359375
 20
-330.4892578125
 10
121.93505859375
 20
-330.314453125
 10
121.828125
 20
-330.1376953125
 10
121.7509765625
 20
-329.9638671875
 10
121.533203125
 20
-329.4716796875
 10
121.4228515625
 20
-328.97265625
 10
121.4228515625
 20
-328.4814453125
 10
121.4228515625
 20
-328.4814453125
 10
121.4228515625
 20
-315.20703125
 10
121.4228515625
 20
-315.20703125
 10
121.4228515625
 20
-315.20703125
 10
124.06787109375
 20
-315.20703125
 10
124.06787109375
 20
-315.20703125
 10
124.06787109375
 20
-315.20703125
 10
124.302734375
 20
-315.44140625
 10
124.302734375
 20
-315.44140625
 10
124.302734375
 20
-315.44140625
 10
124.3134765625
 20
-315.6181640625
 10
124.3134765625
 20
-315.6181640625
 10
124.3134765625
 20
-315.6181640625
 10
124.3134765625
 20
-320.67578125
 10
124.3134765625
 20
-320.67578125
 10
124.3134765625
 20
-320.67578125
 10
126.76513671875
 20
-320.67578125
 10
126.76513671875
 20
-320.67578125
 10
126.76513671875
 20
-320.67578125
 10
127.0009765625
 20
-320.9091796875
 10
127.0009765625
 20
-320.9091796875
 10
127.0009765625
 20
-320.9091796875
 10
127.01171875
 20
-321.0869140625
 10
127.01171875
 20
-321.0869140625
 10
127.01171875
 20
-321.0869140625
 10
127.01171875
 20
-323.3310546875
 10
127.01171875
 20
-323.3310546875
 10
127.01171875
 20
-323.3310546875
 10
126.77685546875
 20
-323.56640625
 10
126.77685546875
 20
-323.56640625
 10
126.77685546875
 20
-323.56640625
 10
126.6005859375
 20
-323.5771484375
 10
126.6005859375
 20
-323.5771484375
 10
126.6005859375
 20
-323.5771484375
 10
124.3134765625
 20
-323.5771484375
 10
124.3134765625
 20
-323.5771484375
 10
124.3134765625
 20
-323.5771484375
 10
124.3134765625
 20
-328.404296875
 10
124.3134765625
 20
-328.404296875
 10
124.3134765625
 20
-328.7626953125
 10
124.44677734375
 20
-328.8291015625
 10
124.50341796875
 20
-328.857421875
 10
124.64501953125
 20
-328.93359375
 10
124.77490234375
 20
-328.9677734375
 10
124.9091796875
 20
-328.9677734375
 10
125.0693359375
 20
-328.9677734375
 10
125.38037109375
 20
-328.9248046875
 10
125.95556640625
 20
-328.71875
 10
125.95556640625
 20
-328.71875
 10
126.41259765625
 20
-328.49609375
 10
126.41259765625
 20
-328.49609375
 10
126.41259765625
 20
-328.49609375
 10
127.494140625
 20
-331.220703125
 10
127.494140625
 20
-331.220703125
 97
        0
 97
        1
330
8E
 75
     2
 76
     1
 98
        1
 10
0.0
 20
0.0
450
        0
451
        0
460
0.0
461
0.0
452
        0
462
0.0
453
        0
470

  0
SPLINE
  5
90
330
84
100
AcDbEntity
  8
Layer 1
100
AcDbSpline
210
0.0
220
0.0
230
1.0
 70
     9
 71
     3
 72
    35
 73
    31
 74
     0
 42
0.0000000001
 43
0.0000000001
 40
0.0
 40
0.0
 40
0.0
 40
0.0
 40
1.0
 40
1.0
 40
1.0
 40
2.0
 40
2.0
 40
2.0
 40
3.0
 40
3.0
 40
3.0
 40
4.0
 40
4.0
 40
4.0
 40
5.0
 40
5.0
 40
5.0
 40
6.0
 40
6.0
 40
6.0
 40
7.0
 40
7.0
 40
7.0
 40
8.0
 40
8.0
 40
8.0
 40
9.0
 40
9.0
 40
9.0
 40
10.0
 40
10.0
 40
10.0
 40
10.0
 10
135.78955078125
 20
-323.8564453125
 30
0.0
 10
135.31884765625
 20
-323.5703125
 30
0.0
 10
134.85400390625
 20
-323.4248046875
 30
0.0
 10
134.4091796875
 20
-323.4248046875
 30
0.0
 10
134.4091796875
 20
-323.4248046875
 30
0.0
 10
134.23583984375
 20
-323.4248046875
 30
0.0
 10
134.23583984375
 20
-323.4248046875
 30
0.0
 10
133.4892578125
 20
-323.4248046875
 30
0.0
 10
132.82421875
 20
-323.7685546875
 30
0.0
 10
132.2021484375
 20
-324.474609375
 30
0.0
 10
131.78564453125
 20
-325.0693359375
 30
0.0
 10
131.58349609375
 20
-325.671875
 30
0.0
 10
131.58349609375
 20
-326.3154296875
 30
0.0
 10
131.58349609375
 20
-327.326171875
 30
0.0
 10
132.00732421875
 20
-328.1337890625
 30
0.0
 10
132.87890625
 20
-328.787109375
 30
0.0
 10
133.35546875
 20
-329.072265625
 30
0.0
 10
133.8046875
 20
-329.2177734375
 30
0.0
 10
134.21435546875
 20
-329.2177734375
 30
0.0
 10
134.21435546875
 20
-329.2177734375
 30
0.0
 10
134.45263671875
 20
-329.2177734375
 30
0.0
 10
134.45263671875
 20
-329.2177734375
 30
0.0
 10
135.04736328125
 20
-329.2177734375
 30
0.0
 10
135.61669921875
 20
-328.9765625
 30
0.0
 10
136.19189453125
 20
-328.4814453125
 30
0.0
 10
136.79150390625
 20
-327.86328125
 30
0.0
 10
137.08349609375
 20
-327.158203125
 30
0.0
 10
137.08349609375
 20
-326.3271484375
 30
0.0
 10
137.08349609375
 20
-325.29296875
 30
0.0
 10
136.66064453125
 20
-324.48828125
 30
0.0
 10
135.78955078125
 20
-323.8564453125
 30
0.0
  0
SPLINE
  5
91
330
84
100
AcDbEntity
  8
Layer 1
100
AcDbSpline
210
0.0
220
0.0
230
1.0
 70
    11
 71
     3
 72
    53
 73
    49
 74
     0
 42
0.0000000001
 43
0.0000000001
 40
0.0
 40
0.0
 40
0.0
 40
0.0
 40
1.0
 40
1.0
 40
1.0
 40
2.0
 40
2.0
 40
2.0
 40
3.0
 40
3.0
 40
3.0
 40
4.0
 40
4.0
 40
4.0
 40
5.0
 40
5.0
 40
5.0
 40
6.0
 40
6.0
 40
6.0
 40
7.0
 40
7.0
 40
7.0
 40
8.0
 40
8.0
 40
8.0
 40
9.0
 40
9.0
 40
9.0
 40
10.0
 40
10.0
 40
10.0
 40
11.0
 40
11.0
 40
11.0
 40
12.0
 40
12.0
 40
12.0
 40
13.0
 40
13.0
 40
13.0
 40
14.0
 40
14.0
 40
14.0
 40
15.0
 40
15.0
 40
15.0
 40
16.0
 40
16.0
 40
16.0
 40
16.0
 10
139.98486328125
 20
-320.9423828125
 30
0.0
 10
139.98486328125
 20
-320.9423828125
 30
0.0
 10
139.98486328125
 20
-331.603515625
 30
0.0
 10
139.98486328125
 20
-331.603515625
 30
0.0
 10
139.98486328125
 20
-331.603515625
 30
0.0
 10
139.72900390625
 20
-331.859375
 30
0.0
 10
139.72900390625
 20
-331.859375
 30
0.0
 10
139.72900390625
 20
-331.859375
 30
0.0
 10
137.39599609375
 20
-331.859375
 30
0.0
 10
137.39599609375
 20
-331.859375
 30
0.0
 10
137.39599609375
 20
-331.859375
 30
0.0
 10
137.08349609375
 20
-331.65234375
 30
0.0
 10
137.08349609375
 20
-331.65234375
 30
0.0
 10
137.08349609375
 20
-331.65234375
 30
0.0
 10
137.08349609375
 20
-331.2841796875
 30
0.0
 10
137.08349609375
 20
-331.2841796875
 30
0.0
 10
136.31982421875
 20
-331.8388671875
 30
0.0
 10
135.40966796875
 20
-332.119140625
 30
0.0
 10
134.3662109375
 20
-332.119140625
 30
0.0
 10
134.3662109375
 20
-332.119140625
 30
0.0
 10
134.35546875
 20
-332.119140625
 30
0.0
 10
134.35546875
 20
-332.119140625
 30
0.0
 10
132.66015625
 20
-332.119140625
 30
0.0
 10
131.203125
 20
-331.427734375
 30
0.0
 10
130.0244140625
 20
-330.064453125
 30
0.0
 10
129.1376953125
 20
-328.9521484375
 30
0.0
 10
128.69287109375
 20
-327.6982421875
 30
0.0
 10
128.69287109375
 20
-326.3271484375
 30
0.0
 10
128.69287109375
 20
-324.6201171875
 30
0.0
 10
129.3544921875
 20
-323.1376953125
 30
0.0
 10
130.65966796875
 20
-321.91015625
 30
0.0
 10
131.76416015625
 20
-320.984375
 30
0.0
 10
133.0126953125
 20
-320.5234375
 30
0.0
 10
134.3876953125
 20
-320.5234375
 30
0.0
 10
135.39306640625
 20
-320.5234375
 30
0.0
 10
136.29638671875
 20
-320.818359375
 30
0.0
 10
137.08349609375
 20
-321.4033203125
 30
0.0
 10
137.08349609375
 20
-321.4033203125
 30
0.0
 10
137.08349609375
 20
-320.892578125
 30
0.0
 10
137.08349609375
 20
-320.892578125
 30
0.0
 10
137.08349609375
 20
-320.892578125
 30
0.0
 10
137.39599609375
 20
-320.685546875
 30
0.0
 10
137.39599609375
 20
-320.685546875
 30
0.0
 10
137.39599609375
 20
-320.685546875
 30
0.0
 10
139.72900390625
 20
-320.685546875
 30
0.0
 10
139.72900390625
 20
-320.685546875
 30
0.0
 10
139.72900390625
 20
-320.685546875
 30
0.0
 10
139.98486328125
 20
-320.9423828125
 30
0.0
 10
139.98486328125
 20
-320.9423828125
 30
0.0
  0
HATCH
  5
92
330
84
100
AcDbEntity
  8
Layer 1
 62
    18
420
        0
440
 33554687
100
AcDbHatch
 10
0.0
 20
0.0
 30
0.0
210
0.0
220
0.0
230
1.0
  2
SOLID
 70
     1
 71
     1
 91
        2
 92
        1
 93
        1
 72
     4
 94
        3
 73
     0
 74
     0
 95
       35
 96
       31
 40
0.0
 40
0.0
 40
0.0
 40
0.0
 40
1.0
 40
1.0
 40
1.0
 40
2.0
 40
2.0
 40
2.0
 40
3.0
 40
3.0
 40
3.0
 40
4.0
 40
4.0
 40
4.0
 40
5.0
 40
5.0
 40
5.0
 40
6.0
 40
6.0
 40
6.0
 40
7.0
 40
7.0
 40
7.0
 40
8.0
 40
8.0
 40
8.0
 40
9.0
 40
9.0
 40
9.0
 40
10.0
 40
10.0
 40
10.0
 40
10.0
 10
135.78955078125
 20
-323.8564453125
 10
135.31884765625
 20
-323.5703125
 10
134.85400390625
 20
-323.4248046875
 10
134.4091796875
 20
-323.4248046875
 10
134.4091796875
 20
-323.4248046875
 10
134.23583984375
 20
-323.4248046875
 10
134.23583984375
 20
-323.4248046875
 10
133.4892578125
 20
-323.4248046875
 10
132.82421875
 20
-323.7685546875
 10
132.2021484375
 20
-324.474609375
 10
131.78564453125
 20
-325.0693359375
 10
131.58349609375
 20
-325.671875
 10
131.58349609375
 20
-326.3154296875
 10
131.58349609375
 20
-327.326171875
 10
132.00732421875
 20
-328.1337890625
 10
132.87890625
 20
-328.787109375
 10
133.35546875
 20
-329.072265625
 10
133.8046875
 20
-329.2177734375
 10
134.21435546875
 20
-329.2177734375
 10
134.21435546875
 20
-329.2177734375
 10
134.45263671875
 20
-329.2177734375
 10
134.45263671875
 20
-329.2177734375
 10
135.04736328125
 20
-329.2177734375
 10
135.61669921875
 20
-328.9765625
 10
136.19189453125
 20
-328.4814453125
 10
136.79150390625
 20
-327.86328125
 10
137.08349609375
 20
-327.158203125
 10
137.08349609375
 20
-326.3271484375
 10
137.08349609375
 20
-325.29296875
 10
136.66064453125
 20
-324.48828125
 10
135.78955078125
 20
-323.8564453125
 97
        0
 97
        1
330
90
 92
        1
 93
        1
 72
     4
 94
        3
 73
     0
 74
     0
 95
       53
 96
       49
 40
0.0
 40
0.0
 40
0.0
 40
0.0
 40
1.0
 40
1.0
 40
1.0
 40
2.0
 40
2.0
 40
2.0
 40
3.0
 40
3.0
 40
3.0
 40
4.0
 40
4.0
 40
4.0
 40
5.0
 40
5.0
 40
5.0
 40
6.0
 40
6.0
 40
6.0
 40
7.0
 40
7.0
 40
7.0
 40
8.0
 40
8.0
 40
8.0
 40
9.0
 40
9.0
 40
9.0
 40
10.0
 40
10.0
 40
10.0
 40
11.0
 40
11.0
 40
11.0
 40
12.0
 40
12.0
 40
12.0
 40
13.0
 40
13.0
 40
13.0
 40
14.0
 40
14.0
 40
14.0
 40
15.0
 40
15.0
 40
15.0
 40
16.0
 40
16.0
 40
16.0
 40
16.0
 10
139.98486328125
 20
-320.9423828125
 10
139.98486328125
 20
-320.9423828125
 10
139.98486328125
 20
-331.603515625
 10
139.98486328125
 20
-331.603515625
 10
139.98486328125
 20
-331.603515625
 10
139.72900390625
 20
-331.859375
 10
139.72900390625
 20
-331.859375
 10
139.72900390625
 20
-331.859375
 10
137.39599609375
 20
-331.859375
 10
137.39599609375
 20
-331.859375
 10
137.39599609375
 20
-331.859375
 10
137.08349609375
 20
-331.65234375
 10
137.08349609375
 20
-331.65234375
 10
137.08349609375
 20
-331.65234375
 10
137.08349609375
 20
-331.2841796875
 10
137.08349609375
 20
-331.2841796875
 10
136.31982421875
 20
-331.8388671875
 10
135.40966796875
 20
-332.119140625
 10
134.3662109375
 20
-332.119140625
 10
134.3662109375
 20
-332.119140625
 10
134.35546875
 20
-332.119140625
 10
134.35546875
 20
-332.119140625
 10
132.66015625
 20
-332.119140625
 10
131.203125
 20
-331.427734375
 10
130.0244140625
 20
-330.064453125
 10
129.1376953125
 20
-328.9521484375
 10
128.69287109375
 20
-327.6982421875
 10
128.69287109375
 20
-326.3271484375
 10
128.69287109375
 20
-324.6201171875
 10
129.3544921875
 20
-323.1376953125
 10
130.65966796875
 20
-321.91015625
 10
131.76416015625
 20
-320.984375
 10
133.0126953125
 20
-320.5234375
 10
134.3876953125
 20
-320.5234375
 10
135.39306640625
 20
-320.5234375
 10
136.29638671875
 20
-320.818359375
 10
137.08349609375
 20
-321.4033203125
 10
137.08349609375
 20
-321.4033203125
 10
137.08349609375
 20
-320.892578125
 10
137.08349609375
 20
-320.892578125
 10
137.08349609375
 20
-320.892578125
 10
137.39599609375
 20
-320.685546875
 10
137.39599609375
 20
-320.685546875
 10
137.39599609375
 20
-320.685546875
 10
139.72900390625
 20
-320.685546875
 10
139.72900390625
 20
-320.685546875
 10
139.72900390625
 20
-320.685546875
 10
139.98486328125
 20
-320.9423828125
 10
139.98486328125
 20
-320.9423828125
 97
        0
 97
        1
330
91
 75
     2
 76
     1
 98
        1
 10
0.0
 20
0.0
450
        0
451
        0
460
0.0
461
0.0
452
        0
462
0.0
453
        0
470

  0
SPLINE
  5
93
330
84
100
AcDbEntity
  8
Layer 1
100
AcDbSpline
210
0.0
220
0.0
230
1.0
 70
    11
 71
     3
 72
    71
 73
    67
 74
     0
 42
0.0000000001
 43
0.0000000001
 40
0.0
 40
0.0
 40
0.0
 40
0.0
 40
1.0
 40
1.0
 40
1.0
 40
2.0
 40
2.0
 40
2.0
 40
3.0
 40
3.0
 40
3.0
 40
4.0
 40
4.0
 40
4.0
 40
5.0
 40
5.0
 40
5.0
 40
6.0
 40
6.0
 40
6.0
 40
7.0
 40
7.0
 40
7.0
 40
8.0
 40
8.0
 40
8.0
 40
9.0
 40
9.0
 40
9.0
 40
10.0
 40
10.0
 40
10.0
 40
11.0
 40
11.0
 40
11.0
 40
12.0
 40
12.0
 40
12.0
 40
13.0
 40
13.0
 40
13.0
 40
14.0
 40
14.0
 40
14.0
 40
15.0
 40
15.0
 40
15.0
 40
16.0
 40
16.0
 40
16.0
 40
17.0
 40
17.0
 40
17.0
 40
18.0
 40
18.0
 40
18.0
 40
19.0
 40
19.0
 40
19.0
 40
20.0
 40
20.0
 40
20.0
 40
21.0
 40
21.0
 40
21.0
 40
22.0
 40
22.0
 40
22.0
 40
22.0
 10
155.21484375
 20
-327.8798828125
 30
0.0
 10
155.21484375
 20
-327.8798828125
 30
0.0
 10
155.21484375
 20
-327.923828125
 30
0.0
 10
155.21484375
 20
-327.923828125
 30
0.0
 10
154.9697265625
 20
-328.3779296875
 30
0.0
 10
154.64453125
 20
-328.8583984375
 30
0.0
 10
154.240234375
 20
-329.36328125
 30
0.0
 10
152.6669921875
 20
-331.0810546875
 30
0.0
 10
150.8193359375
 20
-331.9404296875
 30
0.0
 10
148.697265625
 20
-331.9404296875
 30
0.0
 10
146.58984375
 20
-331.9404296875
 30
0.0
 10
144.74951171875
 20
-331.095703125
 30
0.0
 10
143.17626953125
 20
-329.4072265625
 30
0.0
 10
141.85498046875
 20
-327.8115234375
 30
0.0
 10
141.19482421875
 20
-326.025390625
 30
0.0
 10
141.19482421875
 20
-324.046875
 30
0.0
 10
141.19482421875
 20
-324.046875
 30
0.0
 10
141.19482421875
 20
-323.982421875
 30
0.0
 10
141.19482421875
 20
-323.982421875
 30
0.0
 10
141.19482421875
 20
-321.9833984375
 30
0.0
 10
141.86572265625
 20
-320.189453125
 30
0.0
 10
143.20849609375
 20
-318.6015625
 30
0.0
 10
144.76806640625
 20
-316.9267578125
 30
0.0
 10
146.58984375
 20
-316.08984375
 30
0.0
 10
148.67578125
 20
-316.08984375
 30
0.0
 10
148.67578125
 20
-316.08984375
 30
0.0
 10
148.697265625
 20
-316.08984375
 30
0.0
 10
148.697265625
 20
-316.08984375
 30
0.0
 10
150.740234375
 20
-316.08984375
 30
0.0
 10
152.5263671875
 20
-316.8837890625
 30
0.0
 10
154.056640625
 20
-318.4716796875
 30
0.0
 10
154.59765625
 20
-319.0927734375
 30
0.0
 10
154.98046875
 20
-319.6259765625
 30
0.0
 10
155.2041015625
 20
-320.07421875
 30
0.0
 10
155.146484375
 20
-320.125
 30
0.0
 10
154.537109375
 20
-320.4599609375
 30
0.0
 10
153.375
 20
-321.0810546875
 30
0.0
 10
153.1796875
 20
-320.7275390625
 30
0.0
 10
152.8876953125
 20
-320.3193359375
 30
0.0
 10
152.498046875
 20
-319.857421875
 30
0.0
 10
151.37890625
 20
-318.7314453125
 30
0.0
 10
150.111328125
 20
-318.1689453125
 30
0.0
 10
148.697265625
 20
-318.1689453125
 30
0.0
 10
147.2607421875
 20
-318.1689453125
 30
0.0
 10
145.986328125
 20
-318.73828125
 30
0.0
 10
144.87548828125
 20
-319.87890625
 30
0.0
 10
143.80712890625
 20
-321.0849609375
 30
0.0
 10
143.27294921875
 20
-322.4599609375
 30
0.0
 10
143.27294921875
 20
-324.00390625
 30
0.0
 10
143.27294921875
 20
-325.794921875
 30
0.0
 10
143.95556640625
 20
-327.3212890625
 30
0.0
 10
145.3193359375
 20
-328.583984375
 30
0.0
 10
146.3505859375
 20
-329.421875
 30
0.0
 10
147.4443359375
 20
-329.83984375
 30
0.0
 10
148.599609375
 20
-329.83984375
 30
0.0
 10
148.599609375
 20
-329.83984375
 30
0.0
 10
148.8271484375
 20
-329.83984375
 30
0.0
 10
148.8271484375
 20
-329.83984375
 30
0.0
 10
150.09765625
 20
-329.83984375
 30
0.0
 10
151.28515625
 20
-329.31640625
 30
0.0
 10
152.3896484375
 20
-328.2705078125
 30
0.0
 10
152.8583984375
 20
-327.7509765625
 30
0.0
 10
153.1904296875
 20
-327.2998046875
 30
0.0
 10
153.3857421875
 20
-326.9169921875
 30
0.0
 10
153.3857421875
 20
-326.9169921875
 30
0.0
 10
155.21484375
 20
-327.8798828125
 30
0.0
 10
155.21484375
 20
-327.8798828125
 30
0.0
  0
HATCH
  5
94
330
84
100
AcDbEntity
  8
Layer 1
 62
    18
420
        0
440
 33554687
100
AcDbHatch
 10
0.0
 20
0.0
 30
0.0
210
0.0
220
0.0
230
1.0
  2
SOLID
 70
     1
 71
     1
 91
        1
 92
        1
 93
        1
 72
     4
 94
        3
 73
     0
 74
     0
 95
       71
 96
       67
 40
0.0
 40
0.0
 40
0.0
 40
0.0
 40
1.0
 40
1.0
 40
1.0
 40
2.0
 40
2.0
 40
2.0
 40
3.0
 40
3.0
 40
3.0
 40
4.0
 40
4.0
 40
4.0
 40
5.0
 40
5.0
 40
5.0
 40
6.0
 40
6.0
 40
6.0
 40
7.0
 40
7.0
 40
7.0
 40
8.0
 40
8.0
 40
8.0
 40
9.0
 40
9.0
 40
9.0
 40
10.0
 40
10.0
 40
10.0
 40
11.0
 40
11.0
 40
11.0
 40
12.0
 40
12.0
 40
12.0
 40
13.0
 40
13.0
 40
13.0
 40
14.0
 40
14.0
 40
14.0
 40
15.0
 40
15.0
 40
15.0
 40
16.0
 40
16.0
 40
16.0
 40
17.0
 40
17.0
 40
17.0
 40
18.0
 40
18.0
 40
18.0
 40
19.0
 40
19.0
 40
19.0
 40
20.0
 40
20.0
 40
20.0
 40
21.0
 40
21.0
 40
21.0
 40
22.0
 40
22.0
 40
22.0
 40
22.0
 10
155.21484375
 20
-327.8798828125
 10
155.21484375
 20
-327.8798828125
 10
155.21484375
 20
-327.923828125
 10
155.21484375
 20
-327.923828125
 10
154.9697265625
 20
-328.3779296875
 10
154.64453125
 20
-328.8583984375
 10
154.240234375
 20
-329.36328125
 10
152.6669921875
 20
-331.0810546875
 10
150.8193359375
 20
-331.9404296875
 10
148.697265625
 20
-331.9404296875
 10
146.58984375
 20
-331.9404296875
 10
144.74951171875
 20
-331.095703125
 10
143.17626953125
 20
-329.4072265625
 10
141.85498046875
 20
-327.8115234375
 10
141.19482421875
 20
-326.025390625
 10
141.19482421875
 20
-324.046875
 10
141.19482421875
 20
-324.046875
 10
141.19482421875
 20
-323.982421875
 10
141.19482421875
 20
-323.982421875
 10
141.19482421875
 20
-321.9833984375
 10
141.86572265625
 20
-320.189453125
 10
143.20849609375
 20
-318.6015625
 10
144.76806640625
 20
-316.9267578125
 10
146.58984375
 20
-316.08984375
 10
148.67578125
 20
-316.08984375
 10
148.67578125
 20
-316.08984375
 10
148.697265625
 20
-316.08984375
 10
148.697265625
 20
-316.08984375
 10
150.740234375
 20
-316.08984375
 10
152.5263671875
 20
-316.8837890625
 10
154.056640625
 20
-318.4716796875
 10
154.59765625
 20
-319.0927734375
 10
154.98046875
 20
-319.6259765625
 10
155.2041015625
 20
-320.07421875
 10
155.146484375
 20
-320.125
 10
154.537109375
 20
-320.4599609375
 10
153.375
 20
-321.0810546875
 10
153.1796875
 20
-320.7275390625
 10
152.8876953125
 20
-320.3193359375
 10
152.498046875
 20
-319.857421875
 10
151.37890625
 20
-318.7314453125
 10
150.111328125
 20
-318.1689453125
 10
148.697265625
 20
-318.1689453125
 10
147.2607421875
 20
-318.1689453125
 10
145.986328125
 20
-318.73828125
 10
144.87548828125
 20
-319.87890625
 10
143.80712890625
 20
-321.0849609375
 10
143.27294921875
 20
-322.4599609375
 10
143.27294921875
 20
-324.00390625
 10
143.27294921875
 20
-325.794921875
 10
143.95556640625
 20
-327.3212890625
 10
145.3193359375
 20
-328.583984375
 10
146.3505859375
 20
-329.421875
 10
147.4443359375
 20
-329.83984375
 10
148.599609375
 20
-329.83984375
 10
148.599609375
 20
-329.83984375
 10
148.8271484375
 20
-329.83984375
 10
148.8271484375
 20
-329.83984375
 10
150.09765625
 20
-329.83984375
 10
151.28515625
 20
-329.31640625
 10
152.3896484375
 20
-328.2705078125
 10
152.8583984375
 20
-327.7509765625
 10
153.1904296875
 20
-327.2998046875
 10
153.3857421875
 20
-326.9169921875
 10
153.3857421875
 20
-326.9169921875
 10
155.21484375
 20
-327.8798828125
 10
155.21484375
 20
-327.8798828125
 97
        0
 97
        1
330
93
 75
     2
 76
     1
 98
        1
 10
0.0
 20
0.0
450
        0
451
        0
460
0.0
461
0.0
452
        0
462
0.0
453
        0
470

  0
SPLINE
  5
95
330
84
100
AcDbEntity
  8
Layer 1
100
AcDbSpline
210
0.0
220
0.0
230
1.0
 70
     9
 71
     3
 72
    47
 73
    43
 74
     0
 42
0.0000000001
 43
0.0000000001
 40
0.0
 40
0.0
 40
0.0
 40
0.0
 40
1.0
 40
1.0
 40
1.0
 40
2.0
 40
2.0
 40
2.0
 40
3.0
 40
3.0
 40
3.0
 40
4.0
 40
4.0
 40
4.0
 40
5.0
 40
5.0
 40
5.0
 40
6.0
 40
6.0
 40
6.0
 40
7.0
 40
7.0
 40
7.0
 40
8.0
 40
8.0
 40
8.0
 40
9.0
 40
9.0
 40
9.0
 40
10.0
 40
10.0
 40
10.0
 40
11.0
 40
11.0
 40
11.0
 40
12.0
 40
12.0
 40
12.0
 40
13.0
 40
13.0
 40
13.0
 40
14.0
 40
14.0
 40
14.0
 40
14.0
 10
164.8154296875
 20
-326.6630859375
 30
0.0
 10
164.8154296875
 20
-325.8330078125
 30
0.0
 10
164.53125
 20
-325.0859375
 30
0.0
 10
163.9609375
 20
-324.421875
 30
0.0
 10
163.71484375
 20
-324.1611328125
 30
0.0
 10
163.5498046875
 20
-324.013671875
 30
0.0
 10
163.462890625
 20
-323.9775390625
 30
0.0
 10
163.33984375
 20
-323.8759765625
 30
0.0
 10
163.224609375
 20
-323.796875
 30
0.0
 10
163.1162109375
 20
-323.7392578125
 30
0.0
 10
162.646484375
 20
-323.486328125
 30
0.0
 10
162.1591796875
 20
-323.3603515625
 30
0.0
 10
161.654296875
 20
-323.3603515625
 30
0.0
 10
160.8896484375
 20
-323.3603515625
 30
0.0
 10
160.189453125
 20
-323.6455078125
 30
0.0
 10
159.5537109375
 20
-324.2158203125
 30
0.0
 10
159.330078125
 20
-324.439453125
 30
0.0
 10
159.189453125
 20
-324.60546875
 30
0.0
 10
159.1318359375
 20
-324.7138671875
 30
0.0
 10
158.712890625
 20
-325.2978515625
 30
0.0
 10
158.50390625
 20
-325.955078125
 30
0.0
 10
158.50390625
 20
-326.68359375
 30
0.0
 10
158.50390625
 20
-327.470703125
 30
0.0
 10
158.759765625
 20
-328.185546875
 30
0.0
 10
159.2724609375
 20
-328.828125
 30
0.0
 10
159.49609375
 20
-329.080078125
 30
0.0
 10
159.6689453125
 20
-329.24609375
 30
0.0
 10
159.7919921875
 20
-329.3251953125
 30
0.0
 10
160.3623046875
 20
-329.7587890625
 30
0.0
 10
160.9833984375
 20
-329.9755859375
 30
0.0
 10
161.654296875
 20
-329.9755859375
 30
0.0
 10
162.4775390625
 20
-329.9755859375
 30
0.0
 10
163.2060546875
 20
-329.6650390625
 30
0.0
 10
163.841796875
 20
-329.044921875
 30
0.0
 10
164.09375
 20
-328.77734375
 30
0.0
 10
164.2705078125
 20
-328.5458984375
 30
0.0
 10
164.3720703125
 20
-328.3515625
 30
0.0
 10
164.66796875
 20
-327.8173828125
 30
0.0
 10
164.8154296875
 20
-327.265625
 30
0.0
 10
164.8154296875
 20
-326.6953125
 30
0.0
 10
164.8154296875
 20
-326.6953125
 30
0.0
 10
164.8154296875
 20
-326.6630859375
 30
0.0
 10
164.8154296875
 20
-326.6630859375
 30
0.0
  0
SPLINE
  5
96
330
84
100
AcDbEntity
  8
Layer 1
100
AcDbSpline
210
0.0
220
0.0
230
1.0
 70
     9
 71
     3
 72
    71
 73
    67
 74
     0
 42
0.0000000001
 43
0.0000000001
 40
0.0
 40
0.0
 40
0.0
 40
0.0
 40
1.0
 40
1.0
 40
1.0
 40
2.0
 40
2.0
 40
2.0
 40
3.0
 40
3.0
 40
3.0
 40
4.0
 40
4.0
 40
4.0
 40
5.0
 40
5.0
 40
5.0
 40
6.0
 40
6.0
 40
6.0
 40
7.0
 40
7.0
 40
7.0
 40
8.0
 40
8.0
 40
8.0
 40
9.0
 40
9.0
 40
9.0
 40
10.0
 40
10.0
 40
10.0
 40
11.0
 40
11.0
 40
11.0
 40
12.0
 40
12.0
 40
12.0
 40
13.0
 40
13.0
 40
13.0
 40
14.0
 40
14.0
 40
14.0
 40
15.0
 40
15.0
 40
15.0
 40
16.0
 40
16.0
 40
16.0
 40
17.0
 40
17.0
 40
17.0
 40
18.0
 40
18.0
 40
18.0
 40
19.0
 40
19.0
 40
19.0
 40
20.0
 40
20.0
 40
20.0
 40
21.0
 40
21.0
 40
21.0
 40
22.0
 40
22.0
 40
22.0
 40
22.0
 10
166.90625
 20
-326.6845703125
 30
0.0
 10
166.90625
 20
-327.59375
 30
0.0
 10
166.685546875
 20
-328.466796875
 30
0.0
 10
166.2451171875
 20
-329.3046875
 30
0.0
 10
166.09375
 20
-329.5791015625
 30
0.0
 10
165.888671875
 20
-329.8779296875
 30
0.0
 10
165.6279296875
 20
-330.203125
 30
0.0
 10
165.3466796875
 20
-330.5283203125
 30
0.0
 10
165.119140625
 20
-330.755859375
 30
0.0
 10
164.9462890625
 20
-330.884765625
 30
0.0
 10
164.7509765625
 20
-331.0439453125
 30
0.0
 10
164.5673828125
 20
-331.177734375
 30
0.0
 10
164.3935546875
 20
-331.2861328125
 30
0.0
 10
163.53515625
 20
-331.8056640625
 30
0.0
 10
162.6396484375
 20
-332.0654296875
 30
0.0
 10
161.708984375
 20
-332.0654296875
 30
0.0
 10
161.708984375
 20
-332.0654296875
 30
0.0
 10
161.611328125
 20
-332.0654296875
 30
0.0
 10
161.611328125
 20
-332.0654296875
 30
0.0
 10
160.6298828125
 20
-332.0654296875
 30
0.0
 10
159.6875
 20
-331.77734375
 30
0.0
 10
158.7861328125
 20
-331.19921875
 30
0.0
 10
158.6123046875
 20
-331.0693359375
 30
0.0
 10
158.45703125
 20
-330.947265625
 30
0.0
 10
158.3203125
 20
-330.8310546875
 30
0.0
 10
158.0380859375
 20
-330.5927734375
 30
0.0
 10
157.8359375
 20
-330.390625
 30
0.0
 10
157.7138671875
 20
-330.224609375
 30
0.0
 10
157.5625
 20
-330.0517578125
 30
0.0
 10
157.4208984375
 20
-329.8642578125
 30
0.0
 10
157.291015625
 20
-329.662109375
 30
0.0
 10
157.1474609375
 20
-329.4306640625
 30
0.0
 10
157.0244140625
 20
-329.20703125
 30
0.0
 10
156.923828125
 20
-328.990234375
 30
0.0
 10
156.583984375
 20
-328.240234375
 30
0.0
 10
156.4140625
 20
-327.4921875
 30
0.0
 10
156.4140625
 20
-326.7490234375
 30
0.0
 10
156.4140625
 20
-326.7490234375
 30
0.0
 10
156.4140625
 20
-326.5869140625
 30
0.0
 10
156.4140625
 20
-326.5869140625
 30
0.0
 10
156.4140625
 20
-325.779296875
 30
0.0
 10
156.6162109375
 20
-324.966796875
 30
0.0
 10
157.0205078125
 20
-324.1513671875
 30
0.0
 10
157.13671875
 20
-323.9267578125
 30
0.0
 10
157.2734375
 20
-323.7001953125
 30
0.0
 10
157.4326171875
 20
-323.46875
 30
0.0
 10
157.5546875
 20
-323.294921875
 30
0.0
 10
157.7392578125
 20
-323.0751953125
 30
0.0
 10
157.984375
 20
-322.80859375
 30
0.0
 10
158.337890625
 20
-322.4833984375
 30
0.0
 10
158.5908203125
 20
-322.2744140625
 30
0.0
 10
158.7421875
 20
-322.1796875
 30
0.0
 10
159.6298828125
 20
-321.57421875
 30
0.0
 10
160.6005859375
 20
-321.2705078125
 30
0.0
 10
161.654296875
 20
-321.2705078125
 30
0.0
 10
162.8310546875
 20
-321.2705078125
 30
0.0
 10
163.9072265625
 20
-321.6494140625
 30
0.0
 10
164.880859375
 20
-322.4072265625
 30
0.0
 10
165.017578125
 20
-322.5087890625
 30
0.0
 10
165.212890625
 20
-322.6884765625
 30
0.0
 10
165.4658203125
 20
-322.94921875
 30
0.0
 10
165.9638671875
 20
-323.5048828125
 30
0.0
 10
166.3173828125
 20
-324.0751953125
 30
0.0
 10
166.5263671875
 20
-324.6591796875
 30
0.0
 10
166.779296875
 20
-325.3095703125
 30
0.0
 10
166.9052734375
 20
-325.984375
 30
0.0
 10
166.90625
 20
-326.6845703125
 30
0.0
  0
HATCH
  5
97
330
84
100
AcDbEntity
  8
Layer 1
 62
    18
420
        0
440
 33554687
100
AcDbHatch
 10
0.0
 20
0.0
 30
0.0
210
0.0
220
0.0
230
1.0
  2
SOLID
 70
     1
 71
     1
 91
        2
 92
        1
 93
        1
 72
     4
 94
        3
 73
     0
 74
     0
 95
       47
 96
       43
 40
0.0
 40
0.0
 40
0.0
 40
0.0
 40
1.0
 40
1.0
 40
1.0
 40
2.0
 40
2.0
 40
2.0
 40
3.0
 40
3.0
 40
3.0
 40
4.0
 40
4.0
 40
4.0
 40
5.0
 40
5.0
 40
5.0
 40
6.0
 40
6.0
 40
6.0
 40
7.0
 40
7.0
 40
7.0
 40
8.0
 40
8.0
 40
8.0
 40
9.0
 40
9.0
 40
9.0
 40
10.0
 40
10.0
 40
10.0
 40
11.0
 40
11.0
 40
11.0
 40
12.0
 40
12.0
 40
12.0
 40
13.0
 40
13.0
 40
13.0
 40
14.0
 40
14.0
 40
14.0
 40
14.0
 10
164.8154296875
 20
-326.6630859375
 10
164.8154296875
 20
-325.8330078125
 10
164.53125
 20
-325.0859375
 10
163.9609375
 20
-324.421875
 10
163.71484375
 20
-324.1611328125
 10
163.5498046875
 20
-324.013671875
 10
163.462890625
 20
-323.9775390625
 10
163.33984375
 20
-323.8759765625
 10
163.224609375
 20
-323.796875
 10
163.1162109375
 20
-323.7392578125
 10
162.646484375
 20
-323.486328125
 10
162.1591796875
 20
-323.3603515625
 10
161.654296875
 20
-323.3603515625
 10
160.8896484375
 20
-323.3603515625
 10
160.189453125
 20
-323.6455078125
 10
159.5537109375
 20
-324.2158203125
 10
159.330078125
 20
-324.439453125
 10
159.189453125
 20
-324.60546875
 10
159.1318359375
 20
-324.7138671875
 10
158.712890625
 20
-325.2978515625
 10
158.50390625
 20
-325.955078125
 10
158.50390625
 20
-326.68359375
 10
158.50390625
 20
-327.470703125
 10
158.759765625
 20
-328.185546875
 10
159.2724609375
 20
-328.828125
 10
159.49609375
 20
-329.080078125
 10
159.6689453125
 20
-329.24609375
 10
159.7919921875
 20
-329.3251953125
 10
160.3623046875
 20
-329.7587890625
 10
160.9833984375
 20
-329.9755859375
 10
161.654296875
 20
-329.9755859375
 10
162.4775390625
 20
-329.9755859375
 10
163.2060546875
 20
-329.6650390625
 10
163.841796875
 20
-329.044921875
 10
164.09375
 20
-328.77734375
 10
164.2705078125
 20
-328.5458984375
 10
164.3720703125
 20
-328.3515625
 10
164.66796875
 20
-327.8173828125
 10
164.8154296875
 20
-327.265625
 10
164.8154296875
 20
-326.6953125
 10
164.8154296875
 20
-326.6953125
 10
164.8154296875
 20
-326.6630859375
 10
164.8154296875
 20
-326.6630859375
 97
        0
 97
        1
330
95
 92
        1
 93
        1
 72
     4
 94
        3
 73
     0
 74
     0
 95
       71
 96
       67
 40
0.0
 40
0.0
 40
0.0
 40
0.0
 40
1.0
 40
1.0
 40
1.0
 40
2.0
 40
2.0
 40
2.0
 40
3.0
 40
3.0
 40
3.0
 40
4.0
 40
4.0
 40
4.0
 40
5.0
 40
5.0
 40
5.0
 40
6.0
 40
6.0
 40
6.0
 40
7.0
 40
7.0
 40
7.0
 40
8.0
 40
8.0
 40
8.0
 40
9.0
 40
9.0
 40
9.0
 40
10.0
 40
10.0
 40
10.0
 40
11.0
 40
11.0
 40
11.0
 40
12.0
 40
12.0
 40
12.0
 40
13.0
 40
13.0
 40
13.0
 40
14.0
 40
14.0
 40
14.0
 40
15.0
 40
15.0
 40
15.0
 40
16.0
 40
16.0
 40
16.0
 40
17.0
 40
17.0
 40
17.0
 40
18.0
 40
18.0
 40
18.0
 40
19.0
 40
19.0
 40
19.0
 40
20.0
 40
20.0
 40
20.0
 40
21.0
 40
21.0
 40
21.0
 40
22.0
 40
22.0
 40
22.0
 40
22.0
 10
166.90625
 20
-326.6845703125
 10
166.90625
 20
-327.59375
 10
166.685546875
 20
-328.466796875
 10
166.2451171875
 20
-329.3046875
 10
166.09375
 20
-329.5791015625
 10
165.888671875
 20
-329.8779296875
 10
165.6279296875
 20
-330.203125
 10
165.3466796875
 20
-330.5283203125
 10
165.119140625
 20
-330.755859375
 10
164.9462890625
 20
-330.884765625
 10
164.7509765625
 20
-331.0439453125
 10
164.5673828125
 20
-331.177734375
 10
164.3935546875
 20
-331.2861328125
 10
163.53515625
 20
-331.8056640625
 10
162.6396484375
 20
-332.0654296875
 10
161.708984375
 20
-332.0654296875
 10
161.708984375
 20
-332.0654296875
 10
161.611328125
 20
-332.0654296875
 10
161.611328125
 20
-332.0654296875
 10
160.6298828125
 20
-332.0654296875
 10
159.6875
 20
-331.77734375
 10
158.7861328125
 20
-331.19921875
 10
158.6123046875
 20
-331.0693359375
 10
158.45703125
 20
-330.947265625
 10
158.3203125
 20
-330.8310546875
 10
158.0380859375
 20
-330.5927734375
 10
157.8359375
 20
-330.390625
 10
157.7138671875
 20
-330.224609375
 10
157.5625
 20
-330.0517578125
 10
157.4208984375
 20
-329.8642578125
 10
157.291015625
 20
-329.662109375
 10
157.1474609375
 20
-329.4306640625
 10
157.0244140625
 20
-329.20703125
 10
156.923828125
 20
-328.990234375
 10
156.583984375
 20
-328.240234375
 10
156.4140625
 20
-327.4921875
 10
156.4140625
 20
-326.7490234375
 10
156.4140625
 20
-326.7490234375
 10
156.4140625
 20
-326.5869140625
 10
156.4140625
 20
-326.5869140625
 10
156.4140625
 20
-325.779296875
 10
156.6162109375
 20
-324.966796875
 10
157.0205078125
 20
-324.1513671875
 10
157.13671875
 20
-323.9267578125
 10
157.2734375
 20
-323.7001953125
 10
157.4326171875
 20
-323.46875
 10
157.5546875
 20
-323.294921875
 10
157.7392578125
 20
-323.0751953125
 10
157.984375
 20
-322.80859375
 10
158.337890625
 20
-322.4833984375
 10
158.5908203125
 20
-322.2744140625
 10
158.7421875
 20
-322.1796875
 10
159.6298828125
 20
-321.57421875
 10
160.6005859375
 20
-321.2705078125
 10
161.654296875
 20
-321.2705078125
 10
162.8310546875
 20
-321.2705078125
 10
163.9072265625
 20
-321.6494140625
 10
164.880859375
 20
-322.4072265625
 10
165.017578125
 20
-322.5087890625
 10
165.212890625
 20
-322.6884765625
 10
165.4658203125
 20
-322.94921875
 10
165.9638671875
 20
-323.5048828125
 10
166.3173828125
 20
-324.0751953125
 10
166.5263671875
 20
-324.6591796875
 10
166.779296875
 20
-325.3095703125
 10
166.9052734375
 20
-325.984375
 10
166.90625
 20
-326.6845703125
 97
        0
 97
        1
330
96
 75
     2
 76
     1
 98
        1
 10
0.0
 20
0.0
450
        0
451
        0
460
0.0
461
0.0
452
        0
462
0.0
453
        0
470

  0
SPLINE
  5
98
330
84
100
AcDbEntity
  8
Layer 1
100
AcDbSpline
210
0.0
220
0.0
230
1.0
 70
     9
 71
     3
 72
    59
 73
    55
 74
     0
 42
0.0000000001
 43
0.0000000001
 40
0.0
 40
0.0
 40
0.0
 40
0.0
 40
1.0
 40
1.0
 40
1.0
 40
2.0
 40
2.0
 40
2.0
 40
3.0
 40
3.0
 40
3.0
 40
4.0
 40
4.0
 40
4.0
 40
5.0
 40
5.0
 40
5.0
 40
6.0
 40
6.0
 40
6.0
 40
7.0
 40
7.0
 40
7.0
 40
8.0
 40
8.0
 40
8.0
 40
9.0
 40
9.0
 40
9.0
 40
10.0
 40
10.0
 40
10.0
 40
11.0
 40
11.0
 40
11.0
 40
12.0
 40
12.0
 40
12.0
 40
13.0
 40
13.0
 40
13.0
 40
14.0
 40
14.0
 40
14.0
 40
15.0
 40
15.0
 40
15.0
 40
16.0
 40
16.0
 40
16.0
 40
17.0
 40
17.0
 40
17.0
 40
18.0
 40
18.0
 40
18.0
 40
18.0
 10
175.66015625
 20
-321.99609375
 30
0.0
 10
175.66015625
 20
-321.99609375
 30
0.0
 10
175.66015625
 20
-322.0068359375
 30
0.0
 10
175.66015625
 20
-322.0068359375
 30
0.0
 10
175.3564453125
 20
-323.3779296875
 30
0.0
 10
175.1904296875
 20
-324.0966796875
 30
0.0
 10
175.162109375
 20
-324.1611328125
 30
0.0
 10
174.46875
 20
-323.70703125
 30
0.0
 10
173.85546875
 20
-323.4794921875
 30
0.0
 10
173.3212890625
 20
-323.4794921875
 30
0.0
 10
173.3212890625
 20
-323.4794921875
 30
0.0
 10
173.1484375
 20
-323.4794921875
 30
0.0
 10
173.1484375
 20
-323.4794921875
 30
0.0
 10
172.455078125
 20
-323.4794921875
 30
0.0
 10
171.8447265625
 20
-323.7353515625
 30
0.0
 10
171.318359375
 20
-324.248046875
 30
0.0
 10
170.9208984375
 20
-324.7314453125
 30
0.0
 10
170.72265625
 20
-325.6484375
 30
0.0
 10
170.72265625
 20
-326.998046875
 30
0.0
 10
170.72265625
 20
-326.998046875
 30
0.0
 10
170.72265625
 20
-331.7626953125
 30
0.0
 10
170.72265625
 20
-331.7626953125
 30
0.0
 10
170.72265625
 20
-331.7626953125
 30
0.0
 10
170.701171875
 20
-331.794921875
 30
0.0
 10
170.701171875
 20
-331.794921875
 30
0.0
 10
170.701171875
 20
-331.794921875
 30
0.0
 10
168.67578125
 20
-331.794921875
 30
0.0
 10
168.67578125
 20
-331.794921875
 30
0.0
 10
168.67578125
 20
-331.794921875
 30
0.0
 10
168.6435546875
 20
-331.7626953125
 30
0.0
 10
168.6435546875
 20
-331.7626953125
 30
0.0
 10
168.6435546875
 20
-331.7626953125
 30
0.0
 10
168.6435546875
 20
-321.595703125
 30
0.0
 10
168.6435546875
 20
-321.595703125
 30
0.0
 10
168.6435546875
 20
-321.595703125
 30
0.0
 10
168.67578125
 20
-321.57421875
 30
0.0
 10
168.67578125
 20
-321.57421875
 30
0.0
 10
168.67578125
 20
-321.57421875
 30
0.0
 10
170.701171875
 20
-321.57421875
 30
0.0
 10
170.701171875
 20
-321.57421875
 30
0.0
 10
170.701171875
 20
-321.57421875
 30
0.0
 10
170.72265625
 20
-321.595703125
 30
0.0
 10
170.72265625
 20
-321.595703125
 30
0.0
 10
170.72265625
 20
-321.595703125
 30
0.0
 10
170.72265625
 20
-322.375
 30
0.0
 10
170.72265625
 20
-322.375
 30
0.0
 10
171.5166015625
 20
-321.7041015625
 30
0.0
 10
172.33203125
 20
-321.3681640625
 30
0.0
 10
173.1689453125
 20
-321.3681640625
 30
0.0
 10
173.1689453125
 20
-321.3681640625
 30
0.0
 10
173.4404296875
 20
-321.3681640625
 30
0.0
 10
173.4404296875
 20
-321.3681640625
 30
0.0
 10
174.154296875
 20
-321.3681640625
 30
0.0
 10
174.89453125
 20
-321.5771484375
 30
0.0
 10
175.66015625
 20
-321.99609375
 30
0.0
  0
HATCH
  5
99
330
84
100
AcDbEntity
  8
Layer 1
 62
    18
420
        0
440
 33554687
100
AcDbHatch
 10
0.0
 20
0.0
 30
0.0
210
0.0
220
0.0
230
1.0
  2
SOLID
 70
     1
 71
     1
 91
        1
 92
        1
 93
        1
 72
     4
 94
        3
 73
     0
 74
     0
 95
       59
 96
       55
 40
0.0
 40
0.0
 40
0.0
 40
0.0
 40
1.0
 40
1.0
 40
1.0
 40
2.0
 40
2.0
 40
2.0
 40
3.0
 40
3.0
 40
3.0
 40
4.0
 40
4.0
 40
4.0
 40
5.0
 40
5.0
 40
5.0
 40
6.0
 40
6.0
 40
6.0
 40
7.0
 40
7.0
 40
7.0
 40
8.0
 40
8.0
 40
8.0
 40
9.0
 40
9.0
 40
9.0
 40
10.0
 40
10.0
 40
10.0
 40
11.0
 40
11.0
 40
11.0
 40
12.0
 40
12.0
 40
12.0
 40
13.0
 40
13.0
 40
13.0
 40
14.0
 40
14.0
 40
14.0
 40
15.0
 40
15.0
 40
15.0
 40
16.0
 40
16.0
 40
16.0
 40
17.0
 40
17.0
 40
17.0
 40
18.0
 40
18.0
 40
18.0
 40
18.0
 10
175.66015625
 20
-321.99609375
 10
175.66015625
 20
-321.99609375
 10
175.66015625
 20
-322.0068359375
 10
175.66015625
 20
-322.0068359375
 10
175.3564453125
 20
-323.3779296875
 10
175.1904296875
 20
-324.0966796875
 10
175.162109375
 20
-324.1611328125
 10
174.46875
 20
-323.70703125
 10
173.85546875
 20
-323.4794921875
 10
173.3212890625
 20
-323.4794921875
 10
173.3212890625
 20
-323.4794921875
 10
173.1484375
 20
-323.4794921875
 10
173.1484375
 20
-323.4794921875
 10
172.455078125
 20
-323.4794921875
 10
171.8447265625
 20
-323.7353515625
 10
171.318359375
 20
-324.248046875
 10
170.9208984375
 20
-324.7314453125
 10
170.72265625
 20
-325.6484375
 10
170.72265625
 20
-326.998046875
 10
170.72265625
 20
-326.998046875
 10
170.72265625
 20
-331.7626953125
 10
170.72265625
 20
-331.7626953125
 10
170.72265625
 20
-331.7626953125
 10
170.701171875
 20
-331.794921875
 10
170.701171875
 20
-331.794921875
 10
170.701171875
 20
-331.794921875
 10
168.67578125
 20
-331.794921875
 10
168.67578125
 20
-331.794921875
 10
168.67578125
 20
-331.794921875
 10
168.6435546875
 20
-331.7626953125
 10
168.6435546875
 20
-331.7626953125
 10
168.6435546875
 20
-331.7626953125
 10
168.6435546875
 20
-321.595703125
 10
168.6435546875
 20
-321.595703125
 10
168.6435546875
 20
-321.595703125
 10
168.67578125
 20
-321.57421875
 10
168.67578125
 20
-321.57421875
 10
168.67578125
 20
-321.57421875
 10
170.701171875
 20
-321.57421875
 10
170.701171875
 20
-321.57421875
 10
170.701171875
 20
-321.57421875
 10
170.72265625
 20
-321.595703125
 10
170.72265625
 20
-321.595703125
 10
170.72265625
 20
-321.595703125
 10
170.72265625
 20
-322.375
 10
170.72265625
 20
-322.375
 10
171.5166015625
 20
-321.7041015625
 10
172.33203125
 20
-321.3681640625
 10
173.1689453125
 20
-321.3681640625
 10
173.1689453125
 20
-321.3681640625
 10
173.4404296875
 20
-321.3681640625
 10
173.4404296875
 20
-321.3681640625
 10
174.154296875
 20
-321.3681640625
 10
174.89453125
 20
-321.5771484375
 10
175.66015625
 20
-321.99609375
 97
        0
 97
        1
330
98
 75
     2
 76
     1
 98
        1
 10
0.0
 20
0.0
450
        0
451
        0
460
0.0
461
0.0
452
        0
462
0.0
453
        0
470

  0
SPLINE
  5
9A
330
84
100
AcDbEntity
  8
Layer 1
100
AcDbSpline
210
0.0
220
0.0
230
1.0
 70
     9
 71
     3
 72
    23
 73
    19
 74
     0
 42
0.0000000001
 43
0.0000000001
 40
0.0
 40
0.0
 40
0.0
 40
0.0
 40
1.0
 40
1.0
 40
1.0
 40
2.0
 40
2.0
 40
2.0
 40
3.0
 40
3.0
 40
3.0
 40
4.0
 40
4.0
 40
4.0
 40
5.0
 40
5.0
 40
5.0
 40
6.0
 40
6.0
 40
6.0
 40
6.0
 10
184.3955078125
 20
-325.3203125
 30
0.0
 10
184.2626953125
 20
-324.9521484375
 30
0.0
 10
183.95703125
 20
-324.533203125
 30
0.0
 10
183.4794921875
 20
-324.064453125
 30
0.0
 10
182.8837890625
 20
-323.5947265625
 30
0.0
 10
182.234375
 20
-323.3603515625
 30
0.0
 10
181.5302734375
 20
-323.3603515625
 30
0.0
 10
180.45703125
 20
-323.3603515625
 30
0.0
 10
179.576171875
 20
-323.8837890625
 30
0.0
 10
178.8876953125
 20
-324.9306640625
 30
0.0
 10
178.8876953125
 20
-324.9306640625
 30
0.0
 10
178.7001953125
 20
-325.3310546875
 30
0.0
 10
178.7001953125
 20
-325.3310546875
 30
0.0
 10
178.7001953125
 20
-325.3310546875
 30
0.0
 10
184.3955078125
 20
-325.3310546875
 30
0.0
 10
184.3955078125
 20
-325.3310546875
 30
0.0
 10
184.3955078125
 20
-325.3310546875
 30
0.0
 10
184.3955078125
 20
-325.3203125
 30
0.0
 10
184.3955078125
 20
-325.3203125
 30
0.0
  0
SPLINE
  5
9B
330
84
100
AcDbEntity
  8
Layer 1
100
AcDbSpline
210
0.0
220
0.0
230
1.0
 70
     9
 71
     3
 72
    65
 73
    61
 74
     0
 42
0.0000000001
 43
0.0000000001
 40
0.0
 40
0.0
 40
0.0
 40
0.0
 40
1.0
 40
1.0
 40
1.0
 40
2.0
 40
2.0
 40
2.0
 40
3.0
 40
3.0
 40
3.0
 40
4.0
 40
4.0
 40
4.0
 40
5.0
 40
5.0
 40
5.0
 40
6.0
 40
6.0
 40
6.0
 40
7.0
 40
7.0
 40
7.0
 40
8.0
 40
8.0
 40
8.0
 40
9.0
 40
9.0
 40
9.0
 40
10.0
 40
10.0
 40
10.0
 40
11.0
 40
11.0
 40
11.0
 40
12.0
 40
12.0
 40
12.0
 40
13.0
 40
13.0
 40
13.0
 40
14.0
 40
14.0
 40
14.0
 40
15.0
 40
15.0
 40
15.0
 40
16.0
 40
16.0
 40
16.0
 40
17.0
 40
17.0
 40
17.0
 40
18.0
 40
18.0
 40
18.0
 40
19.0
 40
19.0
 40
19.0
 40
20.0
 40
20.0
 40
20.0
 40
20.0
 10
186.943359375
 20
-326.673828125
 30
0.0
 10
186.943359375
 20
-326.673828125
 30
0.0
 10
186.943359375
 20
-326.9990234375
 30
0.0
 10
186.943359375
 20
-326.9990234375
 30
0.0
 10
186.943359375
 20
-327.201171875
 30
0.0
 10
186.927734375
 20
-327.3017578125
 30
0.0
 10
186.896484375
 20
-327.3017578125
 30
0.0
 10
186.896484375
 20
-327.3017578125
 30
0.0
 10
178.48828125
 20
-327.3017578125
 30
0.0
 10
178.48828125
 20
-327.3017578125
 30
0.0
 10
178.66796875
 20
-328.07421875
 30
0.0
 10
178.9658203125
 20
-328.6513671875
 30
0.0
 10
179.380859375
 20
-329.0341796875
 30
0.0
 10
180.0146484375
 20
-329.662109375
 30
0.0
 10
180.7353515625
 20
-329.9755859375
 30
0.0
 10
181.5419921875
 20
-329.9755859375
 30
0.0
 10
182.5595703125
 20
-329.9755859375
 30
0.0
 10
183.4130859375
 20
-329.5029296875
 30
0.0
 10
184.1015625
 20
-328.5576171875
 30
0.0
 10
184.234375
 20
-328.3193359375
 30
0.0
 10
184.3134765625
 20
-328.1962890625
 30
0.0
 10
184.3369140625
 20
-328.189453125
 30
0.0
 10
185.6826171875
 20
-328.751953125
 30
0.0
 10
186.3642578125
 20
-329.041015625
 30
0.0
 10
186.3798828125
 20
-329.0556640625
 30
0.0
 10
186.2705078125
 20
-329.30859375
 30
0.0
 10
186.0234375
 20
-329.6875
 30
0.0
 10
185.640625
 20
-330.1923828125
 30
0.0
 10
184.4892578125
 20
-331.44140625
 30
0.0
 10
183.130859375
 20
-332.0654296875
 30
0.0
 10
181.5654296875
 20
-332.0654296875
 30
0.0
 10
181.5654296875
 20
-332.0654296875
 30
0.0
 10
181.517578125
 20
-332.0654296875
 30
0.0
 10
181.517578125
 20
-332.0654296875
 30
0.0
 10
179.9052734375
 20
-332.0654296875
 30
0.0
 10
178.51953125
 20
-331.4052734375
 30
0.0
 10
177.361328125
 20
-330.083984375
 30
0.0
 10
176.5625
 20
-329.0517578125
 30
0.0
 10
176.1630859375
 20
-327.9228515625
 30
0.0
 10
176.1630859375
 20
-326.6953125
 30
0.0
 10
176.1630859375
 20
-326.6953125
 30
0.0
 10
176.1630859375
 20
-326.65234375
 30
0.0
 10
176.1630859375
 20
-326.65234375
 30
0.0
 10
176.1630859375
 20
-324.962890625
 30
0.0
 10
176.86328125
 20
-323.5341796875
 30
0.0
 10
178.265625
 20
-322.3642578125
 30
0.0
 10
179.298828125
 20
-321.6357421875
 30
0.0
 10
180.3359375
 20
-321.2705078125
 30
0.0
 10
181.376953125
 20
-321.2705078125
 30
0.0
 10
181.376953125
 20
-321.2705078125
 30
0.0
 10
181.7177734375
 20
-321.2705078125
 30
0.0
 10
181.7177734375
 20
-321.2705078125
 30
0.0
 10
182.8603515625
 20
-321.2705078125
 30
0.0
 10
183.9609375
 20
-321.693359375
 30
0.0
 10
185.017578125
 20
-322.537109375
 30
0.0
 10
185.5341796875
 20
-323.0068359375
 30
0.0
 10
185.890625
 20
-323.4111328125
 30
0.0
 10
186.0859375
 20
-323.75
 30
0.0
 10
186.658203125
 20
-324.6806640625
 30
0.0
 10
186.943359375
 20
-325.6552734375
 30
0.0
 10
186.943359375
 20
-326.673828125
 30
0.0
  0
HATCH
  5
9C
330
84
100
AcDbEntity
  8
Layer 1
 62
    18
420
        0
440
 33554687
100
AcDbHatch
 10
0.0
 20
0.0
 30
0.0
210
0.0
220
0.0
230
1.0
  2
SOLID
 70
     1
 71
     1
 91
        2
 92
        1
 93
        1
 72
     4
 94
        3
 73
     0
 74
     0
 95
       23
 96
       19
 40
0.0
 40
0.0
 40
0.0
 40
0.0
 40
1.0
 40
1.0
 40
1.0
 40
2.0
 40
2.0
 40
2.0
 40
3.0
 40
3.0
 40
3.0
 40
4.0
 40
4.0
 40
4.0
 40
5.0
 40
5.0
 40
5.0
 40
6.0
 40
6.0
 40
6.0
 40
6.0
 10
184.3955078125
 20
-325.3203125
 10
184.2626953125
 20
-324.9521484375
 10
183.95703125
 20
-324.533203125
 10
183.4794921875
 20
-324.064453125
 10
182.8837890625
 20
-323.5947265625
 10
182.234375
 20
-323.3603515625
 10
181.5302734375
 20
-323.3603515625
 10
180.45703125
 20
-323.3603515625
 10
179.576171875
 20
-323.8837890625
 10
178.8876953125
 20
-324.9306640625
 10
178.8876953125
 20
-324.9306640625
 10
178.7001953125
 20
-325.3310546875
 10
178.7001953125
 20
-325.3310546875
 10
178.7001953125
 20
-325.3310546875
 10
184.3955078125
 20
-325.3310546875
 10
184.3955078125
 20
-325.3310546875
 10
184.3955078125
 20
-325.3310546875
 10
184.3955078125
 20
-325.3203125
 10
184.3955078125
 20
-325.3203125
 97
        0
 97
        1
330
9A
 92
        1
 93
        1
 72
     4
 94
        3
 73
     0
 74
     0
 95
       65
 96
       61
 40
0.0
 40
0.0
 40
0.0
 40
0.0
 40
1.0
 40
1.0
 40
1.0
 40
2.0
 40
2.0
 40
2.0
 40
3.0
 40
3.0
 40
3.0
 40
4.0
 40
4.0
 40
4.0
 40
5.0
 40
5.0
 40
5.0
 40
6.0
 40
6.0
 40
6.0
 40
7.0
 40
7.0
 40
7.0
 40
8.0
 40
8.0
 40
8.0
 40
9.0
 40
9.0
 40
9.0
 40
10.0
 40
10.0
 40
10.0
 40
11.0
 40
11.0
 40
11.0
 40
12.0
 40
12.0
 40
12.0
 40
13.0
 40
13.0
 40
13.0
 40
14.0
 40
14.0
 40
14.0
 40
15.0
 40
15.0
 40
15.0
 40
16.0
 40
16.0
 40
16.0
 40
17.0
 40
17.0
 40
17.0
 40
18.0
 40
18.0
 40
18.0
 40
19.0
 40
19.0
 40
19.0
 40
20.0
 40
20.0
 40
20.0
 40
20.0
 10
186.943359375
 20
-326.673828125
 10
186.943359375
 20
-326.673828125
 10
186.943359375
 20
-326.9990234375
 10
186.943359375
 20
-326.9990234375
 10
186.943359375
 20
-327.201171875
 10
186.927734375
 20
-327.3017578125
 10
186.896484375
 20
-327.3017578125
 10
186.896484375
 20
-327.3017578125
 10
178.48828125
 20
-327.3017578125
 10
178.48828125
 20
-327.3017578125
 10
178.66796875
 20
-328.07421875
 10
178.9658203125
 20
-328.6513671875
 10
179.380859375
 20
-329.0341796875
 10
180.0146484375
 20
-329.662109375
 10
180.7353515625
 20
-329.9755859375
 10
181.5419921875
 20
-329.9755859375
 10
182.5595703125
 20
-329.9755859375
 10
183.4130859375
 20
-329.5029296875
 10
184.1015625
 20
-328.5576171875
 10
184.234375
 20
-328.3193359375
 10
184.3134765625
 20
-328.1962890625
 10
184.3369140625
 20
-328.189453125
 10
185.6826171875
 20
-328.751953125
 10
186.3642578125
 20
-329.041015625
 10
186.3798828125
 20
-329.0556640625
 10
186.2705078125
 20
-329.30859375
 10
186.0234375
 20
-329.6875
 10
185.640625
 20
-330.1923828125
 10
184.4892578125
 20
-331.44140625
 10
183.130859375
 20
-332.0654296875
 10
181.5654296875
 20
-332.0654296875
 10
181.5654296875
 20
-332.0654296875
 10
181.517578125
 20
-332.0654296875
 10
181.517578125
 20
-332.0654296875
 10
179.9052734375
 20
-332.0654296875
 10
178.51953125
 20
-331.4052734375
 10
177.361328125
 20
-330.083984375
 10
176.5625
 20
-329.0517578125
 10
176.1630859375
 20
-327.9228515625
 10
176.1630859375
 20
-326.6953125
 10
176.1630859375
 20
-326.6953125
 10
176.1630859375
 20
-326.65234375
 10
176.1630859375
 20
-326.65234375
 10
176.1630859375
 20
-324.962890625
 10
176.86328125
 20
-323.5341796875
 10
178.265625
 20
-322.3642578125
 10
179.298828125
 20
-321.6357421875
 10
180.3359375
 20
-321.2705078125
 10
181.376953125
 20
-321.2705078125
 10
181.376953125
 20
-321.2705078125
 10
181.7177734375
 20
-321.2705078125
 10
181.7177734375
 20
-321.2705078125
 10
182.8603515625
 20
-321.2705078125
 10
183.9609375
 20
-321.693359375
 10
185.017578125
 20
-322.537109375
 10
185.5341796875
 20
-323.0068359375
 10
185.890625
 20
-323.4111328125
 10
186.0859375
 20
-323.75
 10
186.658203125
 20
-324.6806640625
 10
186.943359375
 20
-325.6552734375
 10
186.943359375
 20
-326.673828125
 97
        0
 97
        1
330
9B
 75
     2
 76
     1
 98
        1
 10
0.0
 20
0.0
450
        0
451
        0
460
0.0
461
0.0
452
        0
462
0.0
453
        0
470

  0
ENDBLK
  5
87
330
84
100
AcDbEntity
  8
0
100
AcDbBlockEnd
  0
ENDSEC
  0
SECTION
  2
ENTITIES
  0
INSERT
  5
7A
330
70
100
AcDbEntity
  8
Layer 1
100
AcDbBlockReference
  2
Block_0
 10
0.0
 20
0.0
 30
0.0
  0
INSERT
  5
85
330
70
100
AcDbEntity
  8
Layer 1
100
AcDbBlockReference
  2
Block_1
 10
0.0
 20
0.0
 30
0.0
  0
ENDSEC
  0
SECTION
  2
OBJECTS
  0
DICTIONARY
  5
C
330
0
100
AcDbDictionary
281
     1
  3
ACAD_COLOR
350
63
  3
ACAD_DETAILVIEWSTYLE
350
6A
  3
ACAD_GROUP
350
D
  3
ACAD_LAYOUT
350
62
  3
ACAD_MATERIAL
350
10
  3
ACAD_MLEADERSTYLE
350
66
  3
ACAD_MLINESTYLE
350
5F
  3
ACAD_PLOTSETTINGS
350
61
  3
ACAD_PLOTSTYLENAME
350
E
  3
ACAD_SCALELIST
350
42
  3
ACAD_SECTIONVIEWSTYLE
350
68
  3
ACAD_TABLESTYLE
350
64
  3
ACAD_VISUALSTYLE
350
29
  3
ACDB_RECOMPOSE_DATA
350
A5
  3
AcDbVariableDictionary
350
9D
  0
DICTIONARY
  5
63
102
{ACAD_REACTORS
330
C
102
}
330
C
100
AcDbDictionary
281
     1
  0
DICTIONARY
  5
6A
102
{ACAD_REACTORS
330
C
102
}
330
C
100
AcDbDictionary
281
     1
  3
Imperial24
350
6B
  0
DICTIONARY
  5
D
102
{ACAD_REACTORS
330
C
102
}
330
C
100
AcDbDictionary
281
     1
  0
DICTIONARY
  5
62
102
{ACAD_REACTORS
330
C
102
}
330
C
100
AcDbDictionary
281
     1
  3
Layout1
350
6F
  3
Layout2
350
77
  3
Model
350
73
  0
DICTIONARY
  5
10
102
{ACAD_REACTORS
330
C
102
}
330
C
100
AcDbDictionary
281
     1
  3
ByBlock
350
19
  3
ByLayer
350
11
  3
Global
350
21
  0
DICTIONARY
  5
66
102
{ACAD_REACTORS
330
C
102
}
330
C
100
AcDbDictionary
281
     1
  3
Standard
350
67
  0
DICTIONARY
  5
5F
102
{ACAD_REACTORS
330
C
102
}
330
C
100
AcDbDictionary
281
     1
  3
Standard
350
60
  0
DICTIONARY
  5
61
102
{ACAD_REACTORS
330
C
102
}
330
C
100
AcDbDictionary
281
     1
  0
ACDBDICTIONARYWDFLT
  5
E
102
{ACAD_REACTORS
330
C
102
}
330
C
100
AcDbDictionary
281
     1
  3
Normal
350
F
100
AcDbDictionaryWithDefault
340
F
  0
DICTIONARY
  5
42
102
{ACAD_REACTORS
330
C
102
}
330
C
100
AcDbDictionary
281
     1
  3
A0
350
43
  3
A1
350
44
  3
A2
350
45
  3
A3
350
46
  3
A4
350
47
  3
A5
350
48
  3
A6
350
49
  3
A7
350
4A
  3
A8
350
4B
  3
A9
350
4C
  3
B0
350
4D
  3
B1
350
4E
  3
B2
350
4F
  3
B3
350
50
  3
B4
350
51
  3
B5
350
52
  3
B6
350
53
  0
DICTIONARY
  5
68
102
{ACAD_REACTORS
330
C
102
}
330
C
100
AcDbDictionary
281
     1
  3
Imperial24
350
69
  0
DICTIONARY
  5
64
102
{ACAD_REACTORS
330
C
102
}
330
C
100
AcDbDictionary
281
     1
  3
Standard
350
65
  0
DICTIONARY
  5
29
102
{ACAD_REACTORS
330
C
102
}
330
C
100
AcDbDictionary
281
     1
  3
2dWireframe
350
2F
  3
Basic
350
2E
  3
Brighten
350
35
  3
ColorChange
350
39
  3
Conceptual
350
32
  3
Dim
350
34
  3
EdgeColorOff
350
41
  3
Facepattern
350
38
  3
Flat
350
2A
  3
FlatWithEdges
350
2B
  3
Gouraud
350
2C
  3
GouraudWithEdges
350
2D
  3
Hidden
350
31
  3
JitterOff
350
3F
  3
Linepattern
350
37
  3
OverhangOff
350
40
  3
Realistic
350
33
  3
Shaded
350
3E
  3
Shaded with edges
350
3D
  3
Shades of Gray
350
3A
  3
Sketchy
350
3B
  3
Thicken
350
36
  3
Wireframe
350
30
  3
X-Ray
350
3C
  0
XRECORD
  5
A5
102
{ACAD_REACTORS
330
C
102
}
330
C
100
AcDbXrecord
280
     1
 90
        1
330
65
  0
DICTIONARY
  5
9D
102
{ACAD_REACTORS
330
C
102
}
330
C
100
AcDbDictionary
281
     1
  3
CANNOSCALE
350
A2
  3
CMLEADERSTYLE
350
9F
  3
CTABLESTYLE
350
9E
  3
CVIEWDETAILSTYLE
350
A0
  3
CVIEWSECTIONSTYLE
350
A1
  0
ACDBDETAILVIEWSTYLE
  5
6B
102
{ACAD_REACTORS
330
6A
102
}
330
6A
100
AcDbModelDocViewStyle
 70
     0
  3
Imperial24
290
     1
300
Imperial24
 90
        0
100
AcDbDetailViewStyle
 70
     0
 71
     0
 90
        3
 71
     1
340
55
 62
   256
 40
0.24
340
0
 62
   256
 40
0.24
300

 40
0.36
280
     3
 71
     2
340
5D
 90
       25
 62
   256
 71
     3
340
55
 62
   256
 40
0.24
 90
        1
 40
0.75
 90
        1
300
%<\AcVar ViewType \f "%tc1">% %<\AcVar ViewDetailId>%\PSCALE %<\AcVar ViewScale \f "%sn">%
 71
     4
340
5D
 90
       25
 62
   256
340
5D
 90
       25
 62
   256
280
     0
  0
LAYOUT
  5
6F
102
{ACAD_REACTORS
330
62
102
}
330
62
100
AcDbPlotSettings
  1

  2

  4

  6

 40
0.0
 41
0.0
 42
0.0
 43
0.0
 44
0.0
 45
0.0
 46
0.0
 47
0.0
 48
0.0
 49
0.0
140
0.0
141
0.0
142
1.0
143
1.0
 70
   688
 72
     0
 73
     0
 74
     5
  7

 75
    16
147
1.0
 76
     0
 77
     2
 78
   300
148
0.0
149
0.0
100
AcDbLayout
  1
Layout1
 70
     1
 71
     1
 10
0.0
 20
0.0
 11
12.0
 21
9.0
 12
0.0
 22
0.0
 32
0.0
 14
0.0
 24
0.0
 34
0.0
 15
0.0
 25
0.0
 35
0.0
146
0.0
 13
0.0
 23
0.0
 33
0.0
 16
1.0
 26
0.0
 36
0.0
 17
0.0
 27
1.0
 37
0.0
 76
     0
330
6C
  0
LAYOUT
  5
77
102
{ACAD_REACTORS
330
62
102
}
330
62
100
AcDbPlotSettings
  1

  2

  4

  6

 40
0.0
 41
0.0
 42
0.0
 43
0.0
 44
0.0
 45
0.0
 46
0.0
 47
0.0
 48
0.0
 49
0.0
140
0.0
141
0.0
142
1.0
143
1.0
 70
   688
 72
     0
 73
     0
 74
     5
  7

 75
    16
147
1.0
 76
     0
 77
     2
 78
   300
148
0.0
149
0.0
100
AcDbLayout
  1
Layout2
 70
     1
 71
     2
 10
0.0
 20
0.0
 11
12.0
 21
9.0
 12
0.0
 22
0.0
 32
0.0
 14
0.0
 24
0.0
 34
0.0
 15
0.0
 25
0.0
 35
0.0
146
0.0
 13
0.0
 23
0.0
 33
0.0
 16
1.0
 26
0.0
 36
0.0
 17
0.0
 27
1.0
 37
0.0
 76
     0
330
74
  0
LAYOUT
  5
73
102
{ACAD_REACTORS
330
62
102
}
330
62
100
AcDbPlotSettings
  1

  2

  4

  6

 40
0.0
 41
0.0
 42
0.0
 43
0.0
 44
0.0
 45
0.0
 46
0.0
 47
0.0
 48
0.0
 49
0.0
140
0.0
141
0.0
142
1.0
143
1.0
 70
  1712
 72
     0
 73
     0
 74
     0
  7

 75
     0
147
1.0
 76
     0
 77
     2
 78
   300
148
0.0
149
0.0
100
AcDbLayout
  1
Model
 70
     1
 71
     0
 10
0.0
 20
0.0
 11
12.0
 21
9.0
 12
0.0
 22
0.0
 32
0.0
 14
0.0
 24
0.0
 34
0.0
 15
0.0
 25
0.0
 35
0.0
146
0.0
 13
0.0
 23
0.0
 33
0.0
 16
1.0
 26
0.0
 36
0.0
 17
0.0
 27
1.0
 37
0.0
 76
     0
330
70
  0
MATERIAL
  5
19
102
{ACAD_XDICTIONARY
360
1A
102
}
102
{ACAD_REACTORS
330
10
102
}
330
10
100
AcDbMaterial
  1
ByBlock
 72
     0
 43
0.0208333333333333
 43
0.0
 43
0.0
 43
0.0
 43
0.0
 43
0.0208333333333333
 43
0.0
 43
0.0
 43
0.0
 43
0.0
 43
1.0
 43
0.0
 43
0.0
 43
0.0
 43
0.0
 43
1.0
 77
     0
 47
0.0208333333333333
 47
0.0
 47
0.0
 47
0.0
 47
0.0
 47
0.0208333333333333
 47
0.0
 47
0.0
 47
0.0
 47
0.0
 47
1.0
 47
0.0
 47
0.0
 47
0.0
 47
0.0
 47
1.0
171
     0
 49
0.0208333333333333
 49
0.0
 49
0.0
 49
0.0
 49
0.0
 49
0.0208333333333333
 49
0.0
 49
0.0
 49
0.0
 49
0.0
 49
1.0
 49
0.0
 49
0.0
 49
0.0
 49
0.0
 49
1.0
175
     0
142
0.0208333333333333
142
0.0
142
0.0
142
0.0
142
0.0
142
0.0208333333333333
142
0.0
142
0.0
142
0.0
142
0.0
142
1.0
142
0.0
142
0.0
142
0.0
142
0.0
142
1.0
179
     0
144
0.0208333333333333
144
0.0
144
0.0
144
0.0
144
0.0
144
0.0208333333333333
144
0.0
144
0.0
144
0.0
144
0.0
144
1.0
144
0.0
144
0.0
144
0.0
144
0.0
144
1.0
147
0.0208333333333333
147
0.0
147
0.0
147
0.0
147
0.0
147
0.0208333333333333
147
0.0
147
0.0
147
0.0
147
0.0
147
1.0
147
0.0
147
0.0
147
0.0
147
0.0
147
1.0
  0
MATERIAL
  5
11
102
{ACAD_XDICTIONARY
360
12
102
}
102
{ACAD_REACTORS
330
10
102
}
330
10
100
AcDbMaterial
  1
ByLayer
 72
     0
 43
0.0208333333333333
 43
0.0
 43
0.0
 43
0.0
 43
0.0
 43
0.0208333333333333
 43
0.0
 43
0.0
 43
0.0
 43
0.0
 43
1.0
 43
0.0
 43
0.0
 43
0.0
 43
0.0
 43
1.0
 77
     0
 47
0.0208333333333333
 47
0.0
 47
0.0
 47
0.0
 47
0.0
 47
0.0208333333333333
 47
0.0
 47
0.0
 47
0.0
 47
0.0
 47
1.0
 47
0.0
 47
0.0
 47
0.0
 47
0.0
 47
1.0
171
     0
 49
0.0208333333333333
 49
0.0
 49
0.0
 49
0.0
 49
0.0
 49
0.0208333333333333
 49
0.0
 49
0.0
 49
0.0
 49
0.0
 49
1.0
 49
0.0
 49
0.0
 49
0.0
 49
0.0
 49
1.0
175
     0
142
0.0208333333333333
142
0.0
142
0.0
142
0.0
142
0.0
142
0.0208333333333333
142
0.0
142
0.0
142
0.0
142
0.0
142
1.0
142
0.0
142
0.0
142
0.0
142
0.0
142
1.0
179
     0
144
0.0208333333333333
144
0.0
144
0.0
144
0.0
144
0.0
144
0.0208333333333333
144
0.0
144
0.0
144
0.0
144
0.0
144
1.0
144
0.0
144
0.0
144
0.0
144
0.0
144
1.0
147
0.0208333333333333
147
0.0
147
0.0
147
0.0
147
0.0
147
0.0208333333333333
147
0.0
147
0.0
147
0.0
147
0.0
147
1.0
147
0.0
147
0.0
147
0.0
147
0.0
147
1.0
  0
MATERIAL
  5
21
102
{ACAD_XDICTIONARY
360
22
102
}
102
{ACAD_REACTORS
330
10
102
}
330
10
100
AcDbMaterial
  1
Global
 72
     0
 43
0.0208333333333333
 43
0.0
 43
0.0
 43
0.0
 43
0.0
 43
0.0208333333333333
 43
0.0
 43
0.0
 43
0.0
 43
0.0
 43
1.0
 43
0.0
 43
0.0
 43
0.0
 43
0.0
 43
1.0
 77
     0
 47
0.0208333333333333
 47
0.0
 47
0.0
 47
0.0
 47
0.0
 47
0.0208333333333333
 47
0.0
 47
0.0
 47
0.0
 47
0.0
 47
1.0
 47
0.0
 47
0.0
 47
0.0
 47
0.0
 47
1.0
171
     0
 49
0.0208333333333333
 49
0.0
 49
0.0
 49
0.0
 49
0.0
 49
0.0208333333333333
 49
0.0
 49
0.0
 49
0.0
 49
0.0
 49
1.0
 49
0.0
 49
0.0
 49
0.0
 49
0.0
 49
1.0
175
     0
142
0.0208333333333333
142
0.0
142
0.0
142
0.0
142
0.0
142
0.0208333333333333
142
0.0
142
0.0
142
0.0
142
0.0
142
1.0
142
0.0
142
0.0
142
0.0
142
0.0
142
1.0
179
     0
144
0.0208333333333333
144
0.0
144
0.0
144
0.0
144
0.0
144
0.0208333333333333
144
0.0
144
0.0
144
0.0
144
0.0
144
1.0
144
0.0
144
0.0
144
0.0
144
0.0
144
1.0
147
0.0208333333333333
147
0.0
147
0.0
147
0.0
147
0.0
147
0.0208333333333333
147
0.0
147
0.0
147
0.0
147
0.0
147
1.0
147
0.0
147
0.0
147
0.0
147
0.0
147
1.0
  0
MLEADERSTYLE
  5
67
102
{ACAD_REACTORS
330
66
102
}
330
66
100
AcDbMLeaderStyle
179
     2
170
     2
171
     1
172
     0
 90
        2
 40
0.0
 41
0.0
173
     1
 91
-1056964608
340
5B
 92
       -2
290
     1
 42
0.09
291
     1
 43
0.36
  3
Standard
 44
0.18
300

342
55
174
     1
178
     6
175
     1
176
     0
 93
-1056964608
 45
0.18
292
     0
297
     0
 46
0.18
 94
-1056964608
 47
1.0
 49
1.0
140
1.0
293
     1
141
0.0
294
     1
177
     0
142
1.0
295
     1
296
     0
143
0.125
271
     0
272
     9
273
     9
298
     1
  0
MLINESTYLE
  5
60
102
{ACAD_REACTORS
330
5F
102
}
330
5F
100
AcDbMlineStyle
  2
STANDARD
 70
     0
  3

 62
   256
 51
90.0
 52
90.0
 71
     2
 49
0.5
 62
   256
  6
BYLAYER
 49
-0.5
 62
   256
  6
BYLAYER
  0
ACDBPLACEHOLDER
  5
F
102
{ACAD_REACTORS
330
E
102
}
330
E
  0
SCALE
  5
43
102
{ACAD_REACTORS
330
42
102
}
330
42
100
AcDbScale
 70
     0
300
1:1
140
1.0
141
1.0
290
     1
  0
SCALE
  5
44
102
{ACAD_REACTORS
330
42
102
}
330
42
100
AcDbScale
 70
     0
300
1/128" = 1'-0"
140
0.0078125
141
12.0
290
     0
  0
SCALE
  5
45
102
{ACAD_REACTORS
330
42
102
}
330
42
100
AcDbScale
 70
     0
300
1/64" = 1'-0"
140
0.015625
141
12.0
290
     0
  0
SCALE
  5
46
102
{ACAD_REACTORS
330
42
102
}
330
42
100
AcDbScale
 70
     0
300
1/32" = 1'-0"
140
0.03125
141
12.0
290
     0
  0
SCALE
  5
47
102
{ACAD_REACTORS
330
42
102
}
330
42
100
AcDbScale
 70
     0
300
1/16" = 1'-0"
140
0.0625
141
12.0
290
     0
  0
SCALE
  5
48
102
{ACAD_REACTORS
330
42
102
}
330
42
100
AcDbScale
 70
     0
300
3/32" = 1'-0"
140
0.09375
141
12.0
290
     0
  0
SCALE
  5
49
102
{ACAD_REACTORS
330
42
102
}
330
42
100
AcDbScale
 70
     0
300
1/8" = 1'-0"
140
0.125
141
12.0
290
     0
  0
SCALE
  5
4A
102
{ACAD_REACTORS
330
42
102
}
330
42
100
AcDbScale
 70
     0
300
3/16" = 1'-0"
140
0.1875
141
12.0
290
     0
  0
SCALE
  5
4B
102
{ACAD_REACTORS
330
42
102
}
330
42
100
AcDbScale
 70
     0
300
1/4" = 1'-0"
140
0.25
141
12.0
290
     0
  0
SCALE
  5
4C
102
{ACAD_REACTORS
330
42
102
}
330
42
100
AcDbScale
 70
     0
300
3/8" = 1'-0"
140
0.375
141
12.0
290
     0
  0
SCALE
  5
4D
102
{ACAD_REACTORS
330
42
102
}
330
42
100
AcDbScale
 70
     0
300
1/2" = 1'-0"
140
0.5
141
12.0
290
     0
  0
SCALE
  5
4E
102
{ACAD_REACTORS
330
42
102
}
330
42
100
AcDbScale
 70
     0
300
3/4" = 1'-0"
140
0.75
141
12.0
290
     0
  0
SCALE
  5
4F
102
{ACAD_REACTORS
330
42
102
}
330
42
100
AcDbScale
 70
     0
300
1" = 1'-0"
140
1.0
141
12.0
290
     0
  0
SCALE
  5
50
102
{ACAD_REACTORS
330
42
102
}
330
42
100
AcDbScale
 70
     0
300
1-1/2" = 1'-0"
140
1.5
141
12.0
290
     0
  0
SCALE
  5
51
102
{ACAD_REACTORS
330
42
102
}
330
42
100
AcDbScale
 70
     0
300
3" = 1'-0"
140
3.0
141
12.0
290
     0
  0
SCALE
  5
52
102
{ACAD_REACTORS
330
42
102
}
330
42
100
AcDbScale
 70
     0
300
6" = 1'-0"
140
6.0
141
12.0
290
     0
  0
SCALE
  5
53
102
{ACAD_REACTORS
330
42
102
}
330
42
100
AcDbScale
 70
     0
300
1'-0" = 1'-0"
140
12.0
141
12.0
290
     0
  0
ACDBSECTIONVIEWSTYLE
  5
69
102
{ACAD_REACTORS
330
68
102
}
330
68
100
AcDbModelDocViewStyle
 70
     0
  3
Imperial24
290
     1
300
Imperial24
 90
        0
100
AcDbSectionViewStyle
 70
     0
 71
     0
 90
       78
 71
     1
340
55
 62
   256
 40
0.24
340
0
340
0
 62
   256
 40
0.24
300
I, O, Q, S, X, Z
 40
0.48
 90
        3
 40
0.18
 90
        1
 71
     2
340
5D
 90
       25
 62
   256
340
5D
 90
       50
 62
   256
 40
0.24
 40
0.0
 40
0.24
 71
     3
340
55
 62
   256
 40
0.24
 90
        1
 40
0.75
 90
        1
300
%<\AcVar ViewType \f "%tc1">% %<\AcVar ViewSectionStartId>%-%<\AcVar ViewSectionEndId>%\PSCALE %<\AcVar ViewScale \f "%sn">%
 71
     4
 62
   256
 62
   257
300
ANSI31
 40
1.0
 90
        0
290
     0
290
     0
 90
        6
 40
0.0
 40
1.570796326794896
 40
0.2617993877991494
 40
1.308996938995747
 40
-0.2617993877991494
 40
1.832595714594046
  0
TABLESTYLE
  5
65
102
{ACAD_XDICTIONARY
360
A3
102
}
102
{ACAD_REACTORS
330
64
102
}
330
64
100
AcDbTableStyle
280
     0
  3
Standard
 70
     0
 71
     0
 40
0.06
 41
0.06
280
     0
281
     0
  7
Standard
140
0.18
170
     2
 62
     0
 63
     7
283
     0
 90
      512
 91
        0
  1

274
    -2
284
     1
 64
     0
275
    -2
285
     1
 65
     0
276
    -2
286
     1
 66
     0
277
    -2
287
     1
 67
     0
278
    -2
288
     1
 68
     0
279
    -2
289
     1
 69
     0
  7
Standard
140
0.25
170
     5
 62
     0
 63
     7
283
     0
 90
      512
 91
        0
  1

274
    -2
284
     1
 64
     0
275
    -2
285
     1
 65
     0
276
    -2
286
     1
 66
     0
277
    -2
287
     1
 67
     0
278
    -2
288
     1
 68
     0
279
    -2
289
     1
 69
     0
  7
Standard
140
0.18
170
     5
 62
     0
 63
     7
283
     0
 90
      512
 91
        0
  1

274
    -2
284
     1
 64
     0
275
    -2
285
     1
 65
     0
276
    -2
286
     1
 66
     0
277
    -2
287
     1
 67
     0
278
    -2
288
     1
 68
     0
279
    -2
289
     1
 69
     0
  0
VISUALSTYLE
  5
2F
102
{ACAD_REACTORS
330
29
102
}
330
29
100
AcDbVisualStyle
  2
2dWireframe
 70
     4
177
     3
291
     0
 70
    58
 90
        0
176
     1
 90
        2
176
     1
 90
        0
176
     1
 90
        0
176
     1
 40
0.6
176
     1
 40
30.0
176
     1
 62
     7
420
 16777215
176
     1
 90
        1
176
     1
 90
        4
176
     1
 62
     7
176
     1
 62
   257
176
     1
 90
        1
176
     1
 90
        1
176
     1
 40
1.0
176
     1
 90
        0
176
     1
 62
   257
176
     1
 40
1.0
176
     1
 90
        1
176
     1
 90
        6
176
     1
 90
        2
176
     1
 62
     7
176
     1
 90
        5
176
     1
 90
        0
176
     1
 90
        0
176
     1
290
     0
176
     1
 90
        1
176
     1
 40
0.0
176
     1
 90
        0
176
     1
290
     1
176
     1
290
     1
176
     1
290
     0
176
     1
290
     0
176
     1
290
     0
176
     1
290
     0
176
     1
290
     0
176
     1
290
     0
176
     1
290
     0
176
     1
 90
       50
176
     1
 40
0.0
176
     1
 40
1.0
176
     1
 90
        0
176
     1
 62
    18
420
        0
176
     1
 90
       50
176
     1
 90
        3
176
     1
 62
     5
420
      255
176
     1
290
     0
176
     1
 90
       50
176
     1
 90
       50
176
     1
 90
       50
176
     1
290
     0
176
     1
 90
       50
176
     1
 62
   256
176
     0
 40
1.0
176
     0
 90
        2
176
     1
  1
strokes_ogs.tif
176
     1
290
     0
176
     1
 40
1.0
176
     1
 40
1.0
176
     1
  0
VISUALSTYLE
  5
2E
102
{ACAD_REACTORS
330
29
102
}
330
29
100
AcDbVisualStyle
  2
Basic
 70
     7
177
     3
291
     1
 70
    58
 90
        1
176
     1
 90
        0
176
     1
 90
        1
176
     1
 90
        0
176
     1
 40
0.6
176
     1
 40
30.0
176
     1
 62
     7
420
 16777215
176
     1
 90
        0
176
     1
 90
        4
176
     1
 62
     7
176
     1
 62
   257
176
     1
 90
        1
176
     1
 90
        1
176
     1
 40
1.0
176
     1
 90
        8
176
     1
 62
     7
176
     1
 40
1.0
176
     1
 90
        1
176
     1
 90
        6
176
     1
 90
        2
176
     1
 62
     7
176
     1
 90
        5
176
     1
 90
        0
176
     1
 90
        0
176
     1
290
     0
176
     1
 90
        1
176
     1
 40
0.0
176
     1
 90
        0
176
     1
290
     0
176
     1
290
     1
176
     1
290
     1
176
     1
290
     0
176
     1
290
     0
176
     1
290
     0
176
     1
290
     0
176
     1
290
     0
176
     1
290
     0
176
     1
 90
       50
176
     1
 40
0.0
176
     1
 40
1.0
176
     1
 90
        0
176
     1
 62
    18
420
        0
176
     1
 90
       50
176
     1
 90
        3
176
     1
 62
     5
420
      255
176
     1
290
     0
176
     1
 90
       50
176
     1
 90
       50
176
     1
 90
       50
176
     1
290
     0
176
     1
 90
       50
176
     1
 62
   256
176
     0
 40
1.0
176
     0
 90
        2
176
     1
  1
strokes_ogs.tif
176
     1
290
     0
176
     1
 40
1.0
176
     1
 40
1.0
176
     1
  0
VISUALSTYLE
  5
35
102
{ACAD_REACTORS
330
29
102
}
330
29
100
AcDbVisualStyle
  2
Brighten
 70
    12
177
     3
291
     1
 70
    58
 90
        2
176
     1
 90
        2
176
     1
 90
        0
176
     1
 90
        0
176
     1
 40
0.6
176
     1
 40
30.0
176
     1
 62
     7
420
 16777215
176
     1
 90
        1
176
     1
 90
        4
176
     1
 62
     7
176
     1
 62
   257
176
     1
 90
        1
176
     1
 90
        1
176
     1
 40
1.0
176
     1
 90
        8
176
     1
 62
     7
176
     1
 40
1.0
176
     1
 90
        1
176
     1
 90
        6
176
     1
 90
        2
176
     1
 62
     7
176
     1
 90
        5
176
     1
 90
        0
176
     1
 90
        0
176
     1
290
     0
176
     1
 90
        1
176
     1
 40
50.0
176
     1
 90
        0
176
     1
290
     0
176
     1
290
     1
176
     1
290
     1
176
     1
290
     0
176
     1
290
     0
176
     1
290
     0
176
     1
290
     0
176
     1
290
     0
176
     1
290
     0
176
     1
 90
       50
176
     1
 40
0.0
176
     1
 40
1.0
176
     1
 90
        0
176
     1
 62
    18
420
        0
176
     1
 90
       50
176
     1
 90
        3
176
     1
 62
     5
420
      255
176
     1
290
     0
176
     1
 90
       50
176
     1
 90
       50
176
     1
 90
       50
176
     1
290
     0
176
     1
 90
       50
176
     1
 62
   256
176
     0
 40
1.0
176
     0
 90
        2
176
     1
  1
strokes_ogs.tif
176
     1
290
     0
176
     1
 40
1.0
176
     1
 40
1.0
176
     1
  0
VISUALSTYLE
  5
39
102
{ACAD_REACTORS
330
29
102
}
330
29
100
AcDbVisualStyle
  2
ColorChange
 70
    16
177
     3
291
     1
 70
    58
 90
        2
176
     1
 90
        2
176
     1
 90
        3
176
     1
 90
        0
176
     1
 40
0.6
176
     1
 40
30.0
176
     1
 62
     8
420
  8421504
176
     1
 90
        1
176
     1
 90
        4
176
     1
 62
     7
176
     1
 62
   257
176
     1
 90
        1
176
     1
 90
        1
176
     1
 40
1.0
176
     1
 90
        8
176
     1
 62
     8
420
  8421504
176
     1
 40
1.0
176
     1
 90
        1
176
     1
 90
        6
176
     1
 90
        2
176
     1
 62
     7
176
     1
 90
        5
176
     1
 90
        0
176
     1
 90
        0
176
     1
290
     0
176
     1
 90
        1
176
     1
 40
0.0
176
     1
 90
        0
176
     1
290
     0
176
     1
290
     1
176
     1
290
     1
176
     1
290
     0
176
     1
290
     0
176
     1
290
     0
176
     1
290
     0
176
     1
290
     0
176
     1
290
     0
176
     1
 90
       50
176
     1
 40
0.0
176
     1
 40
1.0
176
     1
 90
        0
176
     1
 62
    18
420
        0
176
     1
 90
       50
176
     1
 90
        3
176
     1
 62
     5
420
      255
176
     1
290
     0
176
     1
 90
       50
176
     1
 90
       50
176
     1
 90
       50
176
     1
290
     0
176
     1
 90
       50
176
     1
 62
   256
176
     0
 40
1.0
176
     0
 90
        2
176
     1
  1
strokes_ogs.tif
176
     1
290
     0
176
     1
 40
1.0
176
     1
 40
1.0
176
     1
  0
VISUALSTYLE
  5
32
102
{ACAD_REACTORS
330
29
102
}
330
29
100
AcDbVisualStyle
  2
Conceptual
 70
     9
177
     3
291
     0
 70
    58
 90
        3
176
     1
 90
        2
176
     1
 90
        0
176
     1
 90
        0
176
     1
 40
0.6
176
     1
 40
30.0
176
     1
 62
     7
420
 16777215
176
     1
 90
        2
176
     1
 90
        2
176
     1
 62
     7
176
     1
 62
   257
176
     1
 90
        1
176
     1
 90
        1
176
     1
 40
179.0
176
     1
 90
        8
176
     1
 62
     7
176
     1
 40
1.0
176
     1
 90
        1
176
     1
 90
        6
176
     1
 90
        2
176
     1
 62
     7
176
     1
 90
        3
176
     1
 90
        0
176
     1
 90
        0
176
     1
290
     0
176
     1
 90
        1
176
     1
 40
0.0
176
     1
 90
        0
176
     1
290
     0
176
     1
290
     1
176
     1
290
     1
176
     1
290
     0
176
     1
290
     0
176
     1
290
     0
176
     1
290
     0
176
     1
290
     0
176
     1
290
     0
176
     1
 90
       50
176
     1
 40
0.0
176
     1
 40
1.0
176
     1
 90
        0
176
     1
 62
    18
420
        0
176
     1
 90
       50
176
     1
 90
        3
176
     1
 62
     5
420
      255
176
     1
290
     0
176
     1
 90
       50
176
     1
 90
       50
176
     1
 90
       50
176
     1
290
     0
176
     1
 90
       50
176
     1
 62
   256
176
     0
 40
1.0
176
     0
 90
        2
176
     1
  1
strokes_ogs.tif
176
     1
290
     0
176
     1
 40
1.0
176
     1
 40
1.0
176
     1
  0
VISUALSTYLE
  5
34
102
{ACAD_REACTORS
330
29
102
}
330
29
100
AcDbVisualStyle
  2
Dim
 70
    11
177
     3
291
     1
 70
    58
 90
        2
176
     1
 90
        2
176
     1
 90
        0
176
     1
 90
        0
176
     1
 40
0.6
176
     1
 40
30.0
176
     1
 62
     7
420
 16777215
176
     1
 90
        1
176
     1
 90
        4
176
     1
 62
     7
176
     1
 62
   257
176
     1
 90
        1
176
     1
 90
        1
176
     1
 40
1.0
176
     1
 90
        8
176
     1
 62
     7
176
     1
 40
1.0
176
     1
 90
        1
176
     1
 90
        6
176
     1
 90
        2
176
     1
 62
     7
176
     1
 90
        5
176
     1
 90
        0
176
     1
 90
        0
176
     1
290
     0
176
     1
 90
        1
176
     1
 40
-50.0
176
     1
 90
        0
176
     1
290
     0
176
     1
290
     1
176
     1
290
     1
176
     1
290
     0
176
     1
290
     0
176
     1
290
     0
176
     1
290
     0
176
     1
290
     0
176
     1
290
     0
176
     1
 90
       50
176
     1
 40
0.0
176
     1
 40
1.0
176
     1
 90
        0
176
     1
 62
    18
420
        0
176
     1
 90
       50
176
     1
 90
        3
176
     1
 62
     5
420
      255
176
     1
290
     0
176
     1
 90
       50
176
     1
 90
       50
176
     1
 90
       50
176
     1
290
     0
176
     1
 90
       50
176
     1
 62
   256
176
     0
 40
1.0
176
     0
 90
        2
176
     1
  1
strokes_ogs.tif
176
     1
290
     0
176
     1
 40
1.0
176
     1
 40
1.0
176
     1
  0
VISUALSTYLE
  5
41
102
{ACAD_REACTORS
330
29
102
}
330
29
100
AcDbVisualStyle
  2
EdgeColorOff
 70
    22
177
     3
291
     1
 70
    58
 90
        2
176
     0
 90
        2
176
     0
 90
        0
176
     0
 90
        0
176
     0
 40
0.6
176
     0
 40
30.0
176
     0
 62
     7
420
 16777215
176
     0
 90
        1
176
     0
 90
        4
176
     0
 62
     7
176
     0
 62
   257
176
     0
 90
        1
176
     0
 90
        1
176
     0
 40
1.0
176
     0
 90
        8
176
     2
 62
     7
176
     0
 40
1.0
176
     0
 90
        1
176
     0
 90
        6
176
     0
 90
        2
176
     0
 62
     7
176
     0
 90
        5
176
     0
 90
        0
176
     0
 90
        0
176
     0
290
     0
176
     0
 90
        1
176
     0
 40
0.0
176
     0
 90
        0
176
     0
290
     0
176
     0
290
     1
176
     0
290
     1
176
     0
290
     0
176
     0
290
     0
176
     0
290
     0
176
     0
290
     0
176
     0
290
     0
176
     0
290
     0
176
     0
 90
       50
176
     0
 40
0.0
176
     0
 40
1.0
176
     0
 90
        0
176
     0
 62
    18
420
        0
176
     0
 90
       50
176
     0
 90
        3
176
     0
 62
     5
420
      255
176
     0
290
     0
176
     0
 90
       50
176
     0
 90
       50
176
     0
 90
       50
176
     0
290
     0
176
     0
 90
       50
176
     0
 62
   256
176
     0
 40
1.0
176
     0
 90
        2
176
     0
  1
strokes_ogs.tif
176
     0
290
     0
176
     0
 40
1.0
176
     0
 40
1.0
176
     0
  0
VISUALSTYLE
  5
38
102
{ACAD_REACTORS
330
29
102
}
330
29
100
AcDbVisualStyle
  2
Facepattern
 70
    15
177
     3
291
     1
 70
    58
 90
        2
176
     1
 90
        2
176
     1
 90
        0
176
     1
 90
        0
176
     1
 40
0.6
176
     1
 40
30.0
176
     1
 62
     7
420
 16777215
176
     1
 90
        1
176
     1
 90
        4
176
     1
 62
     7
176
     1
 62
   257
176
     1
 90
        1
176
     1
 90
        1
176
     1
 40
1.0
176
     1
 90
        8
176
     1
 62
     7
176
     1
 40
1.0
176
     1
 90
        1
176
     1
 90
        6
176
     1
 90
        2
176
     1
 62
     7
176
     1
 90
        5
176
     1
 90
        0
176
     1
 90
        0
176
     1
290
     0
176
     1
 90
        1
176
     1
 40
0.0
176
     1
 90
        0
176
     1
290
     0
176
     1
290
     1
176
     1
290
     1
176
     1
290
     0
176
     1
290
     0
176
     1
290
     0
176
     1
290
     0
176
     1
290
     0
176
     1
290
     0
176
     1
 90
       50
176
     1
 40
0.0
176
     1
 40
1.0
176
     1
 90
        0
176
     1
 62
    18
420
        0
176
     1
 90
       50
176
     1
 90
        3
176
     1
 62
     5
420
      255
176
     1
290
     0
176
     1
 90
       50
176
     1
 90
       50
176
     1
 90
       50
176
     1
290
     0
176
     1
 90
       50
176
     1
 62
   256
176
     0
 40
1.0
176
     0
 90
        2
176
     1
  1
strokes_ogs.tif
176
     1
290
     0
176
     1
 40
1.0
176
     1
 40
1.0
176
     1
  0
VISUALSTYLE
  5
2A
102
{ACAD_REACTORS
330
29
102
}
330
29
100
AcDbVisualStyle
  2
Flat
 70
     0
177
     3
291
     1
 70
    58
 90
        2
176
     1
 90
        1
176
     1
 90
        1
176
     1
 90
        2
176
     1
 40
0.6
176
     1
 40
30.0
176
     1
 62
     7
420
 16777215
176
     1
 90
        0
176
     1
 90
        0
176
     1
 62
     7
176
     1
 62
   257
176
     1
 90
        1
176
     1
 90
        1
176
     1
 40
1.0
176
     1
 90
        8
176
     1
 62
     7
176
     1
 40
1.0
176
     1
 90
        1
176
     1
 90
        6
176
     1
 90
        2
176
     1
 62
     7
176
     1
 90
        5
176
     1
 90
        0
176
     1
 90
        0
176
     1
290
     0
176
     1
 90
       13
176
     1
 40
0.0
176
     1
 90
        0
176
     1
290
     0
176
     1
290
     1
176
     1
290
     1
176
     1
290
     0
176
     1
290
     0
176
     1
290
     0
176
     1
290
     0
176
     1
290
     0
176
     1
290
     0
176
     1
 90
       50
176
     1
 40
0.0
176
     1
 40
1.0
176
     1
 90
        0
176
     1
 62
    18
420
        0
176
     1
 90
       50
176
     1
 90
        3
176
     1
 62
     5
420
      255
176
     1
290
     0
176
     1
 90
       50
176
     1
 90
       50
176
     1
 90
       50
176
     1
290
     0
176
     1
 90
       50
176
     1
 62
   256
176
     0
 40
1.0
176
     0
 90
        2
176
     1
  1
strokes_ogs.tif
176
     1
290
     0
176
     1
 40
1.0
176
     1
 40
1.0
176
     1
  0
VISUALSTYLE
  5
2B
102
{ACAD_REACTORS
330
29
102
}
330
29
100
AcDbVisualStyle
  2
FlatWithEdges
 70
     1
177
     3
291
     1
 70
    58
 90
        2
176
     1
 90
        1
176
     1
 90
        1
176
     1
 90
        2
176
     1
 40
0.6
176
     1
 40
30.0
176
     1
 62
     7
420
 16777215
176
     1
 90
        1
176
     1
 90
        0
176
     1
 62
     7
176
     1
 62
   257
176
     1
 90
        1
176
     1
 90
        1
176
     1
 40
1.0
176
     1
 90
        0
176
     1
 62
   257
176
     1
 40
1.0
176
     1
 90
        1
176
     1
 90
        6
176
     1
 90
        2
176
     1
 62
     7
176
     1
 90
        5
176
     1
 90
        0
176
     1
 90
        0
176
     1
290
     0
176
     1
 90
       13
176
     1
 40
0.0
176
     1
 90
        0
176
     1
290
     0
176
     1
290
     1
176
     1
290
     1
176
     1
290
     0
176
     1
290
     0
176
     1
290
     0
176
     1
290
     0
176
     1
290
     0
176
     1
290
     0
176
     1
 90
       50
176
     1
 40
0.0
176
     1
 40
1.0
176
     1
 90
        0
176
     1
 62
    18
420
        0
176
     1
 90
       50
176
     1
 90
        3
176
     1
 62
     5
420
      255
176
     1
290
     0
176
     1
 90
       50
176
     1
 90
       50
176
     1
 90
       50
176
     1
290
     0
176
     1
 90
       50
176
     1
 62
   256
176
     0
 40
1.0
176
     0
 90
        2
176
     1
  1
strokes_ogs.tif
176
     1
290
     0
176
     1
 40
1.0
176
     1
 40
1.0
176
     1
  0
VISUALSTYLE
  5
2C
102
{ACAD_REACTORS
330
29
102
}
330
29
100
AcDbVisualStyle
  2
Gouraud
 70
     2
177
     3
291
     1
 70
    58
 90
        2
176
     1
 90
        2
176
     1
 90
        1
176
     1
 90
        2
176
     1
 40
0.6
176
     1
 40
30.0
176
     1
 62
     7
420
 16777215
176
     1
 90
        0
176
     1
 90
        0
176
     1
 62
     7
176
     1
 62
   257
176
     1
 90
        1
176
     1
 90
        1
176
     1
 40
1.0
176
     1
 90
        0
176
     1
 62
     7
176
     1
 40
1.0
176
     1
 90
        1
176
     1
 90
        6
176
     1
 90
        2
176
     1
 62
     7
176
     1
 90
        5
176
     1
 90
        0
176
     1
 90
        0
176
     1
290
     0
176
     1
 90
       13
176
     1
 40
0.0
176
     1
 90
        0
176
     1
290
     0
176
     1
290
     1
176
     1
290
     1
176
     1
290
     0
176
     1
290
     0
176
     1
290
     0
176
     1
290
     0
176
     1
290
     0
176
     1
290
     0
176
     1
 90
       50
176
     1
 40
0.0
176
     1
 40
1.0
176
     1
 90
        0
176
     1
 62
    18
420
        0
176
     1
 90
       50
176
     1
 90
        3
176
     1
 62
     5
420
      255
176
     1
290
     0
176
     1
 90
       50
176
     1
 90
       50
176
     1
 90
       50
176
     1
290
     0
176
     1
 90
       50
176
     1
 62
   256
176
     0
 40
1.0
176
     0
 90
        2
176
     1
  1
strokes_ogs.tif
176
     1
290
     0
176
     1
 40
1.0
176
     1
 40
1.0
176
     1
  0
VISUALSTYLE
  5
2D
102
{ACAD_REACTORS
330
29
102
}
330
29
100
AcDbVisualStyle
  2
GouraudWithEdges
 70
     3
177
     3
291
     1
 70
    58
 90
        2
176
     1
 90
        2
176
     1
 90
        1
176
     1
 90
        2
176
     1
 40
0.6
176
     1
 40
30.0
176
     1
 62
     7
420
 16777215
176
     1
 90
        1
176
     1
 90
        0
176
     1
 62
     7
176
     1
 62
   257
176
     1
 90
        1
176
     1
 90
        1
176
     1
 40
1.0
176
     1
 90
        0
176
     1
 62
   257
176
     1
 40
1.0
176
     1
 90
        1
176
     1
 90
        6
176
     1
 90
        2
176
     1
 62
     7
176
     1
 90
        5
176
     1
 90
        0
176
     1
 90
        0
176
     1
290
     0
176
     1
 90
       13
176
     1
 40
0.0
176
     1
 90
        0
176
     1
290
     0
176
     1
290
     1
176
     1
290
     1
176
     1
290
     0
176
     1
290
     0
176
     1
290
     0
176
     1
290
     0
176
     1
290
     0
176
     1
290
     0
176
     1
 90
       50
176
     1
 40
0.0
176
     1
 40
1.0
176
     1
 90
        0
176
     1
 62
    18
420
        0
176
     1
 90
       50
176
     1
 90
        3
176
     1
 62
     5
420
      255
176
     1
290
     0
176
     1
 90
       50
176
     1
 90
       50
176
     1
 90
       50
176
     1
290
     0
176
     1
 90
       50
176
     1
 62
   256
176
     0
 40
1.0
176
     0
 90
        2
176
     1
  1
strokes_ogs.tif
176
     1
290
     0
176
     1
 40
1.0
176
     1
 40
1.0
176
     1
  0
VISUALSTYLE
  5
31
102
{ACAD_REACTORS
330
29
102
}
330
29
100
AcDbVisualStyle
  2
Hidden
 70
     6
177
     3
291
     0
 70
    58
 90
        1
176
     1
 90
        2
176
     1
 90
        2
176
     1
 90
        0
176
     1
 40
0.6
176
     1
 40
30.0
176
     1
 62
     7
420
 16777215
176
     1
 90
        2
176
     1
 90
        2
176
     1
 62
     7
176
     1
 62
   257
176
     1
 90
        2
176
     1
 90
        1
176
     1
 40
40.0
176
     1
 90
        0
176
     1
 62
   257
176
     1
 40
1.0
176
     1
 90
        1
176
     1
 90
        6
176
     1
 90
        2
176
     1
 62
     7
176
     1
 90
        3
176
     1
 90
        0
176
     1
 90
        0
176
     1
290
     0
176
     1
 90
        1
176
     1
 40
0.0
176
     1
 90
        0
176
     1
290
     0
176
     1
290
     1
176
     1
290
     1
176
     1
290
     0
176
     1
290
     0
176
     1
290
     0
176
     1
290
     0
176
     1
290
     0
176
     1
290
     0
176
     1
 90
       50
176
     1
 40
0.0
176
     1
 40
1.0
176
     1
 90
        0
176
     1
 62
    18
420
        0
176
     1
 90
       50
176
     1
 90
        3
176
     1
 62
     5
420
      255
176
     1
290
     0
176
     1
 90
       50
176
     1
 90
       50
176
     1
 90
       50
176
     1
290
     0
176
     1
 90
       50
176
     1
 62
   256
176
     0
 40
1.0
176
     0
 90
        2
176
     1
  1
strokes_ogs.tif
176
     1
290
     0
176
     1
 40
1.0
176
     1
 40
1.0
176
     1
  0
VISUALSTYLE
  5
3F
102
{ACAD_REACTORS
330
29
102
}
330
29
100
AcDbVisualStyle
  2
JitterOff
 70
    20
177
     3
291
     1
 70
    58
 90
        2
176
     0
 90
        2
176
     0
 90
        0
176
     0
 90
        0
176
     0
 40
0.6
176
     0
 40
30.0
176
     0
 62
     7
420
 16777215
176
     0
 90
        1
176
     0
 90
        4
176
     0
 62
     7
176
     0
 62
   257
176
     0
 90
        1
176
     0
 90
        1
176
     0
 40
1.0
176
     0
 90
       10
176
     2
 62
     7
176
     0
 40
1.0
176
     0
 90
        1
176
     0
 90
        6
176
     0
 90
        2
176
     0
 62
     7
176
     0
 90
        5
176
     0
 90
        0
176
     0
 90
        0
176
     0
290
     0
176
     0
 90
        1
176
     0
 40
0.0
176
     0
 90
        0
176
     0
290
     0
176
     0
290
     1
176
     0
290
     1
176
     0
290
     0
176
     0
290
     0
176
     0
290
     0
176
     0
290
     0
176
     0
290
     0
176
     0
290
     0
176
     0
 90
       50
176
     0
 40
0.0
176
     0
 40
1.0
176
     0
 90
        0
176
     0
 62
    18
420
        0
176
     0
 90
       50
176
     0
 90
        3
176
     0
 62
     5
420
      255
176
     0
290
     0
176
     0
 90
       50
176
     0
 90
       50
176
     0
 90
       50
176
     0
290
     0
176
     0
 90
       50
176
     0
 62
   256
176
     0
 40
1.0
176
     0
 90
        2
176
     0
  1
strokes_ogs.tif
176
     0
290
     0
176
     0
 40
1.0
176
     0
 40
1.0
176
     0
  0
VISUALSTYLE
  5
37
102
{ACAD_REACTORS
330
29
102
}
330
29
100
AcDbVisualStyle
  2
Linepattern
 70
    14
177
     3
291
     1
 70
    58
 90
        2
176
     1
 90
        2
176
     1
 90
        0
176
     1
 90
        0
176
     1
 40
0.6
176
     1
 40
30.0
176
     1
 62
     7
420
 16777215
176
     1
 90
        1
176
     1
 90
        4
176
     1
 62
     7
176
     1
 62
   257
176
     1
 90
        7
176
     1
 90
        7
176
     1
 40
1.0
176
     1
 90
        8
176
     1
 62
     7
176
     1
 40
1.0
176
     1
 90
        1
176
     1
 90
        6
176
     1
 90
        2
176
     1
 62
     7
176
     1
 90
        5
176
     1
 90
        0
176
     1
 90
        0
176
     1
290
     0
176
     1
 90
        1
176
     1
 40
0.0
176
     1
 90
        0
176
     1
290
     0
176
     1
290
     1
176
     1
290
     1
176
     1
290
     0
176
     1
290
     0
176
     1
290
     0
176
     1
290
     0
176
     1
290
     0
176
     1
290
     0
176
     1
 90
       50
176
     1
 40
0.0
176
     1
 40
1.0
176
     1
 90
        0
176
     1
 62
    18
420
        0
176
     1
 90
       50
176
     1
 90
        3
176
     1
 62
     5
420
      255
176
     1
290
     0
176
     1
 90
       50
176
     1
 90
       50
176
     1
 90
       50
176
     1
290
     0
176
     1
 90
       50
176
     1
 62
   256
176
     0
 40
1.0
176
     0
 90
        2
176
     1
  1
strokes_ogs.tif
176
     1
290
     0
176
     1
 40
1.0
176
     1
 40
1.0
176
     1
  0
VISUALSTYLE
  5
40
102
{ACAD_REACTORS
330
29
102
}
330
29
100
AcDbVisualStyle
  2
OverhangOff
 70
    21
177
     3
291
     1
 70
    58
 90
        2
176
     0
 90
        2
176
     0
 90
        0
176
     0
 90
        0
176
     0
 40
0.6
176
     0
 40
30.0
176
     0
 62
     7
420
 16777215
176
     0
 90
        1
176
     0
 90
        4
176
     0
 62
     7
176
     0
 62
   257
176
     0
 90
        1
176
     0
 90
        1
176
     0
 40
1.0
176
     0
 90
        9
176
     2
 62
     7
176
     0
 40
1.0
176
     0
 90
        1
176
     0
 90
        6
176
     0
 90
        2
176
     0
 62
     7
176
     0
 90
        5
176
     0
 90
        0
176
     0
 90
        0
176
     0
290
     0
176
     0
 90
        1
176
     0
 40
0.0
176
     0
 90
        0
176
     0
290
     0
176
     0
290
     1
176
     0
290
     1
176
     0
290
     0
176
     0
290
     0
176
     0
290
     0
176
     0
290
     0
176
     0
290
     0
176
     0
290
     0
176
     0
 90
       50
176
     0
 40
0.0
176
     0
 40
1.0
176
     0
 90
        0
176
     0
 62
    18
420
        0
176
     0
 90
       50
176
     0
 90
        3
176
     0
 62
     5
420
      255
176
     0
290
     0
176
     0
 90
       50
176
     0
 90
       50
176
     0
 90
       50
176
     0
290
     0
176
     0
 90
       50
176
     0
 62
   256
176
     0
 40
1.0
176
     0
 90
        2
176
     0
  1
strokes_ogs.tif
176
     0
290
     0
176
     0
 40
1.0
176
     0
 40
1.0
176
     0
  0
VISUALSTYLE
  5
33
102
{ACAD_REACTORS
330
29
102
}
330
29
100
AcDbVisualStyle
  2
Realistic
 70
     8
177
     3
291
     0
 70
    58
 90
        2
176
     1
 90
        3
176
     1
 90
        0
176
     1
 90
        2
176
     1
 40
0.6
176
     1
 40
30.0
176
     1
 62
     7
420
 16777215
176
     1
 90
        0
176
     1
 90
        0
176
     1
 62
     7
176
     1
 62
   257
176
     1
 90
        1
176
     1
 90
        1
176
     1
 40
1.0
176
     1
 90
        8
176
     1
 62
   257
176
     1
 40
1.0
176
     1
 90
        1
176
     1
 90
        6
176
     1
 90
        2
176
     1
 62
     7
176
     1
 90
        3
176
     1
 90
        0
176
     1
 90
        0
176
     1
290
     0
176
     1
 90
       13
176
     1
 40
0.0
176
     1
 90
        0
176
     1
290
     0
176
     1
290
     1
176
     1
290
     1
176
     1
290
     0
176
     1
290
     0
176
     1
290
     0
176
     1
290
     0
176
     1
290
     0
176
     1
290
     0
176
     1
 90
       50
176
     1
 40
0.0
176
     1
 40
1.0
176
     1
 90
        0
176
     1
 62
    18
420
        0
176
     1
 90
       50
176
     1
 90
        3
176
     1
 62
     5
420
      255
176
     1
290
     0
176
     1
 90
       50
176
     1
 90
       50
176
     1
 90
       50
176
     1
290
     0
176
     1
 90
       50
176
     1
 62
   256
176
     0
 40
1.0
176
     0
 90
        2
176
     1
  1
strokes_ogs.tif
176
     1
290
     0
176
     1
 40
1.0
176
     1
 40
1.0
176
     1
  0
VISUALSTYLE
  5
3E
102
{ACAD_REACTORS
330
29
102
}
330
29
100
AcDbVisualStyle
  2
Shaded
 70
    27
177
     3
291
     0
 70
    58
 90
        2
176
     1
 90
        2
176
     1
 90
        1
176
     1
 90
        2
176
     1
 40
0.6
176
     1
 40
30.0
176
     1
 62
     7
420
 16777215
176
     1
 90
        0
176
     1
 90
        4
176
     1
 62
     7
176
     1
 62
   257
176
     1
 90
        1
176
     1
 90
        1
176
     1
 40
1.0
176
     1
 90
        8
176
     1
 62
   257
176
     1
 40
1.0
176
     1
 90
        1
176
     1
 90
        6
176
     1
 90
        2
176
     1
 62
     8
420
  7895160
176
     1
 90
        3
176
     1
 90
        0
176
     1
 90
        0
176
     1
290
     0
176
     1
 90
        5
176
     1
 40
0.0
176
     1
 90
        0
176
     1
290
     0
176
     1
290
     1
176
     1
290
     1
176
     1
290
     0
176
     1
290
     0
176
     1
290
     0
176
     1
290
     0
176
     1
290
     0
176
     1
290
     0
176
     1
 90
       50
176
     1
 40
0.0
176
     1
 40
1.0
176
     1
 90
        0
176
     1
 62
    18
420
        0
176
     1
 90
       50
176
     1
 90
        3
176
     1
 62
     5
420
      255
176
     1
290
     0
176
     1
 90
       50
176
     1
 90
       50
176
     1
 90
       50
176
     1
290
     0
176
     1
 90
       50
176
     1
 62
   256
176
     0
 40
1.0
176
     0
 90
        2
176
     1
  1
strokes_ogs.tif
176
     1
290
     0
176
     1
 40
1.0
176
     1
 40
1.0
176
     1
  0
VISUALSTYLE
  5
3D
102
{ACAD_REACTORS
330
29
102
}
330
29
100
AcDbVisualStyle
  2
Shaded with edges
 70
    26
177
     3
291
     0
 70
    58
 90
        2
176
     1
 90
        2
176
     1
 90
        1
176
     1
 90
        2
176
     1
 40
0.6
176
     1
 40
30.0
176
     1
 62
     7
420
 16777215
176
     1
 90
        1
176
     1
 90
        2
176
     1
 62
     7
176
     1
 62
   257
176
     1
 90
        2
176
     1
 90
        1
176
     1
 40
1.0
176
     1
 90
        8
176
     1
 62
   257
176
     1
 40
1.0
176
     1
 90
        1
176
     1
 90
        6
176
     1
 90
        2
176
     1
 62
     7
176
     1
 90
        3
176
     1
 90
        0
176
     1
 90
        0
176
     1
290
     0
176
     1
 90
        5
176
     1
 40
0.0
176
     1
 90
        0
176
     1
290
     0
176
     1
290
     1
176
     1
290
     1
176
     1
290
     0
176
     1
290
     0
176
     1
290
     0
176
     1
290
     0
176
     1
290
     0
176
     1
290
     0
176
     1
 90
       50
176
     1
 40
0.0
176
     1
 40
1.0
176
     1
 90
        0
176
     1
 62
    18
420
        0
176
     1
 90
       50
176
     1
 90
        3
176
     1
 62
     5
420
      255
176
     1
290
     0
176
     1
 90
       50
176
     1
 90
       50
176
     1
 90
       50
176
     1
290
     0
176
     1
 90
       50
176
     1
 62
   256
176
     0
 40
1.0
176
     0
 90
        2
176
     1
  1
strokes_ogs.tif
176
     1
290
     0
176
     1
 40
1.0
176
     1
 40
1.0
176
     1
  0
VISUALSTYLE
  5
3A
102
{ACAD_REACTORS
330
29
102
}
330
29
100
AcDbVisualStyle
  2
Shades of Gray
 70
    23
177
     3
291
     0
 70
    58
 90
        2
176
     1
 90
        2
176
     1
 90
        3
176
     1
 90
        0
176
     1
 40
0.6
176
     1
 40
30.0
176
     1
 62
     7
420
 16777215
176
     1
 90
        2
176
     1
 90
        2
176
     1
 62
     7
176
     1
 62
     7
176
     1
 90
        1
176
     1
 90
        1
176
     1
 40
40.0
176
     1
 90
        8
176
     1
 62
     7
176
     1
 40
1.0
176
     1
 90
        1
176
     1
 90
        6
176
     1
 90
        2
176
     1
 62
     7
176
     1
 90
        3
176
     1
 90
        0
176
     1
 90
        0
176
     1
290
     0
176
     1
 90
        1
176
     1
 40
0.0
176
     1
 90
        0
176
     1
290
     0
176
     1
290
     1
176
     1
290
     1
176
     1
290
     0
176
     1
290
     0
176
     1
290
     0
176
     1
290
     0
176
     1
290
     0
176
     1
290
     0
176
     1
 90
       50
176
     1
 40
0.0
176
     1
 40
1.0
176
     1
 90
        0
176
     1
 62
    18
420
        0
176
     1
 90
       50
176
     1
 90
        3
176
     1
 62
     5
420
      255
176
     1
290
     0
176
     1
 90
       50
176
     1
 90
       50
176
     1
 90
       50
176
     1
290
     0
176
     1
 90
       50
176
     1
 62
   256
176
     0
 40
1.0
176
     0
 90
        2
176
     1
  1
strokes_ogs.tif
176
     1
290
     0
176
     1
 40
1.0
176
     1
 40
1.0
176
     1
  0
VISUALSTYLE
  5
3B
102
{ACAD_REACTORS
330
29
102
}
330
29
100
AcDbVisualStyle
  2
Sketchy
 70
    24
177
     3
291
     0
 70
    58
 90
        1
176
     1
 90
        2
176
     1
 90
        2
176
     1
 90
        0
176
     1
 40
0.6
176
     1
 40
30.0
176
     1
 62
     7
420
 16777215
176
     1
 90
        2
176
     1
 90
        2
176
     1
 62
     7
176
     1
 62
     7
176
     1
 90
        1
176
     1
 90
        1
176
     1
 40
40.0
176
     1
 90
       11
176
     1
 62
     7
176
     1
 40
1.0
176
     1
 90
        1
176
     1
 90
        6
176
     1
 90
        2
176
     1
 62
     7
176
     1
 90
        6
176
     1
 90
        0
176
     1
 90
        0
176
     1
290
     0
176
     1
 90
        1
176
     1
 40
0.0
176
     1
 90
        0
176
     1
290
     0
176
     1
290
     1
176
     1
290
     1
176
     1
290
     0
176
     1
290
     0
176
     1
290
     0
176
     1
290
     0
176
     1
290
     0
176
     1
290
     0
176
     1
 90
       50
176
     1
 40
0.0
176
     1
 40
1.0
176
     1
 90
        0
176
     1
 62
    18
420
        0
176
     1
 90
       50
176
     1
 90
        3
176
     1
 62
     5
420
      255
176
     1
290
     0
176
     1
 90
       50
176
     1
 90
       50
176
     1
 90
       50
176
     1
290
     0
176
     1
 90
       50
176
     1
 62
   256
176
     0
 40
1.0
176
     0
 90
        2
176
     1
  1
strokes_ogs.tif
176
     1
290
     0
176
     1
 40
1.0
176
     1
 40
1.0
176
     1
  0
VISUALSTYLE
  5
36
102
{ACAD_REACTORS
330
29
102
}
330
29
100
AcDbVisualStyle
  2
Thicken
 70
    13
177
     3
291
     1
 70
    58
 90
        2
176
     1
 90
        2
176
     1
 90
        0
176
     1
 90
        0
176
     1
 40
0.6
176
     1
 40
30.0
176
     1
 62
     7
420
 16777215
176
     1
 90
        1
176
     1
 90
        4
176
     1
 62
     7
176
     1
 62
   257
176
     1
 90
        1
176
     1
 90
        1
176
     1
 40
1.0
176
     1
 90
       12
176
     1
 62
     7
176
     1
 40
1.0
176
     1
 90
        1
176
     1
 90
        6
176
     1
 90
        2
176
     1
 62
     7
176
     1
 90
        5
176
     1
 90
        0
176
     1
 90
        0
176
     1
290
     0
176
     1
 90
        1
176
     1
 40
0.0
176
     1
 90
        0
176
     1
290
     0
176
     1
290
     1
176
     1
290
     1
176
     1
290
     0
176
     1
290
     0
176
     1
290
     0
176
     1
290
     0
176
     1
290
     0
176
     1
290
     0
176
     1
 90
       50
176
     1
 40
0.0
176
     1
 40
1.0
176
     1
 90
        0
176
     1
 62
    18
420
        0
176
     1
 90
       50
176
     1
 90
        3
176
     1
 62
     5
420
      255
176
     1
290
     0
176
     1
 90
       50
176
     1
 90
       50
176
     1
 90
       50
176
     1
290
     0
176
     1
 90
       50
176
     1
 62
   256
176
     0
 40
1.0
176
     0
 90
        2
176
     1
  1
strokes_ogs.tif
176
     1
290
     0
176
     1
 40
1.0
176
     1
 40
1.0
176
     1
  0
VISUALSTYLE
  5
30
102
{ACAD_REACTORS
330
29
102
}
330
29
100
AcDbVisualStyle
  2
Wireframe
 70
     5
177
     3
291
     0
 70
    58
 90
        0
176
     1
 90
        2
176
     1
 90
        0
176
     1
 90
        0
176
     1
 40
0.6
176
     1
 40
30.0
176
     1
 62
     7
420
 16777215
176
     1
 90
        1
176
     1
 90
        4
176
     1
 62
     7
176
     1
 62
   257
176
     1
 90
        1
176
     1
 90
        1
176
     1
 40
1.0
176
     1
 90
        0
176
     1
 62
   257
176
     1
 40
1.0
176
     1
 90
        1
176
     1
 90
        6
176
     1
 90
        2
176
     1
 62
     7
176
     1
 90
        3
176
     1
 90
        0
176
     1
 90
        0
176
     1
290
     0
176
     1
 90
        1
176
     1
 40
0.0
176
     1
 90
        0
176
     1
290
     0
176
     1
290
     1
176
     1
290
     1
176
     1
290
     0
176
     1
290
     0
176
     1
290
     0
176
     1
290
     0
176
     1
290
     0
176
     1
290
     0
176
     1
 90
       50
176
     1
 40
0.0
176
     1
 40
1.0
176
     1
 90
        0
176
     1
 62
    18
420
        0
176
     1
 90
       50
176
     1
 90
        3
176
     1
 62
     5
420
      255
176
     1
290
     0
176
     1
 90
       50
176
     1
 90
       50
176
     1
 90
       50
176
     1
290
     0
176
     1
 90
       50
176
     1
 62
   256
176
     0
 40
1.0
176
     0
 90
        2
176
     1
  1
strokes_ogs.tif
176
     1
290
     0
176
     1
 40
1.0
176
     1
 40
1.0
176
     1
  0
VISUALSTYLE
  5
3C
102
{ACAD_REACTORS
330
29
102
}
330
29
100
AcDbVisualStyle
  2
X-Ray
 70
    25
177
     3
291
     0
 70
    58
 90
        2
176
     1
 90
        2
176
     1
 90
        1
176
     1
 90
        1
176
     1
 40
0.5
176
     1
 40
30.0
176
     1
 62
     7
420
 16777215
176
     1
 90
        1
176
     1
 90
        0
176
     1
 62
     7
176
     1
 62
   257
176
     1
 90
        1
176
     1
 90
        1
176
     1
 40
1.0
176
     1
 90
        8
176
     1
 62
     7
176
     1
 40
1.0
176
     1
 90
        1
176
     1
 90
        6
176
     1
 90
        2
176
     1
 62
     7
176
     1
 90
        3
176
     1
 90
        0
176
     1
 90
        0
176
     1
290
     0
176
     1
 90
       13
176
     1
 40
0.0
176
     1
 90
        0
176
     1
290
     0
176
     1
290
     1
176
     1
290
     1
176
     1
290
     0
176
     1
290
     0
176
     1
290
     0
176
     1
290
     0
176
     1
290
     0
176
     1
290
     0
176
     1
 90
       50
176
     1
 40
0.0
176
     1
 40
1.0
176
     1
 90
        0
176
     1
 62
    18
420
        0
176
     1
 90
       50
176
     1
 90
        3
176
     1
 62
     5
420
      255
176
     1
290
     0
176
     1
 90
       50
176
     1
 90
       50
176
     1
 90
       50
176
     1
290
     0
176
     1
 90
       50
176
     1
 62
   256
176
     0
 40
1.0
176
     0
 90
        2
176
     1
  1
strokes_ogs.tif
176
     1
290
     0
176
     1
 40
1.0
176
     1
 40
1.0
176
     1
  0
DICTIONARYVAR
  5
A2
102
{ACAD_REACTORS
330
9D
102
}
330
9D
100
DictionaryVariables
280
     0
  1
1:1
  0
DICTIONARYVAR
  5
9F
102
{ACAD_REACTORS
330
9D
102
}
330
9D
100
DictionaryVariables
280
     0
  1
STANDARD
  0
DICTIONARYVAR
  5
9E
102
{ACAD_REACTORS
330
9D
102
}
330
9D
100
DictionaryVariables
280
     0
  1
STANDARD
  0
DICTIONARYVAR
  5
A0
102
{ACAD_REACTORS
330
9D
102
}
330
9D
100
DictionaryVariables
280
     0
  1
Imperial24
  0
DICTIONARYVAR
  5
A1
102
{ACAD_REACTORS
330
9D
102
}
330
9D
100
DictionaryVariables
280
     0
  1
Imperial24
  0
DICTIONARY
  5
1A
330
19
100
AcDbDictionary
280
     1
281
     1
  3
BUMPTILE
360
1C
  3
DIFFUSETILE
360
1B
  3
OPACITYTILE
360
1F
  3
REFLECTIONTILE
360
1E
  3
REFRACTIONTILE
360
20
  3
SPECULARTILE
360
1D
  0
DICTIONARY
  5
12
330
11
100
AcDbDictionary
280
     1
281
     1
  3
BUMPTILE
360
14
  3
DIFFUSETILE
360
13
  3
OPACITYTILE
360
17
  3
REFLECTIONTILE
360
16
  3
REFRACTIONTILE
360
18
  3
SPECULARTILE
360
15
  0
DICTIONARY
  5
22
330
21
100
AcDbDictionary
280
     1
281
     1
  3
BUMPTILE
360
24
  3
DIFFUSETILE
360
23
  3
OPACITYTILE
360
27
  3
REFLECTIONTILE
360
26
  3
REFRACTIONTILE
360
28
  3
SPECULARTILE
360
25
  0
DICTIONARY
  5
A3
330
65
100
AcDbDictionary
280
     1
281
     1
  3
ACAD_ROUNDTRIP_2008_TABLESTYLE_CELLSTYLEMAP
360
A4
  0
XRECORD
  5
1C
102
{ACAD_REACTORS
330
1A
102
}
330
1A
100
AcDbXrecord
280
     1
270
     1
271
     1
  0
XRECORD
  5
1B
102
{ACAD_REACTORS
330
1A
102
}
330
1A
100
AcDbXrecord
280
     1
270
     1
271
     1
  0
XRECORD
  5
1F
102
{ACAD_REACTORS
330
1A
102
}
330
1A
100
AcDbXrecord
280
     1
270
     1
271
     1
  0
XRECORD
  5
1E
102
{ACAD_REACTORS
330
1A
102
}
330
1A
100
AcDbXrecord
280
     1
270
     1
271
     1
  0
XRECORD
  5
20
102
{ACAD_REACTORS
330
1A
102
}
330
1A
100
AcDbXrecord
280
     1
270
     1
271
     1
  0
XRECORD
  5
1D
102
{ACAD_REACTORS
330
1A
102
}
330
1A
100
AcDbXrecord
280
     1
270
     1
271
     1
  0
XRECORD
  5
14
102
{ACAD_REACTORS
330
12
102
}
330
12
100
AcDbXrecord
280
     1
270
     1
271
     1
  0
XRECORD
  5
13
102
{ACAD_REACTORS
330
12
102
}
330
12
100
AcDbXrecord
280
     1
270
     1
271
     1
  0
XRECORD
  5
17
102
{ACAD_REACTORS
330
12
102
}
330
12
100
AcDbXrecord
280
     1
270
     1
271
     1
  0
XRECORD
  5
16
102
{ACAD_REACTORS
330
12
102
}
330
12
100
AcDbXrecord
280
     1
270
     1
271
     1
  0
XRECORD
  5
18
102
{ACAD_REACTORS
330
12
102
}
330
12
100
AcDbXrecord
280
     1
270
     1
271
     1
  0
XRECORD
  5
15
102
{ACAD_REACTORS
330
12
102
}
330
12
100
AcDbXrecord
280
     1
270
     1
271
     1
  0
XRECORD
  5
24
102
{ACAD_REACTORS
330
22
102
}
330
22
100
AcDbXrecord
280
     1
270
     1
271
     1
  0
XRECORD
  5
23
102
{ACAD_REACTORS
330
22
102
}
330
22
100
AcDbXrecord
280
     1
270
     1
271
     1
  0
XRECORD
  5
27
102
{ACAD_REACTORS
330
22
102
}
330
22
100
AcDbXrecord
280
     1
270
     1
271
     1
  0
XRECORD
  5
26
102
{ACAD_REACTORS
330
22
102
}
330
22
100
AcDbXrecord
280
     1
270
     1
271
     1
  0
XRECORD
  5
28
102
{ACAD_REACTORS
330
22
102
}
330
22
100
AcDbXrecord
280
     1
270
     1
271
     1
  0
XRECORD
  5
25
102
{ACAD_REACTORS
330
22
102
}
330
22
100
AcDbXrecord
280
     1
270
     1
271
     1
  0
CELLSTYLEMAP
  5
A4
102
{ACAD_REACTORS
330
A3
102
}
330
A3
100
AcDbCellStyleMap
 90
        3
300
CELLSTYLE
  1
TABLEFORMAT_BEGIN
 90
        5
170
     1
 91
        0
 92
    32768
 62
   257
 93
        1
300
CONTENTFORMAT
  1
CONTENTFORMAT_BEGIN
 90
        0
 91
        0
 92
      512
 93
        0
300

 40
0.0
140
1.0
 94
        5
 62
     0
340
55
144
0.25
309
CONTENTFORMAT_END
171
     0
 94
        0
309
TABLEFORMAT_END
  1
CELLSTYLE_BEGIN
 90
        1
 91
        1
300
_TITLE
309
CELLSTYLE_END
300
CELLSTYLE
  1
TABLEFORMAT_BEGIN
 90
        5
170
     1
 91
        0
 92
        0
 62
   257
 93
        1
300
CONTENTFORMAT
  1
CONTENTFORMAT_BEGIN
 90
        0
 91
        0
 92
      512
 93
        0
300

 40
0.0
140
1.0
 94
        5
 62
     0
340
55
144
0.18
309
CONTENTFORMAT_END
171
     0
 94
        0
309
TABLEFORMAT_END
  1
CELLSTYLE_BEGIN
 90
        2
 91
        1
300
_HEADER
309
CELLSTYLE_END
300
CELLSTYLE
  1
TABLEFORMAT_BEGIN
 90
        5
170
     1
 91
        0
 92
        0
 62
   257
 93
        1
300
CONTENTFORMAT
  1
CONTENTFORMAT_BEGIN
 90
        0
 91
        0
 92
      512
 93
        0
300

 40
0.0
140
1.0
 94
        2
 62
     0
340
55
144
0.18
309
CONTENTFORMAT_END
171
     0
 94
        0
309
TABLEFORMAT_END
  1
CELLSTYLE_BEGIN
 90
        3
 91
        2
300
_DATA
309
CELLSTYLE_END
  0
ENDSEC
  0
EOF
