%TF.GenerationSoftware,Altium Limited,Altium Designer,24.10.1 (45)*%
G04 Layer_Physical_Order=2*
G04 Layer_Color=36540*
%FSLAX45Y45*%
%MOMM*%
%TF.SameCoordinates,EEF0193C-C13F-4000-B0C4-A13F86DA6223*%
%TF.FilePolarity,Positive*%
%TF.FileFunction,Copper,L2,Inr,Signal*%
%TF.Part,Single*%
G01*
G75*
%TA.AperFunction,Conductor*%
%ADD37C,0.15240*%
%TA.AperFunction,ComponentPad*%
%ADD40C,1.62001*%
%ADD41C,1.52400*%
%ADD42C,0.64999*%
G04:AMPARAMS|DCode=43|XSize=2.2159mm|YSize=1.10795mm|CornerRadius=0mm|HoleSize=0mm|Usage=FLASHONLY|Rotation=135.000|XOffset=0mm|YOffset=0mm|HoleType=Round|Shape=Round|*
%AMOVALD43*
21,1,1.10795,1.10795,0.00000,0.00000,135.0*
1,1,1.10795,0.39172,-0.39172*
1,1,1.10795,-0.39172,0.39172*
%
%ADD43OVALD43*%

%TA.AperFunction,ViaPad*%
%ADD44C,3.55000*%
%ADD45C,0.66040*%
%ADD46C,0.63500*%
G36*
X4807934Y3404922D02*
Y1421814D01*
X3405665Y19545D01*
X1422557D01*
X20288Y1421814D01*
Y3404922D01*
X1422557Y4807191D01*
X1616207D01*
X1622108Y4800000D01*
Y4295000D01*
X1623660Y4287196D01*
X1628081Y4280581D01*
X1634696Y4276160D01*
X1642500Y4274608D01*
X3182500D01*
X3190303Y4276160D01*
X3196919Y4280581D01*
X3201340Y4287196D01*
X3202892Y4295000D01*
Y4800000D01*
X3208793Y4807191D01*
X3405665D01*
X4807934Y3404922D01*
D02*
G37*
%LPC*%
G36*
X1635546Y3980520D02*
X1614454D01*
X1594967Y3972448D01*
X1580052Y3957533D01*
X1571980Y3938046D01*
Y3916954D01*
X1580052Y3897467D01*
X1594967Y3882552D01*
X1614454Y3874480D01*
X1635546D01*
X1655033Y3882552D01*
X1669948Y3897467D01*
X1678020Y3916954D01*
Y3938046D01*
X1669948Y3957533D01*
X1655033Y3972448D01*
X1635546Y3980520D01*
D02*
G37*
G36*
X1835546Y3695520D02*
X1814454D01*
X1794967Y3687448D01*
X1780052Y3672533D01*
X1771980Y3653046D01*
Y3631954D01*
X1780052Y3612467D01*
X1794967Y3597552D01*
X1814454Y3589480D01*
X1835546D01*
X1855033Y3597552D01*
X1869948Y3612467D01*
X1878020Y3631954D01*
Y3653046D01*
X1869948Y3672533D01*
X1855033Y3687448D01*
X1835546Y3695520D01*
D02*
G37*
G36*
Y3573020D02*
X1814454D01*
X1794967Y3564948D01*
X1780052Y3550033D01*
X1771980Y3530546D01*
Y3509454D01*
X1780052Y3489967D01*
X1794967Y3475052D01*
X1814454Y3466980D01*
X1835546D01*
X1855033Y3475052D01*
X1869948Y3489967D01*
X1878020Y3509454D01*
Y3530546D01*
X1869948Y3550033D01*
X1855033Y3564948D01*
X1835546Y3573020D01*
D02*
G37*
G36*
X1300546Y3518020D02*
X1279454D01*
X1259967Y3509948D01*
X1245052Y3495033D01*
X1236980Y3475546D01*
Y3454454D01*
X1245052Y3434967D01*
X1259967Y3420052D01*
X1279454Y3411980D01*
X1300546D01*
X1320033Y3420052D01*
X1334948Y3434967D01*
X1343020Y3454454D01*
Y3475546D01*
X1334948Y3495033D01*
X1320033Y3509948D01*
X1300546Y3518020D01*
D02*
G37*
G36*
X3240546Y3513020D02*
X3219454D01*
X3199967Y3504948D01*
X3185052Y3490033D01*
X3176980Y3470546D01*
Y3449454D01*
X3185052Y3429967D01*
X3199967Y3415052D01*
X3219454Y3406980D01*
X3240546D01*
X3260033Y3415052D01*
X3274948Y3429967D01*
X3283020Y3449454D01*
Y3470546D01*
X3274948Y3490033D01*
X3260033Y3504948D01*
X3240546Y3513020D01*
D02*
G37*
G36*
X3745546Y3648020D02*
X3724454D01*
X3704967Y3639948D01*
X3690052Y3625033D01*
X3681980Y3605546D01*
Y3584454D01*
X3690052Y3564967D01*
X3704967Y3550052D01*
X3724454Y3541980D01*
X3742592D01*
X3749684Y3535673D01*
X3752638Y3531171D01*
Y3511954D01*
X3760710Y3492467D01*
X3775624Y3477552D01*
X3795111Y3469480D01*
X3813013D01*
X3818683Y3466188D01*
X3824095Y3459002D01*
Y3441954D01*
X3832167Y3422467D01*
X3847082Y3407552D01*
X3866569Y3399480D01*
X3887661D01*
X3907148Y3407552D01*
X3922063Y3422467D01*
X3930135Y3441954D01*
Y3463046D01*
X3922063Y3482533D01*
X3907148Y3497448D01*
X3887661Y3505520D01*
X3869759D01*
X3864090Y3508812D01*
X3858678Y3515998D01*
Y3533046D01*
X3850606Y3552533D01*
X3835691Y3567448D01*
X3816204Y3575520D01*
X3798066D01*
X3790973Y3581827D01*
X3788020Y3586329D01*
Y3605546D01*
X3779948Y3625033D01*
X3765033Y3639948D01*
X3745546Y3648020D01*
D02*
G37*
G36*
X1025546Y3592635D02*
X1004454D01*
X984967Y3584563D01*
X970052Y3569648D01*
X961980Y3550161D01*
Y3533066D01*
X955163Y3525401D01*
X950739Y3523020D01*
X931954D01*
X912467Y3514948D01*
X897552Y3500033D01*
X889480Y3480546D01*
Y3463785D01*
X884747Y3456706D01*
X878399Y3453020D01*
X861190D01*
X841703Y3444948D01*
X826789Y3430033D01*
X818717Y3410546D01*
Y3389454D01*
X826789Y3369967D01*
X841703Y3355052D01*
X861190Y3346980D01*
X882283D01*
X901770Y3355052D01*
X916685Y3369967D01*
X924757Y3389454D01*
Y3406215D01*
X929490Y3413294D01*
X935838Y3416980D01*
X953046D01*
X972533Y3425052D01*
X987448Y3439967D01*
X995520Y3459454D01*
Y3476549D01*
X1002337Y3484214D01*
X1006761Y3486595D01*
X1025546D01*
X1045033Y3494667D01*
X1059948Y3509582D01*
X1068020Y3529069D01*
Y3550161D01*
X1059948Y3569648D01*
X1045033Y3584563D01*
X1025546Y3592635D01*
D02*
G37*
G36*
X1595546Y3445520D02*
X1574454D01*
X1554967Y3437448D01*
X1540052Y3422533D01*
X1531980Y3403046D01*
Y3381954D01*
X1540052Y3362467D01*
X1554967Y3347552D01*
X1574454Y3339480D01*
X1595546D01*
X1615033Y3347552D01*
X1629948Y3362467D01*
X1638020Y3381954D01*
Y3403046D01*
X1629948Y3422533D01*
X1615033Y3437448D01*
X1595546Y3445520D01*
D02*
G37*
G36*
X1833046Y3440520D02*
X1811954D01*
X1792467Y3432448D01*
X1777552Y3417533D01*
X1769480Y3398046D01*
Y3376954D01*
X1777552Y3357467D01*
X1792467Y3342552D01*
X1811954Y3334480D01*
X1833046D01*
X1852533Y3342552D01*
X1867448Y3357467D01*
X1875520Y3376954D01*
Y3398046D01*
X1867448Y3417533D01*
X1852533Y3432448D01*
X1833046Y3440520D01*
D02*
G37*
G36*
X215400Y3398378D02*
Y3325400D01*
X288378D01*
X284676Y3339216D01*
X271300Y3362384D01*
X252384Y3381300D01*
X229216Y3394676D01*
X215400Y3398378D01*
D02*
G37*
G36*
X164600D02*
X150784Y3394676D01*
X127616Y3381300D01*
X108700Y3362384D01*
X95324Y3339216D01*
X91622Y3325400D01*
X164600D01*
Y3398378D01*
D02*
G37*
G36*
X4023046Y3365520D02*
X4001954D01*
X3982467Y3357448D01*
X3967552Y3342533D01*
X3959480Y3323046D01*
Y3301954D01*
X3967552Y3282467D01*
X3982467Y3267552D01*
X4001954Y3259480D01*
X4023046D01*
X4042533Y3267552D01*
X4057448Y3282467D01*
X4065520Y3301954D01*
Y3323046D01*
X4057448Y3342533D01*
X4042533Y3357448D01*
X4023046Y3365520D01*
D02*
G37*
G36*
X1595546Y3320520D02*
X1574454D01*
X1554967Y3312448D01*
X1540052Y3297533D01*
X1531980Y3278046D01*
Y3256954D01*
X1540052Y3237467D01*
X1554967Y3222552D01*
X1574454Y3214480D01*
X1595546D01*
X1615033Y3222552D01*
X1629948Y3237467D01*
X1638020Y3256954D01*
Y3278046D01*
X1629948Y3297533D01*
X1615033Y3312448D01*
X1595546Y3320520D01*
D02*
G37*
G36*
X4652665Y3396700D02*
X4627335D01*
X4602868Y3390144D01*
X4580932Y3377479D01*
X4563021Y3359568D01*
X4550356Y3337632D01*
X4543800Y3313165D01*
Y3287835D01*
X4550356Y3263368D01*
X4563021Y3241432D01*
X4580932Y3223521D01*
X4602868Y3210856D01*
X4627335Y3204300D01*
X4652665D01*
X4677132Y3210856D01*
X4699068Y3223521D01*
X4716979Y3241432D01*
X4729644Y3263368D01*
X4736200Y3287835D01*
Y3313165D01*
X4729644Y3337632D01*
X4716979Y3359568D01*
X4699068Y3377479D01*
X4677132Y3390144D01*
X4652665Y3396700D01*
D02*
G37*
G36*
X288378Y3274600D02*
X215400D01*
Y3201622D01*
X229216Y3205324D01*
X252384Y3218700D01*
X271300Y3237616D01*
X284676Y3260784D01*
X288378Y3274600D01*
D02*
G37*
G36*
X164600D02*
X91622D01*
X95324Y3260784D01*
X108700Y3237616D01*
X127616Y3218700D01*
X150784Y3205324D01*
X164600Y3201622D01*
Y3274600D01*
D02*
G37*
G36*
X4652665Y3142700D02*
X4627335D01*
X4602868Y3136144D01*
X4580932Y3123479D01*
X4563021Y3105568D01*
X4550356Y3083632D01*
X4543800Y3059165D01*
Y3033835D01*
X4550356Y3009368D01*
X4563021Y2987432D01*
X4580932Y2969521D01*
X4602868Y2956856D01*
X4627335Y2950300D01*
X4652665D01*
X4677132Y2956856D01*
X4699068Y2969521D01*
X4716979Y2987432D01*
X4729644Y3009368D01*
X4736200Y3033835D01*
Y3059165D01*
X4729644Y3083632D01*
X4716979Y3105568D01*
X4699068Y3123479D01*
X4677132Y3136144D01*
X4652665Y3142700D01*
D02*
G37*
G36*
X202665Y3142200D02*
X177335D01*
X152868Y3135644D01*
X130932Y3122979D01*
X113021Y3105068D01*
X100356Y3083132D01*
X93800Y3058665D01*
Y3033335D01*
X100356Y3008868D01*
X113021Y2986932D01*
X130932Y2969021D01*
X152868Y2956356D01*
X177335Y2949800D01*
X202665D01*
X227132Y2956356D01*
X249068Y2969021D01*
X266979Y2986932D01*
X279644Y3008868D01*
X286200Y3033335D01*
Y3058665D01*
X279644Y3083132D01*
X266979Y3105068D01*
X249068Y3122979D01*
X227132Y3135644D01*
X202665Y3142200D01*
D02*
G37*
G36*
X1415546Y2993020D02*
X1394454D01*
X1374967Y2984948D01*
X1360052Y2970033D01*
X1351980Y2950546D01*
Y2929454D01*
X1360052Y2909967D01*
X1374967Y2895052D01*
X1394454Y2886980D01*
X1415546D01*
X1435033Y2895052D01*
X1449948Y2909967D01*
X1458020Y2929454D01*
Y2950546D01*
X1449948Y2970033D01*
X1435033Y2984948D01*
X1415546Y2993020D01*
D02*
G37*
G36*
X1833046Y3320520D02*
X1811954D01*
X1792467Y3312448D01*
X1777552Y3297533D01*
X1769480Y3278046D01*
Y3256954D01*
X1777552Y3237467D01*
X1785472Y3229547D01*
X1791518Y3221250D01*
X1785472Y3212953D01*
X1777552Y3205033D01*
X1769480Y3185546D01*
Y3164454D01*
X1777552Y3144967D01*
X1784222Y3138297D01*
X1792415Y3130000D01*
X1784222Y3121703D01*
X1777552Y3115033D01*
X1769480Y3095546D01*
Y3074454D01*
X1777552Y3054967D01*
X1784222Y3048297D01*
X1792415Y3040000D01*
X1784222Y3031703D01*
X1777552Y3025033D01*
X1769480Y3005546D01*
Y2984454D01*
X1777552Y2964967D01*
X1792467Y2950052D01*
X1811954Y2941980D01*
X1833046D01*
X1838257Y2944138D01*
X1842377Y2941902D01*
X1849480Y2935041D01*
Y2916954D01*
X1857552Y2897467D01*
X1872467Y2882552D01*
X1891954Y2874480D01*
X1913046D01*
X1932533Y2882552D01*
X1945000Y2895019D01*
X1957467Y2882552D01*
X1976954Y2874480D01*
X1998046D01*
X2017533Y2882552D01*
X2032448Y2897467D01*
X2040520Y2916954D01*
Y2938046D01*
X2032448Y2957533D01*
X2017533Y2972448D01*
X1998046Y2980520D01*
X1976954D01*
X1957467Y2972448D01*
X1945000Y2959981D01*
X1932533Y2972448D01*
X1913046Y2980520D01*
X1891954D01*
X1886743Y2978362D01*
X1882623Y2980598D01*
X1875520Y2987460D01*
Y3005546D01*
X1867448Y3025033D01*
X1860778Y3031703D01*
X1852585Y3040000D01*
X1860778Y3048297D01*
X1867448Y3054967D01*
X1875520Y3074454D01*
Y3095546D01*
X1867448Y3115033D01*
X1860778Y3121703D01*
X1852585Y3130000D01*
X1860778Y3138297D01*
X1867448Y3144967D01*
X1875520Y3164454D01*
Y3185546D01*
X1867448Y3205033D01*
X1859528Y3212953D01*
X1853482Y3221250D01*
X1859528Y3229547D01*
X1867448Y3237467D01*
X1875520Y3256954D01*
Y3278046D01*
X1867448Y3297533D01*
X1852533Y3312448D01*
X1833046Y3320520D01*
D02*
G37*
G36*
X3633046Y2810520D02*
X3611953D01*
X3592467Y2802448D01*
X3578750Y2788731D01*
X3565033Y2802448D01*
X3545546Y2810520D01*
X3524453D01*
X3504967Y2802448D01*
X3491250Y2788731D01*
X3477533Y2802448D01*
X3458046Y2810520D01*
X3436954D01*
X3417467Y2802448D01*
X3403750Y2788731D01*
X3390033Y2802448D01*
X3370546Y2810520D01*
X3349454D01*
X3329967Y2802448D01*
X3316250Y2788731D01*
X3302533Y2802448D01*
X3283046Y2810520D01*
X3261954D01*
X3242467Y2802448D01*
X3227552Y2787533D01*
X3219480Y2768046D01*
Y2746954D01*
X3227552Y2727467D01*
X3242467Y2712552D01*
X3261954Y2704480D01*
X3283046D01*
X3302533Y2712552D01*
X3316250Y2726269D01*
X3329967Y2712552D01*
X3349454Y2704480D01*
X3370546D01*
X3390033Y2712552D01*
X3403750Y2726269D01*
X3417467Y2712552D01*
X3436954Y2704480D01*
X3458046D01*
X3477533Y2712552D01*
X3491250Y2726269D01*
X3504967Y2712552D01*
X3524453Y2704480D01*
X3545546D01*
X3565033Y2712552D01*
X3578750Y2726269D01*
X3592467Y2712552D01*
X3611953Y2704480D01*
X3633046D01*
X3652533Y2712552D01*
X3667448Y2727467D01*
X3675520Y2746954D01*
Y2768046D01*
X3667448Y2787533D01*
X3652533Y2802448D01*
X3633046Y2810520D01*
D02*
G37*
G36*
X2425546Y2765520D02*
X2404454D01*
X2384967Y2757448D01*
X2372500Y2744981D01*
X2360033Y2757448D01*
X2340546Y2765520D01*
X2319454D01*
X2299967Y2757448D01*
X2286250Y2743731D01*
X2272533Y2757448D01*
X2253046Y2765520D01*
X2231954D01*
X2212467Y2757448D01*
X2200000Y2744981D01*
X2187533Y2757448D01*
X2168046Y2765520D01*
X2146954D01*
X2127467Y2757448D01*
X2115000Y2744982D01*
X2102533Y2757448D01*
X2083046Y2765520D01*
X2061954D01*
X2042467Y2757448D01*
X2030000Y2744981D01*
X2017533Y2757448D01*
X1998046Y2765520D01*
X1976954D01*
X1957467Y2757448D01*
X1942552Y2742533D01*
X1934480Y2723046D01*
Y2701954D01*
X1942552Y2682467D01*
X1957467Y2667552D01*
X1976954Y2659480D01*
X1998046D01*
X2017533Y2667552D01*
X2030000Y2680019D01*
X2042467Y2667552D01*
X2061954Y2659480D01*
X2083046D01*
X2102533Y2667552D01*
X2115000Y2680019D01*
X2127467Y2667552D01*
X2146954Y2659480D01*
X2168046D01*
X2187533Y2667552D01*
X2200000Y2680019D01*
X2212467Y2667552D01*
X2231954Y2659480D01*
X2253046D01*
X2272533Y2667552D01*
X2286250Y2681269D01*
X2299967Y2667552D01*
X2319453Y2659480D01*
X2320476Y2657950D01*
X2319480Y2655546D01*
Y2634454D01*
X2327552Y2614967D01*
X2342467Y2600052D01*
X2361954Y2591980D01*
X2383046D01*
X2402533Y2600052D01*
X2417448Y2614967D01*
X2425520Y2634454D01*
Y2646694D01*
X2438220Y2651955D01*
X2449339Y2640836D01*
Y2364165D01*
X2257587Y2172413D01*
X2251483Y2163277D01*
X2249339Y2152500D01*
Y1978224D01*
X2247467Y1977448D01*
X2232552Y1962534D01*
X2224480Y1943047D01*
Y1921954D01*
X2232552Y1902467D01*
X2247467Y1887552D01*
X2266954Y1879480D01*
X2288046D01*
X2307533Y1887552D01*
X2322448Y1902467D01*
X2330520Y1921954D01*
Y1943047D01*
X2322448Y1962534D01*
X2307533Y1977448D01*
X2305661Y1978224D01*
Y2140835D01*
X2497413Y2332587D01*
X2503517Y2341723D01*
X2505661Y2352500D01*
Y2652500D01*
X2503517Y2663277D01*
X2497413Y2672413D01*
X2467977Y2701849D01*
X2468020Y2701954D01*
Y2723046D01*
X2459948Y2742533D01*
X2445033Y2757448D01*
X2425546Y2765520D01*
D02*
G37*
G36*
X3810546Y2810520D02*
X3789454D01*
X3769967Y2802448D01*
X3755052Y2787533D01*
X3746980Y2768046D01*
Y2746954D01*
X3755052Y2727467D01*
X3769967Y2712552D01*
X3789454Y2704480D01*
X3810546D01*
X3830033Y2712552D01*
X3844948Y2727467D01*
X3853020Y2746954D01*
Y2768046D01*
X3844948Y2787533D01*
X3830033Y2802448D01*
X3810546Y2810520D01*
D02*
G37*
G36*
X4652665Y2888700D02*
X4627335D01*
X4602868Y2882144D01*
X4580932Y2869479D01*
X4563021Y2851568D01*
X4550356Y2829632D01*
X4543800Y2805165D01*
Y2779835D01*
X4550356Y2755368D01*
X4563021Y2733432D01*
X4580932Y2715521D01*
X4602868Y2702856D01*
X4627335Y2696300D01*
X4652665D01*
X4677132Y2702856D01*
X4699068Y2715521D01*
X4716979Y2733432D01*
X4729644Y2755368D01*
X4736200Y2779835D01*
Y2805165D01*
X4729644Y2829632D01*
X4716979Y2851568D01*
X4699068Y2869479D01*
X4677132Y2882144D01*
X4652665Y2888700D01*
D02*
G37*
G36*
X202665Y2888200D02*
X177335D01*
X152868Y2881644D01*
X130932Y2868979D01*
X113021Y2851068D01*
X100356Y2829132D01*
X93800Y2804665D01*
Y2779335D01*
X100356Y2754868D01*
X113021Y2732932D01*
X130932Y2715021D01*
X152868Y2702356D01*
X177335Y2695800D01*
X202665D01*
X227132Y2702356D01*
X249068Y2715021D01*
X266979Y2732932D01*
X279644Y2754868D01*
X286200Y2779335D01*
Y2804665D01*
X279644Y2829132D01*
X266979Y2851068D01*
X249068Y2868979D01*
X227132Y2881644D01*
X202665Y2888200D01*
D02*
G37*
G36*
X4652665Y2634700D02*
X4627335D01*
X4602868Y2628144D01*
X4580932Y2615479D01*
X4563021Y2597568D01*
X4550356Y2575632D01*
X4543800Y2551165D01*
Y2525835D01*
X4550356Y2501368D01*
X4563021Y2479432D01*
X4580932Y2461521D01*
X4602868Y2448856D01*
X4627335Y2442300D01*
X4652665D01*
X4677132Y2448856D01*
X4699068Y2461521D01*
X4716979Y2479432D01*
X4729644Y2501368D01*
X4736200Y2525835D01*
Y2551165D01*
X4729644Y2575632D01*
X4716979Y2597568D01*
X4699068Y2615479D01*
X4677132Y2628144D01*
X4652665Y2634700D01*
D02*
G37*
G36*
X202665Y2634200D02*
X177335D01*
X152868Y2627644D01*
X130932Y2614979D01*
X113021Y2597068D01*
X100356Y2575132D01*
X93800Y2550665D01*
Y2525335D01*
X100356Y2500868D01*
X113021Y2478932D01*
X130932Y2461021D01*
X152868Y2448356D01*
X177335Y2441800D01*
X202665D01*
X227132Y2448356D01*
X249068Y2461021D01*
X266979Y2478932D01*
X279644Y2500868D01*
X286200Y2525335D01*
Y2550665D01*
X279644Y2575132D01*
X266979Y2597068D01*
X249068Y2614979D01*
X227132Y2627644D01*
X202665Y2634200D01*
D02*
G37*
G36*
X1740546Y2418020D02*
X1719454D01*
X1699967Y2409948D01*
X1688297Y2398278D01*
X1685018Y2395040D01*
X1672372Y2397609D01*
X1665033Y2404948D01*
X1645546Y2413020D01*
X1624453D01*
X1604967Y2404948D01*
X1590052Y2390033D01*
X1581980Y2370546D01*
Y2349454D01*
X1590052Y2329967D01*
X1604967Y2315052D01*
X1624453Y2306980D01*
X1645546D01*
X1665033Y2315052D01*
X1676703Y2326722D01*
X1679982Y2329960D01*
X1692628Y2327391D01*
X1699967Y2320052D01*
X1719454Y2311980D01*
X1740546D01*
X1760033Y2320052D01*
X1774948Y2334967D01*
X1783020Y2354454D01*
Y2375546D01*
X1774948Y2395033D01*
X1760033Y2409948D01*
X1740546Y2418020D01*
D02*
G37*
G36*
X2613046Y2433020D02*
X2591954D01*
X2572467Y2424948D01*
X2557552Y2410033D01*
X2549480Y2390546D01*
Y2369454D01*
X2557552Y2349967D01*
X2572467Y2335052D01*
X2591954Y2326980D01*
X2613046D01*
X2632533Y2335052D01*
X2647448Y2349967D01*
X2655520Y2369454D01*
Y2390546D01*
X2647448Y2410033D01*
X2632533Y2424948D01*
X2613046Y2433020D01*
D02*
G37*
G36*
X1935546Y2410520D02*
X1914454D01*
X1894967Y2402448D01*
X1880052Y2387533D01*
X1871980Y2368046D01*
Y2346954D01*
X1880052Y2327467D01*
X1894967Y2312552D01*
X1914454Y2304480D01*
X1935546D01*
X1955033Y2312552D01*
X1969948Y2327467D01*
X1978020Y2346954D01*
Y2368046D01*
X1969948Y2387533D01*
X1955033Y2402448D01*
X1935546Y2410520D01*
D02*
G37*
G36*
X2065546Y2375520D02*
X2044454D01*
X2024967Y2367448D01*
X2010052Y2352533D01*
X2001980Y2333046D01*
Y2311954D01*
X2010052Y2292467D01*
X2024967Y2277552D01*
X2044454Y2269480D01*
X2065546D01*
X2085033Y2277552D01*
X2099948Y2292467D01*
X2108020Y2311954D01*
Y2333046D01*
X2099948Y2352533D01*
X2085033Y2367448D01*
X2065546Y2375520D01*
D02*
G37*
G36*
X1480546Y2418020D02*
X1459454D01*
X1439967Y2409948D01*
X1425052Y2395033D01*
X1416980Y2375546D01*
Y2354454D01*
X1425052Y2334967D01*
X1439967Y2320052D01*
X1459454Y2311980D01*
X1471538D01*
X1476799Y2299280D01*
X1470052Y2292533D01*
X1461980Y2273046D01*
Y2251954D01*
X1470052Y2232467D01*
X1484967Y2217552D01*
X1504454Y2209480D01*
X1525546D01*
X1545033Y2217552D01*
X1559948Y2232467D01*
X1568020Y2251954D01*
Y2273046D01*
X1559948Y2292533D01*
X1545033Y2307448D01*
X1525546Y2315520D01*
X1513462D01*
X1508201Y2328220D01*
X1514948Y2334967D01*
X1523020Y2354454D01*
Y2375546D01*
X1514948Y2395033D01*
X1500033Y2409948D01*
X1480546Y2418020D01*
D02*
G37*
G36*
X4652665Y2380700D02*
X4627335D01*
X4602868Y2374144D01*
X4580932Y2361479D01*
X4563021Y2343568D01*
X4550356Y2321632D01*
X4543800Y2297165D01*
Y2271835D01*
X4550356Y2247368D01*
X4563021Y2225432D01*
X4580932Y2207521D01*
X4602868Y2194856D01*
X4627335Y2188300D01*
X4652665D01*
X4677132Y2194856D01*
X4699068Y2207521D01*
X4716979Y2225432D01*
X4729644Y2247368D01*
X4736200Y2271835D01*
Y2297165D01*
X4729644Y2321632D01*
X4716979Y2343568D01*
X4699068Y2361479D01*
X4677132Y2374144D01*
X4652665Y2380700D01*
D02*
G37*
G36*
X202665Y2380200D02*
X177335D01*
X152868Y2373644D01*
X130932Y2360979D01*
X113021Y2343068D01*
X100356Y2321132D01*
X93800Y2296665D01*
Y2271335D01*
X100356Y2246868D01*
X113021Y2224932D01*
X130932Y2207021D01*
X152868Y2194356D01*
X177335Y2187800D01*
X202665D01*
X227132Y2194356D01*
X249068Y2207021D01*
X266979Y2224932D01*
X279644Y2246868D01*
X286200Y2271335D01*
Y2296665D01*
X279644Y2321132D01*
X266979Y2343068D01*
X249068Y2360979D01*
X227132Y2373644D01*
X202665Y2380200D01*
D02*
G37*
G36*
X2438046Y2208020D02*
X2416954D01*
X2397467Y2199948D01*
X2382552Y2185033D01*
X2374480Y2165546D01*
Y2144454D01*
X2382552Y2124967D01*
X2397467Y2110052D01*
X2416954Y2101980D01*
X2438046D01*
X2457533Y2110052D01*
X2472448Y2124967D01*
X2480520Y2144454D01*
Y2165546D01*
X2472448Y2185033D01*
X2457533Y2199948D01*
X2438046Y2208020D01*
D02*
G37*
G36*
X4652665Y2126700D02*
X4627335D01*
X4602868Y2120144D01*
X4580932Y2107479D01*
X4563021Y2089568D01*
X4550356Y2067632D01*
X4543800Y2043165D01*
Y2017835D01*
X4550356Y1993368D01*
X4563021Y1971432D01*
X4580932Y1953521D01*
X4602868Y1940856D01*
X4627335Y1934300D01*
X4652665D01*
X4677132Y1940856D01*
X4699068Y1953521D01*
X4716979Y1971432D01*
X4729644Y1993368D01*
X4736200Y2017835D01*
Y2043165D01*
X4729644Y2067632D01*
X4716979Y2089568D01*
X4699068Y2107479D01*
X4677132Y2120144D01*
X4652665Y2126700D01*
D02*
G37*
G36*
X202665Y2126200D02*
X177335D01*
X152868Y2119644D01*
X130932Y2106979D01*
X113021Y2089068D01*
X100356Y2067132D01*
X93800Y2042665D01*
Y2017335D01*
X100356Y1992868D01*
X113021Y1970932D01*
X130932Y1953021D01*
X152868Y1940356D01*
X177335Y1933800D01*
X202665D01*
X227132Y1940356D01*
X249068Y1953021D01*
X266979Y1970932D01*
X279644Y1992868D01*
X286200Y2017335D01*
Y2042665D01*
X279644Y2067132D01*
X266979Y2089068D01*
X249068Y2106979D01*
X227132Y2119644D01*
X202665Y2126200D01*
D02*
G37*
G36*
X3769452Y2297500D02*
X3730548D01*
X3692391Y2289910D01*
X3656449Y2275022D01*
X3624101Y2253408D01*
X3596592Y2225899D01*
X3574978Y2193551D01*
X3560090Y2157609D01*
X3552500Y2119452D01*
Y2080548D01*
X3560090Y2042391D01*
X3574978Y2006449D01*
X3596592Y1974101D01*
X3624101Y1946592D01*
X3656449Y1924978D01*
X3692391Y1910090D01*
X3730548Y1902500D01*
X3769452D01*
X3807609Y1910090D01*
X3843551Y1924978D01*
X3875899Y1946592D01*
X3903408Y1974101D01*
X3925022Y2006449D01*
X3939910Y2042391D01*
X3947500Y2080548D01*
Y2119452D01*
X3939910Y2157609D01*
X3925022Y2193551D01*
X3903408Y2225899D01*
X3875899Y2253408D01*
X3843551Y2275022D01*
X3807609Y2289910D01*
X3769452Y2297500D01*
D02*
G37*
G36*
X1069452D02*
X1030548D01*
X992391Y2289910D01*
X956449Y2275022D01*
X924101Y2253408D01*
X896592Y2225899D01*
X874978Y2193551D01*
X860090Y2157609D01*
X852500Y2119452D01*
Y2080548D01*
X860090Y2042391D01*
X874978Y2006449D01*
X896592Y1974101D01*
X924101Y1946592D01*
X956449Y1924978D01*
X992391Y1910090D01*
X1030548Y1902500D01*
X1069452D01*
X1107609Y1910090D01*
X1143551Y1924978D01*
X1175899Y1946592D01*
X1203408Y1974101D01*
X1225022Y2006449D01*
X1239910Y2042391D01*
X1247500Y2080548D01*
Y2119452D01*
X1239910Y2157609D01*
X1225022Y2193551D01*
X1203408Y2225899D01*
X1175899Y2253408D01*
X1143551Y2275022D01*
X1107609Y2289910D01*
X1069452Y2297500D01*
D02*
G37*
G36*
X4652665Y1872700D02*
X4627335D01*
X4602868Y1866144D01*
X4580932Y1853479D01*
X4563021Y1835568D01*
X4550356Y1813632D01*
X4543800Y1789165D01*
Y1763835D01*
X4550356Y1739368D01*
X4563021Y1717432D01*
X4580932Y1699521D01*
X4602868Y1686856D01*
X4627335Y1680300D01*
X4652665D01*
X4677132Y1686856D01*
X4699068Y1699521D01*
X4716979Y1717432D01*
X4729644Y1739368D01*
X4736200Y1763835D01*
Y1789165D01*
X4729644Y1813632D01*
X4716979Y1835568D01*
X4699068Y1853479D01*
X4677132Y1866144D01*
X4652665Y1872700D01*
D02*
G37*
G36*
X202665Y1872200D02*
X177335D01*
X152868Y1865644D01*
X130932Y1852979D01*
X113021Y1835068D01*
X100356Y1813132D01*
X93800Y1788665D01*
Y1763335D01*
X100356Y1738868D01*
X113021Y1716932D01*
X130932Y1699021D01*
X152868Y1686356D01*
X177335Y1679800D01*
X202665D01*
X227132Y1686356D01*
X249068Y1699021D01*
X266979Y1716932D01*
X279644Y1738868D01*
X286200Y1763335D01*
Y1788665D01*
X279644Y1813132D01*
X266979Y1835068D01*
X249068Y1852979D01*
X227132Y1865644D01*
X202665Y1872200D01*
D02*
G37*
G36*
X3969636Y1695650D02*
X3948544Y1692873D01*
X3933197Y1686516D01*
X4008808Y1610904D01*
X4048473Y1650569D01*
X4027262Y1671781D01*
X4010384Y1684731D01*
X3990729Y1692873D01*
X3969636Y1695650D01*
D02*
G37*
G36*
X4665400Y1620878D02*
Y1547900D01*
X4738378D01*
X4734676Y1561716D01*
X4721300Y1584884D01*
X4702384Y1603800D01*
X4679216Y1617176D01*
X4665400Y1620878D01*
D02*
G37*
G36*
X4614600Y1620878D02*
X4600784Y1617176D01*
X4577616Y1603800D01*
X4558700Y1584884D01*
X4545324Y1561716D01*
X4541622Y1547900D01*
X4614600D01*
Y1620878D01*
D02*
G37*
G36*
X3897276Y1650595D02*
X3890919Y1635247D01*
X3888142Y1614155D01*
X3890919Y1593063D01*
X3899060Y1573408D01*
X3912011Y1556530D01*
X3933222Y1535318D01*
X3972887Y1574983D01*
X3897276Y1650595D01*
D02*
G37*
G36*
X4084394Y1614648D02*
X4044729Y1574983D01*
X4120341Y1499372D01*
X4126698Y1514719D01*
X4129475Y1535811D01*
X4126698Y1556904D01*
X4118557Y1576558D01*
X4105606Y1593437D01*
X4084394Y1614648D01*
D02*
G37*
G36*
X3080546Y1593020D02*
X3059454D01*
X3039967Y1584948D01*
X3025052Y1570033D01*
X3016980Y1550546D01*
Y1529454D01*
X3025052Y1509967D01*
X3039967Y1495052D01*
X3059454Y1486980D01*
X3080546D01*
X3100033Y1495052D01*
X3114948Y1509967D01*
X3123020Y1529454D01*
Y1550546D01*
X3114948Y1570033D01*
X3100033Y1584948D01*
X3080546Y1593020D01*
D02*
G37*
G36*
X4008808Y1539062D02*
X3969143Y1499397D01*
X3973333Y1495208D01*
X3966139Y1484441D01*
X3952132Y1490243D01*
X3931246D01*
X3911951Y1482251D01*
X3897182Y1467482D01*
X3889190Y1448187D01*
Y1427301D01*
X3897182Y1408005D01*
X3911951Y1393237D01*
X3931246Y1385245D01*
X3952132D01*
X3971428Y1393237D01*
X3986196Y1408005D01*
X3994188Y1427301D01*
Y1448187D01*
X3987479Y1464384D01*
X3997794Y1472478D01*
X4007233Y1465235D01*
X4026888Y1457094D01*
X4047980Y1454317D01*
X4069072Y1457093D01*
X4084420Y1463450D01*
X4008808Y1539062D01*
D02*
G37*
G36*
X202665Y1618200D02*
X177335D01*
X152868Y1611644D01*
X130932Y1598979D01*
X113021Y1581068D01*
X100356Y1559132D01*
X93800Y1534665D01*
Y1509335D01*
X100356Y1484869D01*
X113021Y1462932D01*
X130932Y1445021D01*
X152868Y1432356D01*
X177335Y1425800D01*
X202665D01*
X227132Y1432356D01*
X249068Y1445021D01*
X266979Y1462932D01*
X279644Y1484869D01*
X286200Y1509335D01*
Y1534665D01*
X279644Y1559132D01*
X266979Y1581068D01*
X249068Y1598979D01*
X227132Y1611644D01*
X202665Y1618200D01*
D02*
G37*
G36*
X4614600Y1497100D02*
X4541622D01*
X4545324Y1483284D01*
X4558700Y1460116D01*
X4577616Y1441200D01*
X4600784Y1427824D01*
X4614600Y1424122D01*
Y1497100D01*
D02*
G37*
G36*
X4738378D02*
X4665400D01*
Y1424122D01*
X4679216Y1427824D01*
X4702384Y1441200D01*
X4721300Y1460116D01*
X4734676Y1483284D01*
X4738378Y1497100D01*
D02*
G37*
G36*
X2350546Y1463020D02*
X2329454D01*
X2309967Y1454948D01*
X2295052Y1440033D01*
X2286980Y1420547D01*
Y1399454D01*
X2295052Y1379967D01*
X2309967Y1365052D01*
X2329454Y1356980D01*
X2350546D01*
X2370033Y1365052D01*
X2384948Y1379967D01*
X2393020Y1399454D01*
Y1420547D01*
X2384948Y1440033D01*
X2370033Y1454948D01*
X2350546Y1463020D01*
D02*
G37*
G36*
X4265212Y1400073D02*
X4244120Y1397297D01*
X4228773Y1390940D01*
X4304385Y1315328D01*
X4344050Y1354992D01*
X4322838Y1376204D01*
X4305960Y1389155D01*
X4286305Y1397297D01*
X4265212Y1400073D01*
D02*
G37*
G36*
X4192852Y1355019D02*
X4186495Y1339671D01*
X4183718Y1318579D01*
X4186495Y1297486D01*
X4194636Y1277832D01*
X4207587Y1260953D01*
X4228799Y1239741D01*
X4268464Y1279407D01*
X4192852Y1355019D01*
D02*
G37*
G36*
X4379971Y1319072D02*
X4340306Y1279407D01*
X4415917Y1203795D01*
X4422274Y1219143D01*
X4425051Y1240235D01*
X4422274Y1261327D01*
X4414133Y1280982D01*
X4401182Y1297860D01*
X4379971Y1319072D01*
D02*
G37*
G36*
X4304385Y1243486D02*
X4264720Y1203821D01*
X4285931Y1182610D01*
X4302809Y1169659D01*
X4322464Y1161517D01*
X4343556Y1158740D01*
X4364648Y1161517D01*
X4379996Y1167874D01*
X4304385Y1243486D01*
D02*
G37*
G36*
X3850546Y1205520D02*
X3829454D01*
X3809967Y1197448D01*
X3795052Y1182533D01*
X3786980Y1163046D01*
Y1141954D01*
X3795052Y1122467D01*
X3809967Y1107552D01*
X3829454Y1099480D01*
X3850546D01*
X3870033Y1107552D01*
X3884948Y1122467D01*
X3893020Y1141954D01*
Y1163046D01*
X3884948Y1182533D01*
X3870033Y1197448D01*
X3850546Y1205520D01*
D02*
G37*
G36*
X3358692Y1084705D02*
X3337599Y1081928D01*
X3322252Y1075571D01*
X3397863Y999959D01*
X3437528Y1039624D01*
X3416317Y1060836D01*
X3399439Y1073787D01*
X3379784Y1081928D01*
X3358692Y1084705D01*
D02*
G37*
G36*
X3543778Y1081889D02*
X3522892D01*
X3503596Y1073896D01*
X3488828Y1059128D01*
X3480836Y1039832D01*
Y1018947D01*
X3484138Y1010975D01*
X3473842Y1004096D01*
X3433784Y964038D01*
X3509396Y888427D01*
X3515753Y903774D01*
X3518530Y924866D01*
X3515753Y945959D01*
X3507612Y965614D01*
X3503270Y971272D01*
X3511274Y981703D01*
X3522892Y976891D01*
X3543778D01*
X3563074Y984883D01*
X3577842Y999651D01*
X3585834Y1018947D01*
Y1039832D01*
X3577842Y1059128D01*
X3563074Y1073896D01*
X3543778Y1081889D01*
D02*
G37*
G36*
X3286331Y1039650D02*
X3279974Y1024302D01*
X3277197Y1003210D01*
X3279974Y982118D01*
X3288115Y962463D01*
X3301066Y945585D01*
X3322277Y924373D01*
X3361942Y964038D01*
X3286331Y1039650D01*
D02*
G37*
G36*
X1958046Y1008020D02*
X1936954D01*
X1917467Y999948D01*
X1902552Y985033D01*
X1894480Y965546D01*
Y944454D01*
X1902552Y924967D01*
X1917467Y910052D01*
X1936954Y901980D01*
X1958046D01*
X1977533Y910052D01*
X1992448Y924967D01*
X2000520Y944454D01*
Y965546D01*
X1992448Y985033D01*
X1977533Y999948D01*
X1958046Y1008020D01*
D02*
G37*
G36*
X3397863Y928117D02*
X3358199Y888452D01*
X3379410Y867241D01*
X3396288Y854290D01*
X3415943Y846148D01*
X3437035Y843372D01*
X3458128Y846149D01*
X3473475Y852506D01*
X3397863Y928117D01*
D02*
G37*
G36*
X3654268Y789129D02*
X3633176Y786352D01*
X3617828Y779995D01*
X3693440Y704383D01*
X3733105Y744048D01*
X3711893Y765260D01*
X3695015Y778211D01*
X3675360Y786352D01*
X3654268Y789129D01*
D02*
G37*
G36*
X3581907Y744074D02*
X3575550Y728726D01*
X3572773Y707634D01*
X3575550Y686542D01*
X3583691Y666887D01*
X3596642Y650009D01*
X3617854Y628797D01*
X3657519Y668462D01*
X3581907Y744074D01*
D02*
G37*
G36*
X3769026Y708127D02*
X3729361Y668462D01*
X3804972Y592851D01*
X3811329Y608198D01*
X3814106Y629290D01*
X3811329Y650383D01*
X3803188Y670038D01*
X3790237Y686916D01*
X3769026Y708127D01*
D02*
G37*
G36*
X3693440Y632541D02*
X3653775Y592876D01*
X3674986Y571665D01*
X3691864Y558714D01*
X3711519Y550572D01*
X3732612Y547796D01*
X3753704Y550572D01*
X3769051Y556930D01*
X3693440Y632541D01*
D02*
G37*
G36*
X3453900Y428348D02*
Y350400D01*
X3531848D01*
X3527650Y366069D01*
X3513642Y390332D01*
X3493831Y410142D01*
X3469569Y424150D01*
X3453900Y428348D01*
D02*
G37*
G36*
X3403100D02*
X3387431Y424150D01*
X3363168Y410142D01*
X3343358Y390332D01*
X3329350Y366069D01*
X3325152Y350400D01*
X3403100D01*
Y428348D01*
D02*
G37*
G36*
X3187797Y426001D02*
X3161203D01*
X3135515Y419118D01*
X3112484Y405821D01*
X3093679Y387016D01*
X3080382Y363985D01*
X3073499Y338297D01*
Y311703D01*
X3080382Y286015D01*
X3093679Y262984D01*
X3112484Y244180D01*
X3135515Y230883D01*
X3161203Y224000D01*
X3187797D01*
X3213485Y230883D01*
X3236516Y244180D01*
X3255320Y262984D01*
X3268617Y286015D01*
X3275500Y311703D01*
Y338297D01*
X3268617Y363985D01*
X3255320Y387016D01*
X3236516Y405821D01*
X3213485Y419118D01*
X3187797Y426001D01*
D02*
G37*
G36*
X2933797D02*
X2907203D01*
X2881515Y419118D01*
X2858484Y405821D01*
X2839679Y387016D01*
X2826382Y363985D01*
X2819499Y338297D01*
Y311703D01*
X2826382Y286015D01*
X2839679Y262984D01*
X2858484Y244180D01*
X2881515Y230883D01*
X2907203Y224000D01*
X2933797D01*
X2959485Y230883D01*
X2982516Y244180D01*
X3001320Y262984D01*
X3014617Y286015D01*
X3021500Y311703D01*
Y338297D01*
X3014617Y363985D01*
X3001320Y387016D01*
X2982516Y405821D01*
X2959485Y419118D01*
X2933797Y426001D01*
D02*
G37*
G36*
X2679797D02*
X2653203D01*
X2627515Y419118D01*
X2604484Y405821D01*
X2585679Y387016D01*
X2572382Y363985D01*
X2565499Y338297D01*
Y311703D01*
X2572382Y286015D01*
X2585679Y262984D01*
X2604484Y244180D01*
X2627515Y230883D01*
X2653203Y224000D01*
X2679797D01*
X2705485Y230883D01*
X2728516Y244180D01*
X2747320Y262984D01*
X2760617Y286015D01*
X2767500Y311703D01*
Y338297D01*
X2760617Y363985D01*
X2747320Y387016D01*
X2728516Y405821D01*
X2705485Y419118D01*
X2679797Y426001D01*
D02*
G37*
G36*
X2425797D02*
X2399203D01*
X2373515Y419118D01*
X2350484Y405821D01*
X2331679Y387016D01*
X2318382Y363985D01*
X2311499Y338297D01*
Y311703D01*
X2318382Y286015D01*
X2331679Y262984D01*
X2350484Y244180D01*
X2373515Y230883D01*
X2399203Y224000D01*
X2425797D01*
X2451485Y230883D01*
X2474516Y244180D01*
X2493320Y262984D01*
X2506617Y286015D01*
X2513500Y311703D01*
Y338297D01*
X2506617Y363985D01*
X2493320Y387016D01*
X2474516Y405821D01*
X2451485Y419118D01*
X2425797Y426001D01*
D02*
G37*
G36*
X2171797D02*
X2145203D01*
X2119515Y419118D01*
X2096484Y405821D01*
X2077679Y387016D01*
X2064382Y363985D01*
X2057499Y338297D01*
Y311703D01*
X2064382Y286015D01*
X2077679Y262984D01*
X2096484Y244180D01*
X2119515Y230883D01*
X2145203Y224000D01*
X2171797D01*
X2197485Y230883D01*
X2220516Y244180D01*
X2239320Y262984D01*
X2252617Y286015D01*
X2259500Y311703D01*
Y338297D01*
X2252617Y363985D01*
X2239320Y387016D01*
X2220516Y405821D01*
X2197485Y419118D01*
X2171797Y426001D01*
D02*
G37*
G36*
X1917797D02*
X1891203D01*
X1865515Y419118D01*
X1842484Y405821D01*
X1823679Y387016D01*
X1810382Y363985D01*
X1803499Y338297D01*
Y311703D01*
X1810382Y286015D01*
X1823679Y262984D01*
X1842484Y244180D01*
X1865515Y230883D01*
X1891203Y224000D01*
X1917797D01*
X1943485Y230883D01*
X1966516Y244180D01*
X1985320Y262984D01*
X1998617Y286015D01*
X2005500Y311703D01*
Y338297D01*
X1998617Y363985D01*
X1985320Y387016D01*
X1966516Y405821D01*
X1943485Y419118D01*
X1917797Y426001D01*
D02*
G37*
G36*
X1663797D02*
X1637203D01*
X1611515Y419118D01*
X1588484Y405821D01*
X1569679Y387016D01*
X1556382Y363985D01*
X1549499Y338297D01*
Y311703D01*
X1556382Y286015D01*
X1569679Y262984D01*
X1588484Y244180D01*
X1611515Y230883D01*
X1637203Y224000D01*
X1663797D01*
X1689485Y230883D01*
X1712516Y244180D01*
X1731320Y262984D01*
X1744617Y286015D01*
X1751500Y311703D01*
Y338297D01*
X1744617Y363985D01*
X1731320Y387016D01*
X1712516Y405821D01*
X1689485Y419118D01*
X1663797Y426001D01*
D02*
G37*
G36*
X1409797D02*
X1383203D01*
X1357515Y419118D01*
X1334484Y405821D01*
X1315679Y387016D01*
X1302382Y363985D01*
X1295499Y338297D01*
Y311703D01*
X1302382Y286015D01*
X1315679Y262984D01*
X1334484Y244180D01*
X1357515Y230883D01*
X1383203Y224000D01*
X1409797D01*
X1435485Y230883D01*
X1458516Y244180D01*
X1477320Y262984D01*
X1490617Y286015D01*
X1497500Y311703D01*
Y338297D01*
X1490617Y363985D01*
X1477320Y387016D01*
X1458516Y405821D01*
X1435485Y419118D01*
X1409797Y426001D01*
D02*
G37*
G36*
X3531848Y299600D02*
X3453900D01*
Y221652D01*
X3469569Y225850D01*
X3493831Y239858D01*
X3513642Y259669D01*
X3527650Y283931D01*
X3531848Y299600D01*
D02*
G37*
G36*
X3403100D02*
X3325152D01*
X3329350Y283931D01*
X3343358Y259669D01*
X3363168Y239858D01*
X3387431Y225850D01*
X3403100Y221652D01*
Y299600D01*
D02*
G37*
%LPD*%
D37*
X2417500Y2712500D02*
X2477500Y2652500D01*
X2415000Y2712500D02*
X2417500D01*
X2477500Y2352500D02*
Y2652500D01*
X2277500Y2152500D02*
X2477500Y2352500D01*
X2277500Y1932500D02*
Y2152500D01*
D40*
X1396500Y325000D02*
D03*
X1650500D02*
D03*
X1904500D02*
D03*
X2158500D02*
D03*
X2412500D02*
D03*
X2666500D02*
D03*
X2920500D02*
D03*
X3174500D02*
D03*
X3428500D02*
D03*
D41*
X4640000Y3300500D02*
D03*
Y3046500D02*
D03*
Y2792500D02*
D03*
Y2538500D02*
D03*
Y2284500D02*
D03*
Y2030500D02*
D03*
Y1776500D02*
D03*
Y1522500D02*
D03*
X190000Y1522000D02*
D03*
Y1776000D02*
D03*
Y2030000D02*
D03*
Y2284000D02*
D03*
Y2538000D02*
D03*
Y2792000D02*
D03*
Y3046000D02*
D03*
Y3300000D02*
D03*
D42*
X3533335Y1029390D02*
D03*
X3941689Y1437744D02*
D03*
D43*
X3397863Y964038D02*
D03*
X4008808Y1574983D02*
D03*
X4304384Y1279407D02*
D03*
X3693440Y668462D02*
D03*
D44*
X3750000Y2100000D02*
D03*
X1050000D02*
D03*
D45*
X1470000Y2365000D02*
D03*
X852500Y2542500D02*
D03*
X1712500Y2745000D02*
D03*
X872500Y3302500D02*
D03*
X2415000Y2712500D02*
D03*
X2372500Y2645000D02*
D03*
X1822500Y3267500D02*
D03*
X3800000Y2757500D02*
D03*
X3710000D02*
D03*
X3790000Y3435000D02*
D03*
X3650000Y3617500D02*
D03*
X1912500Y3522500D02*
D03*
X3182500Y2757500D02*
D03*
X1805000Y2912500D02*
D03*
X1907500Y3267500D02*
D03*
X1822500Y3387500D02*
D03*
X1825000Y3520000D02*
D03*
Y3642500D02*
D03*
X2602500Y2380000D02*
D03*
X2780000Y2382500D02*
D03*
X4012500Y3312500D02*
D03*
X1925000Y2357500D02*
D03*
X1737500Y2542500D02*
D03*
X2552500Y700000D02*
D03*
X2065000Y642500D02*
D03*
X2742500Y2187500D02*
D03*
X3070000Y1247500D02*
D03*
X1947500Y955000D02*
D03*
X3070000Y1540000D02*
D03*
X1645000Y1820000D02*
D03*
X3205000Y1985000D02*
D03*
X2427500Y2155000D02*
D03*
X2277500Y1932500D02*
D03*
X2340000Y1410000D02*
D03*
X3230000Y3460000D02*
D03*
X1625000Y3927500D02*
D03*
X1072500Y1121079D02*
D03*
X1385000Y1815000D02*
D03*
X1515000Y2262500D02*
D03*
X1730000Y2365000D02*
D03*
X2330000Y2712500D02*
D03*
X2242500D02*
D03*
X2157500D02*
D03*
X2072500D02*
D03*
X1987500D02*
D03*
X2055000Y2322500D02*
D03*
X1635000Y2360000D02*
D03*
X3840000Y1152500D02*
D03*
X1692500Y1470000D02*
D03*
X2770000Y1667500D02*
D03*
X3357500Y2387500D02*
D03*
X1402500Y2845000D02*
D03*
X1405000Y2940000D02*
D03*
X420000Y1269731D02*
D03*
X1077231Y612500D02*
D03*
X780000Y997500D02*
D03*
X1210000Y3120000D02*
D03*
X1290000Y3465000D02*
D03*
X1585000Y3392500D02*
D03*
X3948536Y3382500D02*
D03*
X3877115Y3452500D02*
D03*
X1085000Y3611036D02*
D03*
X1015000Y3539615D02*
D03*
X3805658Y3522500D02*
D03*
X3735000Y3595000D02*
D03*
X871737Y3400000D02*
D03*
X942500Y3470000D02*
D03*
X3272500Y2757500D02*
D03*
X3360000D02*
D03*
X3622500D02*
D03*
X3535000D02*
D03*
X3447500D02*
D03*
X3237500Y4222500D02*
D03*
X1587500D02*
D03*
X1822500Y2995000D02*
D03*
Y3085000D02*
D03*
Y3175000D02*
D03*
X1987500Y2927500D02*
D03*
X1902500D02*
D03*
X1585000Y3267500D02*
D03*
D46*
X2492500Y3357500D02*
D03*
Y3520000D02*
D03*
X2327500Y3522500D02*
D03*
Y3357500D02*
D03*
X2247500Y3442500D02*
D03*
X2415000Y3605000D02*
D03*
X2495000Y3687500D02*
D03*
X2330000D02*
D03*
X2247500Y3607500D02*
D03*
X2412500Y3440000D02*
D03*
X2577500Y3605000D02*
D03*
X2575000Y3442500D02*
D03*
%TF.MD5,a46e7911f415e754055aeecacd71430a*%
M02*
