%TF.GenerationSoftware,Altium Limited,Altium Designer,24.10.1 (45)*%
G04 Layer_Color=8421504*
%FSLAX45Y45*%
%MOMM*%
%TF.SameCoordinates,EEF0193C-C13F-4000-B0C4-A13F86DA6223*%
%TF.FilePolarity,Positive*%
%TF.FileFunction,Paste,Top*%
%TF.Part,Single*%
G01*
G75*
%TA.AperFunction,BGAPad,CuDef*%
%ADD10R,1.20000X1.20000*%
%TA.AperFunction,ConnectorPad*%
%ADD12R,0.40000X0.80000*%
%ADD13R,0.80000X0.40000*%
%TA.AperFunction,SMDPad,CuDef*%
%ADD14R,0.80000X0.80000*%
%ADD15R,0.80000X0.80000*%
%ADD16R,1.00000X0.80000*%
%ADD17R,0.55000X1.70000*%
%ADD18R,1.00000X0.90000*%
%ADD20R,1.40000X0.60000*%
G04:AMPARAMS|DCode=21|XSize=1mm|YSize=3.5mm|CornerRadius=0mm|HoleSize=0mm|Usage=FLASHONLY|Rotation=315.000|XOffset=0mm|YOffset=0mm|HoleType=Round|Shape=Rectangle|*
%AMROTATEDRECTD21*
4,1,4,-1.59099,-0.88388,0.88388,1.59099,1.59099,0.88388,-0.88388,-1.59099,-1.59099,-0.88388,0.0*
%
%ADD21ROTATEDRECTD21*%

G04:AMPARAMS|DCode=22|XSize=1.5mm|YSize=3.4mm|CornerRadius=0mm|HoleSize=0mm|Usage=FLASHONLY|Rotation=315.000|XOffset=0mm|YOffset=0mm|HoleType=Round|Shape=Rectangle|*
%AMROTATEDRECTD22*
4,1,4,-1.73241,-0.67175,0.67175,1.73241,1.73241,0.67175,-0.67175,-1.73241,-1.73241,-0.67175,0.0*
%
%ADD22ROTATEDRECTD22*%

G04:AMPARAMS|DCode=23|XSize=1.54991mm|YSize=0.59995mm|CornerRadius=0mm|HoleSize=0mm|Usage=FLASHONLY|Rotation=315.000|XOffset=0mm|YOffset=0mm|HoleType=Round|Shape=Rectangle|*
%AMROTATEDRECTD23*
4,1,4,-0.76009,0.33586,-0.33586,0.76009,0.76009,-0.33586,0.33586,-0.76009,-0.76009,0.33586,0.0*
%
%ADD23ROTATEDRECTD23*%

G04:AMPARAMS|DCode=24|XSize=1.8001mm|YSize=1.1999mm|CornerRadius=0mm|HoleSize=0mm|Usage=FLASHONLY|Rotation=315.000|XOffset=0mm|YOffset=0mm|HoleType=Round|Shape=Rectangle|*
%AMROTATEDRECTD24*
4,1,4,-1.06066,0.21220,-0.21220,1.06066,1.06066,-0.21220,0.21220,-1.06066,-1.06066,0.21220,0.0*
%
%ADD24ROTATEDRECTD24*%

%ADD25R,0.55000X0.35000*%
%ADD26R,0.35000X0.55000*%
%ADD27R,1.00000X0.90000*%
%ADD28R,0.90000X1.00000*%
%ADD29R,0.80000X1.00000*%
%ADD30R,1.22000X0.91000*%
%ADD31R,0.80000X0.90000*%
G04:AMPARAMS|DCode=32|XSize=0.57506mm|YSize=1.15011mm|CornerRadius=0mm|HoleSize=0mm|Usage=FLASHONLY|Rotation=45.000|XOffset=0mm|YOffset=0mm|HoleType=Round|Shape=Rectangle|*
%AMROTATEDRECTD32*
4,1,4,0.20331,-0.60994,-0.60994,0.20331,-0.20331,0.60994,0.60994,-0.20331,0.20331,-0.60994,0.0*
%
%ADD32ROTATEDRECTD32*%

G04:AMPARAMS|DCode=33|XSize=0.27508mm|YSize=1.15011mm|CornerRadius=0mm|HoleSize=0mm|Usage=FLASHONLY|Rotation=45.000|XOffset=0mm|YOffset=0mm|HoleType=Round|Shape=Rectangle|*
%AMROTATEDRECTD33*
4,1,4,0.30937,-0.50388,-0.50388,0.30937,-0.30937,0.50388,0.50388,-0.30937,0.30937,-0.50388,0.0*
%
%ADD33ROTATEDRECTD33*%

G04:AMPARAMS|DCode=34|XSize=1.8001mm|YSize=1.1999mm|CornerRadius=0mm|HoleSize=0mm|Usage=FLASHONLY|Rotation=225.000|XOffset=0mm|YOffset=0mm|HoleType=Round|Shape=Rectangle|*
%AMROTATEDRECTD34*
4,1,4,0.21220,1.06066,1.06066,0.21220,-0.21220,-1.06066,-1.06066,-0.21220,0.21220,1.06066,0.0*
%
%ADD34ROTATEDRECTD34*%

G04:AMPARAMS|DCode=35|XSize=1.54991mm|YSize=0.59995mm|CornerRadius=0mm|HoleSize=0mm|Usage=FLASHONLY|Rotation=225.000|XOffset=0mm|YOffset=0mm|HoleType=Round|Shape=Rectangle|*
%AMROTATEDRECTD35*
4,1,4,0.33586,0.76009,0.76009,0.33586,-0.33586,-0.76009,-0.76009,-0.33586,0.33586,0.76009,0.0*
%
%ADD35ROTATEDRECTD35*%

G36*
X3327835Y962511D02*
X3320690Y969657D01*
X3312957Y988328D01*
Y1008537D01*
X3320690Y1027208D01*
X3327835Y1034354D01*
X3334623Y1041141D01*
X3352361Y1048489D01*
X3371560D01*
X3389298Y1041141D01*
X3396085Y1034354D01*
D01*
X3467927Y962511D01*
X3474715Y955724D01*
X3482062Y937986D01*
Y918787D01*
X3474715Y901049D01*
X3467927Y894261D01*
Y894262D01*
X3460782Y887117D01*
X3442111Y879383D01*
X3421901D01*
X3403230Y887117D01*
X3396085Y894262D01*
X3396085D01*
X3327835Y962511D01*
D02*
G37*
G36*
X3624184Y667959D02*
X3617039Y675104D01*
X3609305Y693775D01*
Y713985D01*
X3617039Y732656D01*
X3624184Y739801D01*
X3630972Y746589D01*
X3648709Y753936D01*
X3667908D01*
X3685646Y746589D01*
X3692434Y739801D01*
D01*
X3764276Y667959D01*
X3771064Y661171D01*
X3778411Y643434D01*
Y624234D01*
X3771064Y606497D01*
X3764276Y599709D01*
X3757131Y592564D01*
X3738460Y584830D01*
X3718250D01*
X3699579Y592564D01*
X3692434Y599709D01*
Y599709D01*
X3624184Y667959D01*
D02*
G37*
G36*
X3938493Y1574965D02*
X3931348Y1582110D01*
X3923614Y1600781D01*
Y1620991D01*
X3931348Y1639662D01*
X3938493Y1646807D01*
X3945281Y1653595D01*
X3963018Y1660942D01*
X3982217D01*
X3999955Y1653595D01*
X4006743Y1646807D01*
Y1646807D01*
X4078585Y1574965D01*
X4085373Y1568177D01*
X4092720Y1550440D01*
Y1531241D01*
X4085373Y1513503D01*
X4078585Y1506715D01*
X4071439Y1499570D01*
X4052768Y1491836D01*
X4032559D01*
X4013888Y1499570D01*
X4006743Y1506715D01*
X4006743D01*
X3938493Y1574965D01*
D02*
G37*
G36*
X4234841Y1278616D02*
X4227696Y1285762D01*
X4219962Y1304433D01*
Y1324642D01*
X4227696Y1343313D01*
X4234841Y1350459D01*
X4241629Y1357246D01*
X4259367Y1364594D01*
X4278566D01*
X4296303Y1357246D01*
X4303091Y1350459D01*
D01*
X4374933Y1278616D01*
X4381721Y1271829D01*
X4389068Y1254091D01*
Y1234892D01*
X4381721Y1217154D01*
X4374933Y1210366D01*
X4367788Y1203221D01*
X4349117Y1195488D01*
X4328908D01*
X4310236Y1203221D01*
X4303091Y1210366D01*
Y1210367D01*
X4234841Y1278616D01*
D02*
G37*
G36*
X2307500Y3627500D02*
X2187500D01*
Y3687500D01*
X2247500Y3747500D01*
X2307500D01*
Y3627500D01*
D02*
G37*
D10*
X2247500Y3522500D02*
D03*
Y3357500D02*
D03*
X2412500D02*
D03*
X2577500D02*
D03*
Y3522500D02*
D03*
Y3687500D02*
D03*
X2412500D02*
D03*
Y3522500D02*
D03*
D12*
X1817500Y4222500D02*
D03*
X1902500D02*
D03*
X1987500D02*
D03*
X2072500D02*
D03*
X2157500D02*
D03*
X2242500D02*
D03*
X2327500D02*
D03*
X2412500D02*
D03*
X2497500D02*
D03*
X2582500D02*
D03*
X2667500D02*
D03*
X2752500D02*
D03*
X2837500D02*
D03*
X2922500D02*
D03*
X3007500D02*
D03*
Y2822500D02*
D03*
X2922500D02*
D03*
X2837500D02*
D03*
X2752500D02*
D03*
X2667500D02*
D03*
X2582500D02*
D03*
X2497500D02*
D03*
X2412500D02*
D03*
X2327500D02*
D03*
X2242500D02*
D03*
X2157500D02*
D03*
X2072500D02*
D03*
X1987500D02*
D03*
X1902500D02*
D03*
X1817500D02*
D03*
D13*
X3112500Y4117500D02*
D03*
Y4032500D02*
D03*
Y3947500D02*
D03*
Y3862500D02*
D03*
Y3777500D02*
D03*
Y3692500D02*
D03*
Y3607500D02*
D03*
Y3522500D02*
D03*
Y3437500D02*
D03*
Y3352500D02*
D03*
Y3267500D02*
D03*
Y3182500D02*
D03*
Y3097500D02*
D03*
Y3012500D02*
D03*
Y2927500D02*
D03*
X1712500D02*
D03*
Y3012500D02*
D03*
Y3097500D02*
D03*
Y3182500D02*
D03*
Y3267500D02*
D03*
Y3352500D02*
D03*
Y3437500D02*
D03*
Y3522500D02*
D03*
Y3607500D02*
D03*
Y3692500D02*
D03*
Y3777500D02*
D03*
Y3862500D02*
D03*
Y3947500D02*
D03*
Y4032500D02*
D03*
Y4117500D02*
D03*
D14*
X3112500Y2822500D02*
D03*
Y4222500D02*
D03*
X1712500Y2822500D02*
D03*
Y4222500D02*
D03*
D15*
X1994992Y2095009D02*
D03*
X1994992Y1945008D02*
D03*
X1534992Y1947508D02*
D03*
Y2097508D02*
D03*
X3212508Y2637492D02*
D03*
Y2487492D02*
D03*
X2599992Y2490008D02*
D03*
Y2640008D02*
D03*
D16*
X1687500Y2095000D02*
D03*
Y1945000D02*
D03*
X1845000D02*
D03*
Y2095000D02*
D03*
X2020000Y1235000D02*
D03*
Y1385000D02*
D03*
X2640000Y1880000D02*
D03*
Y1730000D02*
D03*
X1267500Y3757500D02*
D03*
Y3607500D02*
D03*
X1425000Y3757500D02*
D03*
Y3607500D02*
D03*
X1052500Y3267500D02*
D03*
Y3117500D02*
D03*
X3060000Y2637500D02*
D03*
Y2487500D02*
D03*
X3362500Y2637500D02*
D03*
Y2487500D02*
D03*
X2740000Y2490000D02*
D03*
Y2640000D02*
D03*
X3520000Y3602500D02*
D03*
Y3752500D02*
D03*
X3272500Y1290000D02*
D03*
Y1140000D02*
D03*
X1210000Y3202500D02*
D03*
Y3352500D02*
D03*
X1367500Y3352500D02*
D03*
Y3202500D02*
D03*
D17*
X1505000Y4250000D02*
D03*
X3322500D02*
D03*
D18*
X1442500Y4045000D02*
D03*
X1282500D02*
D03*
Y4455000D02*
D03*
X1442500D02*
D03*
X3385000D02*
D03*
X3545000D02*
D03*
Y4045000D02*
D03*
X3385000D02*
D03*
D20*
X1567500Y1565000D02*
D03*
Y1470000D02*
D03*
Y1375000D02*
D03*
X1817500D02*
D03*
Y1565000D02*
D03*
X2462500Y1410000D02*
D03*
Y1220000D02*
D03*
X2212500D02*
D03*
Y1315000D02*
D03*
Y1410000D02*
D03*
X1272500Y2750000D02*
D03*
Y2845000D02*
D03*
Y2940000D02*
D03*
X1022500D02*
D03*
Y2750000D02*
D03*
D21*
X1085741Y1417163D02*
D03*
X1227163Y1275741D02*
D03*
D22*
X512985Y1176746D02*
D03*
X986746Y702985D02*
D03*
D23*
X854923Y3558355D02*
D03*
X925651Y3629084D02*
D03*
X996362Y3699794D02*
D03*
X784212Y3487645D02*
D03*
D24*
X812500Y4067500D02*
D03*
X416507Y3671506D02*
D03*
D25*
X1992500Y2567500D02*
D03*
Y2517500D02*
D03*
Y2467500D02*
D03*
Y2417500D02*
D03*
X2217500D02*
D03*
Y2467500D02*
D03*
Y2517500D02*
D03*
Y2567500D02*
D03*
D26*
X2055000Y2405000D02*
D03*
X2105000D02*
D03*
X2155000D02*
D03*
Y2580000D02*
D03*
X2105000D02*
D03*
X2055000D02*
D03*
D27*
X2655000Y1247500D02*
D03*
Y1382500D02*
D03*
X2975000Y1247500D02*
D03*
Y1382500D02*
D03*
X2815000Y1247500D02*
D03*
Y1382500D02*
D03*
X1382500Y1582500D02*
D03*
Y1717500D02*
D03*
X3652500Y3460000D02*
D03*
Y3325000D02*
D03*
X2902500Y2632500D02*
D03*
Y2497500D02*
D03*
X3362500Y3747500D02*
D03*
Y3612500D02*
D03*
X3492500Y3460000D02*
D03*
Y3325000D02*
D03*
X3332500Y3460000D02*
D03*
Y3325000D02*
D03*
X2370000Y2550000D02*
D03*
Y2415000D02*
D03*
X1842500Y2552500D02*
D03*
Y2417500D02*
D03*
D28*
X2770000Y1560000D02*
D03*
X2635000D02*
D03*
X1112500Y2592500D02*
D03*
X977500D02*
D03*
D29*
X1822500Y1702500D02*
D03*
X1672500D02*
D03*
X2427500Y2042500D02*
D03*
X2277500D02*
D03*
X3685000Y1697500D02*
D03*
X3835000D02*
D03*
D30*
X2437500Y1881000D02*
D03*
Y1554000D02*
D03*
D31*
X2025000Y1607500D02*
D03*
X2215000D02*
D03*
X2120000Y1807500D02*
D03*
D32*
X3888940Y1536440D02*
D03*
X3832382Y1479882D02*
D03*
X3492964Y1140464D02*
D03*
X3436407Y1083907D02*
D03*
D33*
X3786421Y1433921D02*
D03*
X3751057Y1398557D02*
D03*
X3715711Y1363211D02*
D03*
X3680346Y1327846D02*
D03*
X3645000Y1292500D02*
D03*
X3609636Y1257136D02*
D03*
X3574290Y1221790D02*
D03*
X3538925Y1186425D02*
D03*
D34*
X4021605Y4063712D02*
D03*
X4417599Y3667719D02*
D03*
D35*
X3837743Y3696007D02*
D03*
X4049893Y3483857D02*
D03*
X3979183Y3554568D02*
D03*
X3908454Y3625296D02*
D03*
%TF.MD5,b4b609d82aa6f2228fbd77d5c4683e68*%
M02*
