%TF.GenerationSoftware,Altium Limited,Altium Designer,24.10.1 (45)*%
G04 Layer_Color=255*
%FSLAX45Y45*%
%MOMM*%
%TF.SameCoordinates,EEF0193C-C13F-4000-B0C4-A13F86DA6223*%
%TF.FilePolarity,Positive*%
%TF.FileFunction,Pads,Bot*%
%TF.Part,Single*%
G01*
G75*
%TA.AperFunction,ComponentPad*%
%ADD40C,1.62001*%
%ADD41C,1.52400*%
%ADD42C,0.64999*%
G04:AMPARAMS|DCode=43|XSize=2.2159mm|YSize=1.10795mm|CornerRadius=0mm|HoleSize=0mm|Usage=FLASHONLY|Rotation=135.000|XOffset=0mm|YOffset=0mm|HoleType=Round|Shape=Round|*
%AMOVALD43*
21,1,1.10795,1.10795,0.00000,0.00000,135.0*
1,1,1.10795,0.39172,-0.39172*
1,1,1.10795,-0.39172,0.39172*
%
%ADD43OVALD43*%

%TA.AperFunction,ViaPad*%
%ADD44C,3.55000*%
%TA.AperFunction,SMDPad,CuDef*%
%ADD47R,0.80000X1.50000*%
%ADD48R,1.80000X1.40000*%
%ADD49R,1.40000X1.90000*%
D40*
X1396500Y325000D02*
D03*
X1650500D02*
D03*
X1904500D02*
D03*
X2158500D02*
D03*
X2412500D02*
D03*
X2666500D02*
D03*
X2920500D02*
D03*
X3174500D02*
D03*
X3428500D02*
D03*
D41*
X4640000Y3300500D02*
D03*
Y3046500D02*
D03*
Y2792500D02*
D03*
Y2538500D02*
D03*
Y2284500D02*
D03*
Y2030500D02*
D03*
Y1776500D02*
D03*
Y1522500D02*
D03*
X190000Y1522000D02*
D03*
Y1776000D02*
D03*
Y2030000D02*
D03*
Y2284000D02*
D03*
Y2538000D02*
D03*
Y2792000D02*
D03*
Y3046000D02*
D03*
Y3300000D02*
D03*
D42*
X3533335Y1029390D02*
D03*
X3941689Y1437744D02*
D03*
D43*
X3397863Y964038D02*
D03*
X4008808Y1574983D02*
D03*
X4304384Y1279407D02*
D03*
X3693440Y668462D02*
D03*
D44*
X3750000Y2100000D02*
D03*
X1050000D02*
D03*
D47*
X1836500Y1600000D02*
D03*
X1946500D02*
D03*
X2056500Y1620000D02*
D03*
X2166500Y1600000D02*
D03*
X2276500Y1620000D02*
D03*
X2386500Y1600000D02*
D03*
X2496500Y1560000D02*
D03*
X2606500Y1600000D02*
D03*
D48*
X2487500Y570000D02*
D03*
X1917500D02*
D03*
D49*
X1757500Y1885000D02*
D03*
X3072500Y1985000D02*
D03*
%TF.MD5,7633449db5b3c08983dfebc8ddaecd93*%
M02*
