%TF.GenerationSoftware,Altium Limited,Altium Designer,24.10.1 (45)*%
G04 Layer_Color=255*
%FSLAX45Y45*%
%MOMM*%
%TF.SameCoordinates,EEF0193C-C13F-4000-B0C4-A13F86DA6223*%
%TF.FilePolarity,Positive*%
%TF.FileFunction,Pads,Top*%
%TF.Part,Single*%
G01*
G75*
%TA.AperFunction,BGAPad,CuDef*%
%ADD10R,1.20000X1.20000*%
%TA.AperFunction,SMDPad,CuDef*%
%ADD11R,0.40000X0.40000*%
%TA.AperFunction,ConnectorPad*%
%ADD12R,0.40000X0.80000*%
%ADD13R,0.80000X0.40000*%
%TA.AperFunction,SMDPad,CuDef*%
%ADD14R,0.80000X0.80000*%
%ADD15R,0.80000X0.80000*%
%ADD16R,1.00000X0.80000*%
%ADD17R,0.55000X1.70000*%
%ADD18R,1.00000X0.90000*%
%ADD19C,0.60000*%
%ADD20R,1.40000X0.60000*%
G04:AMPARAMS|DCode=21|XSize=1mm|YSize=3.5mm|CornerRadius=0mm|HoleSize=0mm|Usage=FLASHONLY|Rotation=315.000|XOffset=0mm|YOffset=0mm|HoleType=Round|Shape=Rectangle|*
%AMROTATEDRECTD21*
4,1,4,-1.59099,-0.88388,0.88388,1.59099,1.59099,0.88388,-0.88388,-1.59099,-1.59099,-0.88388,0.0*
%
%ADD21ROTATEDRECTD21*%

G04:AMPARAMS|DCode=22|XSize=1.5mm|YSize=3.4mm|CornerRadius=0mm|HoleSize=0mm|Usage=FLASHONLY|Rotation=315.000|XOffset=0mm|YOffset=0mm|HoleType=Round|Shape=Rectangle|*
%AMROTATEDRECTD22*
4,1,4,-1.73241,-0.67175,0.67175,1.73241,1.73241,0.67175,-0.67175,-1.73241,-1.73241,-0.67175,0.0*
%
%ADD22ROTATEDRECTD22*%

G04:AMPARAMS|DCode=23|XSize=1.54991mm|YSize=0.59995mm|CornerRadius=0mm|HoleSize=0mm|Usage=FLASHONLY|Rotation=315.000|XOffset=0mm|YOffset=0mm|HoleType=Round|Shape=Rectangle|*
%AMROTATEDRECTD23*
4,1,4,-0.76009,0.33586,-0.33586,0.76009,0.76009,-0.33586,0.33586,-0.76009,-0.76009,0.33586,0.0*
%
%ADD23ROTATEDRECTD23*%

G04:AMPARAMS|DCode=24|XSize=1.8001mm|YSize=1.1999mm|CornerRadius=0mm|HoleSize=0mm|Usage=FLASHONLY|Rotation=315.000|XOffset=0mm|YOffset=0mm|HoleType=Round|Shape=Rectangle|*
%AMROTATEDRECTD24*
4,1,4,-1.06066,0.21220,-0.21220,1.06066,1.06066,-0.21220,0.21220,-1.06066,-1.06066,0.21220,0.0*
%
%ADD24ROTATEDRECTD24*%

%ADD25R,0.55000X0.35000*%
%ADD26R,0.35000X0.55000*%
%ADD27R,1.00000X0.90000*%
%ADD28R,0.90000X1.00000*%
%ADD29R,0.80000X1.00000*%
%ADD30R,1.22000X0.91000*%
%ADD31R,0.80000X0.90000*%
G04:AMPARAMS|DCode=32|XSize=0.57506mm|YSize=1.15011mm|CornerRadius=0mm|HoleSize=0mm|Usage=FLASHONLY|Rotation=45.000|XOffset=0mm|YOffset=0mm|HoleType=Round|Shape=Rectangle|*
%AMROTATEDRECTD32*
4,1,4,0.20331,-0.60994,-0.60994,0.20331,-0.20331,0.60994,0.60994,-0.20331,0.20331,-0.60994,0.0*
%
%ADD32ROTATEDRECTD32*%

G04:AMPARAMS|DCode=33|XSize=0.27508mm|YSize=1.15011mm|CornerRadius=0mm|HoleSize=0mm|Usage=FLASHONLY|Rotation=45.000|XOffset=0mm|YOffset=0mm|HoleType=Round|Shape=Rectangle|*
%AMROTATEDRECTD33*
4,1,4,0.30937,-0.50388,-0.50388,0.30937,-0.30937,0.50388,0.50388,-0.30937,0.30937,-0.50388,0.0*
%
%ADD33ROTATEDRECTD33*%

G04:AMPARAMS|DCode=34|XSize=1.8001mm|YSize=1.1999mm|CornerRadius=0mm|HoleSize=0mm|Usage=FLASHONLY|Rotation=225.000|XOffset=0mm|YOffset=0mm|HoleType=Round|Shape=Rectangle|*
%AMROTATEDRECTD34*
4,1,4,0.21220,1.06066,1.06066,0.21220,-0.21220,-1.06066,-1.06066,-0.21220,0.21220,1.06066,0.0*
%
%ADD34ROTATEDRECTD34*%

G04:AMPARAMS|DCode=35|XSize=1.54991mm|YSize=0.59995mm|CornerRadius=0mm|HoleSize=0mm|Usage=FLASHONLY|Rotation=225.000|XOffset=0mm|YOffset=0mm|HoleType=Round|Shape=Rectangle|*
%AMROTATEDRECTD35*
4,1,4,0.33586,0.76009,0.76009,0.33586,-0.33586,-0.76009,-0.76009,-0.33586,0.33586,0.76009,0.0*
%
%ADD35ROTATEDRECTD35*%

%TA.AperFunction,ComponentPad*%
%ADD40C,1.62001*%
%ADD41C,1.52400*%
%ADD42C,0.64999*%
G04:AMPARAMS|DCode=43|XSize=2.2159mm|YSize=1.10795mm|CornerRadius=0mm|HoleSize=0mm|Usage=FLASHONLY|Rotation=135.000|XOffset=0mm|YOffset=0mm|HoleType=Round|Shape=Round|*
%AMOVALD43*
21,1,1.10795,1.10795,0.00000,0.00000,135.0*
1,1,1.10795,0.39172,-0.39172*
1,1,1.10795,-0.39172,0.39172*
%
%ADD43OVALD43*%

%TA.AperFunction,ViaPad*%
%ADD44C,3.55000*%
D10*
X2247500Y3522500D02*
D03*
Y3357500D02*
D03*
X2412500D02*
D03*
X2577500D02*
D03*
Y3522500D02*
D03*
Y3687500D02*
D03*
X2412500D02*
D03*
Y3522500D02*
D03*
D11*
X2247500Y3687500D02*
D03*
D12*
X1817500Y4222500D02*
D03*
X1902500D02*
D03*
X1987500D02*
D03*
X2072500D02*
D03*
X2157500D02*
D03*
X2242500D02*
D03*
X2327500D02*
D03*
X2412500D02*
D03*
X2497500D02*
D03*
X2582500D02*
D03*
X2667500D02*
D03*
X2752500D02*
D03*
X2837500D02*
D03*
X2922500D02*
D03*
X3007500D02*
D03*
Y2822500D02*
D03*
X2922500D02*
D03*
X2837500D02*
D03*
X2752500D02*
D03*
X2667500D02*
D03*
X2582500D02*
D03*
X2497500D02*
D03*
X2412500D02*
D03*
X2327500D02*
D03*
X2242500D02*
D03*
X2157500D02*
D03*
X2072500D02*
D03*
X1987500D02*
D03*
X1902500D02*
D03*
X1817500D02*
D03*
D13*
X3112500Y4117500D02*
D03*
Y4032500D02*
D03*
Y3947500D02*
D03*
Y3862500D02*
D03*
Y3777500D02*
D03*
Y3692500D02*
D03*
Y3607500D02*
D03*
Y3522500D02*
D03*
Y3437500D02*
D03*
Y3352500D02*
D03*
Y3267500D02*
D03*
Y3182500D02*
D03*
Y3097500D02*
D03*
Y3012500D02*
D03*
Y2927500D02*
D03*
X1712500D02*
D03*
Y3012500D02*
D03*
Y3097500D02*
D03*
Y3182500D02*
D03*
Y3267500D02*
D03*
Y3352500D02*
D03*
Y3437500D02*
D03*
Y3522500D02*
D03*
Y3607500D02*
D03*
Y3692500D02*
D03*
Y3777500D02*
D03*
Y3862500D02*
D03*
Y3947500D02*
D03*
Y4032500D02*
D03*
Y4117500D02*
D03*
D14*
X3112500Y2822500D02*
D03*
Y4222500D02*
D03*
X1712500Y2822500D02*
D03*
Y4222500D02*
D03*
D15*
X1994992Y2095009D02*
D03*
X1994992Y1945008D02*
D03*
X1534992Y1947508D02*
D03*
Y2097508D02*
D03*
X3212508Y2637492D02*
D03*
Y2487492D02*
D03*
X2599992Y2490008D02*
D03*
Y2640008D02*
D03*
D16*
X1687500Y2095000D02*
D03*
Y1945000D02*
D03*
X1845000D02*
D03*
Y2095000D02*
D03*
X2020000Y1235000D02*
D03*
Y1385000D02*
D03*
X2640000Y1880000D02*
D03*
Y1730000D02*
D03*
X1267500Y3757500D02*
D03*
Y3607500D02*
D03*
X1425000Y3757500D02*
D03*
Y3607500D02*
D03*
X1052500Y3267500D02*
D03*
Y3117500D02*
D03*
X3060000Y2637500D02*
D03*
Y2487500D02*
D03*
X3362500Y2637500D02*
D03*
Y2487500D02*
D03*
X2740000Y2490000D02*
D03*
Y2640000D02*
D03*
X3520000Y3602500D02*
D03*
Y3752500D02*
D03*
X3272500Y1290000D02*
D03*
Y1140000D02*
D03*
X1210000Y3202500D02*
D03*
Y3352500D02*
D03*
X1367500Y3352500D02*
D03*
Y3202500D02*
D03*
D17*
X1505000Y4250000D02*
D03*
X3322500D02*
D03*
D18*
X1442500Y4045000D02*
D03*
X1282500D02*
D03*
Y4455000D02*
D03*
X1442500D02*
D03*
X3385000D02*
D03*
X3545000D02*
D03*
Y4045000D02*
D03*
X3385000D02*
D03*
D19*
X1420000Y1250000D02*
D03*
X3615000Y1510000D02*
D03*
X3432500Y1370000D02*
D03*
X1057500Y1612500D02*
D03*
X1820000Y1237500D02*
D03*
X2907500Y1520000D02*
D03*
D20*
X1567500Y1565000D02*
D03*
Y1470000D02*
D03*
Y1375000D02*
D03*
X1817500D02*
D03*
Y1565000D02*
D03*
X2462500Y1410000D02*
D03*
Y1220000D02*
D03*
X2212500D02*
D03*
Y1315000D02*
D03*
Y1410000D02*
D03*
X1272500Y2750000D02*
D03*
Y2845000D02*
D03*
Y2940000D02*
D03*
X1022500D02*
D03*
Y2750000D02*
D03*
D21*
X1085741Y1417163D02*
D03*
X1227163Y1275741D02*
D03*
D22*
X512985Y1176746D02*
D03*
X986746Y702985D02*
D03*
D23*
X854923Y3558355D02*
D03*
X925651Y3629084D02*
D03*
X996362Y3699794D02*
D03*
X784212Y3487645D02*
D03*
D24*
X812500Y4067500D02*
D03*
X416507Y3671506D02*
D03*
D25*
X1992500Y2567500D02*
D03*
Y2517500D02*
D03*
Y2467500D02*
D03*
Y2417500D02*
D03*
X2217500D02*
D03*
Y2467500D02*
D03*
Y2517500D02*
D03*
Y2567500D02*
D03*
D26*
X2055000Y2405000D02*
D03*
X2105000D02*
D03*
X2155000D02*
D03*
Y2580000D02*
D03*
X2105000D02*
D03*
X2055000D02*
D03*
D27*
X2655000Y1247500D02*
D03*
Y1382500D02*
D03*
X2975000Y1247500D02*
D03*
Y1382500D02*
D03*
X2815000Y1247500D02*
D03*
Y1382500D02*
D03*
X1382500Y1582500D02*
D03*
Y1717500D02*
D03*
X3652500Y3460000D02*
D03*
Y3325000D02*
D03*
X2902500Y2632500D02*
D03*
Y2497500D02*
D03*
X3362500Y3747500D02*
D03*
Y3612500D02*
D03*
X3492500Y3460000D02*
D03*
Y3325000D02*
D03*
X3332500Y3460000D02*
D03*
Y3325000D02*
D03*
X2370000Y2550000D02*
D03*
Y2415000D02*
D03*
X1842500Y2552500D02*
D03*
Y2417500D02*
D03*
D28*
X2770000Y1560000D02*
D03*
X2635000D02*
D03*
X1112500Y2592500D02*
D03*
X977500D02*
D03*
D29*
X1822500Y1702500D02*
D03*
X1672500D02*
D03*
X2427500Y2042500D02*
D03*
X2277500D02*
D03*
X3685000Y1697500D02*
D03*
X3835000D02*
D03*
D30*
X2437500Y1881000D02*
D03*
Y1554000D02*
D03*
D31*
X2025000Y1607500D02*
D03*
X2215000D02*
D03*
X2120000Y1807500D02*
D03*
D32*
X3888940Y1536440D02*
D03*
X3832382Y1479882D02*
D03*
X3492964Y1140464D02*
D03*
X3436407Y1083907D02*
D03*
D33*
X3786421Y1433921D02*
D03*
X3751057Y1398557D02*
D03*
X3715711Y1363211D02*
D03*
X3680346Y1327846D02*
D03*
X3645000Y1292500D02*
D03*
X3609636Y1257136D02*
D03*
X3574290Y1221790D02*
D03*
X3538925Y1186425D02*
D03*
D34*
X4021605Y4063712D02*
D03*
X4417599Y3667719D02*
D03*
D35*
X3837743Y3696007D02*
D03*
X4049893Y3483857D02*
D03*
X3979183Y3554568D02*
D03*
X3908454Y3625296D02*
D03*
D40*
X1396500Y325000D02*
D03*
X1650500D02*
D03*
X1904500D02*
D03*
X2158500D02*
D03*
X2412500D02*
D03*
X2666500D02*
D03*
X2920500D02*
D03*
X3174500D02*
D03*
X3428500D02*
D03*
D41*
X4640000Y3300500D02*
D03*
Y3046500D02*
D03*
Y2792500D02*
D03*
Y2538500D02*
D03*
Y2284500D02*
D03*
Y2030500D02*
D03*
Y1776500D02*
D03*
Y1522500D02*
D03*
X190000Y1522000D02*
D03*
Y1776000D02*
D03*
Y2030000D02*
D03*
Y2284000D02*
D03*
Y2538000D02*
D03*
Y2792000D02*
D03*
Y3046000D02*
D03*
Y3300000D02*
D03*
D42*
X3533335Y1029390D02*
D03*
X3941689Y1437744D02*
D03*
D43*
X3397863Y964038D02*
D03*
X4008808Y1574983D02*
D03*
X4304384Y1279407D02*
D03*
X3693440Y668462D02*
D03*
D44*
X3750000Y2100000D02*
D03*
X1050000D02*
D03*
%TF.MD5,668e7613e5970b827b3628231fbbca3f*%
M02*
