%TF.GenerationSoftware,Altium Limited,Altium Designer,24.10.1 (45)*%
G04 Layer_Color=16711935*
%FSLAX45Y45*%
%MOMM*%
%TF.SameCoordinates,EEF0193C-C13F-4000-B0C4-A13F86DA6223*%
%TF.FilePolarity,Negative*%
%TF.FileFunction,Soldermask,Bot*%
%TF.Part,Single*%
G01*
G75*
%TA.AperFunction,SMDPad,CuDef*%
%ADD47R,0.80000X1.50000*%
%ADD48R,1.80000X1.40000*%
%ADD49R,1.40000X1.90000*%
%TA.AperFunction,NonConductor*%
%ADD50C,0.25400*%
%ADD59C,0.00000*%
%TA.AperFunction,ComponentPad*%
%ADD82C,1.82321*%
%ADD83C,1.72720*%
%ADD84C,0.85319*%
G04:AMPARAMS|DCode=85|XSize=2.4191mm|YSize=1.31115mm|CornerRadius=0mm|HoleSize=0mm|Usage=FLASHONLY|Rotation=135.000|XOffset=0mm|YOffset=0mm|HoleType=Round|Shape=Round|*
%AMOVALD85*
21,1,1.10795,1.31115,0.00000,0.00000,135.0*
1,1,1.31115,0.39172,-0.39172*
1,1,1.31115,-0.39172,0.39172*
%
%ADD85OVALD85*%

%TA.AperFunction,ViaPad*%
%ADD86C,3.75320*%
D47*
X1836500Y1600000D02*
D03*
X1946500D02*
D03*
X2056500Y1620000D02*
D03*
X2166500Y1600000D02*
D03*
X2276500Y1620000D02*
D03*
X2386500Y1600000D02*
D03*
X2496500Y1560000D02*
D03*
X2606500Y1600000D02*
D03*
D48*
X2487500Y570000D02*
D03*
X1917500D02*
D03*
D49*
X1757500Y1885000D02*
D03*
X3072500Y1985000D02*
D03*
D50*
X3142264Y4120400D02*
Y4240361D01*
X3102277Y4200374D01*
X3062290Y4240361D01*
Y4120400D01*
X3022303D02*
Y4240361D01*
X2962322D01*
X2942328Y4220368D01*
Y4180381D01*
X2962322Y4160387D01*
X3022303D01*
X2982316D02*
X2942328Y4120400D01*
X2902341D02*
Y4140394D01*
X2882348D01*
Y4120400D01*
X2902341D01*
X2802374Y4240361D02*
X2762387D01*
X2782380D01*
Y4120400D01*
X2802374D01*
X2762387D01*
X2702406D02*
Y4240361D01*
X2622432Y4120400D01*
Y4240361D01*
X2582445D02*
Y4120400D01*
X2522464D01*
X2502470Y4140394D01*
Y4220368D01*
X2522464Y4240361D01*
X2582445D01*
X2462484D02*
Y4140394D01*
X2442490Y4120400D01*
X2402503D01*
X2382509Y4140394D01*
Y4240361D01*
X2262548Y4220368D02*
X2282542Y4240361D01*
X2322529D01*
X2342522Y4220368D01*
Y4200374D01*
X2322529Y4180381D01*
X2282542D01*
X2262548Y4160387D01*
Y4140394D01*
X2282542Y4120400D01*
X2322529D01*
X2342522Y4140394D01*
X2222561Y4240361D02*
X2142587D01*
X2182574D01*
Y4120400D01*
X2102600D02*
Y4240361D01*
X2042619D01*
X2022626Y4220368D01*
Y4180381D01*
X2042619Y4160387D01*
X2102600D01*
X2062613D02*
X2022626Y4120400D01*
X1982639Y4240361D02*
X1942652D01*
X1962645D01*
Y4120400D01*
X1982639D01*
X1942652D01*
X1802697Y4240361D02*
X1882671D01*
Y4120400D01*
X1802697D01*
X1882671Y4180381D02*
X1842684D01*
X1682736Y4220368D02*
X1702729Y4240361D01*
X1742716D01*
X1762710Y4220368D01*
Y4200374D01*
X1742716Y4180381D01*
X1702729D01*
X1682736Y4160387D01*
Y4140394D01*
X1702729Y4120400D01*
X1742716D01*
X1762710Y4140394D01*
D59*
X1482606Y325000D02*
G03*
X1482606Y325000I-86106J0D01*
G01*
X1736606D02*
G03*
X1736606Y325000I-86106J0D01*
G01*
X1990606D02*
G03*
X1990606Y325000I-86106J0D01*
G01*
X2244606D02*
G03*
X2244606Y325000I-86106J0D01*
G01*
X2498606D02*
G03*
X2498606Y325000I-86106J0D01*
G01*
X2752606D02*
G03*
X2752606Y325000I-86106J0D01*
G01*
X3006606D02*
G03*
X3006606Y325000I-86106J0D01*
G01*
X3260606D02*
G03*
X3260606Y325000I-86106J0D01*
G01*
X3514606D02*
G03*
X3514606Y325000I-86106J0D01*
G01*
D82*
X1396500D02*
D03*
X1650500D02*
D03*
X1904500D02*
D03*
X2158500D02*
D03*
X2412500D02*
D03*
X2666500D02*
D03*
X2920500D02*
D03*
X3174500D02*
D03*
X3428500D02*
D03*
D83*
X4640000Y3300500D02*
D03*
Y3046500D02*
D03*
Y2792500D02*
D03*
Y2538500D02*
D03*
Y2284500D02*
D03*
Y2030500D02*
D03*
Y1776500D02*
D03*
Y1522500D02*
D03*
X190000Y1522000D02*
D03*
Y1776000D02*
D03*
Y2030000D02*
D03*
Y2284000D02*
D03*
Y2538000D02*
D03*
Y2792000D02*
D03*
Y3046000D02*
D03*
Y3300000D02*
D03*
D84*
X3533335Y1029390D02*
D03*
X3941689Y1437744D02*
D03*
D85*
X3397863Y964038D02*
D03*
X4008808Y1574983D02*
D03*
X4304384Y1279407D02*
D03*
X3693440Y668462D02*
D03*
D86*
X3750000Y2100000D02*
D03*
X1050000D02*
D03*
%TF.MD5,d65f09b18e94642ca63cfe9ac3156461*%
M02*
