%TF.GenerationSoftware,Altium Limited,Altium Designer,24.10.1 (45)*%
G04 Layer_Physical_Order=3*
G04 Layer_Color=16440176*
%FSLAX45Y45*%
%MOMM*%
%TF.SameCoordinates,EEF0193C-C13F-4000-B0C4-A13F86DA6223*%
%TF.FilePolarity,Positive*%
%TF.FileFunction,Copper,L3,Inr,Signal*%
%TF.Part,Single*%
G01*
G75*
%TA.AperFunction,ComponentPad*%
%ADD40C,1.62001*%
%ADD41C,1.52400*%
%ADD42C,0.64999*%
G04:AMPARAMS|DCode=43|XSize=2.2159mm|YSize=1.10795mm|CornerRadius=0mm|HoleSize=0mm|Usage=FLASHONLY|Rotation=135.000|XOffset=0mm|YOffset=0mm|HoleType=Round|Shape=Round|*
%AMOVALD43*
21,1,1.10795,1.10795,0.00000,0.00000,135.0*
1,1,1.10795,0.39172,-0.39172*
1,1,1.10795,-0.39172,0.39172*
%
%ADD43OVALD43*%

%TA.AperFunction,ViaPad*%
%ADD44C,3.55000*%
%ADD45C,0.66040*%
%ADD46C,0.63500*%
G36*
X4807934Y3404922D02*
Y1421814D01*
X3405665Y19545D01*
X1422557D01*
X20288Y1421814D01*
Y3404922D01*
X1422557Y4807191D01*
X1616207D01*
X1622108Y4800000D01*
Y4295000D01*
X1623660Y4287196D01*
X1628081Y4280581D01*
X1634696Y4276160D01*
X1642500Y4274608D01*
X3182500D01*
X3190303Y4276160D01*
X3196919Y4280581D01*
X3201340Y4287196D01*
X3202892Y4295000D01*
Y4800000D01*
X3208793Y4807191D01*
X3405665D01*
X4807934Y3404922D01*
D02*
G37*
%LPC*%
G36*
X3248046Y4275520D02*
X3226954D01*
X3207467Y4267448D01*
X3192552Y4252533D01*
X3184480Y4233046D01*
Y4211954D01*
X3192552Y4192467D01*
X3207467Y4177552D01*
X3226954Y4169480D01*
X3248046D01*
X3267533Y4177552D01*
X3282448Y4192467D01*
X3290520Y4211954D01*
Y4233046D01*
X3282448Y4252533D01*
X3267533Y4267448D01*
X3248046Y4275520D01*
D02*
G37*
G36*
X1598046D02*
X1576953D01*
X1557467Y4267448D01*
X1542552Y4252533D01*
X1534480Y4233046D01*
Y4211954D01*
X1542552Y4192467D01*
X1557467Y4177552D01*
X1576953Y4169480D01*
X1598046D01*
X1617533Y4177552D01*
X1632448Y4192467D01*
X1640520Y4211954D01*
Y4233046D01*
X1632448Y4252533D01*
X1617533Y4267448D01*
X1598046Y4275520D01*
D02*
G37*
G36*
X2340294Y3739250D02*
X2319706D01*
X2300686Y3731372D01*
X2286128Y3716814D01*
X2278250Y3697794D01*
Y3677206D01*
X2285114Y3660634D01*
X2279289Y3654133D01*
X2276020Y3651700D01*
X2257794Y3659250D01*
X2237206D01*
X2218186Y3651372D01*
X2203628Y3636814D01*
X2195750Y3617794D01*
Y3597206D01*
X2203628Y3578186D01*
X2218186Y3563628D01*
X2237206Y3555750D01*
X2257794D01*
X2276814Y3563628D01*
X2291372Y3578186D01*
X2299250Y3597206D01*
Y3617794D01*
X2292386Y3634366D01*
X2298211Y3640867D01*
X2301480Y3643300D01*
X2319706Y3635750D01*
X2340294D01*
X2359314Y3643628D01*
X2373872Y3658186D01*
X2381750Y3677206D01*
Y3697794D01*
X2373872Y3716814D01*
X2359314Y3731372D01*
X2340294Y3739250D01*
D02*
G37*
G36*
X2505294D02*
X2484706D01*
X2465686Y3731372D01*
X2451128Y3716814D01*
X2443250Y3697794D01*
Y3677206D01*
X2450800Y3658980D01*
X2448367Y3655712D01*
X2441866Y3649886D01*
X2425294Y3656750D01*
X2404706D01*
X2385686Y3648872D01*
X2371128Y3634314D01*
X2363250Y3615294D01*
Y3594706D01*
X2371128Y3575686D01*
X2385686Y3561128D01*
X2404706Y3553250D01*
X2425294D01*
X2441186Y3559833D01*
X2448247Y3549852D01*
X2448556Y3549139D01*
X2440750Y3530294D01*
Y3509706D01*
X2446573Y3495647D01*
X2436853Y3485927D01*
X2422794Y3491750D01*
X2402206D01*
X2383186Y3483872D01*
X2368628Y3469314D01*
X2360750Y3450294D01*
Y3429706D01*
X2368628Y3410686D01*
X2383186Y3396129D01*
X2402206Y3388250D01*
X2422794D01*
X2439366Y3395115D01*
X2445868Y3389288D01*
X2448300Y3386021D01*
X2440750Y3367794D01*
Y3347206D01*
X2448628Y3328186D01*
X2463186Y3313628D01*
X2482206Y3305750D01*
X2502794D01*
X2521814Y3313628D01*
X2536372Y3328186D01*
X2544250Y3347206D01*
Y3367794D01*
X2536372Y3386814D01*
X2521814Y3401372D01*
X2502794Y3409250D01*
X2482206D01*
X2465633Y3402385D01*
X2459132Y3408213D01*
X2456700Y3411479D01*
X2464250Y3429706D01*
Y3450294D01*
X2458426Y3464353D01*
X2468147Y3474074D01*
X2482206Y3468250D01*
X2502794D01*
X2518621Y3474806D01*
X2527995Y3467555D01*
X2528864Y3466349D01*
X2523250Y3452794D01*
Y3432206D01*
X2531128Y3413186D01*
X2545686Y3398628D01*
X2564706Y3390750D01*
X2585294D01*
X2604314Y3398628D01*
X2618872Y3413186D01*
X2626750Y3432206D01*
Y3452794D01*
X2618872Y3471814D01*
X2604314Y3486372D01*
X2585294Y3494250D01*
X2564706D01*
X2548879Y3487694D01*
X2539505Y3494946D01*
X2538636Y3496152D01*
X2544250Y3509706D01*
Y3530294D01*
X2536372Y3549314D01*
X2521814Y3563872D01*
X2502794Y3571750D01*
X2482206D01*
X2466314Y3565167D01*
X2459253Y3575148D01*
X2458944Y3575861D01*
X2466750Y3594706D01*
Y3615294D01*
X2459200Y3633520D01*
X2461633Y3636789D01*
X2468133Y3642615D01*
X2484706Y3635750D01*
X2505294D01*
X2524314Y3643628D01*
X2538871Y3658186D01*
X2546750Y3677206D01*
Y3697794D01*
X2538871Y3716814D01*
X2524314Y3731372D01*
X2505294Y3739250D01*
D02*
G37*
G36*
X1835546Y3695520D02*
X1814454D01*
X1794967Y3687448D01*
X1780052Y3672533D01*
X1771980Y3653046D01*
Y3631954D01*
X1780052Y3612467D01*
X1794967Y3597552D01*
X1814454Y3589480D01*
X1835546D01*
X1855033Y3597552D01*
X1869948Y3612467D01*
X1878020Y3631954D01*
Y3653046D01*
X1869948Y3672533D01*
X1855033Y3687448D01*
X1835546Y3695520D01*
D02*
G37*
G36*
X2587794Y3656750D02*
X2567206D01*
X2548186Y3648872D01*
X2533628Y3634314D01*
X2525750Y3615294D01*
Y3594706D01*
X2533628Y3575686D01*
X2548186Y3561129D01*
X2567206Y3553250D01*
X2587794D01*
X2606814Y3561129D01*
X2621371Y3575686D01*
X2629250Y3594706D01*
Y3615294D01*
X2621371Y3634314D01*
X2606814Y3648872D01*
X2587794Y3656750D01*
D02*
G37*
G36*
X1923046Y3575520D02*
X1901954D01*
X1882467Y3567448D01*
X1867552Y3552533D01*
X1867465Y3552516D01*
X1855033Y3564948D01*
X1835546Y3573020D01*
X1814454D01*
X1794967Y3564948D01*
X1780052Y3550033D01*
X1771980Y3530546D01*
Y3509454D01*
X1780052Y3489967D01*
X1794967Y3475052D01*
X1814454Y3466980D01*
X1835546D01*
X1855033Y3475052D01*
X1869948Y3489967D01*
X1870035Y3489984D01*
X1882467Y3477552D01*
X1901954Y3469480D01*
X1923046D01*
X1942533Y3477552D01*
X1957448Y3492467D01*
X1965520Y3511954D01*
Y3533046D01*
X1957448Y3552533D01*
X1942533Y3567448D01*
X1923046Y3575520D01*
D02*
G37*
G36*
X2337794Y3574250D02*
X2317206D01*
X2298186Y3566372D01*
X2283628Y3551814D01*
X2275750Y3532794D01*
Y3512206D01*
X2281573Y3498147D01*
X2271853Y3488427D01*
X2257794Y3494250D01*
X2237206D01*
X2218186Y3486372D01*
X2203628Y3471814D01*
X2195750Y3452794D01*
Y3432206D01*
X2203628Y3413186D01*
X2218186Y3398628D01*
X2237206Y3390750D01*
X2257794D01*
X2276814Y3398628D01*
X2291372Y3413186D01*
X2299250Y3432206D01*
Y3452794D01*
X2293426Y3466853D01*
X2303147Y3476574D01*
X2317206Y3470750D01*
X2337794D01*
X2356814Y3478629D01*
X2371371Y3493186D01*
X2379250Y3512206D01*
Y3532794D01*
X2371371Y3551814D01*
X2356814Y3566372D01*
X2337794Y3574250D01*
D02*
G37*
G36*
X1300546Y3518020D02*
X1279454D01*
X1259967Y3509948D01*
X1245052Y3495033D01*
X1236980Y3475546D01*
Y3454454D01*
X1245052Y3434967D01*
X1259967Y3420052D01*
X1279454Y3411980D01*
X1300546D01*
X1320033Y3420052D01*
X1334948Y3434967D01*
X1343020Y3454454D01*
Y3475546D01*
X1334948Y3495033D01*
X1320033Y3509948D01*
X1300546Y3518020D01*
D02*
G37*
G36*
X1595546Y3445520D02*
X1574454D01*
X1554967Y3437448D01*
X1540052Y3422533D01*
X1531980Y3403046D01*
Y3381954D01*
X1540052Y3362467D01*
X1554967Y3347552D01*
X1574454Y3339480D01*
X1595546D01*
X1615033Y3347552D01*
X1629948Y3362467D01*
X1638020Y3381954D01*
Y3403046D01*
X1629948Y3422533D01*
X1615033Y3437448D01*
X1595546Y3445520D01*
D02*
G37*
G36*
X1833046Y3440520D02*
X1811954D01*
X1792467Y3432448D01*
X1777552Y3417533D01*
X1769480Y3398046D01*
Y3376954D01*
X1777552Y3357467D01*
X1792467Y3342552D01*
X1811954Y3334480D01*
X1833046D01*
X1852533Y3342552D01*
X1867448Y3357467D01*
X1875520Y3376954D01*
Y3398046D01*
X1867448Y3417533D01*
X1852533Y3432448D01*
X1833046Y3440520D01*
D02*
G37*
G36*
X2337794Y3409250D02*
X2317206D01*
X2298186Y3401372D01*
X2283628Y3386814D01*
X2275750Y3367794D01*
Y3347206D01*
X2283628Y3328186D01*
X2298186Y3313628D01*
X2317206Y3305750D01*
X2337794D01*
X2356814Y3313628D01*
X2371371Y3328186D01*
X2379250Y3347206D01*
Y3367794D01*
X2371371Y3386814D01*
X2356814Y3401372D01*
X2337794Y3409250D01*
D02*
G37*
G36*
X1918046Y3320520D02*
X1896954D01*
X1877467Y3312448D01*
X1865000Y3299981D01*
X1852533Y3312448D01*
X1833046Y3320520D01*
X1811954D01*
X1792467Y3312448D01*
X1777552Y3297533D01*
X1769480Y3278046D01*
Y3256954D01*
X1777552Y3237467D01*
X1785472Y3229547D01*
X1791518Y3221250D01*
X1785472Y3212953D01*
X1777552Y3205033D01*
X1769480Y3185546D01*
Y3164454D01*
X1777552Y3144967D01*
X1784222Y3138297D01*
X1792415Y3130000D01*
X1784222Y3121703D01*
X1777552Y3115033D01*
X1769480Y3095546D01*
Y3074454D01*
X1777552Y3054967D01*
X1784222Y3048297D01*
X1792415Y3040000D01*
X1784222Y3031703D01*
X1777552Y3025033D01*
X1769480Y3005546D01*
Y2984454D01*
X1777552Y2964967D01*
X1776154Y2957940D01*
X1774967Y2957448D01*
X1760052Y2942533D01*
X1751980Y2923046D01*
Y2901954D01*
X1760052Y2882467D01*
X1774967Y2867552D01*
X1794454Y2859480D01*
X1815546D01*
X1835033Y2867552D01*
X1849948Y2882467D01*
X1851308Y2885750D01*
X1866289Y2888730D01*
X1872467Y2882552D01*
X1891954Y2874480D01*
X1913046D01*
X1932533Y2882552D01*
X1945000Y2895019D01*
X1957467Y2882552D01*
X1976954Y2874480D01*
X1998046D01*
X2017533Y2882552D01*
X2032448Y2897467D01*
X2040520Y2916954D01*
Y2938046D01*
X2032448Y2957533D01*
X2017533Y2972448D01*
X1998046Y2980520D01*
X1976954D01*
X1957467Y2972448D01*
X1945000Y2959981D01*
X1932533Y2972448D01*
X1913046Y2980520D01*
X1891954D01*
X1886743Y2978362D01*
X1882623Y2980598D01*
X1875520Y2987460D01*
Y3005546D01*
X1867448Y3025033D01*
X1860778Y3031703D01*
X1852585Y3040000D01*
X1860778Y3048297D01*
X1867448Y3054967D01*
X1875520Y3074454D01*
Y3095546D01*
X1867448Y3115033D01*
X1860778Y3121703D01*
X1852585Y3130000D01*
X1860778Y3138297D01*
X1867448Y3144967D01*
X1875520Y3164454D01*
Y3185546D01*
X1867448Y3205033D01*
X1859528Y3212953D01*
X1859415Y3213109D01*
X1864828Y3227245D01*
X1871380Y3228639D01*
X1877467Y3222552D01*
X1896954Y3214480D01*
X1918046D01*
X1937533Y3222552D01*
X1952448Y3237467D01*
X1960520Y3256954D01*
Y3278046D01*
X1952448Y3297533D01*
X1937533Y3312448D01*
X1918046Y3320520D01*
D02*
G37*
G36*
X3660546Y3670520D02*
X3639454D01*
X3619967Y3662448D01*
X3605052Y3647533D01*
X3596980Y3628046D01*
Y3606954D01*
X3605052Y3587467D01*
X3619967Y3572552D01*
X3639454Y3564480D01*
X3660546D01*
X3675794Y3570796D01*
X3689756Y3565681D01*
X3690052Y3564967D01*
X3704967Y3550052D01*
X3724454Y3541980D01*
X3742592D01*
X3749684Y3535673D01*
X3752638Y3531171D01*
Y3511954D01*
X3760710Y3492467D01*
X3760925Y3492251D01*
X3759452Y3479434D01*
X3745052Y3465033D01*
X3736980Y3445546D01*
Y3424454D01*
X3745052Y3404967D01*
X3759967Y3390052D01*
X3779454Y3381980D01*
X3800546D01*
X3820033Y3390052D01*
X3834948Y3404967D01*
X3835026Y3405154D01*
X3847082Y3407552D01*
X3866569Y3399480D01*
X3884434D01*
X3890142Y3396166D01*
X3895516Y3388987D01*
Y3371954D01*
X3903588Y3352467D01*
X3918503Y3337552D01*
X3937990Y3329480D01*
X3948399D01*
X3959297Y3323153D01*
X3959480Y3317747D01*
Y3301954D01*
X3967552Y3282467D01*
X3982467Y3267552D01*
X4001954Y3259480D01*
X4023046D01*
X4042533Y3267552D01*
X4057448Y3282467D01*
X4065520Y3301954D01*
Y3323046D01*
X4057448Y3342533D01*
X4042533Y3357448D01*
X4023046Y3365520D01*
X4012637D01*
X4001739Y3371847D01*
X4001556Y3377253D01*
Y3393046D01*
X3993484Y3412533D01*
X3978569Y3427448D01*
X3959082Y3435520D01*
X3941216D01*
X3935509Y3438834D01*
X3930135Y3446013D01*
Y3463046D01*
X3922063Y3482533D01*
X3907148Y3497448D01*
X3887661Y3505520D01*
X3869759D01*
X3864090Y3508812D01*
X3858678Y3515998D01*
Y3533046D01*
X3850606Y3552533D01*
X3835691Y3567448D01*
X3816204Y3575520D01*
X3798066D01*
X3790973Y3581827D01*
X3788020Y3586329D01*
Y3605546D01*
X3779948Y3625033D01*
X3765033Y3639948D01*
X3745546Y3648020D01*
X3724454D01*
X3709206Y3641704D01*
X3695244Y3646819D01*
X3694948Y3647533D01*
X3680033Y3662448D01*
X3660546Y3670520D01*
D02*
G37*
G36*
X1095546Y3664056D02*
X1074454D01*
X1054967Y3655984D01*
X1040052Y3641069D01*
X1031980Y3621582D01*
Y3603716D01*
X1028666Y3598009D01*
X1021487Y3592635D01*
X1004454D01*
X984967Y3584563D01*
X970052Y3569648D01*
X961980Y3550161D01*
Y3533066D01*
X955163Y3525401D01*
X950739Y3523020D01*
X931954D01*
X912467Y3514948D01*
X897552Y3500033D01*
X889480Y3480546D01*
Y3463785D01*
X884747Y3456706D01*
X878399Y3453020D01*
X861190D01*
X841703Y3444948D01*
X826789Y3430033D01*
X818717Y3410546D01*
Y3389454D01*
X826789Y3369967D01*
X837590Y3359165D01*
X840673Y3351757D01*
X837900Y3342881D01*
X827552Y3332533D01*
X819480Y3313046D01*
Y3291954D01*
X827552Y3272467D01*
X842467Y3257552D01*
X861954Y3249480D01*
X883046D01*
X902533Y3257552D01*
X917448Y3272467D01*
X925520Y3291954D01*
Y3313046D01*
X917448Y3332533D01*
X906646Y3343335D01*
X903563Y3350743D01*
X906337Y3359619D01*
X916685Y3369967D01*
X924757Y3389454D01*
Y3406215D01*
X929490Y3413294D01*
X935838Y3416980D01*
X953046D01*
X972533Y3425052D01*
X987448Y3439967D01*
X995520Y3459454D01*
Y3476549D01*
X1002337Y3484214D01*
X1006761Y3486595D01*
X1025546D01*
X1045033Y3494667D01*
X1059948Y3509582D01*
X1068020Y3529069D01*
Y3546934D01*
X1071334Y3552642D01*
X1078513Y3558016D01*
X1095546D01*
X1115033Y3566088D01*
X1129948Y3581003D01*
X1138020Y3600490D01*
Y3621582D01*
X1129948Y3641069D01*
X1115033Y3655984D01*
X1095546Y3664056D01*
D02*
G37*
G36*
X1595546Y3320520D02*
X1574454D01*
X1554967Y3312448D01*
X1540052Y3297533D01*
X1531980Y3278046D01*
Y3256954D01*
X1540052Y3237467D01*
X1554967Y3222552D01*
X1574454Y3214480D01*
X1595546D01*
X1615033Y3222552D01*
X1629948Y3237467D01*
X1638020Y3256954D01*
Y3278046D01*
X1629948Y3297533D01*
X1615033Y3312448D01*
X1595546Y3320520D01*
D02*
G37*
G36*
X4652665Y3396700D02*
X4627335D01*
X4602868Y3390144D01*
X4580932Y3377479D01*
X4563021Y3359568D01*
X4550356Y3337632D01*
X4543800Y3313165D01*
Y3287835D01*
X4550356Y3263368D01*
X4563021Y3241432D01*
X4580932Y3223521D01*
X4602868Y3210856D01*
X4627335Y3204300D01*
X4652665D01*
X4677132Y3210856D01*
X4699068Y3223521D01*
X4716979Y3241432D01*
X4729644Y3263368D01*
X4736200Y3287835D01*
Y3313165D01*
X4729644Y3337632D01*
X4716979Y3359568D01*
X4699068Y3377479D01*
X4677132Y3390144D01*
X4652665Y3396700D01*
D02*
G37*
G36*
X202665Y3396200D02*
X177335D01*
X152868Y3389644D01*
X130932Y3376979D01*
X113021Y3359068D01*
X100356Y3337132D01*
X93800Y3312665D01*
Y3287335D01*
X100356Y3262868D01*
X113021Y3240932D01*
X130932Y3223021D01*
X152868Y3210356D01*
X177335Y3203800D01*
X202665D01*
X227132Y3210356D01*
X249068Y3223021D01*
X266979Y3240932D01*
X279644Y3262868D01*
X286200Y3287335D01*
Y3312665D01*
X279644Y3337132D01*
X266979Y3359068D01*
X249068Y3376979D01*
X227132Y3389644D01*
X202665Y3396200D01*
D02*
G37*
G36*
X215400Y3144378D02*
Y3071400D01*
X288378D01*
X284676Y3085216D01*
X271300Y3108384D01*
X252384Y3127300D01*
X229216Y3140676D01*
X215400Y3144378D01*
D02*
G37*
G36*
X164600D02*
X150784Y3140676D01*
X127616Y3127300D01*
X108700Y3108384D01*
X95324Y3085216D01*
X91622Y3071400D01*
X164600D01*
Y3144378D01*
D02*
G37*
G36*
X1220546Y3173020D02*
X1199454D01*
X1179967Y3164948D01*
X1165052Y3150033D01*
X1156980Y3130546D01*
Y3109454D01*
X1165052Y3089967D01*
X1179967Y3075052D01*
X1199454Y3066980D01*
X1220546D01*
X1240033Y3075052D01*
X1254948Y3089967D01*
X1263020Y3109454D01*
Y3130546D01*
X1254948Y3150033D01*
X1240033Y3164948D01*
X1220546Y3173020D01*
D02*
G37*
G36*
X4652665Y3142700D02*
X4627335D01*
X4602868Y3136144D01*
X4580932Y3123479D01*
X4563021Y3105568D01*
X4550356Y3083632D01*
X4543800Y3059165D01*
Y3033835D01*
X4550356Y3009368D01*
X4563021Y2987432D01*
X4580932Y2969521D01*
X4602868Y2956856D01*
X4627335Y2950300D01*
X4652665D01*
X4677132Y2956856D01*
X4699068Y2969521D01*
X4716979Y2987432D01*
X4729644Y3009368D01*
X4736200Y3033835D01*
Y3059165D01*
X4729644Y3083632D01*
X4716979Y3105568D01*
X4699068Y3123479D01*
X4677132Y3136144D01*
X4652665Y3142700D01*
D02*
G37*
G36*
X288378Y3020600D02*
X215400D01*
Y2947622D01*
X229216Y2951324D01*
X252384Y2964700D01*
X271300Y2983616D01*
X284676Y3006784D01*
X288378Y3020600D01*
D02*
G37*
G36*
X164600D02*
X91622D01*
X95324Y3006784D01*
X108700Y2983616D01*
X127616Y2964700D01*
X150784Y2951324D01*
X164600Y2947622D01*
Y3020600D01*
D02*
G37*
G36*
X1415546Y2993020D02*
X1394454D01*
X1374967Y2984948D01*
X1360052Y2970033D01*
X1351980Y2950546D01*
Y2929454D01*
X1360052Y2909967D01*
X1368123Y2901895D01*
X1372061Y2891064D01*
X1367972Y2885453D01*
X1357552Y2875033D01*
X1349480Y2855546D01*
Y2834454D01*
X1357552Y2814967D01*
X1372467Y2800052D01*
X1391954Y2791980D01*
X1413046D01*
X1432533Y2800052D01*
X1447448Y2814967D01*
X1455520Y2834454D01*
Y2855546D01*
X1447448Y2875033D01*
X1439377Y2883104D01*
X1435439Y2893936D01*
X1439528Y2899547D01*
X1449948Y2909967D01*
X1458020Y2929454D01*
Y2950546D01*
X1449948Y2970033D01*
X1435033Y2984948D01*
X1415546Y2993020D01*
D02*
G37*
G36*
X3810546Y2810520D02*
X3789454D01*
X3769967Y2802448D01*
X3763297Y2795778D01*
X3755000Y2787585D01*
X3746703Y2795778D01*
X3740033Y2802448D01*
X3720546Y2810520D01*
X3699454D01*
X3679967Y2802448D01*
X3666250Y2788731D01*
X3652533Y2802448D01*
X3633046Y2810520D01*
X3611953D01*
X3592467Y2802448D01*
X3578750Y2788731D01*
X3565033Y2802448D01*
X3545546Y2810520D01*
X3524453D01*
X3504967Y2802448D01*
X3491250Y2788731D01*
X3477533Y2802448D01*
X3458046Y2810520D01*
X3436954D01*
X3417467Y2802448D01*
X3403750Y2788731D01*
X3390033Y2802448D01*
X3370546Y2810520D01*
X3349454D01*
X3329967Y2802448D01*
X3316250Y2788731D01*
X3302533Y2802448D01*
X3283046Y2810520D01*
X3261954D01*
X3242467Y2802448D01*
X3235797Y2795778D01*
X3227500Y2787585D01*
X3219203Y2795778D01*
X3212533Y2802448D01*
X3193046Y2810520D01*
X3171954D01*
X3152467Y2802448D01*
X3137552Y2787533D01*
X3129480Y2768046D01*
Y2746954D01*
X3137552Y2727467D01*
X3152467Y2712552D01*
X3171954Y2704480D01*
X3193046D01*
X3212533Y2712552D01*
X3219203Y2719222D01*
X3227500Y2727415D01*
X3235797Y2719222D01*
X3242467Y2712552D01*
X3261954Y2704480D01*
X3283046D01*
X3302533Y2712552D01*
X3316250Y2726269D01*
X3329967Y2712552D01*
X3349454Y2704480D01*
X3370546D01*
X3390033Y2712552D01*
X3403750Y2726269D01*
X3417467Y2712552D01*
X3436954Y2704480D01*
X3458046D01*
X3477533Y2712552D01*
X3491250Y2726269D01*
X3504967Y2712552D01*
X3524453Y2704480D01*
X3545546D01*
X3565033Y2712552D01*
X3578750Y2726269D01*
X3592467Y2712552D01*
X3611953Y2704480D01*
X3633046D01*
X3652533Y2712552D01*
X3666250Y2726269D01*
X3679967Y2712552D01*
X3699454Y2704480D01*
X3720546D01*
X3740033Y2712552D01*
X3746703Y2719222D01*
X3755000Y2727415D01*
X3763297Y2719222D01*
X3769967Y2712552D01*
X3789454Y2704480D01*
X3810546D01*
X3830033Y2712552D01*
X3844948Y2727467D01*
X3853020Y2746954D01*
Y2768046D01*
X3844948Y2787533D01*
X3830033Y2802448D01*
X3810546Y2810520D01*
D02*
G37*
G36*
X2425546Y2765520D02*
X2404454D01*
X2384967Y2757448D01*
X2372500Y2744981D01*
X2360033Y2757448D01*
X2340546Y2765520D01*
X2319454D01*
X2299967Y2757448D01*
X2286250Y2743731D01*
X2272533Y2757448D01*
X2253046Y2765520D01*
X2231954D01*
X2212467Y2757448D01*
X2200000Y2744981D01*
X2187533Y2757448D01*
X2168046Y2765520D01*
X2146954D01*
X2127467Y2757448D01*
X2115000Y2744982D01*
X2102533Y2757448D01*
X2083046Y2765520D01*
X2061954D01*
X2042467Y2757448D01*
X2030000Y2744981D01*
X2017533Y2757448D01*
X1998046Y2765520D01*
X1976954D01*
X1957467Y2757448D01*
X1942552Y2742533D01*
X1934480Y2723046D01*
Y2701954D01*
X1942552Y2682467D01*
X1957467Y2667552D01*
X1976954Y2659480D01*
X1998046D01*
X2017533Y2667552D01*
X2030000Y2680019D01*
X2042467Y2667552D01*
X2061954Y2659480D01*
X2083046D01*
X2102533Y2667552D01*
X2115000Y2680019D01*
X2127467Y2667552D01*
X2146954Y2659480D01*
X2168046D01*
X2187533Y2667552D01*
X2200000Y2680019D01*
X2212467Y2667552D01*
X2231954Y2659480D01*
X2253046D01*
X2272533Y2667552D01*
X2286250Y2681269D01*
X2299967Y2667552D01*
X2319454Y2659480D01*
X2340546D01*
X2360033Y2667552D01*
X2372500Y2680019D01*
X2384967Y2667552D01*
X2404454Y2659480D01*
X2425546D01*
X2445033Y2667552D01*
X2459948Y2682467D01*
X2468020Y2701954D01*
Y2723046D01*
X2459948Y2742533D01*
X2445033Y2757448D01*
X2425546Y2765520D01*
D02*
G37*
G36*
X4652665Y2888700D02*
X4627335D01*
X4602868Y2882144D01*
X4580932Y2869479D01*
X4563021Y2851568D01*
X4550356Y2829632D01*
X4543800Y2805165D01*
Y2779835D01*
X4550356Y2755368D01*
X4563021Y2733432D01*
X4580932Y2715521D01*
X4602868Y2702856D01*
X4627335Y2696300D01*
X4652665D01*
X4677132Y2702856D01*
X4699068Y2715521D01*
X4716979Y2733432D01*
X4729644Y2755368D01*
X4736200Y2779835D01*
Y2805165D01*
X4729644Y2829632D01*
X4716979Y2851568D01*
X4699068Y2869479D01*
X4677132Y2882144D01*
X4652665Y2888700D01*
D02*
G37*
G36*
X202665Y2888200D02*
X177335D01*
X152868Y2881644D01*
X130932Y2868979D01*
X113021Y2851068D01*
X100356Y2829132D01*
X93800Y2804665D01*
Y2779335D01*
X100356Y2754868D01*
X113021Y2732932D01*
X130932Y2715021D01*
X152868Y2702356D01*
X177335Y2695800D01*
X202665D01*
X227132Y2702356D01*
X249068Y2715021D01*
X266979Y2732932D01*
X279644Y2754868D01*
X286200Y2779335D01*
Y2804665D01*
X279644Y2829132D01*
X266979Y2851068D01*
X249068Y2868979D01*
X227132Y2881644D01*
X202665Y2888200D01*
D02*
G37*
G36*
X1723046Y2798020D02*
X1701954D01*
X1682467Y2789948D01*
X1667552Y2775033D01*
X1659480Y2755546D01*
Y2734454D01*
X1667552Y2714967D01*
X1682467Y2700052D01*
X1701954Y2691980D01*
X1723046D01*
X1742533Y2700052D01*
X1757448Y2714967D01*
X1765520Y2734454D01*
Y2755546D01*
X1757448Y2775033D01*
X1742533Y2789948D01*
X1723046Y2798020D01*
D02*
G37*
G36*
X1748046Y2595520D02*
X1726954D01*
X1707467Y2587448D01*
X1692552Y2572533D01*
X1684480Y2553046D01*
Y2531954D01*
X1692552Y2512467D01*
X1707467Y2497552D01*
X1726954Y2489480D01*
X1748046D01*
X1767533Y2497552D01*
X1782448Y2512467D01*
X1790520Y2531954D01*
Y2553046D01*
X1782448Y2572533D01*
X1767533Y2587448D01*
X1748046Y2595520D01*
D02*
G37*
G36*
X863046D02*
X841954D01*
X822467Y2587448D01*
X807552Y2572533D01*
X799480Y2553046D01*
Y2531954D01*
X807552Y2512467D01*
X822467Y2497552D01*
X841954Y2489480D01*
X863046D01*
X882533Y2497552D01*
X897448Y2512467D01*
X905520Y2531954D01*
Y2553046D01*
X897448Y2572533D01*
X882533Y2587448D01*
X863046Y2595520D01*
D02*
G37*
G36*
X4652665Y2634700D02*
X4627335D01*
X4602868Y2628144D01*
X4580932Y2615479D01*
X4563021Y2597568D01*
X4550356Y2575632D01*
X4543800Y2551165D01*
Y2525835D01*
X4550356Y2501368D01*
X4563021Y2479432D01*
X4580932Y2461521D01*
X4602868Y2448856D01*
X4627335Y2442300D01*
X4652665D01*
X4677132Y2448856D01*
X4699068Y2461521D01*
X4716979Y2479432D01*
X4729644Y2501368D01*
X4736200Y2525835D01*
Y2551165D01*
X4729644Y2575632D01*
X4716979Y2597568D01*
X4699068Y2615479D01*
X4677132Y2628144D01*
X4652665Y2634700D01*
D02*
G37*
G36*
X202665Y2634200D02*
X177335D01*
X152868Y2627644D01*
X130932Y2614979D01*
X113021Y2597068D01*
X100356Y2575132D01*
X93800Y2550665D01*
Y2525335D01*
X100356Y2500868D01*
X113021Y2478932D01*
X130932Y2461021D01*
X152868Y2448356D01*
X177335Y2441800D01*
X202665D01*
X227132Y2448356D01*
X249068Y2461021D01*
X266979Y2478932D01*
X279644Y2500868D01*
X286200Y2525335D01*
Y2550665D01*
X279644Y2575132D01*
X266979Y2597068D01*
X249068Y2614979D01*
X227132Y2627644D01*
X202665Y2634200D01*
D02*
G37*
G36*
X1740546Y2418020D02*
X1719454D01*
X1699967Y2409948D01*
X1688297Y2398278D01*
X1685018Y2395040D01*
X1672372Y2397609D01*
X1665033Y2404948D01*
X1645546Y2413020D01*
X1624453D01*
X1604967Y2404948D01*
X1590052Y2390033D01*
X1581980Y2370546D01*
Y2349454D01*
X1590052Y2329967D01*
X1604967Y2315052D01*
X1624453Y2306980D01*
X1645546D01*
X1665033Y2315052D01*
X1676703Y2326722D01*
X1679982Y2329960D01*
X1692628Y2327391D01*
X1699967Y2320052D01*
X1719454Y2311980D01*
X1740546D01*
X1760033Y2320052D01*
X1774948Y2334967D01*
X1783020Y2354454D01*
Y2375546D01*
X1774948Y2395033D01*
X1760033Y2409948D01*
X1740546Y2418020D01*
D02*
G37*
G36*
X3368046Y2440520D02*
X3346954D01*
X3327467Y2432448D01*
X3312552Y2417533D01*
X3304480Y2398046D01*
Y2376954D01*
X3312552Y2357467D01*
X3327467Y2342552D01*
X3346954Y2334480D01*
X3368046D01*
X3387533Y2342552D01*
X3402448Y2357467D01*
X3410520Y2376954D01*
Y2398046D01*
X3402448Y2417533D01*
X3387533Y2432448D01*
X3368046Y2440520D01*
D02*
G37*
G36*
X2790546Y2435520D02*
X2769454D01*
X2749967Y2427448D01*
X2735052Y2412533D01*
X2726980Y2393046D01*
Y2371954D01*
X2735052Y2352467D01*
X2749967Y2337552D01*
X2769454Y2329480D01*
X2790546D01*
X2810033Y2337552D01*
X2824948Y2352467D01*
X2833020Y2371954D01*
Y2393046D01*
X2824948Y2412533D01*
X2810033Y2427448D01*
X2790546Y2435520D01*
D02*
G37*
G36*
X1480546Y2418020D02*
X1459454D01*
X1439967Y2409948D01*
X1425052Y2395033D01*
X1416980Y2375546D01*
Y2354454D01*
X1425052Y2334967D01*
X1439967Y2320052D01*
X1459454Y2311980D01*
X1471538D01*
X1476799Y2299280D01*
X1470052Y2292533D01*
X1461980Y2273046D01*
Y2251954D01*
X1470052Y2232467D01*
X1484967Y2217552D01*
X1504454Y2209480D01*
X1525546D01*
X1545033Y2217552D01*
X1559948Y2232467D01*
X1568020Y2251954D01*
Y2273046D01*
X1559948Y2292533D01*
X1545033Y2307448D01*
X1525546Y2315520D01*
X1513462D01*
X1508201Y2328220D01*
X1514948Y2334967D01*
X1523020Y2354454D01*
Y2375546D01*
X1514948Y2395033D01*
X1500033Y2409948D01*
X1480546Y2418020D01*
D02*
G37*
G36*
X4652665Y2380700D02*
X4627335D01*
X4602868Y2374144D01*
X4580932Y2361479D01*
X4563021Y2343568D01*
X4550356Y2321632D01*
X4543800Y2297165D01*
Y2271835D01*
X4550356Y2247368D01*
X4563021Y2225432D01*
X4580932Y2207521D01*
X4602868Y2194856D01*
X4627335Y2188300D01*
X4652665D01*
X4677132Y2194856D01*
X4699068Y2207521D01*
X4716979Y2225432D01*
X4729644Y2247368D01*
X4736200Y2271835D01*
Y2297165D01*
X4729644Y2321632D01*
X4716979Y2343568D01*
X4699068Y2361479D01*
X4677132Y2374144D01*
X4652665Y2380700D01*
D02*
G37*
G36*
X202665Y2380200D02*
X177335D01*
X152868Y2373644D01*
X130932Y2360979D01*
X113021Y2343068D01*
X100356Y2321132D01*
X93800Y2296665D01*
Y2271335D01*
X100356Y2246868D01*
X113021Y2224932D01*
X130932Y2207021D01*
X152868Y2194356D01*
X177335Y2187800D01*
X202665D01*
X227132Y2194356D01*
X249068Y2207021D01*
X266979Y2224932D01*
X279644Y2246868D01*
X286200Y2271335D01*
Y2296665D01*
X279644Y2321132D01*
X266979Y2343068D01*
X249068Y2360979D01*
X227132Y2373644D01*
X202665Y2380200D01*
D02*
G37*
G36*
X2753046Y2240520D02*
X2731954D01*
X2712467Y2232448D01*
X2697552Y2217533D01*
X2689480Y2198046D01*
Y2176954D01*
X2697552Y2157467D01*
X2712467Y2142552D01*
X2731954Y2134480D01*
X2753046D01*
X2772533Y2142552D01*
X2787448Y2157467D01*
X2795520Y2176954D01*
Y2198046D01*
X2787448Y2217533D01*
X2772533Y2232448D01*
X2753046Y2240520D01*
D02*
G37*
G36*
X4652665Y2126700D02*
X4627335D01*
X4602868Y2120144D01*
X4580932Y2107479D01*
X4563021Y2089568D01*
X4550356Y2067632D01*
X4543800Y2043165D01*
Y2017835D01*
X4550356Y1993368D01*
X4563021Y1971432D01*
X4580932Y1953521D01*
X4602868Y1940856D01*
X4627335Y1934300D01*
X4652665D01*
X4677132Y1940856D01*
X4699068Y1953521D01*
X4716979Y1971432D01*
X4729644Y1993368D01*
X4736200Y2017835D01*
Y2043165D01*
X4729644Y2067632D01*
X4716979Y2089568D01*
X4699068Y2107479D01*
X4677132Y2120144D01*
X4652665Y2126700D01*
D02*
G37*
G36*
X202665Y2126200D02*
X177335D01*
X152868Y2119644D01*
X130932Y2106979D01*
X113021Y2089068D01*
X100356Y2067132D01*
X93800Y2042665D01*
Y2017335D01*
X100356Y1992868D01*
X113021Y1970932D01*
X130932Y1953021D01*
X152868Y1940356D01*
X177335Y1933800D01*
X202665D01*
X227132Y1940356D01*
X249068Y1953021D01*
X266979Y1970932D01*
X279644Y1992868D01*
X286200Y2017335D01*
Y2042665D01*
X279644Y2067132D01*
X266979Y2089068D01*
X249068Y2106979D01*
X227132Y2119644D01*
X202665Y2126200D01*
D02*
G37*
G36*
X3215547Y2038020D02*
X3194454D01*
X3174967Y2029948D01*
X3160052Y2015033D01*
X3151980Y1995546D01*
Y1974454D01*
X3160052Y1954967D01*
X3174967Y1940052D01*
X3194454Y1931980D01*
X3215547D01*
X3235033Y1940052D01*
X3249948Y1954967D01*
X3258020Y1974454D01*
Y1995546D01*
X3249948Y2015033D01*
X3235033Y2029948D01*
X3215547Y2038020D01*
D02*
G37*
G36*
X3769452Y2297500D02*
X3730548D01*
X3692391Y2289910D01*
X3656449Y2275022D01*
X3624101Y2253408D01*
X3596592Y2225899D01*
X3574978Y2193551D01*
X3560090Y2157609D01*
X3552500Y2119452D01*
Y2080548D01*
X3560090Y2042391D01*
X3574978Y2006449D01*
X3596592Y1974101D01*
X3624101Y1946592D01*
X3656449Y1924978D01*
X3692391Y1910090D01*
X3730548Y1902500D01*
X3769452D01*
X3807609Y1910090D01*
X3843551Y1924978D01*
X3875899Y1946592D01*
X3903408Y1974101D01*
X3925022Y2006449D01*
X3939910Y2042391D01*
X3947500Y2080548D01*
Y2119452D01*
X3939910Y2157609D01*
X3925022Y2193551D01*
X3903408Y2225899D01*
X3875899Y2253408D01*
X3843551Y2275022D01*
X3807609Y2289910D01*
X3769452Y2297500D01*
D02*
G37*
G36*
X1069452D02*
X1030548D01*
X992391Y2289910D01*
X956449Y2275022D01*
X924101Y2253408D01*
X896592Y2225899D01*
X874978Y2193551D01*
X860090Y2157609D01*
X852500Y2119452D01*
Y2080548D01*
X860090Y2042391D01*
X874978Y2006449D01*
X896592Y1974101D01*
X924101Y1946592D01*
X956449Y1924978D01*
X992391Y1910090D01*
X1030548Y1902500D01*
X1069452D01*
X1107609Y1910090D01*
X1143551Y1924978D01*
X1175899Y1946592D01*
X1203408Y1974101D01*
X1225022Y2006449D01*
X1239910Y2042391D01*
X1247500Y2080548D01*
Y2119452D01*
X1239910Y2157609D01*
X1225022Y2193551D01*
X1203408Y2225899D01*
X1175899Y2253408D01*
X1143551Y2275022D01*
X1107609Y2289910D01*
X1069452Y2297500D01*
D02*
G37*
G36*
X2288046Y1985520D02*
X2266954D01*
X2247467Y1977448D01*
X2232552Y1962534D01*
X2224480Y1943047D01*
Y1921954D01*
X2232552Y1902467D01*
X2247467Y1887552D01*
X2266954Y1879480D01*
X2288046D01*
X2307533Y1887552D01*
X2322448Y1902467D01*
X2330520Y1921954D01*
Y1943047D01*
X2322448Y1962534D01*
X2307533Y1977448D01*
X2288046Y1985520D01*
D02*
G37*
G36*
X4665400Y1874878D02*
Y1801900D01*
X4738378D01*
X4734676Y1815716D01*
X4721300Y1838884D01*
X4702384Y1857800D01*
X4679216Y1871176D01*
X4665400Y1874878D01*
D02*
G37*
G36*
X4614600Y1874878D02*
X4600784Y1871176D01*
X4577616Y1857800D01*
X4558700Y1838884D01*
X4545324Y1815716D01*
X4541622Y1801900D01*
X4614600D01*
Y1874878D01*
D02*
G37*
G36*
X1655546Y1873020D02*
X1634454D01*
X1614967Y1864948D01*
X1600052Y1850033D01*
X1591980Y1830546D01*
Y1809454D01*
X1600052Y1789967D01*
X1614967Y1775052D01*
X1634454Y1766980D01*
X1655546D01*
X1675033Y1775052D01*
X1689948Y1789967D01*
X1698020Y1809454D01*
Y1830546D01*
X1689948Y1850033D01*
X1675033Y1864948D01*
X1655546Y1873020D01*
D02*
G37*
G36*
X1395546Y1868020D02*
X1374454D01*
X1354967Y1859948D01*
X1340052Y1845033D01*
X1331980Y1825546D01*
Y1804454D01*
X1340052Y1784967D01*
X1354967Y1770052D01*
X1374454Y1761980D01*
X1395546D01*
X1415033Y1770052D01*
X1429948Y1784967D01*
X1438020Y1804454D01*
Y1825546D01*
X1429948Y1845033D01*
X1415033Y1859948D01*
X1395546Y1868020D01*
D02*
G37*
G36*
X202665Y1872200D02*
X177335D01*
X152868Y1865644D01*
X130932Y1852979D01*
X113021Y1835068D01*
X100356Y1813132D01*
X93800Y1788665D01*
Y1763335D01*
X100356Y1738868D01*
X113021Y1716932D01*
X130932Y1699021D01*
X152868Y1686356D01*
X177335Y1679800D01*
X202665D01*
X227132Y1686356D01*
X249068Y1699021D01*
X266979Y1716932D01*
X279644Y1738868D01*
X286200Y1763335D01*
Y1788665D01*
X279644Y1813132D01*
X266979Y1835068D01*
X249068Y1852979D01*
X227132Y1865644D01*
X202665Y1872200D01*
D02*
G37*
G36*
X4614600Y1751100D02*
X4541622D01*
X4545324Y1737284D01*
X4558700Y1714116D01*
X4577616Y1695200D01*
X4600784Y1681824D01*
X4614600Y1678122D01*
Y1751100D01*
D02*
G37*
G36*
X4738378D02*
X4665400D01*
Y1678122D01*
X4679216Y1681824D01*
X4702384Y1695200D01*
X4721300Y1714116D01*
X4734676Y1737284D01*
X4738378Y1751100D01*
D02*
G37*
G36*
X2780546Y1720520D02*
X2759454D01*
X2739967Y1712448D01*
X2725052Y1697533D01*
X2716980Y1678046D01*
Y1656954D01*
X2725052Y1637467D01*
X2739967Y1622552D01*
X2759454Y1614480D01*
X2780546D01*
X2800033Y1622552D01*
X2814948Y1637467D01*
X2823020Y1656954D01*
Y1678046D01*
X2814948Y1697533D01*
X2800033Y1712448D01*
X2780546Y1720520D01*
D02*
G37*
G36*
X3080546Y1593020D02*
X3059454D01*
X3039967Y1584948D01*
X3025052Y1570033D01*
X3016980Y1550546D01*
Y1529454D01*
X3025052Y1509967D01*
X3039967Y1495052D01*
X3059454Y1486980D01*
X3080546D01*
X3100033Y1495052D01*
X3114948Y1509967D01*
X3123020Y1529454D01*
Y1550546D01*
X3114948Y1570033D01*
X3100033Y1584948D01*
X3080546Y1593020D01*
D02*
G37*
G36*
X3969636Y1690203D02*
X3949954Y1687612D01*
X3931613Y1680014D01*
X3915863Y1667929D01*
X3903777Y1652179D01*
X3896180Y1633837D01*
X3893589Y1614155D01*
X3896180Y1594472D01*
X3903777Y1576131D01*
X3915863Y1560381D01*
X3994206Y1482037D01*
X4009956Y1469952D01*
X4028298Y1462355D01*
X4047980Y1459764D01*
X4067663Y1462354D01*
X4086004Y1469952D01*
X4101754Y1482037D01*
X4113840Y1497787D01*
X4121437Y1516129D01*
X4124028Y1535811D01*
X4121437Y1555494D01*
X4113840Y1573835D01*
X4101754Y1589585D01*
X4023410Y1667929D01*
X4007660Y1680014D01*
X3989319Y1687612D01*
X3969636Y1690203D01*
D02*
G37*
G36*
X4652665Y1618700D02*
X4627335D01*
X4602868Y1612144D01*
X4580932Y1599479D01*
X4563021Y1581568D01*
X4550356Y1559632D01*
X4543800Y1535165D01*
Y1509835D01*
X4550356Y1485368D01*
X4563021Y1463432D01*
X4580932Y1445521D01*
X4602868Y1432856D01*
X4627335Y1426300D01*
X4652665D01*
X4677132Y1432856D01*
X4699068Y1445521D01*
X4716979Y1463432D01*
X4729644Y1485368D01*
X4736200Y1509835D01*
Y1535165D01*
X4729644Y1559632D01*
X4716979Y1581568D01*
X4699068Y1599479D01*
X4677132Y1612144D01*
X4652665Y1618700D01*
D02*
G37*
G36*
X202665Y1618200D02*
X177335D01*
X152868Y1611644D01*
X130932Y1598979D01*
X113021Y1581068D01*
X100356Y1559132D01*
X93800Y1534665D01*
Y1509335D01*
X100356Y1484869D01*
X113021Y1462932D01*
X130932Y1445021D01*
X152868Y1432356D01*
X177335Y1425800D01*
X202665D01*
X227132Y1432356D01*
X249068Y1445021D01*
X266979Y1462932D01*
X279644Y1484869D01*
X286200Y1509335D01*
Y1534665D01*
X279644Y1559132D01*
X266979Y1581068D01*
X249068Y1598979D01*
X227132Y1611644D01*
X202665Y1618200D01*
D02*
G37*
G36*
X1703046Y1523020D02*
X1681954D01*
X1662467Y1514948D01*
X1647552Y1500033D01*
X1639480Y1480546D01*
Y1459454D01*
X1647552Y1439967D01*
X1662467Y1425052D01*
X1681954Y1416980D01*
X1703046D01*
X1722533Y1425052D01*
X1737448Y1439967D01*
X1745520Y1459454D01*
Y1480546D01*
X1737448Y1500033D01*
X1722533Y1514948D01*
X1703046Y1523020D01*
D02*
G37*
G36*
X1365555Y1679661D02*
X1327702Y1674678D01*
X1292429Y1660068D01*
X1262139Y1636826D01*
X1238897Y1606536D01*
X1224287Y1571263D01*
X1219304Y1533410D01*
X1224287Y1495558D01*
X1238897Y1460285D01*
X1262139Y1429995D01*
X1292429Y1406753D01*
X1327702Y1392143D01*
X1365555Y1387160D01*
X1403407Y1392143D01*
X1438680Y1406753D01*
X1468970Y1429995D01*
X1492212Y1460285D01*
X1506822Y1495558D01*
X1511805Y1533410D01*
X1506822Y1571263D01*
X1492212Y1606536D01*
X1468970Y1636826D01*
X1438680Y1660068D01*
X1403407Y1674678D01*
X1365555Y1679661D01*
D02*
G37*
G36*
X3952132Y1490243D02*
X3931246D01*
X3911951Y1482251D01*
X3897182Y1467482D01*
X3889190Y1448187D01*
Y1427301D01*
X3897182Y1408005D01*
X3911951Y1393237D01*
X3931246Y1385245D01*
X3952132D01*
X3971428Y1393237D01*
X3986196Y1408005D01*
X3994188Y1427301D01*
Y1448187D01*
X3986196Y1467482D01*
X3971428Y1482251D01*
X3952132Y1490243D01*
D02*
G37*
G36*
X1026143Y1587737D02*
X988290Y1582754D01*
X953018Y1568144D01*
X922728Y1544902D01*
X899486Y1514612D01*
X884876Y1479339D01*
X879892Y1441487D01*
X884876Y1403634D01*
X899486Y1368361D01*
X922728Y1338071D01*
X953018Y1314829D01*
X988290Y1300219D01*
X1026143Y1295236D01*
X1063996Y1300219D01*
X1099268Y1314829D01*
X1129558Y1338071D01*
X1152800Y1368361D01*
X1167410Y1403634D01*
X1172394Y1441487D01*
X1167410Y1479339D01*
X1152800Y1514612D01*
X1129558Y1544902D01*
X1099268Y1568144D01*
X1063996Y1582754D01*
X1026143Y1587737D01*
D02*
G37*
G36*
X430546Y1322751D02*
X409454D01*
X389967Y1314679D01*
X375052Y1299764D01*
X366980Y1280277D01*
Y1259185D01*
X375052Y1239698D01*
X389967Y1224783D01*
X409454Y1216711D01*
X430546D01*
X450033Y1224783D01*
X464948Y1239698D01*
X473020Y1259185D01*
Y1280277D01*
X464948Y1299764D01*
X450033Y1314679D01*
X430546Y1322751D01*
D02*
G37*
G36*
X3080546Y1300520D02*
X3059454D01*
X3039967Y1292448D01*
X3025052Y1277533D01*
X3016980Y1258047D01*
Y1236954D01*
X3025052Y1217467D01*
X3039967Y1202552D01*
X3059454Y1194480D01*
X3080546D01*
X3100033Y1202552D01*
X3114948Y1217467D01*
X3123020Y1236954D01*
Y1258047D01*
X3114948Y1277533D01*
X3100033Y1292448D01*
X3080546Y1300520D01*
D02*
G37*
G36*
X4265212Y1394626D02*
X4245530Y1392036D01*
X4227189Y1384438D01*
X4211439Y1372353D01*
X4199353Y1356603D01*
X4191756Y1338261D01*
X4189165Y1318579D01*
X4191756Y1298896D01*
X4199353Y1280555D01*
X4211439Y1264805D01*
X4289782Y1186461D01*
X4305532Y1174376D01*
X4323874Y1166778D01*
X4343556Y1164187D01*
X4363239Y1166778D01*
X4381580Y1174376D01*
X4397330Y1186461D01*
X4409416Y1202211D01*
X4417013Y1220553D01*
X4419604Y1240235D01*
X4417013Y1259917D01*
X4409416Y1278259D01*
X4397330Y1294009D01*
X4318986Y1372353D01*
X4303236Y1384438D01*
X4284895Y1392036D01*
X4265212Y1394626D01*
D02*
G37*
G36*
X3850546Y1205520D02*
X3829454D01*
X3809967Y1197448D01*
X3795052Y1182533D01*
X3786980Y1163046D01*
Y1141954D01*
X3795052Y1122467D01*
X3809967Y1107552D01*
X3829454Y1099480D01*
X3850546D01*
X3870033Y1107552D01*
X3884948Y1122467D01*
X3893020Y1141954D01*
Y1163046D01*
X3884948Y1182533D01*
X3870033Y1197448D01*
X3850546Y1205520D01*
D02*
G37*
G36*
X1083046Y1174098D02*
X1061954D01*
X1042467Y1166027D01*
X1027552Y1151112D01*
X1019480Y1131625D01*
Y1110532D01*
X1027552Y1091045D01*
X1042467Y1076130D01*
X1061954Y1068059D01*
X1083046D01*
X1102533Y1076130D01*
X1117448Y1091045D01*
X1125520Y1110532D01*
Y1131625D01*
X1117448Y1151112D01*
X1102533Y1166027D01*
X1083046Y1174098D01*
D02*
G37*
G36*
X1273630Y1340250D02*
X1235778Y1335267D01*
X1200505Y1320656D01*
X1170215Y1297414D01*
X1146973Y1267125D01*
X1132363Y1231852D01*
X1127380Y1193999D01*
X1132363Y1156147D01*
X1146973Y1120874D01*
X1170215Y1090584D01*
X1200505Y1067342D01*
X1235778Y1052732D01*
X1273630Y1047748D01*
X1311483Y1052732D01*
X1346756Y1067342D01*
X1377046Y1090584D01*
X1400288Y1120874D01*
X1414898Y1156147D01*
X1419881Y1193999D01*
X1414898Y1231852D01*
X1400288Y1267125D01*
X1377046Y1297414D01*
X1346756Y1320656D01*
X1311483Y1335267D01*
X1273630Y1340250D01*
D02*
G37*
G36*
X3543778Y1081889D02*
X3522892D01*
X3503596Y1073896D01*
X3488828Y1059128D01*
X3480836Y1039832D01*
Y1018947D01*
X3488828Y999651D01*
X3503596Y984883D01*
X3522892Y976891D01*
X3543778D01*
X3563074Y984883D01*
X3577842Y999651D01*
X3585834Y1018947D01*
Y1039832D01*
X3577842Y1059128D01*
X3563074Y1073896D01*
X3543778Y1081889D01*
D02*
G37*
G36*
X790546Y1050520D02*
X769453D01*
X749966Y1042448D01*
X735052Y1027533D01*
X726980Y1008046D01*
Y986954D01*
X735052Y967467D01*
X749966Y952552D01*
X769453Y944480D01*
X790546D01*
X810033Y952552D01*
X824948Y967467D01*
X833020Y986954D01*
Y1008046D01*
X824948Y1027533D01*
X810033Y1042448D01*
X790546Y1050520D01*
D02*
G37*
G36*
X1958046Y1008020D02*
X1936954D01*
X1917467Y999948D01*
X1902552Y985033D01*
X1894480Y965546D01*
Y944454D01*
X1902552Y924967D01*
X1917467Y910052D01*
X1936954Y901980D01*
X1958046D01*
X1977533Y910052D01*
X1992448Y924967D01*
X2000520Y944454D01*
Y965546D01*
X1992448Y985033D01*
X1977533Y999948D01*
X1958046Y1008020D01*
D02*
G37*
G36*
X3358692Y1079258D02*
X3339009Y1076667D01*
X3320668Y1069069D01*
X3304918Y1056984D01*
X3292832Y1041234D01*
X3285235Y1022893D01*
X3282644Y1003210D01*
X3285235Y983528D01*
X3292832Y965186D01*
X3304918Y949436D01*
X3383261Y871092D01*
X3399011Y859007D01*
X3417353Y851410D01*
X3437035Y848819D01*
X3456718Y851410D01*
X3475059Y859007D01*
X3490809Y871092D01*
X3502895Y886843D01*
X3510492Y905184D01*
X3513083Y924866D01*
X3510492Y944549D01*
X3502895Y962890D01*
X3490809Y978640D01*
X3412465Y1056984D01*
X3396715Y1069069D01*
X3378374Y1076667D01*
X3358692Y1079258D01*
D02*
G37*
G36*
X2563046Y753020D02*
X2541954D01*
X2522467Y744948D01*
X2507552Y730033D01*
X2499480Y710546D01*
Y689454D01*
X2507552Y669967D01*
X2522467Y655052D01*
X2541954Y646980D01*
X2563046D01*
X2582533Y655052D01*
X2597448Y669967D01*
X2605520Y689454D01*
Y710546D01*
X2597448Y730033D01*
X2582533Y744948D01*
X2563046Y753020D01*
D02*
G37*
G36*
X2075546Y695520D02*
X2054454D01*
X2034967Y687448D01*
X2020052Y672533D01*
X2011980Y653046D01*
Y631954D01*
X2020052Y612467D01*
X2034967Y597552D01*
X2054454Y589480D01*
X2075546D01*
X2095033Y597552D01*
X2109948Y612467D01*
X2118020Y631954D01*
Y653046D01*
X2109948Y672533D01*
X2095033Y687448D01*
X2075546Y695520D01*
D02*
G37*
G36*
X1087777Y665520D02*
X1066685D01*
X1047198Y657448D01*
X1032283Y642533D01*
X1024211Y623046D01*
Y601954D01*
X1032283Y582467D01*
X1047198Y567552D01*
X1066685Y559480D01*
X1087777D01*
X1107264Y567552D01*
X1122179Y582467D01*
X1130251Y601954D01*
Y623046D01*
X1122179Y642533D01*
X1107264Y657448D01*
X1087777Y665520D01*
D02*
G37*
G36*
X3654268Y783682D02*
X3634585Y781091D01*
X3616244Y773493D01*
X3600494Y761408D01*
X3588408Y745658D01*
X3580811Y727317D01*
X3578220Y707634D01*
X3580811Y687952D01*
X3588408Y669610D01*
X3600494Y653860D01*
X3678838Y575517D01*
X3694588Y563431D01*
X3712929Y555834D01*
X3732612Y553243D01*
X3752294Y555834D01*
X3770635Y563431D01*
X3786385Y575517D01*
X3798471Y591267D01*
X3806068Y609608D01*
X3808659Y629290D01*
X3806068Y648973D01*
X3798471Y667314D01*
X3786385Y683064D01*
X3708042Y761408D01*
X3692292Y773493D01*
X3673950Y781091D01*
X3654268Y783682D01*
D02*
G37*
G36*
X3441797Y426001D02*
X3415203D01*
X3389515Y419118D01*
X3366484Y405821D01*
X3347679Y387016D01*
X3334382Y363985D01*
X3327499Y338297D01*
Y311703D01*
X3334382Y286015D01*
X3347679Y262984D01*
X3366484Y244180D01*
X3389515Y230883D01*
X3415203Y224000D01*
X3441797D01*
X3467485Y230883D01*
X3490516Y244180D01*
X3509320Y262984D01*
X3522617Y286015D01*
X3529500Y311703D01*
Y338297D01*
X3522617Y363985D01*
X3509320Y387016D01*
X3490516Y405821D01*
X3467485Y419118D01*
X3441797Y426001D01*
D02*
G37*
G36*
X3187797D02*
X3161203D01*
X3135515Y419118D01*
X3112484Y405821D01*
X3093679Y387016D01*
X3080382Y363985D01*
X3073499Y338297D01*
Y311703D01*
X3080382Y286015D01*
X3093679Y262984D01*
X3112484Y244180D01*
X3135515Y230883D01*
X3161203Y224000D01*
X3187797D01*
X3213485Y230883D01*
X3236516Y244180D01*
X3255320Y262984D01*
X3268617Y286015D01*
X3275500Y311703D01*
Y338297D01*
X3268617Y363985D01*
X3255320Y387016D01*
X3236516Y405821D01*
X3213485Y419118D01*
X3187797Y426001D01*
D02*
G37*
G36*
X2933797D02*
X2907203D01*
X2881515Y419118D01*
X2858484Y405821D01*
X2839679Y387016D01*
X2826382Y363985D01*
X2819499Y338297D01*
Y311703D01*
X2826382Y286015D01*
X2839679Y262984D01*
X2858484Y244180D01*
X2881515Y230883D01*
X2907203Y224000D01*
X2933797D01*
X2959485Y230883D01*
X2982516Y244180D01*
X3001320Y262984D01*
X3014617Y286015D01*
X3021500Y311703D01*
Y338297D01*
X3014617Y363985D01*
X3001320Y387016D01*
X2982516Y405821D01*
X2959485Y419118D01*
X2933797Y426001D01*
D02*
G37*
G36*
X2679797D02*
X2653203D01*
X2627515Y419118D01*
X2604484Y405821D01*
X2585679Y387016D01*
X2572382Y363985D01*
X2565499Y338297D01*
Y311703D01*
X2572382Y286015D01*
X2585679Y262984D01*
X2604484Y244180D01*
X2627515Y230883D01*
X2653203Y224000D01*
X2679797D01*
X2705485Y230883D01*
X2728516Y244180D01*
X2747320Y262984D01*
X2760617Y286015D01*
X2767500Y311703D01*
Y338297D01*
X2760617Y363985D01*
X2747320Y387016D01*
X2728516Y405821D01*
X2705485Y419118D01*
X2679797Y426001D01*
D02*
G37*
G36*
X2425797D02*
X2399203D01*
X2373515Y419118D01*
X2350484Y405821D01*
X2331679Y387016D01*
X2318382Y363985D01*
X2311499Y338297D01*
Y311703D01*
X2318382Y286015D01*
X2331679Y262984D01*
X2350484Y244180D01*
X2373515Y230883D01*
X2399203Y224000D01*
X2425797D01*
X2451485Y230883D01*
X2474516Y244180D01*
X2493320Y262984D01*
X2506617Y286015D01*
X2513500Y311703D01*
Y338297D01*
X2506617Y363985D01*
X2493320Y387016D01*
X2474516Y405821D01*
X2451485Y419118D01*
X2425797Y426001D01*
D02*
G37*
G36*
X2171797D02*
X2145203D01*
X2119515Y419118D01*
X2096484Y405821D01*
X2077679Y387016D01*
X2064382Y363985D01*
X2057499Y338297D01*
Y311703D01*
X2064382Y286015D01*
X2077679Y262984D01*
X2096484Y244180D01*
X2119515Y230883D01*
X2145203Y224000D01*
X2171797D01*
X2197485Y230883D01*
X2220516Y244180D01*
X2239320Y262984D01*
X2252617Y286015D01*
X2259500Y311703D01*
Y338297D01*
X2252617Y363985D01*
X2239320Y387016D01*
X2220516Y405821D01*
X2197485Y419118D01*
X2171797Y426001D01*
D02*
G37*
G36*
X1917797D02*
X1891203D01*
X1865515Y419118D01*
X1842484Y405821D01*
X1823679Y387016D01*
X1810382Y363985D01*
X1803499Y338297D01*
Y311703D01*
X1810382Y286015D01*
X1823679Y262984D01*
X1842484Y244180D01*
X1865515Y230883D01*
X1891203Y224000D01*
X1917797D01*
X1943485Y230883D01*
X1966516Y244180D01*
X1985320Y262984D01*
X1998617Y286015D01*
X2005500Y311703D01*
Y338297D01*
X1998617Y363985D01*
X1985320Y387016D01*
X1966516Y405821D01*
X1943485Y419118D01*
X1917797Y426001D01*
D02*
G37*
G36*
X1663797D02*
X1637203D01*
X1611515Y419118D01*
X1588484Y405821D01*
X1569679Y387016D01*
X1556382Y363985D01*
X1549499Y338297D01*
Y311703D01*
X1556382Y286015D01*
X1569679Y262984D01*
X1588484Y244180D01*
X1611515Y230883D01*
X1637203Y224000D01*
X1663797D01*
X1689485Y230883D01*
X1712516Y244180D01*
X1731320Y262984D01*
X1744617Y286015D01*
X1751500Y311703D01*
Y338297D01*
X1744617Y363985D01*
X1731320Y387016D01*
X1712516Y405821D01*
X1689485Y419118D01*
X1663797Y426001D01*
D02*
G37*
G36*
X1409797D02*
X1383203D01*
X1357515Y419118D01*
X1334484Y405821D01*
X1315679Y387016D01*
X1302382Y363985D01*
X1295499Y338297D01*
Y311703D01*
X1302382Y286015D01*
X1315679Y262984D01*
X1334484Y244180D01*
X1357515Y230883D01*
X1383203Y224000D01*
X1409797D01*
X1435485Y230883D01*
X1458516Y244180D01*
X1477320Y262984D01*
X1490617Y286015D01*
X1497500Y311703D01*
Y338297D01*
X1490617Y363985D01*
X1477320Y387016D01*
X1458516Y405821D01*
X1435485Y419118D01*
X1409797Y426001D01*
D02*
G37*
%LPD*%
D40*
X1396500Y325000D02*
D03*
X1650500D02*
D03*
X1904500D02*
D03*
X2158500D02*
D03*
X2412500D02*
D03*
X2666500D02*
D03*
X2920500D02*
D03*
X3174500D02*
D03*
X3428500D02*
D03*
D41*
X4640000Y3300500D02*
D03*
Y3046500D02*
D03*
Y2792500D02*
D03*
Y2538500D02*
D03*
Y2284500D02*
D03*
Y2030500D02*
D03*
Y1776500D02*
D03*
Y1522500D02*
D03*
X190000Y1522000D02*
D03*
Y1776000D02*
D03*
Y2030000D02*
D03*
Y2284000D02*
D03*
Y2538000D02*
D03*
Y2792000D02*
D03*
Y3046000D02*
D03*
Y3300000D02*
D03*
D42*
X3533335Y1029390D02*
D03*
X3941689Y1437744D02*
D03*
D43*
X3397863Y964038D02*
D03*
X4008808Y1574983D02*
D03*
X4304384Y1279407D02*
D03*
X3693440Y668462D02*
D03*
D44*
X3750000Y2100000D02*
D03*
X1050000D02*
D03*
D45*
X1470000Y2365000D02*
D03*
X852500Y2542500D02*
D03*
X1712500Y2745000D02*
D03*
X872500Y3302500D02*
D03*
X2415000Y2712500D02*
D03*
X2372500Y2645000D02*
D03*
X1822500Y3267500D02*
D03*
X3800000Y2757500D02*
D03*
X3710000D02*
D03*
X3790000Y3435000D02*
D03*
X3650000Y3617500D02*
D03*
X1912500Y3522500D02*
D03*
X3182500Y2757500D02*
D03*
X1805000Y2912500D02*
D03*
X1907500Y3267500D02*
D03*
X1822500Y3387500D02*
D03*
X1825000Y3520000D02*
D03*
Y3642500D02*
D03*
X2602500Y2380000D02*
D03*
X2780000Y2382500D02*
D03*
X4012500Y3312500D02*
D03*
X1925000Y2357500D02*
D03*
X1737500Y2542500D02*
D03*
X2552500Y700000D02*
D03*
X2065000Y642500D02*
D03*
X2742500Y2187500D02*
D03*
X3070000Y1247500D02*
D03*
X1947500Y955000D02*
D03*
X3070000Y1540000D02*
D03*
X1645000Y1820000D02*
D03*
X3205000Y1985000D02*
D03*
X2427500Y2155000D02*
D03*
X2277500Y1932500D02*
D03*
X2340000Y1410000D02*
D03*
X3230000Y3460000D02*
D03*
X1625000Y3927500D02*
D03*
X1072500Y1121079D02*
D03*
X1385000Y1815000D02*
D03*
X1515000Y2262500D02*
D03*
X1730000Y2365000D02*
D03*
X2330000Y2712500D02*
D03*
X2242500D02*
D03*
X2157500D02*
D03*
X2072500D02*
D03*
X1987500D02*
D03*
X2055000Y2322500D02*
D03*
X1635000Y2360000D02*
D03*
X3840000Y1152500D02*
D03*
X1692500Y1470000D02*
D03*
X2770000Y1667500D02*
D03*
X3357500Y2387500D02*
D03*
X1402500Y2845000D02*
D03*
X1405000Y2940000D02*
D03*
X420000Y1269731D02*
D03*
X1077231Y612500D02*
D03*
X780000Y997500D02*
D03*
X1210000Y3120000D02*
D03*
X1290000Y3465000D02*
D03*
X1585000Y3392500D02*
D03*
X3948536Y3382500D02*
D03*
X3877115Y3452500D02*
D03*
X1085000Y3611036D02*
D03*
X1015000Y3539615D02*
D03*
X3805658Y3522500D02*
D03*
X3735000Y3595000D02*
D03*
X871737Y3400000D02*
D03*
X942500Y3470000D02*
D03*
X3272500Y2757500D02*
D03*
X3360000D02*
D03*
X3622500D02*
D03*
X3535000D02*
D03*
X3447500D02*
D03*
X3237500Y4222500D02*
D03*
X1587500D02*
D03*
X1822500Y2995000D02*
D03*
Y3085000D02*
D03*
Y3175000D02*
D03*
X1987500Y2927500D02*
D03*
X1902500D02*
D03*
X1585000Y3267500D02*
D03*
D46*
X2492500Y3357500D02*
D03*
Y3520000D02*
D03*
X2327500Y3522500D02*
D03*
Y3357500D02*
D03*
X2247500Y3442500D02*
D03*
X2415000Y3605000D02*
D03*
X2495000Y3687500D02*
D03*
X2330000D02*
D03*
X2247500Y3607500D02*
D03*
X2412500Y3440000D02*
D03*
X2577500Y3605000D02*
D03*
X2575000Y3442500D02*
D03*
%TF.MD5,503ce5c143f70b4f7aea1b8a9ab76088*%
M02*
