%TF.GenerationSoftware,Altium Limited,Altium Designer,24.10.1 (45)*%
G04 Layer_Physical_Order=1*
G04 Layer_Color=5514966*
%FSLAX45Y45*%
%MOMM*%
%TF.SameCoordinates,EEF0193C-C13F-4000-B0C4-A13F86DA6223*%
%TF.FilePolarity,Positive*%
%TF.FileFunction,Copper,L1,Top,Signal*%
%TF.Part,Single*%
G01*
G75*
%TA.AperFunction,BGAPad,CuDef*%
%ADD10R,1.20000X1.20000*%
%TA.AperFunction,SMDPad,CuDef*%
%ADD11R,0.40000X0.40000*%
%TA.AperFunction,ConnectorPad*%
%ADD12R,0.40000X0.80000*%
%ADD13R,0.80000X0.40000*%
%TA.AperFunction,SMDPad,CuDef*%
%ADD14R,0.80000X0.80000*%
%ADD15R,0.80000X0.80000*%
%ADD16R,1.00000X0.80000*%
%ADD17R,0.55000X1.70000*%
%ADD18R,1.00000X0.90000*%
%ADD19C,0.60000*%
%ADD20R,1.40000X0.60000*%
G04:AMPARAMS|DCode=21|XSize=1mm|YSize=3.5mm|CornerRadius=0mm|HoleSize=0mm|Usage=FLASHONLY|Rotation=315.000|XOffset=0mm|YOffset=0mm|HoleType=Round|Shape=Rectangle|*
%AMROTATEDRECTD21*
4,1,4,-1.59099,-0.88388,0.88388,1.59099,1.59099,0.88388,-0.88388,-1.59099,-1.59099,-0.88388,0.0*
%
%ADD21ROTATEDRECTD21*%

G04:AMPARAMS|DCode=22|XSize=1.5mm|YSize=3.4mm|CornerRadius=0mm|HoleSize=0mm|Usage=FLASHONLY|Rotation=315.000|XOffset=0mm|YOffset=0mm|HoleType=Round|Shape=Rectangle|*
%AMROTATEDRECTD22*
4,1,4,-1.73241,-0.67175,0.67175,1.73241,1.73241,0.67175,-0.67175,-1.73241,-1.73241,-0.67175,0.0*
%
%ADD22ROTATEDRECTD22*%

G04:AMPARAMS|DCode=23|XSize=1.54991mm|YSize=0.59995mm|CornerRadius=0mm|HoleSize=0mm|Usage=FLASHONLY|Rotation=315.000|XOffset=0mm|YOffset=0mm|HoleType=Round|Shape=Rectangle|*
%AMROTATEDRECTD23*
4,1,4,-0.76009,0.33586,-0.33586,0.76009,0.76009,-0.33586,0.33586,-0.76009,-0.76009,0.33586,0.0*
%
%ADD23ROTATEDRECTD23*%

G04:AMPARAMS|DCode=24|XSize=1.8001mm|YSize=1.1999mm|CornerRadius=0mm|HoleSize=0mm|Usage=FLASHONLY|Rotation=315.000|XOffset=0mm|YOffset=0mm|HoleType=Round|Shape=Rectangle|*
%AMROTATEDRECTD24*
4,1,4,-1.06066,0.21220,-0.21220,1.06066,1.06066,-0.21220,0.21220,-1.06066,-1.06066,0.21220,0.0*
%
%ADD24ROTATEDRECTD24*%

%ADD25R,0.55000X0.35000*%
%ADD26R,0.35000X0.55000*%
%ADD27R,1.00000X0.90000*%
%ADD28R,0.90000X1.00000*%
%ADD29R,0.80000X1.00000*%
%ADD30R,1.22000X0.91000*%
%ADD31R,0.80000X0.90000*%
G04:AMPARAMS|DCode=32|XSize=0.57506mm|YSize=1.15011mm|CornerRadius=0mm|HoleSize=0mm|Usage=FLASHONLY|Rotation=45.000|XOffset=0mm|YOffset=0mm|HoleType=Round|Shape=Rectangle|*
%AMROTATEDRECTD32*
4,1,4,0.20331,-0.60994,-0.60994,0.20331,-0.20331,0.60994,0.60994,-0.20331,0.20331,-0.60994,0.0*
%
%ADD32ROTATEDRECTD32*%

G04:AMPARAMS|DCode=33|XSize=0.27508mm|YSize=1.15011mm|CornerRadius=0mm|HoleSize=0mm|Usage=FLASHONLY|Rotation=45.000|XOffset=0mm|YOffset=0mm|HoleType=Round|Shape=Rectangle|*
%AMROTATEDRECTD33*
4,1,4,0.30937,-0.50388,-0.50388,0.30937,-0.30937,0.50388,0.50388,-0.30937,0.30937,-0.50388,0.0*
%
%ADD33ROTATEDRECTD33*%

G04:AMPARAMS|DCode=34|XSize=1.8001mm|YSize=1.1999mm|CornerRadius=0mm|HoleSize=0mm|Usage=FLASHONLY|Rotation=225.000|XOffset=0mm|YOffset=0mm|HoleType=Round|Shape=Rectangle|*
%AMROTATEDRECTD34*
4,1,4,0.21220,1.06066,1.06066,0.21220,-0.21220,-1.06066,-1.06066,-0.21220,0.21220,1.06066,0.0*
%
%ADD34ROTATEDRECTD34*%

G04:AMPARAMS|DCode=35|XSize=1.54991mm|YSize=0.59995mm|CornerRadius=0mm|HoleSize=0mm|Usage=FLASHONLY|Rotation=225.000|XOffset=0mm|YOffset=0mm|HoleType=Round|Shape=Rectangle|*
%AMROTATEDRECTD35*
4,1,4,0.33586,0.76009,0.76009,0.33586,-0.33586,-0.76009,-0.76009,-0.33586,0.33586,0.76009,0.0*
%
%ADD35ROTATEDRECTD35*%

%TA.AperFunction,Conductor*%
%ADD36C,0.50800*%
%ADD37C,0.15240*%
%ADD38C,0.40640*%
%ADD39C,0.25400*%
%TA.AperFunction,ComponentPad*%
%ADD40C,1.62001*%
%ADD41C,1.52400*%
%ADD42C,0.64999*%
G04:AMPARAMS|DCode=43|XSize=2.2159mm|YSize=1.10795mm|CornerRadius=0mm|HoleSize=0mm|Usage=FLASHONLY|Rotation=135.000|XOffset=0mm|YOffset=0mm|HoleType=Round|Shape=Round|*
%AMOVALD43*
21,1,1.10795,1.10795,0.00000,0.00000,135.0*
1,1,1.10795,0.39172,-0.39172*
1,1,1.10795,-0.39172,0.39172*
%
%ADD43OVALD43*%

%TA.AperFunction,ViaPad*%
%ADD44C,3.55000*%
%ADD45C,0.66040*%
%ADD46C,0.63500*%
G36*
X2307500Y3627500D02*
X2187500D01*
Y3687500D01*
X2247500Y3747500D01*
X2307500D01*
Y3627500D01*
D02*
G37*
D10*
X2247500Y3522500D02*
D03*
Y3357500D02*
D03*
X2412500D02*
D03*
X2577500D02*
D03*
Y3522500D02*
D03*
Y3687500D02*
D03*
X2412500D02*
D03*
Y3522500D02*
D03*
D11*
X2247500Y3687500D02*
D03*
D12*
X1817500Y4222500D02*
D03*
X1902500D02*
D03*
X1987500D02*
D03*
X2072500D02*
D03*
X2157500D02*
D03*
X2242500D02*
D03*
X2327500D02*
D03*
X2412500D02*
D03*
X2497500D02*
D03*
X2582500D02*
D03*
X2667500D02*
D03*
X2752500D02*
D03*
X2837500D02*
D03*
X2922500D02*
D03*
X3007500D02*
D03*
Y2822500D02*
D03*
X2922500D02*
D03*
X2837500D02*
D03*
X2752500D02*
D03*
X2667500D02*
D03*
X2582500D02*
D03*
X2497500D02*
D03*
X2412500D02*
D03*
X2327500D02*
D03*
X2242500D02*
D03*
X2157500D02*
D03*
X2072500D02*
D03*
X1987500D02*
D03*
X1902500D02*
D03*
X1817500D02*
D03*
D13*
X3112500Y4117500D02*
D03*
Y4032500D02*
D03*
Y3947500D02*
D03*
Y3862500D02*
D03*
Y3777500D02*
D03*
Y3692500D02*
D03*
Y3607500D02*
D03*
Y3522500D02*
D03*
Y3437500D02*
D03*
Y3352500D02*
D03*
Y3267500D02*
D03*
Y3182500D02*
D03*
Y3097500D02*
D03*
Y3012500D02*
D03*
Y2927500D02*
D03*
X1712500D02*
D03*
Y3012500D02*
D03*
Y3097500D02*
D03*
Y3182500D02*
D03*
Y3267500D02*
D03*
Y3352500D02*
D03*
Y3437500D02*
D03*
Y3522500D02*
D03*
Y3607500D02*
D03*
Y3692500D02*
D03*
Y3777500D02*
D03*
Y3862500D02*
D03*
Y3947500D02*
D03*
Y4032500D02*
D03*
Y4117500D02*
D03*
D14*
X3112500Y2822500D02*
D03*
Y4222500D02*
D03*
X1712500Y2822500D02*
D03*
Y4222500D02*
D03*
D15*
X1994992Y2095009D02*
D03*
X1994992Y1945008D02*
D03*
X1534992Y1947508D02*
D03*
Y2097508D02*
D03*
X3212508Y2637492D02*
D03*
Y2487492D02*
D03*
X2599992Y2490008D02*
D03*
Y2640008D02*
D03*
D16*
X1687500Y2095000D02*
D03*
Y1945000D02*
D03*
X1845000D02*
D03*
Y2095000D02*
D03*
X2020000Y1235000D02*
D03*
Y1385000D02*
D03*
X2640000Y1880000D02*
D03*
Y1730000D02*
D03*
X1267500Y3757500D02*
D03*
Y3607500D02*
D03*
X1425000Y3757500D02*
D03*
Y3607500D02*
D03*
X1052500Y3267500D02*
D03*
Y3117500D02*
D03*
X3060000Y2637500D02*
D03*
Y2487500D02*
D03*
X3362500Y2637500D02*
D03*
Y2487500D02*
D03*
X2740000Y2490000D02*
D03*
Y2640000D02*
D03*
X3520000Y3602500D02*
D03*
Y3752500D02*
D03*
X3272500Y1290000D02*
D03*
Y1140000D02*
D03*
X1210000Y3202500D02*
D03*
Y3352500D02*
D03*
X1367500Y3352500D02*
D03*
Y3202500D02*
D03*
D17*
X1505000Y4250000D02*
D03*
X3322500D02*
D03*
D18*
X1442500Y4045000D02*
D03*
X1282500D02*
D03*
Y4455000D02*
D03*
X1442500D02*
D03*
X3385000D02*
D03*
X3545000D02*
D03*
Y4045000D02*
D03*
X3385000D02*
D03*
D19*
X1420000Y1250000D02*
D03*
X3615000Y1510000D02*
D03*
X3432500Y1370000D02*
D03*
X1057500Y1612500D02*
D03*
X1820000Y1237500D02*
D03*
X2907500Y1520000D02*
D03*
D20*
X1567500Y1565000D02*
D03*
Y1470000D02*
D03*
Y1375000D02*
D03*
X1817500D02*
D03*
Y1565000D02*
D03*
X2462500Y1410000D02*
D03*
Y1220000D02*
D03*
X2212500D02*
D03*
Y1315000D02*
D03*
Y1410000D02*
D03*
X1272500Y2750000D02*
D03*
Y2845000D02*
D03*
Y2940000D02*
D03*
X1022500D02*
D03*
Y2750000D02*
D03*
D21*
X1085741Y1417163D02*
D03*
X1227163Y1275741D02*
D03*
D22*
X512985Y1176746D02*
D03*
X986746Y702985D02*
D03*
D23*
X854923Y3558355D02*
D03*
X925651Y3629084D02*
D03*
X996362Y3699794D02*
D03*
X784212Y3487645D02*
D03*
D24*
X812500Y4067500D02*
D03*
X416507Y3671506D02*
D03*
D25*
X1992500Y2567500D02*
D03*
Y2517500D02*
D03*
Y2467500D02*
D03*
Y2417500D02*
D03*
X2217500D02*
D03*
Y2467500D02*
D03*
Y2517500D02*
D03*
Y2567500D02*
D03*
D26*
X2055000Y2405000D02*
D03*
X2105000D02*
D03*
X2155000D02*
D03*
Y2580000D02*
D03*
X2105000D02*
D03*
X2055000D02*
D03*
D27*
X2655000Y1247500D02*
D03*
Y1382500D02*
D03*
X2975000Y1247500D02*
D03*
Y1382500D02*
D03*
X2815000Y1247500D02*
D03*
Y1382500D02*
D03*
X1382500Y1582500D02*
D03*
Y1717500D02*
D03*
X3652500Y3460000D02*
D03*
Y3325000D02*
D03*
X2902500Y2632500D02*
D03*
Y2497500D02*
D03*
X3362500Y3747500D02*
D03*
Y3612500D02*
D03*
X3492500Y3460000D02*
D03*
Y3325000D02*
D03*
X3332500Y3460000D02*
D03*
Y3325000D02*
D03*
X2370000Y2550000D02*
D03*
Y2415000D02*
D03*
X1842500Y2552500D02*
D03*
Y2417500D02*
D03*
D28*
X2770000Y1560000D02*
D03*
X2635000D02*
D03*
X1112500Y2592500D02*
D03*
X977500D02*
D03*
D29*
X1822500Y1702500D02*
D03*
X1672500D02*
D03*
X2427500Y2042500D02*
D03*
X2277500D02*
D03*
X3685000Y1697500D02*
D03*
X3835000D02*
D03*
D30*
X2437500Y1881000D02*
D03*
Y1554000D02*
D03*
D31*
X2025000Y1607500D02*
D03*
X2215000D02*
D03*
X2120000Y1807500D02*
D03*
D32*
X3888940Y1536440D02*
D03*
X3832382Y1479882D02*
D03*
X3492964Y1140464D02*
D03*
X3436407Y1083907D02*
D03*
D33*
X3786421Y1433921D02*
D03*
X3751057Y1398557D02*
D03*
X3715711Y1363211D02*
D03*
X3680346Y1327846D02*
D03*
X3645000Y1292500D02*
D03*
X3609636Y1257136D02*
D03*
X3574290Y1221790D02*
D03*
X3538925Y1186425D02*
D03*
D34*
X4021605Y4063712D02*
D03*
X4417599Y3667719D02*
D03*
D35*
X3837743Y3696007D02*
D03*
X4049893Y3483857D02*
D03*
X3979183Y3554568D02*
D03*
X3908454Y3625296D02*
D03*
D36*
X1180000Y2435000D02*
X1267500Y2522500D01*
X705000Y2227500D02*
X912500Y2435000D01*
X1180000D01*
X1367500Y2187500D02*
Y2635000D01*
X1485000Y2752500D01*
X1367500Y1905000D02*
Y2187500D01*
X1286250Y1823750D02*
X1367500Y1905000D01*
X1267500Y2522500D02*
Y2560000D01*
X1267916D02*
Y2747916D01*
X1725000Y937500D02*
X1910416Y1122916D01*
X1115000Y937500D02*
X1725000D01*
X1910416Y1122916D02*
Y1285416D01*
X705000Y1347500D02*
X1115000Y937500D01*
X705000Y1347500D02*
Y2227500D01*
X1392100Y3147900D02*
X1485000Y3055000D01*
X1372500Y3207500D02*
X1392100Y3187900D01*
Y3147900D02*
Y3187900D01*
X2120000Y1817500D02*
Y2157742D01*
X1367500Y2187500D02*
X2090242D01*
X2120000Y2157742D01*
X1485000Y2752500D02*
Y3055000D01*
X1712500Y2745000D02*
Y2822500D01*
X1712500Y2822500D02*
X1712500Y2822500D01*
X1286250Y1584012D02*
Y1823750D01*
X1267916Y2747916D02*
X1268750Y2748750D01*
X1252590Y1584012D02*
X1286250D01*
X1374011D01*
X630000Y3495000D02*
X797500Y3327500D01*
Y2872500D02*
Y3327500D01*
Y2872500D02*
X920000Y2750000D01*
X3797500Y2760000D02*
X3800000Y2757500D01*
X3797500Y2760000D02*
Y3097500D01*
X4012500Y3312500D01*
X3330000Y4242500D02*
X3385000Y4297500D01*
X3112500Y4222500D02*
X3237500D01*
X3007500D02*
X3112500D01*
X3886912Y3325000D02*
X3949412Y3387500D01*
X2667500Y4222500D02*
X2752500D01*
X2582500D02*
X2667500D01*
X2497500D02*
X2582500D01*
X2412500D02*
X2497500D01*
X2922500D02*
X3007500D01*
X2837500D02*
X2922500D01*
X2752500D02*
X2837500D01*
X3888940Y1536440D02*
X3906900Y1518479D01*
X3832500Y1592879D02*
X3888940Y1536440D01*
X3377500Y1140000D02*
X3437500Y1080000D01*
X2630000Y1740000D02*
X2654600Y1715400D01*
X2327500Y4222500D02*
X2412500D01*
X2242500D02*
X2327500D01*
X2157500D02*
X2242500D01*
X2072500D02*
X2157500D01*
X1987500D02*
X2072500D01*
X1902500D02*
X1987500D01*
X1817500D02*
X1902500D01*
X1712500D02*
X1817500D01*
X988643Y3707393D02*
X1085000Y3611036D01*
X1373750Y1716250D02*
X1383750Y1726250D01*
X1300000Y1370000D02*
X1420000Y1250000D01*
X3174584Y2760416D02*
X3179584D01*
X3112500Y2822500D02*
X3174584Y2760416D01*
X3179584D02*
X3182500Y2757500D01*
X1649124Y3947500D02*
X1712500D01*
X1624124Y3922500D02*
X1649124Y3947500D01*
X1910416Y1285416D02*
X2010000Y1385000D01*
X2085000D01*
X2897500Y2497500D02*
X2902500D01*
X3877115Y3452500D02*
X3967307Y3542692D01*
X1295000Y1370000D02*
X1300000D01*
X1820000Y1237500D02*
Y1372500D01*
X1817500Y1375000D02*
X1857500D01*
X1057500Y1612500D02*
X1148302Y1521698D01*
X2815000Y1382500D02*
X2910000D01*
X2907500Y1517500D02*
X2907511D01*
X2910000Y1382500D02*
Y1515000D01*
X2909260Y1515740D02*
Y1515750D01*
Y1515740D02*
X2910000Y1515000D01*
X2907511Y1517500D02*
X2909260Y1515750D01*
X1148302Y1479723D02*
X1248039Y1579461D01*
X2225582Y1596919D02*
X2295582D01*
X2331669Y1560832D02*
X2430668D01*
X2215000Y1607500D02*
X2225582Y1596919D01*
X2295582D02*
X2331669Y1560832D01*
X2430668D02*
X2437500Y1554000D01*
X2215000Y1412500D02*
Y1607500D01*
X3832500Y1592879D02*
Y1690000D01*
X3272500Y1140000D02*
X3377500D01*
X2975000Y1247500D02*
X3070000D01*
X2733082Y1876918D02*
X3067084Y1542916D01*
X2640000Y1880000D02*
X2643082Y1876918D01*
X2733082D01*
X2640000Y1880000D02*
X2650000D01*
X3237500Y4222500D02*
X3320400D01*
X2825000Y1247500D02*
X2970000D01*
X2815000D02*
X2825000D01*
X2827500Y1245000D01*
X2822500Y1250000D02*
X2825000Y1247500D01*
X2340000Y1410000D02*
X2462500D01*
X3492500Y3460000D02*
X3652500D01*
X3230000D02*
X3492500D01*
X3953018Y3386982D02*
X4049893Y3483857D01*
X3652500Y3325000D02*
X3886912D01*
X3949412Y3387500D02*
X3952500D01*
X3492500Y3325000D02*
X3645000D01*
X3332500D02*
X3492500D01*
X3506250Y3588750D02*
X3520000Y3602500D01*
X3506250Y3479600D02*
Y3588750D01*
X3117900Y3947500D02*
X3287500D01*
X1072500Y1121079D02*
X1227163Y1275741D01*
X1383750Y1813750D02*
X1385000Y1815000D01*
X1383750Y1726250D02*
Y1813750D01*
X3597500Y1090000D02*
X3665000D01*
X3882500Y1307500D01*
X3787342Y1205158D02*
X3840000Y1152500D01*
X3882500Y1312580D02*
Y1385000D01*
X2634500Y1557000D02*
X2642500Y1565000D01*
X2112500Y1412500D02*
X2212500D01*
X1382500Y1460000D02*
Y1577500D01*
Y1460000D02*
X1457820Y1384680D01*
X1557820D01*
X1567500Y1470000D02*
X1692500D01*
X2655000Y1382500D02*
X2800000D01*
X2770000Y1560000D02*
Y1662742D01*
X2765876Y1667500D02*
X2770000D01*
X2717977Y1715400D02*
X2765876Y1667500D01*
X1857500Y1375000D02*
X1862100Y1379600D01*
X2005000Y1240000D02*
X2007500D01*
X2655000Y1247500D02*
X2812500D01*
X2547501Y1315000D02*
X2595400Y1267100D01*
X2575400Y1402100D02*
X2635400D01*
X2463082Y1409419D02*
X2568082D01*
X2440500Y1557000D02*
X2634500D01*
X2251000Y1710000D02*
X2431000Y1890000D01*
X2437500Y1881000D02*
X2639000D01*
X2654600Y1715400D02*
X2717977D01*
X2025000Y1612500D02*
X2122500Y1710000D01*
X2251000D01*
X2025000Y1607500D02*
Y1612500D01*
X2212500Y1315000D02*
X2347500D01*
X2547501D01*
X1862100Y1379600D02*
Y1439600D01*
X2085000Y1385000D02*
X2112500Y1412500D01*
X1862100Y1439600D02*
X2010400Y1587900D01*
X1210000Y3120000D02*
Y3195000D01*
X630000Y3495000D02*
Y3572500D01*
X782500Y3725000D02*
X829615D01*
X630000Y3572500D02*
X782500Y3725000D01*
X829615D02*
X917932Y3636683D01*
X920000Y2750000D02*
X960000D01*
X948557Y3606058D02*
X1015000Y3539615D01*
X1272500Y2845000D02*
X1402500D01*
X420000Y1269731D02*
X512985Y1176746D01*
X986746Y702985D02*
X1077231Y612500D01*
X736115Y953616D02*
X986746Y702985D01*
X517500Y1172231D02*
X736115Y953616D01*
X780000Y997500D01*
X3380000Y986837D02*
X3454367Y1061205D01*
X3380000Y977500D02*
Y986837D01*
X3911642Y1518479D02*
X3985662Y1592500D01*
X4007500D01*
X3906900Y1518479D02*
X3911642D01*
X1587500Y4222500D02*
X1712500D01*
X1507100D02*
X1587500D01*
X1505000Y4224600D02*
X1507100Y4222500D01*
X1505000Y4224600D02*
Y4250000D01*
X1449600Y4037900D02*
X1697900D01*
X1442500Y4045000D02*
X1449600Y4037900D01*
X1712500D02*
Y4112100D01*
X1442500Y4305000D02*
Y4455000D01*
Y4305000D02*
X1500000Y4247500D01*
X3320400Y4222500D02*
X3322500Y4224600D01*
Y4250000D01*
X3385000Y4297500D02*
Y4455000D01*
X3380000Y4045000D02*
X3385000D01*
X3360400Y4020400D02*
Y4025400D01*
X3380000Y4045000D01*
X3287500Y3947500D02*
X3360400Y4020400D01*
X3007500Y3992258D02*
X3052258Y3947500D01*
X3112500D01*
X3007500Y3992258D02*
Y4207900D01*
X1712500Y4117500D02*
Y4212500D01*
X1712500Y4212500D01*
X3112500Y3862500D02*
Y3942100D01*
D37*
X1470000Y2365000D02*
Y2620000D01*
X1542500Y2692500D01*
X1532500Y2635000D02*
X1575000Y2677500D01*
X1532500Y2320000D02*
Y2635000D01*
Y2320000D02*
X1588750Y2263750D01*
X860120Y2550120D02*
X970120D01*
X852500Y2542500D02*
X860120Y2550120D01*
X2462500Y2235000D02*
X3135000Y1562500D01*
X1617500Y2235000D02*
X2462500D01*
X1588750Y2263750D02*
X1617500Y2235000D01*
X1571250Y2621250D02*
X1605000Y2655000D01*
X1571250Y2338750D02*
Y2621250D01*
X1495000Y3185000D02*
Y3465000D01*
Y3185000D02*
X1575000Y3105000D01*
Y2677500D02*
Y3105000D01*
X1465000Y3167500D02*
Y3515000D01*
Y3167500D02*
X1542500Y3090000D01*
Y2692500D02*
Y3090000D01*
X1605000Y2652500D02*
Y3125000D01*
X1527500Y3202500D02*
X1605000Y3125000D01*
X1571250Y2338750D02*
X1642500Y2267500D01*
X1605000Y2655000D02*
X2072500D01*
X1605000Y2652500D02*
Y2655000D01*
X1527500Y3202500D02*
Y3430000D01*
X2590000Y2310000D02*
X3075000D01*
X3541250Y1436250D02*
Y1843750D01*
X3075000Y2310000D02*
X3541250Y1843750D01*
X2575000Y2272500D02*
X3037500D01*
X3494636Y1815364D01*
Y1372500D02*
Y1815364D01*
X1645120Y1912620D02*
Y1912620D01*
X1385000Y1815000D02*
X1547500D01*
X1645120Y1912620D01*
Y1912620D02*
X1678180Y1945680D01*
X1680680D01*
X1750000Y1839052D02*
X1865233Y1954285D01*
X1750000Y1630000D02*
Y1839052D01*
X1685000Y1565000D02*
X1750000Y1630000D01*
X1567500Y1565000D02*
X1685000D01*
X1997500Y1747500D02*
Y1938929D01*
Y1747500D02*
X2025000Y1720000D01*
X1845000Y2095000D02*
X1987499D01*
X1534992Y2097508D02*
X1689992D01*
X1609984Y2022500D02*
X1917500D01*
X1542484Y1955000D02*
X1609984Y2022500D01*
X1917500D02*
X1993750Y1946250D01*
X2025000Y1612500D02*
Y1720000D01*
X970120Y2550120D02*
X977500Y2557500D01*
X2480000Y2267500D02*
X3175000Y1572500D01*
X1642500Y2267500D02*
X2480000D01*
X1940000Y2295000D02*
X1992500Y2347500D01*
X1700000Y2295000D02*
X1940000D01*
X1635000Y2360000D02*
X1700000Y2295000D01*
X1865000Y3777500D02*
X2002500Y3640000D01*
Y3247500D02*
X2370000Y2880000D01*
X2002500Y3247500D02*
Y3640000D01*
X2370000Y2757500D02*
Y2880000D01*
X2475000Y2372500D02*
X2575000Y2272500D01*
X2424880Y2782621D02*
X2475000Y2732501D01*
Y2372500D02*
Y2732501D01*
X2509880Y2783812D02*
Y2810120D01*
X2512500Y2387500D02*
Y2781192D01*
Y2387500D02*
X2590000Y2310000D01*
X2497500Y2822500D02*
X2509880Y2810120D01*
Y2783812D02*
X2512500Y2781192D01*
X2370000Y2757500D02*
X2415000Y2712500D01*
X2415000D01*
X2372500Y2572500D02*
Y2645000D01*
X2360000Y2560000D02*
X2372500Y2572500D01*
X1712500Y3777500D02*
X1865000D01*
X1817500Y3267500D02*
X1822500D01*
X1732500Y3182500D02*
X1817500Y3267500D01*
X1822500Y2542500D02*
X1847500Y2567500D01*
X1167380Y3235120D02*
X1207500Y3195000D01*
X942500Y2592500D02*
X977500Y2557500D01*
X1992500Y2472500D02*
X1995000Y2470000D01*
X1813474Y3387500D02*
X1822500D01*
X1730000Y3352500D02*
X1778474D01*
X1813474Y3387500D01*
X1721250Y3361250D02*
X1730000Y3352500D01*
X1712500D02*
X1721250Y3361250D01*
X1712500Y3522500D02*
X1713750Y3521250D01*
X1823750D02*
X1825000Y3520000D01*
X1713750Y3521250D02*
X1823750D01*
X1813474Y3642500D02*
X1825000D01*
X1778474Y3607500D02*
X1813474Y3642500D01*
X1733060Y3607500D02*
X1778474D01*
X1722780Y3617780D02*
X1733060Y3607500D01*
X1712500D02*
X1722780Y3617780D01*
X1904500Y325500D02*
X1917500Y312500D01*
X1904500Y325500D02*
Y912000D01*
X1947500Y955000D01*
X2602500Y2380000D02*
Y2487500D01*
X2599992Y2490008D02*
X2602500Y2487500D01*
X2327620Y2587380D02*
X2357500Y2557500D01*
X2782500Y2382500D02*
X2883568Y2483568D01*
X2888568D01*
X2780000Y2382500D02*
X2782500D01*
X2582500Y2830000D02*
X2594880Y2817620D01*
X2730000Y2640000D02*
X2740000D01*
X2594880Y2775120D02*
X2730000Y2640000D01*
X2594880Y2775120D02*
Y2817620D01*
X2567500Y2610000D02*
X2610000D01*
X2730000Y2490000D02*
X2740000D01*
X2610000Y2610000D02*
X2730000Y2490000D01*
X3610000Y1505000D02*
Y1510000D01*
X3541250Y1436250D02*
X3610000Y1505000D01*
X3541250Y1398750D02*
Y1436250D01*
X3494636Y1372136D02*
X3609636Y1257136D01*
X3492500Y1370000D02*
X3495000Y1372500D01*
X3432500Y1370000D02*
X3492500D01*
X2072500Y2655000D02*
X2106067Y2621433D01*
X2105000Y2580000D02*
X2106067Y2581067D01*
Y2621433D01*
X2015000Y2620000D02*
X2035120Y2599880D01*
X1722500Y2620000D02*
X2015000D01*
X1677500Y2575000D02*
X1722500Y2620000D01*
X1897780Y2367220D02*
X1915280D01*
X1925000Y2357500D01*
X1850000Y2415000D02*
X1897780Y2367220D01*
X1850000Y2415000D02*
Y2430000D01*
X1737500Y2542500D02*
X1822500D01*
X2602500Y2187500D02*
X2742500D01*
X2372500Y2407500D02*
X2382500D01*
X2602500Y2187500D01*
X2287500Y2337500D02*
X2365000Y2415000D01*
X1827500Y2095000D02*
X1827500Y2095000D01*
X3180128Y2669872D02*
X3217500Y2632500D01*
X3175128Y2669872D02*
X3180128D01*
X3217500Y2627500D02*
Y2632500D01*
X2978927Y2715000D02*
X3130000D01*
X3175128Y2669872D01*
X3135000Y812500D02*
Y1562500D01*
X2655000Y332500D02*
X3135000Y812500D01*
X3175000Y579500D02*
Y1572500D01*
X2920500Y325000D02*
X3175000Y579500D01*
X3272500Y1290000D02*
X3285000Y1277500D01*
X3518579D01*
X3357500Y2482500D02*
X3362500Y2487500D01*
X3332500Y2457500D02*
X3357500Y2482500D01*
X1672500Y1702500D02*
Y1778753D01*
X1645000Y1806253D02*
Y1820000D01*
Y1806253D02*
X1672500Y1778753D01*
X2427500Y2042500D02*
Y2155000D01*
X2277500Y1932500D02*
Y2042500D01*
X3240000Y3675000D02*
X3265120Y3649880D01*
X3240000Y3675000D02*
Y3945000D01*
X3265120Y3649880D02*
X3325120D01*
X3362500Y3612500D01*
X1677500Y2417500D02*
Y2575000D01*
Y2417500D02*
X1730000Y2365000D01*
X2164880Y2385120D02*
X2174880D01*
X2222500Y2337500D02*
X2287500D01*
X2155000Y2395000D02*
X2164880Y2385120D01*
X2174880D02*
X2222500Y2337500D01*
X2155000Y2395000D02*
Y2405000D01*
X2329076Y2494076D02*
Y2512620D01*
X2223424Y2423424D02*
X2258424D01*
X2343955Y2527500D02*
X2362500D01*
X2217500Y2417500D02*
X2223424Y2423424D01*
X2258424D02*
X2329076Y2494076D01*
Y2512620D02*
X2343955Y2527500D01*
X2105000Y2405000D02*
X2152500D01*
X2145120Y2572620D02*
X2157500Y2585000D01*
X2055000Y2447500D02*
X2145120Y2537620D01*
Y2572620D01*
X2055000Y2405000D02*
Y2447500D01*
X2327620Y2587380D02*
X2327620D01*
X2285000Y2630000D02*
X2327620Y2587380D01*
X2195000Y2630000D02*
X2285000D01*
X2155000Y2590000D02*
X2195000Y2630000D01*
X1992500Y2517500D02*
Y2565000D01*
X1847500Y2567500D02*
X1982500D01*
X1985000Y2565000D01*
X1992500Y2472500D02*
Y2517500D01*
Y2347500D02*
Y2417500D01*
X1515000Y2262500D02*
X1587500D01*
X2055000Y2580000D02*
Y2590000D01*
X2045120Y2599880D02*
X2055000Y2590000D01*
X2035120Y2599880D02*
X2045120D01*
X2328750Y2713750D02*
Y2821250D01*
X2327500Y2822500D02*
X2328750Y2821250D01*
Y2713750D02*
X2330000Y2712500D01*
X2242500D02*
Y2822500D01*
X2157500Y2712500D02*
Y2822500D01*
X2072500Y2712500D02*
Y2822500D01*
X2072500Y2822500D02*
X2072500Y2822500D01*
X1987500Y2712500D02*
Y2822500D01*
X2055000Y2322500D02*
X2055000Y2322500D01*
Y2405000D01*
X1495000Y3465000D02*
X1637500Y3607500D01*
X1465000Y3515000D02*
X1642500Y3692500D01*
X1712500D01*
X1637500Y3607500D02*
X1712500D01*
X1527500Y3430000D02*
X1620000Y3522500D01*
X2424880Y2782621D02*
Y2810120D01*
X2412500Y2822500D02*
X2424880Y2810120D01*
X3541250Y1398750D02*
X3590123Y1349877D01*
X3702500Y1520617D02*
Y1707500D01*
Y1520617D02*
X3786421Y1436696D01*
X3590123Y1349877D02*
X3648934Y1408688D01*
X3590123Y1349877D02*
X3625000Y1315000D01*
X3688750Y1705303D02*
X3717380Y1733933D01*
X3688750Y1700000D02*
Y1705303D01*
X3786421Y1433921D02*
Y1436696D01*
X3518579Y1277500D02*
X3568579Y1227500D01*
X1382500Y1717500D02*
X1387500D01*
X2822500Y1385000D02*
X2827500D01*
X1995000Y1230000D02*
X2005000Y1220000D01*
X1817500Y1570000D02*
X1827500Y1560000D01*
X1817500Y1570000D02*
Y1652500D01*
X2347500Y1315000D02*
Y1317500D01*
X2005000Y1220000D02*
X2212500D01*
X3357500Y2387500D02*
Y2482500D01*
X3062500Y2490000D02*
X3067500D01*
X3322500Y2457500D02*
X3332500D01*
X2922500Y2487500D02*
X3060000D01*
X2925000Y2655000D02*
Y2827500D01*
X2902500Y2632500D02*
X2925000Y2655000D01*
X2965000Y2728927D02*
X2978927Y2715000D01*
X2965000Y2728927D02*
Y2880000D01*
X2940000Y2905000D02*
X2965000Y2880000D01*
X2862500Y2905000D02*
X2940000D01*
X2837500Y2880000D02*
X2862500Y2905000D01*
X2837500Y2822500D02*
Y2880000D01*
X2902500Y2632500D02*
X3037500D01*
X3045000Y2640000D01*
X3320120Y2605120D02*
X3350000Y2635000D01*
X3212508Y2487492D02*
X3320120Y2595103D01*
Y2605120D01*
X3350000Y2635000D02*
X3360000D01*
X2699999Y2652501D02*
X2710008Y2642493D01*
X2580000Y2812500D02*
X2582500Y2810000D01*
X1084880Y3235120D02*
X1167380D01*
X1052500Y3267500D02*
X1084880Y3235120D01*
X1048927Y2750000D02*
X1071307Y2727620D01*
Y2619503D02*
Y2727620D01*
X1022500Y2750000D02*
X1048927D01*
X1071307Y2619503D02*
X1085000Y2605810D01*
X962500Y2750000D02*
X992740D01*
X1210000Y2940000D02*
Y2997500D01*
X1162380Y3045120D02*
X1210000Y2997500D01*
X1094880Y3045120D02*
X1162380D01*
X1062500Y3077500D02*
X1094880Y3045120D01*
X1062500Y3077500D02*
Y3087500D01*
X1272500Y2940000D02*
X1405000D01*
X1290000Y3465000D02*
X1327500Y3427500D01*
Y3382500D02*
Y3427500D01*
Y3382500D02*
X1357500Y3352500D01*
X1367500D01*
X1250487Y3425487D02*
X1290000Y3465000D01*
X1218107Y3352500D02*
X1250487Y3384880D01*
X1210000Y3352500D02*
X1218107D01*
X1250487Y3384880D02*
Y3425487D01*
X1585000Y3392500D02*
X1630000Y3437500D01*
X1712500D01*
X3387500Y3750000D02*
X3540000D01*
X3380000Y3757500D02*
X3387500Y3750000D01*
X3545000Y4045000D02*
Y4445000D01*
X3467500Y4117500D02*
X3540000Y4045000D01*
X3542500Y3770000D02*
Y4047500D01*
X3540000Y3767500D02*
X3542500Y3770000D01*
X3682500Y1317018D02*
X3724696Y1274821D01*
X3618311Y1257136D02*
X3662661Y1212786D01*
X3675286D01*
X3724696Y1262196D01*
Y1274821D01*
X3609636Y1257136D02*
X3618311D01*
X3648934Y1408688D02*
X3661559D01*
X3707036Y1363211D01*
X3715711D01*
X3682500Y1317018D02*
Y1327500D01*
X1258567Y3598567D02*
X1267500Y3607500D01*
X1203567Y3598567D02*
X1258567D01*
X942500Y3470000D02*
X1075000D01*
X1203567Y3598567D01*
X1225120Y3725120D02*
X1260000Y3760000D01*
X1165000Y3615000D02*
Y3665000D01*
X1260000Y3760000D02*
X1260000D01*
X1225120Y3725120D02*
Y3725120D01*
X1165000Y3665000D02*
X1225120Y3725120D01*
X1089615Y3539615D02*
X1165000Y3615000D01*
X1015000Y3539615D02*
X1089615D01*
X1267500Y3757500D02*
X1425000D01*
X1190000Y3522500D02*
X1410000D01*
X871737Y3400000D02*
X1067500D01*
X1190000Y3522500D01*
X776493Y3495243D02*
X869618Y3402118D01*
X1410000Y3522500D02*
X1425000Y3537500D01*
Y3607500D01*
X832500Y3580000D02*
X942500Y3470000D01*
X3805658Y3522500D02*
X3908454Y3625296D01*
X3836007Y3696007D02*
X3837743D01*
X3735000Y3595000D02*
X3735000D01*
X3836007Y3696007D01*
X820000Y3580000D02*
X832500D01*
X1620000Y3522500D02*
X1712500D01*
X3622500Y2755000D02*
Y2872500D01*
X3535000Y2755000D02*
Y2857500D01*
X3180000Y2927500D02*
X3272500Y2835000D01*
Y2757500D02*
Y2835000D01*
X3112500Y2927500D02*
X3180000D01*
X3360000Y2757500D02*
Y2837500D01*
X3185000Y3012500D02*
X3360000Y2837500D01*
X3112500Y3012500D02*
X3185000D01*
X3227500Y3267500D02*
X3622500Y2872500D01*
X3112500Y3267500D02*
X3227500D01*
X3210000Y3182500D02*
X3535000Y2857500D01*
X3447500Y2757500D02*
Y2847500D01*
X3197500Y3097500D02*
X3447500Y2847500D01*
X3112500Y3097500D02*
X3197500D01*
X3112500Y3182500D02*
X3210000D01*
X1285000Y4047500D02*
X1470000Y3862500D01*
X1282500Y4045000D02*
Y4442500D01*
X1277500Y4447500D02*
X1282500Y4442500D01*
X1470000Y3862500D02*
X1712500D01*
X3540000Y4450000D02*
X3545000Y4445000D01*
X3112500Y4117500D02*
X3467500D01*
X1792780Y2982780D02*
X1794033D01*
X1806253Y2995000D02*
X1820000D01*
X1794033Y2982780D02*
X1806253Y2995000D01*
X1749880Y2939880D02*
X1792780Y2982780D01*
X1712500Y2927500D02*
X1724880Y2939880D01*
X1749880D01*
X1732500Y3012500D02*
X1795280Y3075280D01*
X1712500Y3012500D02*
X1732500D01*
Y3097500D02*
X1810000Y3175000D01*
X1712500Y3097500D02*
X1732500D01*
X1810000Y3175000D02*
X1822500D01*
X1712500Y3182500D02*
X1732500D01*
X1902500Y2842500D02*
X1987500Y2927500D01*
X1902500Y2926044D02*
Y2927500D01*
X1831335Y2854880D02*
X1902500Y2926044D01*
Y2822500D02*
Y2842500D01*
X1817500Y2822500D02*
Y2842500D01*
X1829880Y2854880D02*
X1831335D01*
X1817500Y2842500D02*
X1829880Y2854880D01*
X1585000Y3267500D02*
X1712500D01*
D38*
X1148302Y1479723D02*
Y1521698D01*
X1085741Y1417163D02*
X1148302Y1479723D01*
X1557820Y1384680D02*
X1567500Y1375000D01*
D39*
X3515666Y1140464D02*
X3568631Y1087500D01*
X3597500D01*
X3492964Y1140464D02*
X3515666D01*
X3882500Y1385000D02*
Y1407500D01*
X3832382Y1457618D02*
X3882500Y1407500D01*
X3832382Y1457618D02*
Y1479882D01*
D40*
X1396500Y325000D02*
D03*
X1650500D02*
D03*
X1904500D02*
D03*
X2158500D02*
D03*
X2412500D02*
D03*
X2666500D02*
D03*
X2920500D02*
D03*
X3174500D02*
D03*
X3428500D02*
D03*
D41*
X4640000Y3300500D02*
D03*
Y3046500D02*
D03*
Y2792500D02*
D03*
Y2538500D02*
D03*
Y2284500D02*
D03*
Y2030500D02*
D03*
Y1776500D02*
D03*
Y1522500D02*
D03*
X190000Y1522000D02*
D03*
Y1776000D02*
D03*
Y2030000D02*
D03*
Y2284000D02*
D03*
Y2538000D02*
D03*
Y2792000D02*
D03*
Y3046000D02*
D03*
Y3300000D02*
D03*
D42*
X3533335Y1029390D02*
D03*
X3941689Y1437744D02*
D03*
D43*
X3397863Y964038D02*
D03*
X4008808Y1574983D02*
D03*
X4304384Y1279407D02*
D03*
X3693440Y668462D02*
D03*
D44*
X3750000Y2100000D02*
D03*
X1050000D02*
D03*
D45*
X1470000Y2365000D02*
D03*
X852500Y2542500D02*
D03*
X1712500Y2745000D02*
D03*
X872500Y3302500D02*
D03*
X2415000Y2712500D02*
D03*
X2372500Y2645000D02*
D03*
X1822500Y3267500D02*
D03*
X3800000Y2757500D02*
D03*
X3710000D02*
D03*
X3790000Y3435000D02*
D03*
X3650000Y3617500D02*
D03*
X1912500Y3522500D02*
D03*
X3182500Y2757500D02*
D03*
X1805000Y2912500D02*
D03*
X1907500Y3267500D02*
D03*
X1822500Y3387500D02*
D03*
X1825000Y3520000D02*
D03*
Y3642500D02*
D03*
X2602500Y2380000D02*
D03*
X2780000Y2382500D02*
D03*
X4012500Y3312500D02*
D03*
X1925000Y2357500D02*
D03*
X1737500Y2542500D02*
D03*
X2552500Y700000D02*
D03*
X2065000Y642500D02*
D03*
X2742500Y2187500D02*
D03*
X3070000Y1247500D02*
D03*
X1947500Y955000D02*
D03*
X3070000Y1540000D02*
D03*
X1645000Y1820000D02*
D03*
X3205000Y1985000D02*
D03*
X2427500Y2155000D02*
D03*
X2277500Y1932500D02*
D03*
X2340000Y1410000D02*
D03*
X3230000Y3460000D02*
D03*
X1625000Y3927500D02*
D03*
X1072500Y1121079D02*
D03*
X1385000Y1815000D02*
D03*
X1515000Y2262500D02*
D03*
X1730000Y2365000D02*
D03*
X2330000Y2712500D02*
D03*
X2242500D02*
D03*
X2157500D02*
D03*
X2072500D02*
D03*
X1987500D02*
D03*
X2055000Y2322500D02*
D03*
X1635000Y2360000D02*
D03*
X3840000Y1152500D02*
D03*
X1692500Y1470000D02*
D03*
X2770000Y1667500D02*
D03*
X3357500Y2387500D02*
D03*
X1402500Y2845000D02*
D03*
X1405000Y2940000D02*
D03*
X420000Y1269731D02*
D03*
X1077231Y612500D02*
D03*
X780000Y997500D02*
D03*
X1210000Y3120000D02*
D03*
X1290000Y3465000D02*
D03*
X1585000Y3392500D02*
D03*
X3948536Y3382500D02*
D03*
X3877115Y3452500D02*
D03*
X1085000Y3611036D02*
D03*
X1015000Y3539615D02*
D03*
X3805658Y3522500D02*
D03*
X3735000Y3595000D02*
D03*
X871737Y3400000D02*
D03*
X942500Y3470000D02*
D03*
X3272500Y2757500D02*
D03*
X3360000D02*
D03*
X3622500D02*
D03*
X3535000D02*
D03*
X3447500D02*
D03*
X3237500Y4222500D02*
D03*
X1587500D02*
D03*
X1822500Y2995000D02*
D03*
Y3085000D02*
D03*
Y3175000D02*
D03*
X1987500Y2927500D02*
D03*
X1902500D02*
D03*
X1585000Y3267500D02*
D03*
D46*
X2492500Y3357500D02*
D03*
Y3520000D02*
D03*
X2327500Y3522500D02*
D03*
Y3357500D02*
D03*
X2247500Y3442500D02*
D03*
X2415000Y3605000D02*
D03*
X2495000Y3687500D02*
D03*
X2330000D02*
D03*
X2247500Y3607500D02*
D03*
X2412500Y3440000D02*
D03*
X2577500Y3605000D02*
D03*
X2575000Y3442500D02*
D03*
%TF.MD5,be4be4d1354b93da815ba0f560fa4161*%
M02*
