%TF.GenerationSoftware,Altium Limited,Altium Designer,24.10.1 (45)*%
G04 Layer_Color=128*
%FSLAX45Y45*%
%MOMM*%
%TF.SameCoordinates,EEF0193C-C13F-4000-B0C4-A13F86DA6223*%
%TF.FilePolarity,Positive*%
%TF.FileFunction,Drillmap*%
%TF.Part,Single*%
G01*
G75*
%TA.AperFunction,NonConductor*%
%ADD54C,0.12700*%
D54*
X1345497Y325000D02*
X1447503D01*
X1396500Y273997D02*
Y376003D01*
X1599497Y325000D02*
X1701503D01*
X1650500Y273997D02*
Y376003D01*
X1853497Y325000D02*
X1955503D01*
X1904500Y273997D02*
Y376003D01*
X2107497Y325000D02*
X2209503D01*
X2158500Y273997D02*
Y376003D01*
X2361497Y325000D02*
X2463503D01*
X2412500Y273997D02*
Y376003D01*
X2615497Y325000D02*
X2717503D01*
X2666500Y273997D02*
Y376003D01*
X2869497Y325000D02*
X2971503D01*
X2920500Y273997D02*
Y376003D01*
X3123497Y325000D02*
X3225503D01*
X3174500Y273997D02*
Y376003D01*
X3377497Y325000D02*
X3479503D01*
X3428500Y273997D02*
Y376003D01*
X4585000Y3300500D02*
X4695000D01*
X4640000Y3245500D02*
Y3355500D01*
X4585000Y3046500D02*
X4695000D01*
X4640000Y2991500D02*
Y3101500D01*
X4585000Y2792500D02*
X4695000D01*
X4640000Y2737500D02*
Y2847500D01*
X4585000Y2538500D02*
X4695000D01*
X4640000Y2483500D02*
Y2593500D01*
X4585000Y2284500D02*
X4695000D01*
X4640000Y2229500D02*
Y2339500D01*
X4585000Y2030500D02*
X4695000D01*
X4640000Y1975500D02*
Y2085500D01*
X4585000Y1776500D02*
X4695000D01*
X4640000Y1721500D02*
Y1831500D01*
X4585000Y1522500D02*
X4695000D01*
X4640000Y1467500D02*
Y1577500D01*
X3500836Y1029390D02*
X3565834D01*
X3533335Y996890D02*
Y1061889D01*
X3909190Y1437744D02*
X3974188D01*
X3941689Y1405245D02*
Y1470243D01*
X3367866Y964038D02*
X3427861D01*
X3397863Y934041D02*
Y994036D01*
X3978811Y1574983D02*
X4038806D01*
X4008808Y1544986D02*
Y1604981D01*
X4274387Y1279407D02*
X4334382D01*
X4304384Y1249409D02*
Y1309404D01*
X3663442Y668462D02*
X3723437D01*
X3693440Y638465D02*
Y698460D01*
X135000Y1522000D02*
X245000D01*
X190000Y1467000D02*
Y1577000D01*
X135000Y1776000D02*
X245000D01*
X190000Y1721000D02*
Y1831000D01*
X135000Y2030000D02*
X245000D01*
X190000Y1975000D02*
Y2085000D01*
X135000Y2284000D02*
X245000D01*
X190000Y2229000D02*
Y2339000D01*
X135000Y2538000D02*
X245000D01*
X190000Y2483000D02*
Y2593000D01*
X135000Y2792000D02*
X245000D01*
X190000Y2737000D02*
Y2847000D01*
X135000Y3046000D02*
X245000D01*
X190000Y2991000D02*
Y3101000D01*
X135000Y3300000D02*
X245000D01*
X190000Y3245000D02*
Y3355000D01*
X3580000Y2100000D02*
X3920000D01*
X3750000Y1930000D02*
Y2270000D01*
X880000Y2100000D02*
X1220000D01*
X1050000Y1930000D02*
Y2270000D01*
X1453490Y2365000D02*
X1486510D01*
X1470000Y2348490D02*
Y2381510D01*
X835990Y2542500D02*
X869010D01*
X852500Y2525990D02*
Y2559010D01*
X1695990Y2745000D02*
X1729010D01*
X1712500Y2728490D02*
Y2761510D01*
X855990Y3302500D02*
X889010D01*
X872500Y3285990D02*
Y3319010D01*
X2398490Y2712500D02*
X2431510D01*
X2415000Y2695990D02*
Y2729010D01*
X2355990Y2645000D02*
X2389010D01*
X2372500Y2628490D02*
Y2661510D01*
X1805990Y3267500D02*
X1839010D01*
X1822500Y3250990D02*
Y3284010D01*
X3783490Y2757500D02*
X3816510D01*
X3800000Y2740990D02*
Y2774010D01*
X3693490Y2757500D02*
X3726510D01*
X3710000Y2740990D02*
Y2774010D01*
X3773490Y3435000D02*
X3806510D01*
X3790000Y3418490D02*
Y3451510D01*
X3633490Y3617500D02*
X3666510D01*
X3650000Y3600990D02*
Y3634010D01*
X1895990Y3522500D02*
X1929010D01*
X1912500Y3505990D02*
Y3539010D01*
X3165990Y2757500D02*
X3199010D01*
X3182500Y2740990D02*
Y2774010D01*
X1788490Y2912500D02*
X1821510D01*
X1805000Y2895990D02*
Y2929010D01*
X1890990Y3267500D02*
X1924010D01*
X1907500Y3250990D02*
Y3284010D01*
X1805990Y3387500D02*
X1839010D01*
X1822500Y3370990D02*
Y3404010D01*
X1808490Y3520000D02*
X1841510D01*
X1825000Y3503490D02*
Y3536510D01*
X1808490Y3642500D02*
X1841510D01*
X1825000Y3625990D02*
Y3659010D01*
X2585990Y2380000D02*
X2619010D01*
X2602500Y2363490D02*
Y2396510D01*
X2763490Y2382500D02*
X2796510D01*
X2780000Y2365990D02*
Y2399010D01*
X3995990Y3312500D02*
X4029010D01*
X4012500Y3295990D02*
Y3329010D01*
X1908490Y2357500D02*
X1941510D01*
X1925000Y2340990D02*
Y2374010D01*
X1720990Y2542500D02*
X1754010D01*
X1737500Y2525990D02*
Y2559010D01*
X2535990Y700000D02*
X2569010D01*
X2552500Y683490D02*
Y716510D01*
X2048490Y642500D02*
X2081510D01*
X2065000Y625990D02*
Y659010D01*
X2725990Y2187500D02*
X2759010D01*
X2742500Y2170990D02*
Y2204010D01*
X3053490Y1247500D02*
X3086510D01*
X3070000Y1230990D02*
Y1264010D01*
X1930990Y955000D02*
X1964010D01*
X1947500Y938490D02*
Y971510D01*
X3053490Y1540000D02*
X3086510D01*
X3070000Y1523490D02*
Y1556510D01*
X1628490Y1820000D02*
X1661510D01*
X1645000Y1803490D02*
Y1836510D01*
X3188490Y1985000D02*
X3221510D01*
X3205000Y1968490D02*
Y2001510D01*
X2410990Y2155000D02*
X2444010D01*
X2427500Y2138490D02*
Y2171510D01*
X2260990Y1932500D02*
X2294010D01*
X2277500Y1915990D02*
Y1949010D01*
X2323490Y1410000D02*
X2356510D01*
X2340000Y1393490D02*
Y1426510D01*
X3213490Y3460000D02*
X3246510D01*
X3230000Y3443490D02*
Y3476510D01*
X1608490Y3927500D02*
X1641510D01*
X1625000Y3910990D02*
Y3944010D01*
X1055990Y1121079D02*
X1089010D01*
X1072500Y1104569D02*
Y1137589D01*
X1368490Y1815000D02*
X1401510D01*
X1385000Y1798490D02*
Y1831510D01*
X1498490Y2262500D02*
X1531510D01*
X1515000Y2245990D02*
Y2279010D01*
X1713490Y2365000D02*
X1746510D01*
X1730000Y2348490D02*
Y2381510D01*
X2313490Y2712500D02*
X2346510D01*
X2330000Y2695990D02*
Y2729010D01*
X2225990Y2712500D02*
X2259010D01*
X2242500Y2695990D02*
Y2729010D01*
X2140990Y2712500D02*
X2174010D01*
X2157500Y2695990D02*
Y2729010D01*
X2055990Y2712500D02*
X2089010D01*
X2072500Y2695990D02*
Y2729010D01*
X1970990Y2712500D02*
X2004010D01*
X1987500Y2695990D02*
Y2729010D01*
X2038490Y2322500D02*
X2071510D01*
X2055000Y2305990D02*
Y2339010D01*
X1618490Y2360000D02*
X1651510D01*
X1635000Y2343490D02*
Y2376510D01*
X3823490Y1152500D02*
X3856510D01*
X3840000Y1135990D02*
Y1169010D01*
X1675990Y1470000D02*
X1709010D01*
X1692500Y1453490D02*
Y1486510D01*
X2753490Y1667500D02*
X2786510D01*
X2770000Y1650990D02*
Y1684010D01*
X3340990Y2387500D02*
X3374010D01*
X3357500Y2370990D02*
Y2404010D01*
X1385990Y2845000D02*
X1419010D01*
X1402500Y2828490D02*
Y2861510D01*
X1388490Y2940000D02*
X1421510D01*
X1405000Y2923490D02*
Y2956510D01*
X403490Y1269731D02*
X436510D01*
X420000Y1253221D02*
Y1286241D01*
X1060721Y612500D02*
X1093741D01*
X1077231Y595990D02*
Y629010D01*
X763490Y997500D02*
X796510D01*
X780000Y980990D02*
Y1014010D01*
X1193490Y3120000D02*
X1226510D01*
X1210000Y3103490D02*
Y3136510D01*
X1273490Y3465000D02*
X1306510D01*
X1290000Y3448490D02*
Y3481510D01*
X1568490Y3392500D02*
X1601510D01*
X1585000Y3375990D02*
Y3409010D01*
X3932026Y3382500D02*
X3965046D01*
X3948536Y3365990D02*
Y3399010D01*
X3860605Y3452500D02*
X3893625D01*
X3877115Y3435990D02*
Y3469010D01*
X1068490Y3611036D02*
X1101510D01*
X1085000Y3594526D02*
Y3627546D01*
X998490Y3539615D02*
X1031510D01*
X1015000Y3523105D02*
Y3556125D01*
X3789148Y3522500D02*
X3822168D01*
X3805658Y3505990D02*
Y3539010D01*
X3718490Y3595000D02*
X3751510D01*
X3735000Y3578490D02*
Y3611510D01*
X855227Y3400000D02*
X888247D01*
X871737Y3383490D02*
Y3416510D01*
X925990Y3470000D02*
X959010D01*
X942500Y3453490D02*
Y3486510D01*
X3255990Y2757500D02*
X3289010D01*
X3272500Y2740990D02*
Y2774010D01*
X3343490Y2757500D02*
X3376510D01*
X3360000Y2740990D02*
Y2774010D01*
X3605990Y2757500D02*
X3639010D01*
X3622500Y2740990D02*
Y2774010D01*
X3518490Y2757500D02*
X3551510D01*
X3535000Y2740990D02*
Y2774010D01*
X3430990Y2757500D02*
X3464010D01*
X3447500Y2740990D02*
Y2774010D01*
X3220990Y4222500D02*
X3254010D01*
X3237500Y4205990D02*
Y4239010D01*
X1570990Y4222500D02*
X1604010D01*
X1587500Y4205990D02*
Y4239010D01*
X1805990Y2995000D02*
X1839010D01*
X1822500Y2978490D02*
Y3011510D01*
X1805990Y3085000D02*
X1839010D01*
X1822500Y3068490D02*
Y3101510D01*
X1805990Y3175000D02*
X1839010D01*
X1822500Y3158490D02*
Y3191510D01*
X1970990Y2927500D02*
X2004010D01*
X1987500Y2910990D02*
Y2944010D01*
X1885990Y2927500D02*
X1919010D01*
X1902500Y2910990D02*
Y2944010D01*
X1568490Y3267500D02*
X1601510D01*
X1585000Y3250990D02*
Y3284010D01*
X2475990Y3357500D02*
X2509010D01*
X2492500Y3340990D02*
Y3374010D01*
X2475990Y3520000D02*
X2509010D01*
X2492500Y3503490D02*
Y3536510D01*
X2310990Y3522500D02*
X2344010D01*
X2327500Y3505990D02*
Y3539010D01*
X2310990Y3357500D02*
X2344010D01*
X2327500Y3340990D02*
Y3374010D01*
X2230990Y3442500D02*
X2264010D01*
X2247500Y3425990D02*
Y3459010D01*
X2398490Y3605000D02*
X2431510D01*
X2415000Y3588490D02*
Y3621510D01*
X2478490Y3687500D02*
X2511510D01*
X2495000Y3670990D02*
Y3704010D01*
X2313490Y3687500D02*
X2346510D01*
X2330000Y3670990D02*
Y3704010D01*
X2230990Y3607500D02*
X2264010D01*
X2247500Y3590990D02*
Y3624010D01*
X2395990Y3440000D02*
X2429010D01*
X2412500Y3423490D02*
Y3456510D01*
X2560990Y3605000D02*
X2594010D01*
X2577500Y3588490D02*
Y3621510D01*
X2558490Y3442500D02*
X2591510D01*
X2575000Y3425990D02*
Y3459010D01*
%TF.MD5,1b1828b8f135dfcb047d781f3fb73663*%
M02*
