%TF.GenerationSoftware,Altium Limited,Altium Designer,24.10.1 (45)*%
G04 Layer_Color=8388736*
%FSLAX45Y45*%
%MOMM*%
%TF.SameCoordinates,EEF0193C-C13F-4000-B0C4-A13F86DA6223*%
%TF.FilePolarity,Negative*%
%TF.FileFunction,Soldermask,Top*%
%TF.Part,Single*%
G01*
G75*
%TA.AperFunction,SMDPad,CuDef*%
%ADD11R,0.40000X0.40000*%
%ADD17R,0.55000X1.70000*%
%ADD18R,1.00000X0.90000*%
%ADD31R,0.80000X0.90000*%
%TA.AperFunction,NonConductor*%
%ADD59C,0.00000*%
%TA.AperFunction,BGAPad,CuDef*%
%ADD60R,1.40320X1.40320*%
%TA.AperFunction,ConnectorPad*%
%ADD61R,0.60320X1.00320*%
%ADD62R,1.00320X0.60320*%
%TA.AperFunction,SMDPad,CuDef*%
%ADD63R,1.00320X1.00320*%
%ADD64R,1.00320X1.00320*%
%ADD65R,1.20320X1.00320*%
%ADD66C,0.80320*%
%ADD67R,1.60320X0.80320*%
G04:AMPARAMS|DCode=68|XSize=1.2032mm|YSize=3.7032mm|CornerRadius=0mm|HoleSize=0mm|Usage=FLASHONLY|Rotation=315.000|XOffset=0mm|YOffset=0mm|HoleType=Round|Shape=Rectangle|*
%AMROTATEDRECTD68*
4,1,4,-1.73468,-0.88388,0.88388,1.73468,1.73468,0.88388,-0.88388,-1.73468,-1.73468,-0.88388,0.0*
%
%ADD68ROTATEDRECTD68*%

G04:AMPARAMS|DCode=69|XSize=1.7032mm|YSize=3.6032mm|CornerRadius=0mm|HoleSize=0mm|Usage=FLASHONLY|Rotation=315.000|XOffset=0mm|YOffset=0mm|HoleType=Round|Shape=Rectangle|*
%AMROTATEDRECTD69*
4,1,4,-1.87610,-0.67175,0.67175,1.87610,1.87610,0.67175,-0.67175,-1.87610,-1.87610,-0.67175,0.0*
%
%ADD69ROTATEDRECTD69*%

G04:AMPARAMS|DCode=70|XSize=1.75311mm|YSize=0.80315mm|CornerRadius=0mm|HoleSize=0mm|Usage=FLASHONLY|Rotation=315.000|XOffset=0mm|YOffset=0mm|HoleType=Round|Shape=Rectangle|*
%AMROTATEDRECTD70*
4,1,4,-0.90377,0.33586,-0.33586,0.90377,0.90377,-0.33586,0.33586,-0.90377,-0.90377,0.33586,0.0*
%
%ADD70ROTATEDRECTD70*%

G04:AMPARAMS|DCode=71|XSize=2.0033mm|YSize=1.4031mm|CornerRadius=0mm|HoleSize=0mm|Usage=FLASHONLY|Rotation=315.000|XOffset=0mm|YOffset=0mm|HoleType=Round|Shape=Rectangle|*
%AMROTATEDRECTD71*
4,1,4,-1.20434,0.21220,-0.21220,1.20434,1.20434,-0.21220,0.21220,-1.20434,-1.20434,0.21220,0.0*
%
%ADD71ROTATEDRECTD71*%

%ADD72R,0.75320X0.55320*%
%ADD73R,0.55320X0.75320*%
%ADD74R,1.20320X1.10320*%
%ADD75R,1.10320X1.20320*%
%ADD76R,1.00320X1.20320*%
%ADD77R,1.42320X1.11320*%
G04:AMPARAMS|DCode=78|XSize=0.77826mm|YSize=1.35331mm|CornerRadius=0mm|HoleSize=0mm|Usage=FLASHONLY|Rotation=45.000|XOffset=0mm|YOffset=0mm|HoleType=Round|Shape=Rectangle|*
%AMROTATEDRECTD78*
4,1,4,0.20331,-0.75362,-0.75362,0.20331,-0.20331,0.75362,0.75362,-0.20331,0.20331,-0.75362,0.0*
%
%ADD78ROTATEDRECTD78*%

G04:AMPARAMS|DCode=79|XSize=0.47828mm|YSize=1.35331mm|CornerRadius=0mm|HoleSize=0mm|Usage=FLASHONLY|Rotation=45.000|XOffset=0mm|YOffset=0mm|HoleType=Round|Shape=Rectangle|*
%AMROTATEDRECTD79*
4,1,4,0.30937,-0.64757,-0.64757,0.30937,-0.30937,0.64757,0.64757,-0.30937,0.30937,-0.64757,0.0*
%
%ADD79ROTATEDRECTD79*%

G04:AMPARAMS|DCode=80|XSize=2.0033mm|YSize=1.4031mm|CornerRadius=0mm|HoleSize=0mm|Usage=FLASHONLY|Rotation=225.000|XOffset=0mm|YOffset=0mm|HoleType=Round|Shape=Rectangle|*
%AMROTATEDRECTD80*
4,1,4,0.21220,1.20434,1.20434,0.21220,-0.21220,-1.20434,-1.20434,-0.21220,0.21220,1.20434,0.0*
%
%ADD80ROTATEDRECTD80*%

G04:AMPARAMS|DCode=81|XSize=1.75311mm|YSize=0.80315mm|CornerRadius=0mm|HoleSize=0mm|Usage=FLASHONLY|Rotation=225.000|XOffset=0mm|YOffset=0mm|HoleType=Round|Shape=Rectangle|*
%AMROTATEDRECTD81*
4,1,4,0.33586,0.90377,0.90377,0.33586,-0.33586,-0.90377,-0.90377,-0.33586,0.33586,0.90377,0.0*
%
%ADD81ROTATEDRECTD81*%

%TA.AperFunction,ComponentPad*%
%ADD82C,1.82321*%
%ADD83C,1.72720*%
%ADD84C,0.85319*%
G04:AMPARAMS|DCode=85|XSize=2.4191mm|YSize=1.31115mm|CornerRadius=0mm|HoleSize=0mm|Usage=FLASHONLY|Rotation=135.000|XOffset=0mm|YOffset=0mm|HoleType=Round|Shape=Round|*
%AMOVALD85*
21,1,1.10795,1.31115,0.00000,0.00000,135.0*
1,1,1.31115,0.39172,-0.39172*
1,1,1.31115,-0.39172,0.39172*
%
%ADD85OVALD85*%

%TA.AperFunction,ViaPad*%
%ADD86C,3.75320*%
G36*
X2317500Y3617500D02*
X2177500D01*
Y3692500D01*
X2242500Y3757500D01*
X2317500D01*
Y3617500D01*
D02*
G37*
D11*
X2247500Y3687500D02*
D03*
D17*
X1505000Y4250000D02*
D03*
X3322500D02*
D03*
D18*
X1442500Y4045000D02*
D03*
X1282500D02*
D03*
Y4455000D02*
D03*
X1442500D02*
D03*
X3385000D02*
D03*
X3545000D02*
D03*
Y4045000D02*
D03*
X3385000D02*
D03*
D31*
X2025000Y1607500D02*
D03*
X2215000D02*
D03*
X2120000Y1807500D02*
D03*
D59*
X1482606Y325000D02*
G03*
X1482606Y325000I-86106J0D01*
G01*
X1736606D02*
G03*
X1736606Y325000I-86106J0D01*
G01*
X1990606D02*
G03*
X1990606Y325000I-86106J0D01*
G01*
X2244606D02*
G03*
X2244606Y325000I-86106J0D01*
G01*
X2498606D02*
G03*
X2498606Y325000I-86106J0D01*
G01*
X2752606D02*
G03*
X2752606Y325000I-86106J0D01*
G01*
X3006606D02*
G03*
X3006606Y325000I-86106J0D01*
G01*
X3260606D02*
G03*
X3260606Y325000I-86106J0D01*
G01*
X3514606D02*
G03*
X3514606Y325000I-86106J0D01*
G01*
D60*
X2247500Y3522500D02*
D03*
Y3357500D02*
D03*
X2412500D02*
D03*
X2577500D02*
D03*
Y3522500D02*
D03*
Y3687500D02*
D03*
X2412500D02*
D03*
Y3522500D02*
D03*
D61*
X1817500Y4222500D02*
D03*
X1902500D02*
D03*
X1987500D02*
D03*
X2072500D02*
D03*
X2157500D02*
D03*
X2242500D02*
D03*
X2327500D02*
D03*
X2412500D02*
D03*
X2497500D02*
D03*
X2582500D02*
D03*
X2667500D02*
D03*
X2752500D02*
D03*
X2837500D02*
D03*
X2922500D02*
D03*
X3007500D02*
D03*
Y2822500D02*
D03*
X2922500D02*
D03*
X2837500D02*
D03*
X2752500D02*
D03*
X2667500D02*
D03*
X2582500D02*
D03*
X2497500D02*
D03*
X2412500D02*
D03*
X2327500D02*
D03*
X2242500D02*
D03*
X2157500D02*
D03*
X2072500D02*
D03*
X1987500D02*
D03*
X1902500D02*
D03*
X1817500D02*
D03*
D62*
X3112500Y4117500D02*
D03*
Y4032500D02*
D03*
Y3947500D02*
D03*
Y3862500D02*
D03*
Y3777500D02*
D03*
Y3692500D02*
D03*
Y3607500D02*
D03*
Y3522500D02*
D03*
Y3437500D02*
D03*
Y3352500D02*
D03*
Y3267500D02*
D03*
Y3182500D02*
D03*
Y3097500D02*
D03*
Y3012500D02*
D03*
Y2927500D02*
D03*
X1712500D02*
D03*
Y3012500D02*
D03*
Y3097500D02*
D03*
Y3182500D02*
D03*
Y3267500D02*
D03*
Y3352500D02*
D03*
Y3437500D02*
D03*
Y3522500D02*
D03*
Y3607500D02*
D03*
Y3692500D02*
D03*
Y3777500D02*
D03*
Y3862500D02*
D03*
Y3947500D02*
D03*
Y4032500D02*
D03*
Y4117500D02*
D03*
D63*
X3112500Y2822500D02*
D03*
Y4222500D02*
D03*
X1712500Y2822500D02*
D03*
Y4222500D02*
D03*
D64*
X1994992Y2095009D02*
D03*
X1994992Y1945008D02*
D03*
X1534992Y1947508D02*
D03*
Y2097508D02*
D03*
X3212508Y2637492D02*
D03*
Y2487492D02*
D03*
X2599992Y2490008D02*
D03*
Y2640008D02*
D03*
D65*
X1687500Y2095000D02*
D03*
Y1945000D02*
D03*
X1845000D02*
D03*
Y2095000D02*
D03*
X2020000Y1235000D02*
D03*
Y1385000D02*
D03*
X2640000Y1880000D02*
D03*
Y1730000D02*
D03*
X1267500Y3757500D02*
D03*
Y3607500D02*
D03*
X1425000Y3757500D02*
D03*
Y3607500D02*
D03*
X1052500Y3267500D02*
D03*
Y3117500D02*
D03*
X3060000Y2637500D02*
D03*
Y2487500D02*
D03*
X3362500Y2637500D02*
D03*
Y2487500D02*
D03*
X2740000Y2490000D02*
D03*
Y2640000D02*
D03*
X3520000Y3602500D02*
D03*
Y3752500D02*
D03*
X3272500Y1290000D02*
D03*
Y1140000D02*
D03*
X1210000Y3202500D02*
D03*
Y3352500D02*
D03*
X1367500Y3352500D02*
D03*
Y3202500D02*
D03*
D66*
X1420000Y1250000D02*
D03*
X3615000Y1510000D02*
D03*
X3432500Y1370000D02*
D03*
X1057500Y1612500D02*
D03*
X1820000Y1237500D02*
D03*
X2907500Y1520000D02*
D03*
D67*
X1567500Y1565000D02*
D03*
Y1470000D02*
D03*
Y1375000D02*
D03*
X1817500D02*
D03*
Y1565000D02*
D03*
X2462500Y1410000D02*
D03*
Y1220000D02*
D03*
X2212500D02*
D03*
Y1315000D02*
D03*
Y1410000D02*
D03*
X1272500Y2750000D02*
D03*
Y2845000D02*
D03*
Y2940000D02*
D03*
X1022500D02*
D03*
Y2750000D02*
D03*
D68*
X1085741Y1417163D02*
D03*
X1227163Y1275741D02*
D03*
D69*
X512985Y1176746D02*
D03*
X986746Y702985D02*
D03*
D70*
X854923Y3558355D02*
D03*
X925651Y3629084D02*
D03*
X996362Y3699794D02*
D03*
X784212Y3487645D02*
D03*
D71*
X812500Y4067500D02*
D03*
X416507Y3671506D02*
D03*
D72*
X1992500Y2567500D02*
D03*
Y2517500D02*
D03*
Y2467500D02*
D03*
Y2417500D02*
D03*
X2217500D02*
D03*
Y2467500D02*
D03*
Y2517500D02*
D03*
Y2567500D02*
D03*
D73*
X2055000Y2405000D02*
D03*
X2105000D02*
D03*
X2155000D02*
D03*
Y2580000D02*
D03*
X2105000D02*
D03*
X2055000D02*
D03*
D74*
X2655000Y1247500D02*
D03*
Y1382500D02*
D03*
X2975000Y1247500D02*
D03*
Y1382500D02*
D03*
X2815000Y1247500D02*
D03*
Y1382500D02*
D03*
X1382500Y1582500D02*
D03*
Y1717500D02*
D03*
X3652500Y3460000D02*
D03*
Y3325000D02*
D03*
X2902500Y2632500D02*
D03*
Y2497500D02*
D03*
X3362500Y3747500D02*
D03*
Y3612500D02*
D03*
X3492500Y3460000D02*
D03*
Y3325000D02*
D03*
X3332500Y3460000D02*
D03*
Y3325000D02*
D03*
X2370000Y2550000D02*
D03*
Y2415000D02*
D03*
X1842500Y2552500D02*
D03*
Y2417500D02*
D03*
D75*
X2770000Y1560000D02*
D03*
X2635000D02*
D03*
X1112500Y2592500D02*
D03*
X977500D02*
D03*
D76*
X1822500Y1702500D02*
D03*
X1672500D02*
D03*
X2427500Y2042500D02*
D03*
X2277500D02*
D03*
X3685000Y1697500D02*
D03*
X3835000D02*
D03*
D77*
X2437500Y1881000D02*
D03*
Y1554000D02*
D03*
D78*
X3888940Y1536440D02*
D03*
X3832382Y1479882D02*
D03*
X3492964Y1140464D02*
D03*
X3436407Y1083907D02*
D03*
D79*
X3786421Y1433921D02*
D03*
X3751057Y1398557D02*
D03*
X3715711Y1363211D02*
D03*
X3680346Y1327846D02*
D03*
X3645000Y1292500D02*
D03*
X3609636Y1257136D02*
D03*
X3574290Y1221790D02*
D03*
X3538925Y1186425D02*
D03*
D80*
X4021605Y4063712D02*
D03*
X4417599Y3667719D02*
D03*
D81*
X3837743Y3696007D02*
D03*
X4049893Y3483857D02*
D03*
X3979183Y3554568D02*
D03*
X3908454Y3625296D02*
D03*
D82*
X1396500Y325000D02*
D03*
X1650500D02*
D03*
X1904500D02*
D03*
X2158500D02*
D03*
X2412500D02*
D03*
X2666500D02*
D03*
X2920500D02*
D03*
X3174500D02*
D03*
X3428500D02*
D03*
D83*
X4640000Y3300500D02*
D03*
Y3046500D02*
D03*
Y2792500D02*
D03*
Y2538500D02*
D03*
Y2284500D02*
D03*
Y2030500D02*
D03*
Y1776500D02*
D03*
Y1522500D02*
D03*
X190000Y1522000D02*
D03*
Y1776000D02*
D03*
Y2030000D02*
D03*
Y2284000D02*
D03*
Y2538000D02*
D03*
Y2792000D02*
D03*
Y3046000D02*
D03*
Y3300000D02*
D03*
D84*
X3533335Y1029390D02*
D03*
X3941689Y1437744D02*
D03*
D85*
X3397863Y964038D02*
D03*
X4008808Y1574983D02*
D03*
X4304384Y1279407D02*
D03*
X3693440Y668462D02*
D03*
D86*
X3750000Y2100000D02*
D03*
X1050000D02*
D03*
%TF.MD5,e9fc1cf3da66aff96b83c403236c8e97*%
M02*
