%TF.GenerationSoftware,Altium Limited,Altium Designer,24.10.1 (45)*%
G04 Layer_Color=2752767*
%FSLAX45Y45*%
%MOMM*%
%TF.SameCoordinates,EEF0193C-C13F-4000-B0C4-A13F86DA6223*%
%TF.FilePolarity,Positive*%
%TF.FileFunction,Drawing*%
%TF.Part,Single*%
G01*
G75*
%TA.AperFunction,NonConductor*%
%ADD54C,0.12700*%
%ADD96C,0.16933*%
D54*
X1396500Y274200D02*
X1345700Y375800D01*
X1447300D01*
X1396500Y274200D01*
X1650500D02*
X1599700Y375800D01*
X1701300D01*
X1650500Y274200D01*
X1904500D02*
X1853700Y375800D01*
X1955300D01*
X1904500Y274200D01*
X2158500D02*
X2107700Y375800D01*
X2209300D01*
X2158500Y274200D01*
X2412500D02*
X2361700Y375800D01*
X2463300D01*
X2412500Y274200D01*
X2666500D02*
X2615700Y375800D01*
X2717300D01*
X2666500Y274200D01*
X2920500D02*
X2869700Y375800D01*
X2971300D01*
X2920500Y274200D01*
X3174500D02*
X3123700Y375800D01*
X3225300D01*
X3174500Y274200D01*
X3428500D02*
X3377700Y375800D01*
X3479300D01*
X3428500Y274200D01*
X4614600Y3275100D02*
Y3249700D01*
X4665400D01*
Y3275100D01*
X4690800D01*
Y3325900D01*
X4665400D01*
Y3351300D01*
X4614600D01*
Y3325900D01*
X4589200D01*
Y3275100D01*
X4614600D01*
Y3021100D02*
Y2995700D01*
X4665400D01*
Y3021100D01*
X4690800D01*
Y3071900D01*
X4665400D01*
Y3097300D01*
X4614600D01*
Y3071900D01*
X4589200D01*
Y3021100D01*
X4614600D01*
Y2767100D02*
Y2741700D01*
X4665400D01*
Y2767100D01*
X4690800D01*
Y2817900D01*
X4665400D01*
Y2843300D01*
X4614600D01*
Y2817900D01*
X4589200D01*
Y2767100D01*
X4614600D01*
Y2513100D02*
Y2487700D01*
X4665400D01*
Y2513100D01*
X4690800D01*
Y2563900D01*
X4665400D01*
Y2589300D01*
X4614600D01*
Y2563900D01*
X4589200D01*
Y2513100D01*
X4614600D01*
Y2259100D02*
Y2233700D01*
X4665400D01*
Y2259100D01*
X4690800D01*
Y2309900D01*
X4665400D01*
Y2335300D01*
X4614600D01*
Y2309900D01*
X4589200D01*
Y2259100D01*
X4614600D01*
Y2005100D02*
Y1979700D01*
X4665400D01*
Y2005100D01*
X4690800D01*
Y2055900D01*
X4665400D01*
Y2081300D01*
X4614600D01*
Y2055900D01*
X4589200D01*
Y2005100D01*
X4614600D01*
Y1751100D02*
Y1725700D01*
X4665400D01*
Y1751100D01*
X4690800D01*
Y1801900D01*
X4665400D01*
Y1827300D01*
X4614600D01*
Y1801900D01*
X4589200D01*
Y1751100D01*
X4614600D01*
Y1497100D02*
Y1471700D01*
X4665400D01*
Y1497100D01*
X4690800D01*
Y1547900D01*
X4665400D01*
Y1573300D01*
X4614600D01*
Y1547900D01*
X4589200D01*
Y1497100D01*
X4614600D01*
X3482535Y978590D02*
Y1080190D01*
X3584135D01*
Y978590D01*
X3482535D01*
X3890889Y1386944D02*
Y1488544D01*
X3992489D01*
Y1386944D01*
X3890889D01*
X164600Y1496600D02*
Y1471200D01*
X215400D01*
Y1496600D01*
X240800D01*
Y1547400D01*
X215400D01*
Y1572800D01*
X164600D01*
Y1547400D01*
X139200D01*
Y1496600D01*
X164600D01*
Y1750600D02*
Y1725200D01*
X215400D01*
Y1750600D01*
X240800D01*
Y1801400D01*
X215400D01*
Y1826800D01*
X164600D01*
Y1801400D01*
X139200D01*
Y1750600D01*
X164600D01*
Y2004600D02*
Y1979200D01*
X215400D01*
Y2004600D01*
X240800D01*
Y2055400D01*
X215400D01*
Y2080800D01*
X164600D01*
Y2055400D01*
X139200D01*
Y2004600D01*
X164600D01*
Y2258600D02*
Y2233200D01*
X215400D01*
Y2258600D01*
X240800D01*
Y2309400D01*
X215400D01*
Y2334800D01*
X164600D01*
Y2309400D01*
X139200D01*
Y2258600D01*
X164600D01*
Y2512600D02*
Y2487200D01*
X215400D01*
Y2512600D01*
X240800D01*
Y2563400D01*
X215400D01*
Y2588800D01*
X164600D01*
Y2563400D01*
X139200D01*
Y2512600D01*
X164600D01*
Y2766600D02*
Y2741200D01*
X215400D01*
Y2766600D01*
X240800D01*
Y2817400D01*
X215400D01*
Y2842800D01*
X164600D01*
Y2817400D01*
X139200D01*
Y2766600D01*
X164600D01*
Y3020600D02*
Y2995200D01*
X215400D01*
Y3020600D01*
X240800D01*
Y3071400D01*
X215400D01*
Y3096800D01*
X164600D01*
Y3071400D01*
X139200D01*
Y3020600D01*
X164600D01*
Y3274600D02*
Y3249200D01*
X215400D01*
Y3274600D01*
X240800D01*
Y3325400D01*
X215400D01*
Y3350800D01*
X164600D01*
Y3325400D01*
X139200D01*
Y3274600D01*
X164600D01*
X3699200Y2049200D02*
X3724600Y2100000D01*
X3699200Y2150800D01*
X3750000Y2125400D01*
X3800800Y2150800D01*
X3775400Y2100000D01*
X3800800Y2049200D01*
X3750000Y2074600D01*
X3699200Y2049200D01*
X999200D02*
X1024600Y2100000D01*
X999200Y2150800D01*
X1050000Y2125400D01*
X1100800Y2150800D01*
X1075400Y2100000D01*
X1100800Y2049200D01*
X1050000Y2074600D01*
X999200Y2049200D01*
X1419200Y2314200D02*
Y2415800D01*
X1520800D01*
Y2314200D01*
X1419200D01*
X1439520Y2334520D02*
Y2395480D01*
X1500480D01*
Y2334520D01*
X1439520D01*
X801700Y2491700D02*
Y2593300D01*
X903300D01*
Y2491700D01*
X801700D01*
X822020Y2512020D02*
Y2572980D01*
X882980D01*
Y2512020D01*
X822020D01*
X1661700Y2694200D02*
Y2795800D01*
X1763300D01*
Y2694200D01*
X1661700D01*
X1682020Y2714520D02*
Y2775480D01*
X1742980D01*
Y2714520D01*
X1682020D01*
X821700Y3251700D02*
Y3353300D01*
X923300D01*
Y3251700D01*
X821700D01*
X842020Y3272020D02*
Y3332980D01*
X902980D01*
Y3272020D01*
X842020D01*
X2364200Y2661700D02*
Y2763300D01*
X2465800D01*
Y2661700D01*
X2364200D01*
X2384520Y2682020D02*
Y2742980D01*
X2445480D01*
Y2682020D01*
X2384520D01*
X2321700Y2594200D02*
Y2695800D01*
X2423300D01*
Y2594200D01*
X2321700D01*
X2342020Y2614520D02*
Y2675480D01*
X2402980D01*
Y2614520D01*
X2342020D01*
X1771700Y3216700D02*
Y3318300D01*
X1873300D01*
Y3216700D01*
X1771700D01*
X1792020Y3237020D02*
Y3297980D01*
X1852980D01*
Y3237020D01*
X1792020D01*
X3749200Y2706700D02*
Y2808300D01*
X3850800D01*
Y2706700D01*
X3749200D01*
X3769520Y2727020D02*
Y2787980D01*
X3830480D01*
Y2727020D01*
X3769520D01*
X3659200Y2706700D02*
Y2808300D01*
X3760800D01*
Y2706700D01*
X3659200D01*
X3679520Y2727020D02*
Y2787980D01*
X3740480D01*
Y2727020D01*
X3679520D01*
X3739200Y3384200D02*
Y3485800D01*
X3840800D01*
Y3384200D01*
X3739200D01*
X3759520Y3404520D02*
Y3465480D01*
X3820480D01*
Y3404520D01*
X3759520D01*
X3599200Y3566700D02*
Y3668300D01*
X3700800D01*
Y3566700D01*
X3599200D01*
X3619520Y3587020D02*
Y3647980D01*
X3680480D01*
Y3587020D01*
X3619520D01*
X1861700Y3471700D02*
Y3573300D01*
X1963300D01*
Y3471700D01*
X1861700D01*
X1882020Y3492020D02*
Y3552980D01*
X1942980D01*
Y3492020D01*
X1882020D01*
X3131700Y2706700D02*
Y2808300D01*
X3233300D01*
Y2706700D01*
X3131700D01*
X3152020Y2727020D02*
Y2787980D01*
X3212980D01*
Y2727020D01*
X3152020D01*
X1754200Y2861700D02*
Y2963300D01*
X1855800D01*
Y2861700D01*
X1754200D01*
X1774520Y2882020D02*
Y2942980D01*
X1835480D01*
Y2882020D01*
X1774520D01*
X1856700Y3216700D02*
Y3318300D01*
X1958300D01*
Y3216700D01*
X1856700D01*
X1877020Y3237020D02*
Y3297980D01*
X1937980D01*
Y3237020D01*
X1877020D01*
X1771700Y3336700D02*
Y3438300D01*
X1873300D01*
Y3336700D01*
X1771700D01*
X1792020Y3357020D02*
Y3417980D01*
X1852980D01*
Y3357020D01*
X1792020D01*
X1774200Y3469200D02*
Y3570800D01*
X1875800D01*
Y3469200D01*
X1774200D01*
X1794520Y3489520D02*
Y3550480D01*
X1855480D01*
Y3489520D01*
X1794520D01*
X1774200Y3591700D02*
Y3693300D01*
X1875800D01*
Y3591700D01*
X1774200D01*
X1794520Y3612020D02*
Y3672980D01*
X1855480D01*
Y3612020D01*
X1794520D01*
X2551700Y2329200D02*
Y2430800D01*
X2653300D01*
Y2329200D01*
X2551700D01*
X2572020Y2349520D02*
Y2410480D01*
X2632980D01*
Y2349520D01*
X2572020D01*
X2729200Y2331700D02*
Y2433300D01*
X2830800D01*
Y2331700D01*
X2729200D01*
X2749520Y2352020D02*
Y2412980D01*
X2810480D01*
Y2352020D01*
X2749520D01*
X3961700Y3261700D02*
Y3363300D01*
X4063300D01*
Y3261700D01*
X3961700D01*
X3982020Y3282020D02*
Y3342980D01*
X4042980D01*
Y3282020D01*
X3982020D01*
X1874200Y2306700D02*
Y2408300D01*
X1975800D01*
Y2306700D01*
X1874200D01*
X1894520Y2327020D02*
Y2387980D01*
X1955480D01*
Y2327020D01*
X1894520D01*
X1686700Y2491700D02*
Y2593300D01*
X1788300D01*
Y2491700D01*
X1686700D01*
X1707020Y2512020D02*
Y2572980D01*
X1767980D01*
Y2512020D01*
X1707020D01*
X2501700Y649200D02*
Y750800D01*
X2603300D01*
Y649200D01*
X2501700D01*
X2522020Y669520D02*
Y730480D01*
X2582980D01*
Y669520D01*
X2522020D01*
X2014200Y591700D02*
Y693300D01*
X2115800D01*
Y591700D01*
X2014200D01*
X2034520Y612020D02*
Y672980D01*
X2095480D01*
Y612020D01*
X2034520D01*
X2691700Y2136700D02*
Y2238300D01*
X2793300D01*
Y2136700D01*
X2691700D01*
X2712020Y2157020D02*
Y2217980D01*
X2772980D01*
Y2157020D01*
X2712020D01*
X3019200Y1196700D02*
Y1298300D01*
X3120800D01*
Y1196700D01*
X3019200D01*
X3039520Y1217020D02*
Y1277980D01*
X3100480D01*
Y1217020D01*
X3039520D01*
X1896700Y904200D02*
Y1005800D01*
X1998300D01*
Y904200D01*
X1896700D01*
X1917020Y924520D02*
Y985480D01*
X1977980D01*
Y924520D01*
X1917020D01*
X3019200Y1489200D02*
Y1590800D01*
X3120800D01*
Y1489200D01*
X3019200D01*
X3039520Y1509520D02*
Y1570480D01*
X3100480D01*
Y1509520D01*
X3039520D01*
X1594200Y1769200D02*
Y1870800D01*
X1695800D01*
Y1769200D01*
X1594200D01*
X1614520Y1789520D02*
Y1850480D01*
X1675480D01*
Y1789520D01*
X1614520D01*
X3154200Y1934200D02*
Y2035800D01*
X3255800D01*
Y1934200D01*
X3154200D01*
X3174520Y1954520D02*
Y2015480D01*
X3235480D01*
Y1954520D01*
X3174520D01*
X2376700Y2104200D02*
Y2205800D01*
X2478300D01*
Y2104200D01*
X2376700D01*
X2397020Y2124520D02*
Y2185480D01*
X2457980D01*
Y2124520D01*
X2397020D01*
X2226700Y1881700D02*
Y1983300D01*
X2328300D01*
Y1881700D01*
X2226700D01*
X2247020Y1902020D02*
Y1962980D01*
X2307980D01*
Y1902020D01*
X2247020D01*
X2289200Y1359200D02*
Y1460800D01*
X2390800D01*
Y1359200D01*
X2289200D01*
X2309520Y1379520D02*
Y1440480D01*
X2370480D01*
Y1379520D01*
X2309520D01*
X3179200Y3409200D02*
Y3510800D01*
X3280800D01*
Y3409200D01*
X3179200D01*
X3199520Y3429520D02*
Y3490480D01*
X3260480D01*
Y3429520D01*
X3199520D01*
X1574200Y3876700D02*
Y3978300D01*
X1675800D01*
Y3876700D01*
X1574200D01*
X1594520Y3897020D02*
Y3957980D01*
X1655480D01*
Y3897020D01*
X1594520D01*
X1021700Y1070279D02*
Y1171879D01*
X1123300D01*
Y1070279D01*
X1021700D01*
X1042020Y1090599D02*
Y1151559D01*
X1102980D01*
Y1090599D01*
X1042020D01*
X1334200Y1764200D02*
Y1865800D01*
X1435800D01*
Y1764200D01*
X1334200D01*
X1354520Y1784520D02*
Y1845480D01*
X1415480D01*
Y1784520D01*
X1354520D01*
X1464200Y2211700D02*
Y2313300D01*
X1565800D01*
Y2211700D01*
X1464200D01*
X1484520Y2232020D02*
Y2292980D01*
X1545480D01*
Y2232020D01*
X1484520D01*
X1679200Y2314200D02*
Y2415800D01*
X1780800D01*
Y2314200D01*
X1679200D01*
X1699520Y2334520D02*
Y2395480D01*
X1760480D01*
Y2334520D01*
X1699520D01*
X2279200Y2661700D02*
Y2763300D01*
X2380800D01*
Y2661700D01*
X2279200D01*
X2299520Y2682020D02*
Y2742980D01*
X2360480D01*
Y2682020D01*
X2299520D01*
X2191700Y2661700D02*
Y2763300D01*
X2293300D01*
Y2661700D01*
X2191700D01*
X2212020Y2682020D02*
Y2742980D01*
X2272980D01*
Y2682020D01*
X2212020D01*
X2106700Y2661700D02*
Y2763300D01*
X2208300D01*
Y2661700D01*
X2106700D01*
X2127020Y2682020D02*
Y2742980D01*
X2187980D01*
Y2682020D01*
X2127020D01*
X2021700Y2661700D02*
Y2763300D01*
X2123300D01*
Y2661700D01*
X2021700D01*
X2042020Y2682020D02*
Y2742980D01*
X2102980D01*
Y2682020D01*
X2042020D01*
X1936700Y2661700D02*
Y2763300D01*
X2038300D01*
Y2661700D01*
X1936700D01*
X1957020Y2682020D02*
Y2742980D01*
X2017980D01*
Y2682020D01*
X1957020D01*
X2004200Y2271700D02*
Y2373300D01*
X2105800D01*
Y2271700D01*
X2004200D01*
X2024520Y2292020D02*
Y2352980D01*
X2085480D01*
Y2292020D01*
X2024520D01*
X1584200Y2309200D02*
Y2410800D01*
X1685800D01*
Y2309200D01*
X1584200D01*
X1604520Y2329520D02*
Y2390480D01*
X1665480D01*
Y2329520D01*
X1604520D01*
X3789200Y1101700D02*
Y1203300D01*
X3890800D01*
Y1101700D01*
X3789200D01*
X3809520Y1122020D02*
Y1182980D01*
X3870480D01*
Y1122020D01*
X3809520D01*
X1641700Y1419200D02*
Y1520800D01*
X1743300D01*
Y1419200D01*
X1641700D01*
X1662020Y1439520D02*
Y1500480D01*
X1722980D01*
Y1439520D01*
X1662020D01*
X2719200Y1616700D02*
Y1718300D01*
X2820800D01*
Y1616700D01*
X2719200D01*
X2739520Y1637020D02*
Y1697980D01*
X2800480D01*
Y1637020D01*
X2739520D01*
X3306700Y2336700D02*
Y2438300D01*
X3408300D01*
Y2336700D01*
X3306700D01*
X3327020Y2357020D02*
Y2417980D01*
X3387980D01*
Y2357020D01*
X3327020D01*
X1351700Y2794200D02*
Y2895800D01*
X1453300D01*
Y2794200D01*
X1351700D01*
X1372020Y2814520D02*
Y2875480D01*
X1432980D01*
Y2814520D01*
X1372020D01*
X1354200Y2889200D02*
Y2990800D01*
X1455800D01*
Y2889200D01*
X1354200D01*
X1374520Y2909520D02*
Y2970480D01*
X1435480D01*
Y2909520D01*
X1374520D01*
X369200Y1218931D02*
Y1320531D01*
X470800D01*
Y1218931D01*
X369200D01*
X389520Y1239251D02*
Y1300211D01*
X450480D01*
Y1239251D01*
X389520D01*
X1026431Y561700D02*
Y663300D01*
X1128031D01*
Y561700D01*
X1026431D01*
X1046751Y582020D02*
Y642980D01*
X1107711D01*
Y582020D01*
X1046751D01*
X729200Y946700D02*
Y1048300D01*
X830800D01*
Y946700D01*
X729200D01*
X749520Y967020D02*
Y1027980D01*
X810480D01*
Y967020D01*
X749520D01*
X1159200Y3069200D02*
Y3170800D01*
X1260800D01*
Y3069200D01*
X1159200D01*
X1179520Y3089520D02*
Y3150480D01*
X1240480D01*
Y3089520D01*
X1179520D01*
X1239200Y3414200D02*
Y3515800D01*
X1340800D01*
Y3414200D01*
X1239200D01*
X1259520Y3434520D02*
Y3495480D01*
X1320480D01*
Y3434520D01*
X1259520D01*
X1534200Y3341700D02*
Y3443300D01*
X1635800D01*
Y3341700D01*
X1534200D01*
X1554520Y3362020D02*
Y3422980D01*
X1615480D01*
Y3362020D01*
X1554520D01*
X3897736Y3331700D02*
Y3433300D01*
X3999336D01*
Y3331700D01*
X3897736D01*
X3918056Y3352020D02*
Y3412980D01*
X3979016D01*
Y3352020D01*
X3918056D01*
X3826315Y3401700D02*
Y3503300D01*
X3927915D01*
Y3401700D01*
X3826315D01*
X3846635Y3422020D02*
Y3482980D01*
X3907595D01*
Y3422020D01*
X3846635D01*
X1034200Y3560236D02*
Y3661836D01*
X1135800D01*
Y3560236D01*
X1034200D01*
X1054520Y3580556D02*
Y3641516D01*
X1115480D01*
Y3580556D01*
X1054520D01*
X964200Y3488815D02*
Y3590415D01*
X1065800D01*
Y3488815D01*
X964200D01*
X984520Y3509135D02*
Y3570095D01*
X1045480D01*
Y3509135D01*
X984520D01*
X3754858Y3471700D02*
Y3573300D01*
X3856458D01*
Y3471700D01*
X3754858D01*
X3775178Y3492020D02*
Y3552980D01*
X3836138D01*
Y3492020D01*
X3775178D01*
X3684200Y3544200D02*
Y3645800D01*
X3785800D01*
Y3544200D01*
X3684200D01*
X3704520Y3564520D02*
Y3625480D01*
X3765480D01*
Y3564520D01*
X3704520D01*
X820937Y3349200D02*
Y3450800D01*
X922537D01*
Y3349200D01*
X820937D01*
X841257Y3369520D02*
Y3430480D01*
X902217D01*
Y3369520D01*
X841257D01*
X891700Y3419200D02*
Y3520800D01*
X993300D01*
Y3419200D01*
X891700D01*
X912020Y3439520D02*
Y3500480D01*
X972980D01*
Y3439520D01*
X912020D01*
X3221700Y2706700D02*
Y2808300D01*
X3323300D01*
Y2706700D01*
X3221700D01*
X3242020Y2727020D02*
Y2787980D01*
X3302980D01*
Y2727020D01*
X3242020D01*
X3309200Y2706700D02*
Y2808300D01*
X3410800D01*
Y2706700D01*
X3309200D01*
X3329520Y2727020D02*
Y2787980D01*
X3390480D01*
Y2727020D01*
X3329520D01*
X3571700Y2706700D02*
Y2808300D01*
X3673300D01*
Y2706700D01*
X3571700D01*
X3592020Y2727020D02*
Y2787980D01*
X3652980D01*
Y2727020D01*
X3592020D01*
X3484200Y2706700D02*
Y2808300D01*
X3585800D01*
Y2706700D01*
X3484200D01*
X3504520Y2727020D02*
Y2787980D01*
X3565480D01*
Y2727020D01*
X3504520D01*
X3396700Y2706700D02*
Y2808300D01*
X3498300D01*
Y2706700D01*
X3396700D01*
X3417020Y2727020D02*
Y2787980D01*
X3477980D01*
Y2727020D01*
X3417020D01*
X3186700Y4171700D02*
Y4273300D01*
X3288300D01*
Y4171700D01*
X3186700D01*
X3207020Y4192020D02*
Y4252980D01*
X3267980D01*
Y4192020D01*
X3207020D01*
X1536700Y4171700D02*
Y4273300D01*
X1638300D01*
Y4171700D01*
X1536700D01*
X1557020Y4192020D02*
Y4252980D01*
X1617980D01*
Y4192020D01*
X1557020D01*
X1771700Y2944200D02*
Y3045800D01*
X1873300D01*
Y2944200D01*
X1771700D01*
X1792020Y2964520D02*
Y3025480D01*
X1852980D01*
Y2964520D01*
X1792020D01*
X1771700Y3034200D02*
Y3135800D01*
X1873300D01*
Y3034200D01*
X1771700D01*
X1792020Y3054520D02*
Y3115480D01*
X1852980D01*
Y3054520D01*
X1792020D01*
X1771700Y3124200D02*
Y3225800D01*
X1873300D01*
Y3124200D01*
X1771700D01*
X1792020Y3144520D02*
Y3205480D01*
X1852980D01*
Y3144520D01*
X1792020D01*
X1936700Y2876700D02*
Y2978300D01*
X2038300D01*
Y2876700D01*
X1936700D01*
X1957020Y2897020D02*
Y2957980D01*
X2017980D01*
Y2897020D01*
X1957020D01*
X1851700Y2876700D02*
Y2978300D01*
X1953300D01*
Y2876700D01*
X1851700D01*
X1872020Y2897020D02*
Y2957980D01*
X1932980D01*
Y2897020D01*
X1872020D01*
X1534200Y3216700D02*
Y3318300D01*
X1635800D01*
Y3216700D01*
X1534200D01*
X1554520Y3237020D02*
Y3297980D01*
X1615480D01*
Y3237020D01*
X1554520D01*
X2441700Y3306700D02*
Y3408300D01*
X2543300D01*
Y3306700D01*
X2441700D01*
X2462020Y3327020D02*
Y3387980D01*
X2522980D01*
Y3327020D01*
X2462020D01*
X2441700Y3469200D02*
Y3570800D01*
X2543300D01*
Y3469200D01*
X2441700D01*
X2462020Y3489520D02*
Y3550480D01*
X2522980D01*
Y3489520D01*
X2462020D01*
X2276700Y3471700D02*
Y3573300D01*
X2378300D01*
Y3471700D01*
X2276700D01*
X2297020Y3492020D02*
Y3552980D01*
X2357980D01*
Y3492020D01*
X2297020D01*
X2276700Y3306700D02*
Y3408300D01*
X2378300D01*
Y3306700D01*
X2276700D01*
X2297020Y3327020D02*
Y3387980D01*
X2357980D01*
Y3327020D01*
X2297020D01*
X2196700Y3391700D02*
Y3493300D01*
X2298300D01*
Y3391700D01*
X2196700D01*
X2217020Y3412020D02*
Y3472980D01*
X2277980D01*
Y3412020D01*
X2217020D01*
X2364200Y3554200D02*
Y3655800D01*
X2465800D01*
Y3554200D01*
X2364200D01*
X2384520Y3574520D02*
Y3635480D01*
X2445480D01*
Y3574520D01*
X2384520D01*
X2444200Y3636700D02*
Y3738300D01*
X2545800D01*
Y3636700D01*
X2444200D01*
X2464520Y3657020D02*
Y3717980D01*
X2525480D01*
Y3657020D01*
X2464520D01*
X2279200Y3636700D02*
Y3738300D01*
X2380800D01*
Y3636700D01*
X2279200D01*
X2299520Y3657020D02*
Y3717980D01*
X2360480D01*
Y3657020D01*
X2299520D01*
X2196700Y3556700D02*
Y3658300D01*
X2298300D01*
Y3556700D01*
X2196700D01*
X2217020Y3577020D02*
Y3637980D01*
X2277980D01*
Y3577020D01*
X2217020D01*
X2361700Y3389200D02*
Y3490800D01*
X2463300D01*
Y3389200D01*
X2361700D01*
X2382020Y3409520D02*
Y3470480D01*
X2442980D01*
Y3409520D01*
X2382020D01*
X2526700Y3554200D02*
Y3655800D01*
X2628300D01*
Y3554200D01*
X2526700D01*
X2547020Y3574520D02*
Y3635480D01*
X2607980D01*
Y3574520D01*
X2547020D01*
X2524200Y3391700D02*
Y3493300D01*
X2625800D01*
Y3391700D01*
X2524200D01*
X2544520Y3412020D02*
Y3472980D01*
X2605480D01*
Y3412020D01*
X2544520D01*
D96*
X3448663Y964038D02*
G03*
X3448663Y964038I-50800J0D01*
G01*
X4059608Y1574983D02*
G03*
X4059608Y1574983I-50800J0D01*
G01*
X4355184Y1279407D02*
G03*
X4355184Y1279407I-50800J0D01*
G01*
X3744240Y668462D02*
G03*
X3744240Y668462I-50800J0D01*
G01*
%TF.MD5,4c246813d585feac5a6b32493410465d*%
M02*
